<?xml version="1.0" encoding="UTF-8" standalone="no"?>
<!DOCTYPE svg PUBLIC "-//W3C//DTD SVG 1.1//EN"
 "http://www.w3.org/Graphics/SVG/1.1/DTD/svg11.dtd">
<!-- Generated by graphviz version 13.0.0 (20250608.1624)
 -->
<!-- Title: DependencyGraph Pages: 1 -->
<svg width="1462pt" height="581pt"
 viewBox="0.00 0.00 1462.00 581.00" xmlns="http://www.w3.org/2000/svg" xmlns:xlink="http://www.w3.org/1999/xlink">
<g id="graph0" class="graph" transform="scale(1 1) rotate(0) translate(4 577)">
<title>DependencyGraph</title>
<polygon fill="white" stroke="none" points="-4,4 -4,-577 1457.54,-577 1457.54,4 -4,4"/>
<g id="clust1" class="cluster">
<title>cluster_0</title>
<path fill="#d63031" fill-opacity="0.188235" stroke="#d63031" stroke-width="2" d="M32.16,-392.25C32.16,-392.25 118.16,-392.25 118.16,-392.25 124.16,-392.25 130.16,-398.25 130.16,-404.25 130.16,-404.25 130.16,-553 130.16,-553 130.16,-559 124.16,-565 118.16,-565 118.16,-565 32.16,-565 32.16,-565 26.16,-565 20.16,-559 20.16,-553 20.16,-553 20.16,-404.25 20.16,-404.25 20.16,-398.25 26.16,-392.25 32.16,-392.25"/>
<text xml:space="preserve" text-anchor="middle" x="75.16" y="-549.6" font-family="Helvetica,sans-Serif" font-weight="bold" font-size="12.00">Main Application</text>
</g>
<g id="clust2" class="cluster">
<title>cluster_1</title>
<path fill="#00b894" fill-opacity="0.188235" stroke="#00b894" stroke-width="2" d="M30.16,-8C30.16,-8 172.16,-8 172.16,-8 178.16,-8 184.16,-14 184.16,-20 184.16,-20 184.16,-249.5 184.16,-249.5 184.16,-255.5 178.16,-261.5 172.16,-261.5 172.16,-261.5 30.16,-261.5 30.16,-261.5 24.16,-261.5 18.16,-255.5 18.16,-249.5 18.16,-249.5 18.16,-20 18.16,-20 18.16,-14 24.16,-8 30.16,-8"/>
<text xml:space="preserve" text-anchor="middle" x="101.16" y="-246.1" font-family="Helvetica,sans-Serif" font-weight="bold" font-size="12.00">Core Foundation</text>
</g>
<g id="clust3" class="cluster">
<title>cluster_2</title>
<path fill="#fdcb6e" fill-opacity="0.188235" stroke="#fdcb6e" stroke-width="2" d="M204.16,-188.75C204.16,-188.75 622.16,-188.75 622.16,-188.75 628.16,-188.75 634.16,-194.75 634.16,-200.75 634.16,-200.75 634.16,-372.25 634.16,-372.25 634.16,-378.25 628.16,-384.25 622.16,-384.25 622.16,-384.25 204.16,-384.25 204.16,-384.25 198.16,-384.25 192.16,-378.25 192.16,-372.25 192.16,-372.25 192.16,-200.75 192.16,-200.75 192.16,-194.75 198.16,-188.75 204.16,-188.75"/>
<text xml:space="preserve" text-anchor="middle" x="413.16" y="-368.85" font-family="Helvetica,sans-Serif" font-weight="bold" font-size="12.00">UI Features</text>
</g>
<g id="clust4" class="cluster">
<title>cluster_3</title>
<path fill="#00b894" fill-opacity="0.188235" stroke="#00b894" stroke-width="2" d="M1096.16,-8C1096.16,-8 1428.16,-8 1428.16,-8 1434.16,-8 1440.16,-14 1440.16,-20 1440.16,-20 1440.16,-168.75 1440.16,-168.75 1440.16,-174.75 1434.16,-180.75 1428.16,-180.75 1428.16,-180.75 1096.16,-180.75 1096.16,-180.75 1090.16,-180.75 1084.16,-174.75 1084.16,-168.75 1084.16,-168.75 1084.16,-20 1084.16,-20 1084.16,-14 1090.16,-8 1096.16,-8"/>
<text xml:space="preserve" text-anchor="middle" x="1262.16" y="-165.35" font-family="Helvetica,sans-Serif" font-weight="bold" font-size="12.00">Infrastructure</text>
</g>
<!-- AirAsFramework -->
<g id="node1" class="node">
<title>AirAsFramework</title>
<polygon fill="#ff6b6b" stroke="#d63031" stroke-width="2" points="122.54,-536.25 33.79,-536.25 33.79,-500.25 122.54,-500.25 122.54,-536.25"/>
<text xml:space="preserve" text-anchor="middle" x="78.16" y="-514.38" font-family="Helvetica,sans-Serif" font-size="10.00">AirAsFramework</text>
</g>
<!-- UICreateWallet -->
<g id="node2" class="node">
<title>UICreateWallet</title>
<polygon fill="#ff6b6b" stroke="#d63031" stroke-width="2" points="122.54,-486.25 39.79,-486.25 39.79,-450.25 122.54,-450.25 122.54,-486.25"/>
<text xml:space="preserve" text-anchor="middle" x="81.16" y="-464.38" font-family="Helvetica,sans-Serif" font-size="10.00">UICreateWallet</text>
</g>
<!-- AirAsFramework&#45;&gt;UICreateWallet -->
<g id="edge18" class="edge">
<title>AirAsFramework&#45;&gt;UICreateWallet</title>
<path fill="none" stroke="lightblue" d="M79.25,-499.92C79.29,-499.25 79.33,-498.57 79.37,-497.89"/>
<polygon fill="lightblue" stroke="lightblue" points="82.85,-498.42 79.98,-488.23 75.86,-497.99 82.85,-498.42"/>
</g>
<!-- UIHome -->
<g id="node3" class="node">
<title>UIHome</title>
<polygon fill="#ff6b6b" stroke="#d63031" stroke-width="2" points="82.16,-436.25 28.16,-436.25 28.16,-400.25 82.16,-400.25 82.16,-436.25"/>
<text xml:space="preserve" text-anchor="middle" x="55.16" y="-414.38" font-family="Helvetica,sans-Serif" font-size="10.00">UIHome</text>
</g>
<!-- AirAsFramework&#45;&gt;UIHome -->
<g id="edge16" class="edge">
<title>AirAsFramework&#45;&gt;UIHome</title>
<path fill="none" stroke="lightblue" d="M6.16,-467.25C3.26,-456.07 9.59,-446.47 18.58,-438.86"/>
<polygon fill="lightblue" stroke="lightblue" points="20.52,-441.77 26.56,-433.07 16.41,-436.11 20.52,-441.77"/>
</g>
<!-- Ledger -->
<g id="node4" class="node">
<title>Ledger</title>
<polygon fill="#4ecdc4" stroke="#00b894" stroke-width="2" points="176.16,-232.75 122.16,-232.75 122.16,-196.75 176.16,-196.75 176.16,-232.75"/>
<text xml:space="preserve" text-anchor="middle" x="149.16" y="-210.88" font-family="Helvetica,sans-Serif" font-size="10.00">Ledger</text>
</g>
<!-- AirAsFramework&#45;&gt;Ledger -->
<g id="edge25" class="edge">
<title>AirAsFramework&#45;&gt;Ledger</title>
<path fill="none" stroke="lightgray" stroke-width="0.5" d="M738.16,-417.25C627.55,-365.27 284.43,-460.81 189.16,-384.25 172.69,-371.01 177.29,-359.61 176.16,-338.5"/>
<path fill="none" stroke="lightgray" stroke-width="0.5" d="M176.16,-336.5C174.43,-303.95 165.26,-267.56 158.08,-243.32"/>
<polygon fill="lightgray" stroke="lightgray" stroke-width="0.5" points="161.45,-242.36 155.18,-233.82 154.76,-244.4 161.45,-242.36"/>
<path fill="none" stroke="lightgray" stroke-width="0.5" d="M828.16,-467.25C848.46,-426.72 779.19,-438.53 738.16,-419.25"/>
</g>
<!-- UIComponents -->
<g id="node6" class="node">
<title>UIComponents</title>
<polygon fill="#4ecdc4" stroke="#00b894" stroke-width="2" points="176.16,-152 94.16,-152 94.16,-116 176.16,-116 176.16,-152"/>
<text xml:space="preserve" text-anchor="middle" x="135.16" y="-130.12" font-family="Helvetica,sans-Serif" font-size="10.00">UIComponents</text>
</g>
<!-- AirAsFramework&#45;&gt;UIComponents -->
<g id="edge19" class="edge">
<title>AirAsFramework&#45;&gt;UIComponents</title>
<path fill="none" stroke="lightgray" stroke-width="0.5" d="M1068.16,-417.25C1120.47,-352.93 796.03,-310.52 729.16,-261.5 694.19,-235.86 703.3,-207.41 664.16,-188.75 647.5,-180.8 516.56,-182.35 498.16,-180.75 386.81,-171.06 257.03,-153.08 186.77,-142.78"/>
<polygon fill="lightgray" stroke="lightgray" stroke-width="0.5" points="187.58,-139.36 177.18,-141.37 186.56,-146.29 187.58,-139.36"/>
<path fill="none" stroke="lightgray" stroke-width="0.5" d="M828.16,-467.25C847.07,-416.25 1041.63,-466.73 1068.16,-419.25"/>
</g>
<!-- UIPasscode -->
<g id="node7" class="node">
<title>UIPasscode</title>
<polygon fill="#4ecdc4" stroke="#00b894" stroke-width="2" points="108.16,-232.75 38.16,-232.75 38.16,-196.75 108.16,-196.75 108.16,-232.75"/>
<text xml:space="preserve" text-anchor="middle" x="73.16" y="-210.88" font-family="Helvetica,sans-Serif" font-size="10.00">UIPasscode</text>
</g>
<!-- AirAsFramework&#45;&gt;UIPasscode -->
<g id="edge14" class="edge">
<title>AirAsFramework&#45;&gt;UIPasscode</title>
<path fill="none" stroke="lightgray" stroke-width="0.5" d="M828.16,-467.25C836.57,-429.4 166.1,-407.63 135.16,-384.25 98.37,-356.44 97.83,-334.54 95.16,-288.5"/>
<path fill="none" stroke="lightgray" stroke-width="0.5" d="M122.87,-516.47C282.01,-513.44 812.28,-500.97 828.16,-469.25"/>
</g>
<!-- WalletContext -->
<g id="node8" class="node">
<title>WalletContext</title>
<polygon fill="#4ecdc4" stroke="#00b894" stroke-width="2" points="175.91,-52 98.41,-52 98.41,-16 175.91,-16 175.91,-52"/>
<text xml:space="preserve" text-anchor="middle" x="137.16" y="-30.12" font-family="Helvetica,sans-Serif" font-size="10.00">WalletContext</text>
</g>
<!-- AirAsFramework&#45;&gt;WalletContext -->
<g id="edge23" class="edge">
<title>AirAsFramework&#45;&gt;WalletContext</title>
<path fill="none" stroke="lightgray" stroke-width="0.5" d="M1128.16,-213.75C1112.92,-193.28 1095.95,-201.56 1081.16,-180.75 1068.92,-163.52 1080.6,-152.09 1068.16,-135"/>
</g>
<!-- WalletCore -->
<g id="node9" class="node">
<title>WalletCore</title>
<polygon fill="#4ecdc4" stroke="#00b894" stroke-width="2" points="176.16,-102 112.16,-102 112.16,-66 176.16,-66 176.16,-102"/>
<text xml:space="preserve" text-anchor="middle" x="144.16" y="-80.12" font-family="Helvetica,sans-Serif" font-size="10.00">WalletCore</text>
</g>
<!-- AirAsFramework&#45;&gt;WalletCore -->
<g id="edge22" class="edge">
<title>AirAsFramework&#45;&gt;WalletCore</title>
<path fill="none" stroke="lightgray" stroke-width="0.5" d="M1068.16,-417.25C1113.76,-335.69 1166.25,-301.08 1128.16,-215.75"/>
<path fill="none" stroke="lightgray" stroke-width="0.5" d="M1128.16,-213.75C1100.98,-162.48 672.72,-123.35 615.16,-116 458.21,-95.96 270.08,-88.51 187.09,-86.07"/>
<polygon fill="lightgray" stroke="lightgray" stroke-width="0.5" points="187.41,-82.57 177.32,-85.79 187.21,-89.57 187.41,-82.57"/>
</g>
<!-- UIAssets -->
<g id="node10" class="node">
<title>UIAssets</title>
<polygon fill="#ffe66d" stroke="#fdcb6e" points="567.79,-232.75 510.54,-232.75 510.54,-196.75 567.79,-196.75 567.79,-232.75"/>
<text xml:space="preserve" text-anchor="middle" x="539.16" y="-210.88" font-family="Helvetica,sans-Serif" font-size="10.00">UIAssets</text>
</g>
<!-- AirAsFramework&#45;&gt;UIAssets -->
<g id="edge12" class="edge">
<title>AirAsFramework&#45;&gt;UIAssets</title>
<path fill="none" stroke="lightblue" d="M828.16,-467.25C858.28,-404.48 830.49,-363.04 776.16,-319.5 730.76,-283.11 711.57,-283.8 655.16,-269.5 622.24,-261.15 609.31,-277.14 579.16,-261.5 570.28,-256.89 562.49,-249.41 556.2,-241.83"/>
<polygon fill="lightblue" stroke="lightblue" points="559.27,-240.09 550.44,-234.24 553.7,-244.33 559.27,-240.09"/>
</g>
<!-- UIDapp -->
<g id="node12" class="node">
<title>UIDapp</title>
<polygon fill="#ffe66d" stroke="#fdcb6e" points="466.16,-305.5 412.16,-305.5 412.16,-269.5 466.16,-269.5 466.16,-305.5"/>
<text xml:space="preserve" text-anchor="middle" x="439.16" y="-283.62" font-family="Helvetica,sans-Serif" font-size="10.00">UIDapp</text>
</g>
<!-- AirAsFramework&#45;&gt;UIDapp -->
<g id="edge29" class="edge">
<title>AirAsFramework&#45;&gt;UIDapp</title>
<path fill="none" stroke="lightblue" d="M176.16,-336.5C175.66,-327 180.78,-323.99 189.16,-319.5 228.84,-298.27 342.69,-315.5 400.57,-305.77"/>
<polygon fill="lightblue" stroke="lightblue" points="401.18,-309.22 410.21,-303.68 399.7,-302.38 401.18,-309.22"/>
</g>
<!-- UIEarn -->
<g id="node13" class="node">
<title>UIEarn</title>
<polygon fill="#ffe66d" stroke="#fdcb6e" points="254.16,-305.5 200.16,-305.5 200.16,-269.5 254.16,-269.5 254.16,-305.5"/>
<text xml:space="preserve" text-anchor="middle" x="227.16" y="-283.62" font-family="Helvetica,sans-Serif" font-size="10.00">UIEarn</text>
</g>
<!-- AirAsFramework&#45;&gt;UIEarn -->
<g id="edge15" class="edge">
<title>AirAsFramework&#45;&gt;UIEarn</title>
<path fill="none" stroke="lightblue" d="M176.16,-336.5C175.56,-325.21 182.13,-315.79 190.73,-308.37"/>
<polygon fill="lightblue" stroke="lightblue" points="192.67,-311.29 198.61,-302.52 188.5,-305.67 192.67,-311.29"/>
</g>
<!-- UIInAppBrowser -->
<g id="node14" class="node">
<title>UIInAppBrowser</title>
<polygon fill="#ffe66d" stroke="#fdcb6e" points="550.16,-355.5 462.16,-355.5 462.16,-319.5 550.16,-319.5 550.16,-355.5"/>
<text xml:space="preserve" text-anchor="middle" x="506.16" y="-333.62" font-family="Helvetica,sans-Serif" font-size="10.00">UIInAppBrowser</text>
</g>
<!-- AirAsFramework&#45;&gt;UIInAppBrowser -->
<g id="edge26" class="edge">
<title>AirAsFramework&#45;&gt;UIInAppBrowser</title>
<path fill="none" stroke="lightblue" d="M33.58,-501.02C21.05,-493.66 9.83,-483.35 6.16,-469.25"/>
<path fill="none" stroke="lightblue" d="M6.16,-467.25C-2.38,-434.35 -4.6,-414.43 21.16,-392.25 35.16,-380.2 168.78,-386.01 187.16,-384.25 279.84,-375.39 386.81,-358.72 450.34,-348.14"/>
<polygon fill="lightblue" stroke="lightblue" points="450.9,-351.59 460.19,-346.48 449.75,-344.69 450.9,-351.59"/>
</g>
<!-- UIQRScan -->
<g id="node15" class="node">
<title>UIQRScan</title>
<polygon fill="#ffe66d" stroke="#fdcb6e" points="352.16,-232.75 288.16,-232.75 288.16,-196.75 352.16,-196.75 352.16,-232.75"/>
<text xml:space="preserve" text-anchor="middle" x="320.16" y="-210.88" font-family="Helvetica,sans-Serif" font-size="10.00">UIQRScan</text>
</g>
<!-- AirAsFramework&#45;&gt;UIQRScan -->
<g id="edge24" class="edge">
<title>AirAsFramework&#45;&gt;UIQRScan</title>
<path fill="none" stroke="lightblue" d="M738.16,-417.25C665.25,-382.99 704.2,-307.49 633.16,-269.5 606.31,-255.14 386.63,-274.67 359.16,-261.5 350.2,-257.2 342.5,-249.77 336.38,-242.13"/>
<polygon fill="lightblue" stroke="lightblue" points="339.29,-240.17 330.59,-234.12 333.62,-244.28 339.29,-240.17"/>
</g>
<!-- UIReceive -->
<g id="node16" class="node">
<title>UIReceive</title>
<polygon fill="#ffe66d" stroke="#fdcb6e" points="428.41,-232.75 365.91,-232.75 365.91,-196.75 428.41,-196.75 428.41,-232.75"/>
<text xml:space="preserve" text-anchor="middle" x="397.16" y="-210.88" font-family="Helvetica,sans-Serif" font-size="10.00">UIReceive</text>
</g>
<!-- AirAsFramework&#45;&gt;UIReceive -->
<g id="edge13" class="edge">
<title>AirAsFramework&#45;&gt;UIReceive</title>
<path fill="none" stroke="lightblue" d="M738.16,-417.25C664.83,-383.91 703.99,-307.89 633.16,-269.5 594.45,-248.52 474.64,-281.01 435.16,-261.5 426.35,-257.14 418.83,-249.69 412.86,-242.05"/>
<polygon fill="lightblue" stroke="lightblue" points="415.87,-240.24 407.25,-234.08 410.14,-244.27 415.87,-240.24"/>
</g>
<!-- UISend -->
<g id="node17" class="node">
<title>UISend</title>
<polygon fill="#ffe66d" stroke="#fdcb6e" points="398.16,-305.5 344.16,-305.5 344.16,-269.5 398.16,-269.5 398.16,-305.5"/>
<text xml:space="preserve" text-anchor="middle" x="371.16" y="-283.62" font-family="Helvetica,sans-Serif" font-size="10.00">UISend</text>
</g>
<!-- AirAsFramework&#45;&gt;UISend -->
<g id="edge21" class="edge">
<title>AirAsFramework&#45;&gt;UISend</title>
<path fill="none" stroke="lightblue" d="M176.16,-336.5C175.66,-327 180.85,-324.11 189.16,-319.5 243.79,-289.22 270.63,-319.94 332.56,-306.15"/>
<polygon fill="lightblue" stroke="lightblue" points="333.39,-309.55 342.2,-303.66 331.65,-302.77 333.39,-309.55"/>
</g>
<!-- UISettings -->
<g id="node18" class="node">
<title>UISettings</title>
<polygon fill="#ffe66d" stroke="#fdcb6e" points="330.41,-305.5 267.91,-305.5 267.91,-269.5 330.41,-269.5 330.41,-305.5"/>
<text xml:space="preserve" text-anchor="middle" x="299.16" y="-283.62" font-family="Helvetica,sans-Serif" font-size="10.00">UISettings</text>
</g>
<!-- AirAsFramework&#45;&gt;UISettings -->
<g id="edge20" class="edge">
<title>AirAsFramework&#45;&gt;UISettings</title>
<path fill="none" stroke="lightblue" d="M176.16,-336.5C174.24,-300.51 221.19,-311.76 256.47,-305.91"/>
<polygon fill="lightblue" stroke="lightblue" points="257.04,-309.37 265.97,-303.67 255.43,-302.56 257.04,-309.37"/>
</g>
<!-- UISwap -->
<g id="node19" class="node">
<title>UISwap</title>
<polygon fill="#ffe66d" stroke="#fdcb6e" points="534.16,-305.5 480.16,-305.5 480.16,-269.5 534.16,-269.5 534.16,-305.5"/>
<text xml:space="preserve" text-anchor="middle" x="507.16" y="-283.62" font-family="Helvetica,sans-Serif" font-size="10.00">UISwap</text>
</g>
<!-- AirAsFramework&#45;&gt;UISwap -->
<g id="edge17" class="edge">
<title>AirAsFramework&#45;&gt;UISwap</title>
<path fill="none" stroke="lightblue" d="M176.16,-336.5C175.66,-327 180.74,-323.92 189.16,-319.5 242.27,-291.61 395.37,-318.49 468.65,-305.79"/>
<polygon fill="lightblue" stroke="lightblue" points="469.19,-309.25 478.22,-303.72 467.71,-302.41 469.19,-309.25"/>
</g>
<!-- UIToken -->
<g id="node20" class="node">
<title>UIToken</title>
<polygon fill="#ffe66d" stroke="#fdcb6e" points="496.16,-232.75 442.16,-232.75 442.16,-196.75 496.16,-196.75 496.16,-232.75"/>
<text xml:space="preserve" text-anchor="middle" x="469.16" y="-210.88" font-family="Helvetica,sans-Serif" font-size="10.00">UIToken</text>
</g>
<!-- AirAsFramework&#45;&gt;UIToken -->
<g id="edge27" class="edge">
<title>AirAsFramework&#45;&gt;UIToken</title>
<path fill="none" stroke="lightblue" d="M828.16,-467.25C853.86,-415.95 713.54,-295.04 662.16,-269.5 630.49,-253.75 534.36,-278.18 503.16,-261.5 495.06,-257.17 488.37,-249.97 483.12,-242.54"/>
<polygon fill="lightblue" stroke="lightblue" points="486.35,-241.1 478.07,-234.5 480.43,-244.83 486.35,-241.1"/>
</g>
<!-- UITransaction -->
<g id="node21" class="node">
<title>UITransaction</title>
<polygon fill="#ffe66d" stroke="#fdcb6e" points="625.91,-305.5 548.41,-305.5 548.41,-269.5 625.91,-269.5 625.91,-305.5"/>
<text xml:space="preserve" text-anchor="middle" x="587.16" y="-283.62" font-family="Helvetica,sans-Serif" font-size="10.00">UITransaction</text>
</g>
<!-- AirAsFramework&#45;&gt;UITransaction -->
<g id="edge28" class="edge">
<title>AirAsFramework&#45;&gt;UITransaction</title>
<path fill="none" stroke="lightblue" d="M176.16,-336.5C175.66,-327 180.72,-323.88 189.16,-319.5 221.73,-302.59 468.87,-311.81 536.9,-305.4"/>
<polygon fill="lightblue" stroke="lightblue" points="537.06,-308.91 546.5,-304.1 536.12,-301.97 537.06,-308.91"/>
</g>
<!-- UICreateWallet&#45;&gt;UIHome -->
<g id="edge53" class="edge">
<title>UICreateWallet&#45;&gt;UIHome</title>
<path fill="none" stroke="lightblue" d="M71.78,-449.92C71.2,-448.85 70.6,-447.75 70.01,-446.65"/>
<polygon fill="lightblue" stroke="lightblue" points="73.19,-445.17 65.35,-438.05 67.03,-448.51 73.19,-445.17"/>
</g>
<!-- UICreateWallet&#45;&gt;UIComponents -->
<g id="edge54" class="edge">
<title>UICreateWallet&#45;&gt;UIComponents</title>
<path fill="none" stroke="lightgray" stroke-width="0.5" d="M122.62,-464.61C252.24,-455.94 643.4,-426.46 680.16,-384.25 699.07,-362.55 681.03,-348.26 680.16,-319.5 679.5,-297.25 686.3,-289.8 677.16,-269.5 675.1,-264.91 672,-265.65 669.16,-261.5 649.22,-232.34 666.18,-208.9 637.16,-188.75 624.46,-179.93 513.57,-182.16 498.16,-180.75 386.86,-170.54 257.06,-152.75 186.78,-142.63"/>
<polygon fill="lightgray" stroke="lightgray" stroke-width="0.5" points="187.59,-139.21 177.19,-141.24 186.58,-146.13 187.59,-139.21"/>
</g>
<!-- UICreateWallet&#45;&gt;UIPasscode -->
<g id="edge52" class="edge">
<title>UICreateWallet&#45;&gt;UIPasscode</title>
<path fill="none" stroke="lightgray" stroke-width="0.5" d="M88.51,-449.82C90.02,-445.47 91.39,-440.75 92.16,-436.25 95.48,-416.98 97.85,-410.96 92.16,-392.25 83.8,-364.74 50.74,-366.74 56.16,-338.5"/>
</g>
<!-- UICreateWallet&#45;&gt;WalletContext -->
<g id="edge57" class="edge">
<title>UICreateWallet&#45;&gt;WalletContext</title>
<path fill="none" stroke="lightgray" stroke-width="0.5" d="M1068.16,-133C1045.17,-93.93 995.34,-126.95 978.16,-85"/>
<path fill="none" stroke="lightgray" stroke-width="0.5" d="M122.75,-466.2C239.58,-463.07 569.24,-452.96 676.16,-436.25 765.63,-422.26 786.45,-410.35 873.16,-384.25 933.83,-365.99 1008.16,-401.85 1008.16,-338.5 1008.16,-338.5 1008.16,-338.5 1008.16,-286.5 1008.16,-214.08 1104.89,-197.42 1068.16,-135"/>
</g>
<!-- UICreateWallet&#45;&gt;WalletCore -->
<g id="edge56" class="edge">
<title>UICreateWallet&#45;&gt;WalletCore</title>
<path fill="none" stroke="lightgray" stroke-width="0.5" d="M122.97,-467.12C207.8,-466.3 406.01,-461.57 570.16,-436.25 665.19,-421.59 693.39,-425.68 780.16,-384.25 832.49,-359.27 858.35,-357.42 884.16,-305.5 938.55,-196.1 751.5,-207.05 708.16,-188.75 625.63,-153.89 607.48,-136.05 520.16,-116 401.85,-88.83 257.78,-84.75 187.25,-84.57"/>
<polygon fill="lightgray" stroke="lightgray" stroke-width="0.5" points="187.34,-81.07 177.34,-84.57 187.34,-88.07 187.34,-81.07"/>
</g>
<!-- UICreateWallet&#45;&gt;UISettings -->
<g id="edge55" class="edge">
<title>UICreateWallet&#45;&gt;UISettings</title>
<path fill="none" stroke="lightblue" d="M103.45,-450.07C107.79,-445.92 111.98,-441.23 115.16,-436.25 139.73,-397.86 112.23,-368.93 146.16,-338.5"/>
</g>
<!-- UIHome&#45;&gt;UIComponents -->
<g id="edge62" class="edge">
<title>UIHome&#45;&gt;UIComponents</title>
<path fill="none" stroke="lightgray" stroke-width="0.5" d="M82.36,-416.79C197.17,-414.71 637.15,-405.39 657.16,-384.25 692.23,-347.21 688.77,-307.87 655.16,-269.5 641.49,-253.89 625.37,-274.46 609.16,-261.5 591.97,-247.75 611.31,-221.87 590.16,-215.75"/>
</g>
<!-- UIHome&#45;&gt;UIPasscode -->
<g id="edge59" class="edge">
<title>UIHome&#45;&gt;UIPasscode</title>
<path fill="none" stroke="lightgray" stroke-width="0.5" d="M53.64,-399.87C52.65,-383.79 52.17,-359.31 56.16,-338.5"/>
<path fill="none" stroke="lightgray" stroke-width="0.5" d="M56.16,-336.5C61.34,-309.51 96.75,-315.94 95.16,-288.5"/>
<path fill="none" stroke="lightgray" stroke-width="0.5" d="M95.16,-286.5C94.3,-271.6 89.71,-255.68 84.93,-242.72"/>
<polygon fill="lightgray" stroke="lightgray" stroke-width="0.5" points="88.32,-241.78 81.42,-233.74 81.81,-244.33 88.32,-241.78"/>
</g>
<!-- UIHome&#45;&gt;WalletContext -->
<g id="edge66" class="edge">
<title>UIHome&#45;&gt;WalletContext</title>
<path fill="none" stroke="lightgray" stroke-width="0.5" d="M82.28,-416.66C205.73,-413.9 711.61,-401.61 780.16,-384.25 874.92,-360.26 908.22,-356.79 978.16,-288.5"/>
</g>
<!-- UIHome&#45;&gt;WalletCore -->
<g id="edge64" class="edge">
<title>UIHome&#45;&gt;WalletCore</title>
<path fill="none" stroke="lightgray" stroke-width="0.5" d="M82.57,-417.04C187.52,-416.06 563.89,-410.71 680.16,-384.25 768.9,-364.06 818.69,-381.22 869.16,-305.5 878.04,-292.19 880.15,-281.13 869.16,-269.5 858.47,-258.17 743.2,-268.27 729.16,-261.5 690.11,-242.67 703.2,-207.62 664.16,-188.75 636.91,-175.58 552.84,-198.29 528.16,-180.75 510.22,-167.99 526.49,-148.58 509.16,-135"/>
</g>
<!-- UIHome&#45;&gt;UIAssets -->
<g id="edge58" class="edge">
<title>UIHome&#45;&gt;UIAssets</title>
<path fill="none" stroke="lightblue" d="M82.41,-416.72C194.36,-414.43 614.03,-404.5 633.16,-384.25 668.18,-347.17 666.48,-308.11 633.16,-269.5 617.32,-251.13 600.46,-273.13 579.16,-261.5 570.38,-256.7 562.61,-249.18 556.31,-241.61"/>
<polygon fill="lightblue" stroke="lightblue" points="559.4,-239.88 550.54,-234.06 553.84,-244.13 559.4,-239.88"/>
</g>
<!-- UIBrowser -->
<g id="node11" class="node">
<title>UIBrowser</title>
<polygon fill="#ffe66d" stroke="#fdcb6e" points="626.41,-355.5 563.91,-355.5 563.91,-319.5 626.41,-319.5 626.41,-355.5"/>
<text xml:space="preserve" text-anchor="middle" x="595.16" y="-333.62" font-family="Helvetica,sans-Serif" font-size="10.00">UIBrowser</text>
</g>
<!-- UIHome&#45;&gt;UIBrowser -->
<g id="edge63" class="edge">
<title>UIHome&#45;&gt;UIBrowser</title>
<path fill="none" stroke="lightblue" d="M82.6,-416.71C181.31,-414.58 514.81,-405.85 557.16,-384.25 565.7,-379.9 573.04,-372.69 578.93,-365.26"/>
<polygon fill="lightblue" stroke="lightblue" points="581.75,-367.34 584.72,-357.18 576.05,-363.27 581.75,-367.34"/>
</g>
<!-- UIHome&#45;&gt;UIEarn -->
<g id="edge60" class="edge">
<title>UIHome&#45;&gt;UIEarn</title>
<path fill="none" stroke="lightblue" d="M65.1,-399.89C78.4,-378.13 103.96,-341.08 135.16,-319.5 151.2,-308.41 171.52,-301.02 188.99,-296.24"/>
<polygon fill="lightblue" stroke="lightblue" points="189.67,-299.68 198.51,-293.83 187.96,-292.89 189.67,-299.68"/>
</g>
<!-- UIHome&#45;&gt;UISettings -->
<g id="edge61" class="edge">
<title>UIHome&#45;&gt;UISettings</title>
<path fill="none" stroke="lightblue" d="M82.44,-406.48C94.03,-401.01 107.15,-393.53 117.16,-384.25 134.82,-367.88 128.24,-354.57 146.16,-338.5"/>
<path fill="none" stroke="lightblue" d="M146.16,-336.5C154.6,-328.93 154.9,-324.3 165.16,-319.5 201.02,-302.74 217.05,-315.09 256.35,-306.33"/>
<polygon fill="lightblue" stroke="lightblue" points="257.21,-309.72 266.01,-303.82 255.45,-302.95 257.21,-309.72"/>
</g>
<!-- WReachability -->
<g id="node27" class="node">
<title>WReachability</title>
<polygon fill="#a8e6cf" stroke="#00b894" points="1172.04,-152 1092.29,-152 1092.29,-116 1172.04,-116 1172.04,-152"/>
<text xml:space="preserve" text-anchor="middle" x="1132.16" y="-130.12" font-family="Helvetica,sans-Serif" font-size="10.00">WReachability</text>
</g>
<!-- UIHome&#45;&gt;WReachability -->
<g id="edge65" class="edge">
<title>UIHome&#45;&gt;WReachability</title>
<path fill="none" stroke="black" d="M82.37,-416.17C173.53,-412.58 476.59,-400.74 727.16,-392.25 741.72,-391.76 976.09,-390.66 989.16,-384.25 1038.7,-359.97 1029.53,-327.88 1068.16,-288.5"/>
</g>
<!-- Ledger&#45;&gt;UIComponents -->
<g id="edge2" class="edge">
<title>Ledger&#45;&gt;UIComponents</title>
<path fill="none" stroke="lightgray" stroke-width="0.5" d="M146.06,-196.27C144.32,-186.49 142.11,-174.05 140.13,-162.94"/>
<polygon fill="lightgray" stroke="lightgray" stroke-width="0.5" points="143.59,-162.41 138.39,-153.17 136.7,-163.63 143.59,-162.41"/>
</g>
<!-- Ledger&#45;&gt;WalletContext -->
<g id="edge3" class="edge">
<title>Ledger&#45;&gt;WalletContext</title>
<path fill="none" stroke="lightgray" stroke-width="0.5" d="M128.46,-196.36C124.26,-193.47 119.72,-190.76 115.16,-188.75 98.58,-181.43 88.36,-193.19 75.16,-180.75 59.87,-166.33 74.69,-152.58 63.16,-135"/>
</g>
<!-- Ledger&#45;&gt;WalletCore -->
<g id="edge1" class="edge">
<title>Ledger&#45;&gt;WalletCore</title>
<path fill="none" stroke="lightgray" stroke-width="0.5" d="M127.95,-196.4C123.87,-193.57 119.51,-190.88 115.16,-188.75 103.55,-183.05 95.82,-190.37 87.16,-180.75 73.36,-165.41 73.68,-154.9 79.16,-135"/>
</g>
<!-- UICharts -->
<g id="node5" class="node">
<title>UICharts</title>
<polygon fill="#4ecdc4" stroke="#00b894" stroke-width="2" points="98.04,-102 42.29,-102 42.29,-66 98.04,-66 98.04,-102"/>
<text xml:space="preserve" text-anchor="middle" x="70.16" y="-80.12" font-family="Helvetica,sans-Serif" font-size="10.00">UICharts</text>
</g>
<!-- UIComponents&#45;&gt;UICharts -->
<g id="edge69" class="edge">
<title>UIComponents&#45;&gt;UICharts</title>
<path fill="none" stroke="lightgray" stroke-width="0.5" d="M111.7,-115.67C108.61,-113.39 105.4,-111.02 102.19,-108.65"/>
<polygon fill="lightgray" stroke="lightgray" stroke-width="0.5" points="104.55,-106.04 94.42,-102.91 100.39,-111.67 104.55,-106.04"/>
</g>
<!-- UIComponents&#45;&gt;WalletContext -->
<g id="edge74" class="edge">
<title>UIComponents&#45;&gt;WalletContext</title>
<path fill="none" stroke="lightgray" stroke-width="0.5" d="M93.75,-121.86C68.38,-114.74 39.88,-106.1 35.16,-102 28.86,-96.52 26.41,-93.32 27.16,-85"/>
</g>
<!-- UIComponents&#45;&gt;WalletCore -->
<g id="edge70" class="edge">
<title>UIComponents&#45;&gt;WalletCore</title>
<path fill="none" stroke="lightgray" stroke-width="0.5" d="M138.41,-115.67C138.59,-114.73 138.77,-113.78 138.95,-112.81"/>
<polygon fill="lightgray" stroke="lightgray" stroke-width="0.5" points="142.35,-113.68 140.75,-103.21 135.47,-112.39 142.35,-113.68"/>
</g>
<!-- GZip -->
<g id="node23" class="node">
<title>GZip</title>
<polygon fill="#a8e6cf" stroke="#00b894" points="1340.16,-102 1286.16,-102 1286.16,-66 1340.16,-66 1340.16,-102"/>
<text xml:space="preserve" text-anchor="middle" x="1313.16" y="-80.12" font-family="Helvetica,sans-Serif" font-size="10.00">GZip</text>
</g>
<!-- UIComponents&#45;&gt;GZip -->
<g id="edge73" class="edge">
<title>UIComponents&#45;&gt;GZip</title>
<path fill="none" stroke="black" d="M176.37,-132.38C366.87,-129.48 1157.7,-116.72 1274.69,-101.82"/>
<polygon fill="black" stroke="black" points="1274.95,-105.33 1284.22,-100.2 1273.78,-98.43 1274.95,-105.33"/>
</g>
<!-- Kingfisher -->
<g id="node24" class="node">
<title>Kingfisher</title>
<polygon fill="#a8e6cf" stroke="#00b894" points="1219.91,-52 1160.41,-52 1160.41,-16 1219.91,-16 1219.91,-52"/>
<text xml:space="preserve" text-anchor="middle" x="1190.16" y="-30.12" font-family="Helvetica,sans-Serif" font-size="10.00">Kingfisher</text>
</g>
<!-- UIComponents&#45;&gt;Kingfisher -->
<g id="edge67" class="edge">
<title>UIComponents&#45;&gt;Kingfisher</title>
<path fill="none" stroke="black" d="M176.42,-131.64C339.66,-125.98 941.3,-102.3 1149.13,-52.58"/>
<polygon fill="black" stroke="black" points="1149.88,-56 1158.73,-50.18 1148.18,-49.21 1149.88,-56"/>
</g>
<!-- RLottieBinding -->
<g id="node25" class="node">
<title>RLottieBinding</title>
<polygon fill="#a8e6cf" stroke="#00b894" points="1272.04,-102 1192.29,-102 1192.29,-66 1272.04,-66 1272.04,-102"/>
<text xml:space="preserve" text-anchor="middle" x="1232.16" y="-80.12" font-family="Helvetica,sans-Serif" font-size="10.00">RLottieBinding</text>
</g>
<!-- UIComponents&#45;&gt;RLottieBinding -->
<g id="edge72" class="edge">
<title>UIComponents&#45;&gt;RLottieBinding</title>
<path fill="none" stroke="black" d="M176.49,-132.55C353.28,-130.54 1042.91,-121.63 1180.93,-102.27"/>
<polygon fill="black" stroke="black" points="1181.08,-105.79 1190.39,-100.73 1179.96,-98.88 1181.08,-105.79"/>
</g>
<!-- SwiftSignalKit -->
<g id="node26" class="node">
<title>SwiftSignalKit</title>
<polygon fill="#a8e6cf" stroke="#00b894" points="1431.91,-102 1354.41,-102 1354.41,-66 1431.91,-66 1431.91,-102"/>
<text xml:space="preserve" text-anchor="middle" x="1393.16" y="-80.12" font-family="Helvetica,sans-Serif" font-size="10.00">SwiftSignalKit</text>
</g>
<!-- UIComponents&#45;&gt;SwiftSignalKit -->
<g id="edge71" class="edge">
<title>UIComponents&#45;&gt;SwiftSignalKit</title>
<path fill="none" stroke="black" d="M176.38,-132.32C374.09,-129.04 1220.5,-114.44 1342.96,-101.91"/>
<polygon fill="black" stroke="black" points="1343.06,-105.43 1352.51,-100.63 1342.13,-98.49 1343.06,-105.43"/>
</g>
<!-- YUVConversion -->
<g id="node28" class="node">
<title>YUVConversion</title>
<polygon fill="#a8e6cf" stroke="#00b894" points="1178.41,-102 1091.91,-102 1091.91,-66 1178.41,-66 1178.41,-102"/>
<text xml:space="preserve" text-anchor="middle" x="1135.16" y="-80.12" font-family="Helvetica,sans-Serif" font-size="10.00">YUVConversion</text>
</g>
<!-- UIComponents&#45;&gt;YUVConversion -->
<g id="edge68" class="edge">
<title>UIComponents&#45;&gt;YUVConversion</title>
<path fill="none" stroke="black" d="M176.56,-132.66C300.17,-131.41 677.4,-125.77 989.16,-102 1019.33,-99.7 1052.87,-95.88 1080.19,-92.45"/>
<polygon fill="black" stroke="black" points="1080.51,-95.94 1089.99,-91.2 1079.63,-88.99 1080.51,-95.94"/>
</g>
<!-- UIPasscode&#45;&gt;UIComponents -->
<g id="edge81" class="edge">
<title>UIPasscode&#45;&gt;UIComponents</title>
<path fill="none" stroke="lightgray" stroke-width="0.5" d="M86.92,-196.27C95.11,-185.87 105.65,-172.49 114.79,-160.88"/>
<polygon fill="lightgray" stroke="lightgray" stroke-width="0.5" points="117.54,-163.05 120.97,-153.02 112.04,-158.71 117.54,-163.05"/>
</g>
<!-- UIPasscode&#45;&gt;WalletContext -->
<g id="edge82" class="edge">
<title>UIPasscode&#45;&gt;WalletContext</title>
<path fill="none" stroke="lightgray" stroke-width="0.5" d="M63.16,-133C48.55,-110.7 24.76,-111.56 27.16,-85"/>
<path fill="none" stroke="lightgray" stroke-width="0.5" d="M72.71,-196.38C71.89,-176.31 69.59,-144.8 63.16,-135"/>
<path fill="none" stroke="lightgray" stroke-width="0.5" d="M27.16,-83C29.67,-55.31 59.45,-43.44 87.4,-38.43"/>
<polygon fill="lightgray" stroke="lightgray" stroke-width="0.5" points="87.85,-41.9 97.21,-36.94 86.79,-34.98 87.85,-41.9"/>
</g>
<!-- UIPasscode&#45;&gt;WalletCore -->
<g id="edge80" class="edge">
<title>UIPasscode&#45;&gt;WalletCore</title>
<path fill="none" stroke="lightgray" stroke-width="0.5" d="M72.59,-196.53C72.5,-180.35 73.48,-155.62 79.16,-135"/>
<path fill="none" stroke="lightgray" stroke-width="0.5" d="M79.16,-133C81.38,-124.95 81.43,-122.07 87.16,-116 89.96,-113.03 95.74,-109.26 102.59,-105.38"/>
<polygon fill="lightgray" stroke="lightgray" stroke-width="0.5" points="103.89,-108.66 111.02,-100.82 100.56,-102.5 103.89,-108.66"/>
</g>
<!-- WalletCore&#45;&gt;WalletContext -->
<g id="edge36" class="edge">
<title>WalletCore&#45;&gt;WalletContext</title>
<path fill="none" stroke="lightgray" stroke-width="0.5" d="M141.64,-65.67C141.5,-64.73 141.36,-63.78 141.22,-62.81"/>
<polygon fill="lightgray" stroke="lightgray" stroke-width="0.5" points="144.73,-62.6 139.82,-53.21 137.8,-63.61 144.73,-62.6"/>
</g>
<!-- BigIntLib -->
<g id="node22" class="node">
<title>BigIntLib</title>
<polygon fill="#a8e6cf" stroke="#00b894" points="1146.29,-52 1092.04,-52 1092.04,-16 1146.29,-16 1146.29,-52"/>
<text xml:space="preserve" text-anchor="middle" x="1119.16" y="-30.12" font-family="Helvetica,sans-Serif" font-size="10.00">BigIntLib</text>
</g>
<!-- WalletCore&#45;&gt;BigIntLib -->
<g id="edge34" class="edge">
<title>WalletCore&#45;&gt;BigIntLib</title>
<path fill="none" stroke="black" d="M176.6,-81.4C322.97,-74.2 921.58,-44.73 1080.35,-36.91"/>
<polygon fill="black" stroke="black" points="1080.53,-40.41 1090.34,-36.42 1080.18,-33.42 1080.53,-40.41"/>
</g>
<!-- WalletCore&#45;&gt;Kingfisher -->
<g id="edge35" class="edge">
<title>WalletCore&#45;&gt;Kingfisher</title>
<path fill="none" stroke="black" d="M176.45,-82.09C337.36,-77.57 1048.67,-57.47 1148.84,-51"/>
<polygon fill="black" stroke="black" points="1149.09,-54.49 1158.72,-50.08 1148.44,-47.52 1149.09,-54.49"/>
</g>
<!-- UIAssets&#45;&gt;UIComponents -->
<g id="edge10" class="edge">
<title>UIAssets&#45;&gt;UIComponents</title>
<path fill="none" stroke="lightgray" stroke-width="0.5" d="M517.61,-196.43C513.06,-193.46 508.12,-190.71 503.16,-188.75 396.34,-146.58 260.31,-137.06 187.22,-135.18"/>
<polygon fill="lightgray" stroke="lightgray" stroke-width="0.5" points="187.31,-131.68 177.24,-134.96 187.16,-138.68 187.31,-131.68"/>
</g>
<!-- UIAssets&#45;&gt;WalletContext -->
<g id="edge11" class="edge">
<title>UIAssets&#45;&gt;WalletContext</title>
<path fill="none" stroke="lightgray" stroke-width="0.5" d="M538.5,-196.52C538.03,-180.55 537.73,-156.14 539.16,-135"/>
</g>
<!-- UIAssets&#45;&gt;WalletCore -->
<g id="edge8" class="edge">
<title>UIAssets&#45;&gt;WalletCore</title>
<path fill="none" stroke="lightgray" stroke-width="0.5" d="M533.08,-196.45C525.08,-173.88 511.71,-137 509.16,-135"/>
</g>
<!-- UIAssets&#45;&gt;Kingfisher -->
<g id="edge9" class="edge">
<title>UIAssets&#45;&gt;Kingfisher</title>
<path fill="none" stroke="black" d="M568.03,-212.55C690.95,-207.38 1165.04,-187.1 1179.16,-180.75 1205.18,-169.05 1196.24,-140.81 1224.16,-135"/>
<path fill="none" stroke="black" d="M1224.16,-133C1322.15,-112.59 1505.42,-141.02 1439.16,-66 1425.66,-50.71 1298.69,-41.2 1231.47,-37.2"/>
<polygon fill="black" stroke="black" points="1231.74,-33.71 1221.55,-36.62 1231.33,-40.7 1231.74,-33.71"/>
</g>
<!-- UIBrowser&#45;&gt;UIComponents -->
<g id="edge103" class="edge">
<title>UIBrowser&#45;&gt;UIComponents</title>
<path fill="none" stroke="lightgray" stroke-width="0.5" d="M626.61,-332.25C668.02,-325.76 735.89,-311.63 738.16,-288.5"/>
</g>
<!-- UIBrowser&#45;&gt;WalletContext -->
<g id="edge105" class="edge">
<title>UIBrowser&#45;&gt;WalletContext</title>
<path fill="none" stroke="lightgray" stroke-width="0.5" d="M626.73,-337.23C709.28,-338.43 928.6,-336.9 978.16,-288.5"/>
</g>
<!-- UIBrowser&#45;&gt;WalletCore -->
<g id="edge104" class="edge">
<title>UIBrowser&#45;&gt;WalletCore</title>
<path fill="none" stroke="lightgray" stroke-width="0.5" d="M626.67,-333.98C696.16,-328.01 856.59,-311.71 858.16,-288.5"/>
</g>
<!-- UIBrowser&#45;&gt;UIDapp -->
<g id="edge107" class="edge">
<title>UIBrowser&#45;&gt;UIDapp</title>
<path fill="none" stroke="lightblue" d="M563.46,-321.61C561.35,-320.84 559.24,-320.13 557.16,-319.5 524.18,-309.55 511.47,-315.81 477.16,-306.27"/>
<polygon fill="lightblue" stroke="lightblue" points="478.36,-302.98 467.78,-303.4 476.31,-309.68 478.36,-302.98"/>
</g>
<!-- UIBrowser&#45;&gt;Kingfisher -->
<g id="edge102" class="edge">
<title>UIBrowser&#45;&gt;Kingfisher</title>
<path fill="none" stroke="black" d="M626.86,-336.65C729.03,-336.84 1045.05,-335 1079.16,-305.5 1110,-278.83 1061,-232.51 1098.16,-215.75"/>
</g>
<!-- UIBrowser&#45;&gt;WReachability -->
<g id="edge106" class="edge">
<title>UIBrowser&#45;&gt;WReachability</title>
<path fill="none" stroke="black" d="M626.8,-336.21C729.39,-334.89 1047.5,-327.64 1068.16,-288.5"/>
<path fill="none" stroke="black" d="M1068.16,-286.5C1088.82,-247.36 1068.13,-228.71 1087.16,-188.75 1091.93,-178.74 1099,-169.06 1106.13,-160.73"/>
<polygon fill="black" stroke="black" points="1108.65,-163.15 1112.77,-153.39 1103.46,-158.45 1108.65,-163.15"/>
</g>
<!-- UIDapp&#45;&gt;Ledger -->
<g id="edge78" class="edge">
<title>UIDapp&#45;&gt;Ledger</title>
<path fill="none" stroke="lightgray" stroke-width="0.5" d="M411.71,-271.57C409.53,-270.76 407.34,-270.06 405.16,-269.5 381.9,-263.55 210.84,-271.83 189.16,-261.5 179.79,-257.03 171.71,-249.24 165.32,-241.34"/>
<polygon fill="lightgray" stroke="lightgray" stroke-width="0.5" points="168.27,-239.44 159.51,-233.48 162.64,-243.6 168.27,-239.44"/>
</g>
<!-- UIDapp&#45;&gt;UIComponents -->
<g id="edge76" class="edge">
<title>UIDapp&#45;&gt;UIComponents</title>
<path fill="none" stroke="lightgray" stroke-width="0.5" d="M411.69,-271.64C409.52,-270.82 407.33,-270.09 405.16,-269.5 391.84,-265.9 292.08,-269.96 281.16,-261.5 264.25,-248.39 284.76,-226.33 266.16,-215.75"/>
</g>
<!-- UIDapp&#45;&gt;UIPasscode -->
<g id="edge75" class="edge">
<title>UIDapp&#45;&gt;UIPasscode</title>
<path fill="none" stroke="lightgray" stroke-width="0.5" d="M411.71,-271.55C409.54,-270.75 407.34,-270.05 405.16,-269.5 373.9,-261.66 144.49,-274.87 115.16,-261.5 105.51,-257.1 97.07,-249.32 90.34,-241.41"/>
<polygon fill="lightgray" stroke="lightgray" stroke-width="0.5" points="93.11,-239.26 84.2,-233.53 87.59,-243.57 93.11,-239.26"/>
</g>
<!-- UIDapp&#45;&gt;WalletContext -->
<g id="edge79" class="edge">
<title>UIDapp&#45;&gt;WalletContext</title>
<path fill="none" stroke="lightgray" stroke-width="0.5" d="M466.63,-271.61C468.8,-270.79 470.99,-270.07 473.16,-269.5 541.16,-251.62 562.61,-277.12 631.16,-261.5 682.39,-249.83 707.19,-256.65 740.16,-215.75"/>
</g>
<!-- UIDapp&#45;&gt;WalletCore -->
<g id="edge77" class="edge">
<title>UIDapp&#45;&gt;WalletCore</title>
<path fill="none" stroke="lightgray" stroke-width="0.5" d="M466.63,-271.63C468.8,-270.81 471,-270.08 473.16,-269.5 487.68,-265.62 596.54,-271.03 608.16,-261.5 624.42,-248.17 618.29,-236.69 620.16,-215.75"/>
</g>
<!-- UIEarn&#45;&gt;Ledger -->
<g id="edge97" class="edge">
<title>UIEarn&#45;&gt;Ledger</title>
<path fill="none" stroke="lightgray" stroke-width="0.5" d="M199.93,-269.89C196.19,-267.24 192.5,-264.41 189.16,-261.5 182.08,-255.32 175.08,-247.9 168.96,-240.85"/>
<polygon fill="lightgray" stroke="lightgray" stroke-width="0.5" points="171.83,-238.83 162.72,-233.42 166.47,-243.33 171.83,-238.83"/>
</g>
<!-- UIEarn&#45;&gt;UIComponents -->
<g id="edge95" class="edge">
<title>UIEarn&#45;&gt;UIComponents</title>
<path fill="none" stroke="lightgray" stroke-width="0.5" d="M266.16,-213.75C234.22,-195.58 198.5,-174.02 172.44,-158.06"/>
<polygon fill="lightgray" stroke="lightgray" stroke-width="0.5" points="174.3,-155.09 163.94,-152.84 170.63,-161.06 174.3,-155.09"/>
<path fill="none" stroke="lightgray" stroke-width="0.5" d="M247.4,-269.12C265.31,-252.02 285.79,-226.92 266.16,-215.75"/>
</g>
<!-- UIEarn&#45;&gt;UIPasscode -->
<g id="edge94" class="edge">
<title>UIEarn&#45;&gt;UIPasscode</title>
<path fill="none" stroke="lightgray" stroke-width="0.5" d="M199.71,-284.97C175.95,-282.62 141.39,-276.65 115.16,-261.5 106.25,-256.35 98.14,-248.68 91.48,-241.08"/>
<polygon fill="lightgray" stroke="lightgray" stroke-width="0.5" points="94.38,-239.09 85.33,-233.58 88.96,-243.53 94.38,-239.09"/>
</g>
<!-- UIEarn&#45;&gt;WalletContext -->
<g id="edge98" class="edge">
<title>UIEarn&#45;&gt;WalletContext</title>
<path fill="none" stroke="lightgray" stroke-width="0.5" d="M254.61,-271.54C256.79,-270.73 258.99,-270.04 261.16,-269.5 341,-249.74 550.72,-278.6 631.16,-261.5 682.55,-250.57 707.19,-256.65 740.16,-215.75"/>
</g>
<!-- UIEarn&#45;&gt;WalletCore -->
<g id="edge96" class="edge">
<title>UIEarn&#45;&gt;WalletCore</title>
<path fill="none" stroke="lightgray" stroke-width="0.5" d="M254.61,-271.54C256.79,-270.74 258.99,-270.04 261.16,-269.5 279.88,-264.85 593.03,-273.45 608.16,-261.5 624.66,-248.47 618.29,-236.69 620.16,-215.75"/>
</g>
<!-- UIInAppBrowser&#45;&gt;UIComponents -->
<g id="edge31" class="edge">
<title>UIInAppBrowser&#45;&gt;UIComponents</title>
<path fill="none" stroke="lightgray" stroke-width="0.5" d="M550.55,-321.26C552.78,-320.64 554.99,-320.04 557.16,-319.5 596.75,-309.57 734.17,-329.11 738.16,-288.5"/>
<path fill="none" stroke="lightgray" stroke-width="0.5" d="M590.16,-213.75C577.72,-210.15 586.09,-195.71 575.16,-188.75 560.65,-179.51 515.25,-182.71 498.16,-180.75 387.12,-167.99 257.22,-151.15 186.86,-141.88"/>
<polygon fill="lightgray" stroke="lightgray" stroke-width="0.5" points="187.62,-138.45 177.25,-140.61 186.71,-145.39 187.62,-138.45"/>
<path fill="none" stroke="lightgray" stroke-width="0.5" d="M738.16,-286.5C739.27,-275.22 729.6,-273.93 719.16,-269.5 696.6,-259.93 629.04,-275.84 609.16,-261.5 591.31,-248.62 611.31,-221.87 590.16,-215.75"/>
</g>
<!-- UIInAppBrowser&#45;&gt;WalletContext -->
<g id="edge33" class="edge">
<title>UIInAppBrowser&#45;&gt;WalletContext</title>
<path fill="none" stroke="lightgray" stroke-width="0.5" d="M550.48,-320.93C552.72,-320.39 554.96,-319.91 557.16,-319.5 603.28,-310.95 948,-324.42 978.16,-288.5"/>
<path fill="none" stroke="lightgray" stroke-width="0.5" d="M978.16,-286.5C1006.96,-252.21 994.2,-126.81 978.16,-85"/>
</g>
<!-- UIInAppBrowser&#45;&gt;WalletCore -->
<g id="edge30" class="edge">
<title>UIInAppBrowser&#45;&gt;WalletCore</title>
<path fill="none" stroke="lightgray" stroke-width="0.5" d="M858.16,-286.5C858.93,-275.19 849.67,-273.75 839.16,-269.5 818.55,-261.15 657.41,-274.21 639.16,-261.5 621.1,-248.91 618.21,-237.68 620.16,-215.75"/>
<path fill="none" stroke="lightgray" stroke-width="0.5" d="M550.49,-321C552.73,-320.45 554.97,-319.94 557.16,-319.5 590.13,-312.91 855.89,-322.04 858.16,-288.5"/>
</g>
<!-- UIInAppBrowser&#45;&gt;UIDapp -->
<g id="edge32" class="edge">
<title>UIInAppBrowser&#45;&gt;UIDapp</title>
<path fill="none" stroke="lightblue" d="M481.98,-319.17C478.98,-317.02 475.87,-314.8 472.76,-312.57"/>
<polygon fill="lightblue" stroke="lightblue" points="474.94,-309.83 464.77,-306.85 470.86,-315.52 474.94,-309.83"/>
</g>
<!-- UIQRScan&#45;&gt;UIComponents -->
<g id="edge5" class="edge">
<title>UIQRScan&#45;&gt;UIComponents</title>
<path fill="none" stroke="lightgray" stroke-width="0.5" d="M292.96,-196.49C287.84,-193.66 282.43,-190.94 277.16,-188.75 264.42,-183.46 260.24,-185.15 247.16,-180.75 226.23,-173.71 203.59,-164.74 184.18,-156.6"/>
<polygon fill="lightgray" stroke="lightgray" stroke-width="0.5" points="185.62,-153.41 175.05,-152.74 182.89,-159.86 185.62,-153.41"/>
</g>
<!-- UIQRScan&#45;&gt;WalletContext -->
<g id="edge6" class="edge">
<title>UIQRScan&#45;&gt;WalletContext</title>
<path fill="none" stroke="lightgray" stroke-width="0.5" d="M539.16,-133C573.38,-68.83 302.02,-44.86 187.03,-37.65"/>
<polygon fill="lightgray" stroke="lightgray" stroke-width="0.5" points="187.36,-34.16 177.17,-37.04 186.93,-41.15 187.36,-34.16"/>
<path fill="none" stroke="lightgray" stroke-width="0.5" d="M343.1,-196.31C348.15,-193.27 353.65,-190.52 359.16,-188.75 376.22,-183.29 505.52,-191.06 520.16,-180.75 538.17,-168.08 537.68,-156.97 539.16,-135"/>
</g>
<!-- UIQRScan&#45;&gt;WalletCore -->
<g id="edge4" class="edge">
<title>UIQRScan&#45;&gt;WalletCore</title>
<path fill="none" stroke="lightgray" stroke-width="0.5" d="M296.43,-196.39C265.46,-173.73 211.15,-134 176.46,-108.62"/>
<polygon fill="lightgray" stroke="lightgray" stroke-width="0.5" points="178.83,-106.03 168.7,-102.95 174.7,-111.68 178.83,-106.03"/>
</g>
<!-- UIQRScan&#45;&gt;SwiftSignalKit -->
<g id="edge7" class="edge">
<title>UIQRScan&#45;&gt;SwiftSignalKit</title>
<path fill="none" stroke="black" d="M342.64,-196.43C347.81,-193.3 353.47,-190.48 359.16,-188.75 400.84,-176.07 707.84,-185.36 751.16,-180.75 901.52,-164.76 935.09,-134.47 1085.16,-116 1197.28,-102.2 1230.88,-124.14 1342.9,-102.58"/>
<polygon fill="black" stroke="black" points="1343.4,-106.05 1352.51,-100.65 1342.02,-99.19 1343.4,-106.05"/>
</g>
<!-- UIReceive&#45;&gt;UIComponents -->
<g id="edge100" class="edge">
<title>UIReceive&#45;&gt;UIComponents</title>
<path fill="none" stroke="lightgray" stroke-width="0.5" d="M373.34,-196.3C368.79,-193.49 363.95,-190.82 359.16,-188.75 302.82,-164.35 233.48,-149.88 187.01,-142.21"/>
<polygon fill="lightgray" stroke="lightgray" stroke-width="0.5" points="187.76,-138.79 177.33,-140.66 186.65,-145.7 187.76,-138.79"/>
</g>
<!-- UIReceive&#45;&gt;WalletContext -->
<g id="edge101" class="edge">
<title>UIReceive&#45;&gt;WalletContext</title>
<path fill="none" stroke="lightgray" stroke-width="0.5" d="M419.52,-196.49C424.45,-193.44 429.8,-190.63 435.16,-188.75 453.06,-182.46 504.9,-192.01 520.16,-180.75 537.88,-167.68 537.68,-156.97 539.16,-135"/>
</g>
<!-- UIReceive&#45;&gt;WalletCore -->
<g id="edge99" class="edge">
<title>UIReceive&#45;&gt;WalletCore</title>
<path fill="none" stroke="lightgray" stroke-width="0.5" d="M509.16,-133C459.95,-94.42 272.73,-86.78 187.22,-85.31"/>
<polygon fill="lightgray" stroke="lightgray" stroke-width="0.5" points="187.39,-81.82 177.34,-85.17 187.29,-88.82 187.39,-81.82"/>
<path fill="none" stroke="lightgray" stroke-width="0.5" d="M423.17,-196.34C456.9,-173.65 511.23,-136.62 509.16,-135"/>
</g>
<!-- UISend&#45;&gt;Ledger -->
<g id="edge45" class="edge">
<title>UISend&#45;&gt;Ledger</title>
<path fill="none" stroke="lightgray" stroke-width="0.5" d="M343.7,-271.62C341.53,-270.8 339.33,-270.07 337.16,-269.5 305.32,-261.07 218.78,-275.92 189.16,-261.5 179.83,-256.95 171.76,-249.14 165.36,-241.25"/>
<polygon fill="lightgray" stroke="lightgray" stroke-width="0.5" points="168.32,-239.36 159.55,-233.41 162.7,-243.53 168.32,-239.36"/>
</g>
<!-- UISend&#45;&gt;UIComponents -->
<g id="edge42" class="edge">
<title>UISend&#45;&gt;UIComponents</title>
<path fill="none" stroke="lightgray" stroke-width="0.5" d="M344.02,-271.98C341.73,-271.05 339.43,-270.21 337.16,-269.5 313.17,-262 300.43,-277.66 281.16,-261.5 264.77,-247.75 284.76,-226.33 266.16,-215.75"/>
</g>
<!-- UISend&#45;&gt;UIPasscode -->
<g id="edge41" class="edge">
<title>UISend&#45;&gt;UIPasscode</title>
<path fill="none" stroke="lightgray" stroke-width="0.5" d="M343.71,-271.57C341.53,-270.76 339.34,-270.05 337.16,-269.5 313.25,-263.4 137.58,-271.84 115.16,-261.5 105.53,-257.06 97.1,-249.27 90.36,-241.37"/>
<polygon fill="lightgray" stroke="lightgray" stroke-width="0.5" points="93.13,-239.22 84.21,-233.49 87.61,-243.53 93.13,-239.22"/>
</g>
<!-- UISend&#45;&gt;WalletContext -->
<g id="edge46" class="edge">
<title>UISend&#45;&gt;WalletContext</title>
<path fill="none" stroke="lightgray" stroke-width="0.5" d="M398.62,-271.57C400.79,-270.76 402.99,-270.05 405.16,-269.5 453.86,-257.09 582.08,-272.29 631.16,-261.5 682.48,-250.22 707.19,-256.65 740.16,-215.75"/>
</g>
<!-- UISend&#45;&gt;WalletCore -->
<g id="edge43" class="edge">
<title>UISend&#45;&gt;WalletCore</title>
<path fill="none" stroke="lightgray" stroke-width="0.5" d="M398.62,-271.58C400.8,-270.77 402.99,-270.06 405.16,-269.5 427.03,-263.88 590.57,-275.64 608.16,-261.5 624.55,-248.33 618.29,-236.69 620.16,-215.75"/>
</g>
<!-- UISend&#45;&gt;UIQRScan -->
<g id="edge44" class="edge">
<title>UISend&#45;&gt;UIQRScan</title>
<path fill="none" stroke="lightblue" d="M358.56,-269.01C352.75,-260.96 345.74,-251.23 339.3,-242.3"/>
<polygon fill="lightblue" stroke="lightblue" points="342.2,-240.33 333.51,-234.27 336.52,-244.42 342.2,-240.33"/>
</g>
<!-- UISettings&#45;&gt;UIComponents -->
<g id="edge40" class="edge">
<title>UISettings&#45;&gt;UIComponents</title>
<path fill="none" stroke="lightgray" stroke-width="0.5" d="M285.67,-269.18C284.03,-266.67 282.47,-264.07 281.16,-261.5 271.46,-242.43 284.76,-226.33 266.16,-215.75"/>
</g>
<!-- UISettings&#45;&gt;UIPasscode -->
<g id="edge38" class="edge">
<title>UISettings&#45;&gt;UIPasscode</title>
<path fill="none" stroke="lightgray" stroke-width="0.5" d="M267.53,-271.34C265.41,-270.63 263.27,-270.01 261.16,-269.5 229.58,-261.85 144.54,-275.38 115.16,-261.5 105.57,-256.97 97.15,-249.16 90.41,-241.26"/>
<polygon fill="lightgray" stroke="lightgray" stroke-width="0.5" points="93.18,-239.12 84.25,-233.41 87.67,-243.44 93.18,-239.12"/>
</g>
<!-- UISettings&#45;&gt;WalletContext -->
<g id="edge39" class="edge">
<title>UISettings&#45;&gt;WalletContext</title>
<path fill="none" stroke="lightgray" stroke-width="0.5" d="M330.78,-271.27C332.91,-270.58 335.05,-269.98 337.16,-269.5 400.89,-254.99 567.27,-275.27 631.16,-261.5 682.52,-250.43 707.19,-256.65 740.16,-215.75"/>
<path fill="none" stroke="lightgray" stroke-width="0.5" d="M740.16,-213.75C762.13,-186.5 707.56,-147.73 740.16,-135"/>
</g>
<!-- UISettings&#45;&gt;WalletCore -->
<g id="edge37" class="edge">
<title>UISettings&#45;&gt;WalletCore</title>
<path fill="none" stroke="lightgray" stroke-width="0.5" d="M330.78,-271.28C332.91,-270.59 335.05,-269.98 337.16,-269.5 351.85,-266.14 596.38,-270.88 608.16,-261.5 624.62,-248.41 618.29,-236.69 620.16,-215.75"/>
<path fill="none" stroke="lightgray" stroke-width="0.5" d="M620.16,-213.75C621.26,-201.47 618.26,-195.83 608.16,-188.75 578.91,-168.24 556.86,-202.04 528.16,-180.75 510.48,-167.63 526.49,-148.58 509.16,-135"/>
</g>
<!-- UISwap&#45;&gt;UIComponents -->
<g id="edge84" class="edge">
<title>UISwap&#45;&gt;UIComponents</title>
<path fill="none" stroke="lightgray" stroke-width="0.5" d="M479.71,-271.59C477.53,-270.77 475.34,-270.06 473.16,-269.5 452.49,-264.16 298.19,-274.38 281.16,-261.5 264.1,-248.59 284.76,-226.33 266.16,-215.75"/>
</g>
<!-- UISwap&#45;&gt;UIPasscode -->
<g id="edge83" class="edge">
<title>UISwap&#45;&gt;UIPasscode</title>
<path fill="none" stroke="lightgray" stroke-width="0.5" d="M479.72,-271.54C477.54,-270.74 475.34,-270.04 473.16,-269.5 434.55,-259.93 151.41,-277.91 115.16,-261.5 105.5,-257.12 97.06,-249.35 90.33,-241.44"/>
<polygon fill="lightgray" stroke="lightgray" stroke-width="0.5" points="93.09,-239.29 84.19,-233.55 87.57,-243.59 93.09,-239.29"/>
</g>
<!-- UISwap&#45;&gt;WalletContext -->
<g id="edge88" class="edge">
<title>UISwap&#45;&gt;WalletContext</title>
<path fill="none" stroke="lightgray" stroke-width="0.5" d="M534.65,-271.7C536.82,-270.86 539.01,-270.11 541.16,-269.5 579.8,-258.55 592.19,-271.16 631.16,-261.5 682.16,-248.86 707.19,-256.65 740.16,-215.75"/>
</g>
<!-- UISwap&#45;&gt;WalletCore -->
<g id="edge85" class="edge">
<title>UISwap&#45;&gt;WalletCore</title>
<path fill="none" stroke="lightgray" stroke-width="0.5" d="M534.29,-271.93C536.58,-271.01 538.89,-270.18 541.16,-269.5 555.53,-265.19 596.86,-271.35 608.16,-261.5 624.02,-247.69 618.29,-236.69 620.16,-215.75"/>
</g>
<!-- UISwap&#45;&gt;UIQRScan -->
<g id="edge86" class="edge">
<title>UISwap&#45;&gt;UIQRScan</title>
<path fill="none" stroke="lightblue" d="M479.69,-271.65C477.52,-270.83 475.33,-270.09 473.16,-269.5 448.67,-262.8 381.84,-272.94 359.16,-261.5 350.32,-257.04 342.68,-249.6 336.56,-242"/>
<polygon fill="lightblue" stroke="lightblue" points="339.72,-240.4 330.99,-234.4 334.08,-244.54 339.72,-240.4"/>
</g>
<!-- UISwap&#45;&gt;SwiftSignalKit -->
<g id="edge87" class="edge">
<title>UISwap&#45;&gt;SwiftSignalKit</title>
<path fill="none" stroke="black" d="M534.62,-271.58C536.79,-270.77 538.99,-270.06 541.16,-269.5 586.4,-257.91 704.83,-267.35 751.16,-261.5 902.75,-242.35 936.09,-211.58 1087.16,-188.75 1107.46,-185.68 1162.08,-192.12 1179.16,-180.75 1206.23,-162.75 1186.26,-134.24 1213.16,-116 1235.62,-100.78 1303.48,-107.23 1342.77,-102.19"/>
<polygon fill="black" stroke="black" points="1343.23,-105.66 1352.47,-100.48 1342.02,-98.77 1343.23,-105.66"/>
</g>
<!-- UIToken&#45;&gt;UICharts -->
<g id="edge48" class="edge">
<title>UIToken&#45;&gt;UICharts</title>
<path fill="none" stroke="lightgray" stroke-width="0.5" d="M447.95,-196.41C443.86,-193.58 439.5,-190.89 435.16,-188.75 330.58,-137.25 296.69,-142.5 183.16,-116 151.95,-108.71 140.68,-112.13 108.38,-102.63"/>
<polygon fill="lightgray" stroke="lightgray" stroke-width="0.5" points="109.47,-99.3 98.88,-99.64 107.37,-105.98 109.47,-99.3"/>
</g>
<!-- UIToken&#45;&gt;UIComponents -->
<g id="edge47" class="edge">
<title>UIToken&#45;&gt;UIComponents</title>
<path fill="none" stroke="lightgray" stroke-width="0.5" d="M448.49,-196.29C444.29,-193.4 439.74,-190.72 435.16,-188.75 429.47,-186.3 271.21,-158.61 186.91,-143.96"/>
<polygon fill="lightgray" stroke="lightgray" stroke-width="0.5" points="187.71,-140.55 177.26,-142.29 186.51,-147.45 187.71,-140.55"/>
</g>
<!-- UIToken&#45;&gt;WalletContext -->
<g id="edge51" class="edge">
<title>UIToken&#45;&gt;WalletContext</title>
<path fill="none" stroke="lightgray" stroke-width="0.5" d="M978.16,-83C963.91,-45.85 365.76,-37.17 187.07,-35.41"/>
<polygon fill="lightgray" stroke="lightgray" stroke-width="0.5" points="187.19,-31.91 177.16,-35.31 187.13,-38.91 187.19,-31.91"/>
<path fill="none" stroke="lightgray" stroke-width="0.5" d="M489.82,-196.25C494.03,-193.37 498.58,-190.7 503.16,-188.75 522.67,-180.47 529.41,-185.01 550.16,-180.75 635.25,-163.29 659.25,-166.59 740.16,-135"/>
<path fill="none" stroke="lightgray" stroke-width="0.5" d="M740.16,-133C790.42,-113.38 997.49,-135.37 978.16,-85"/>
</g>
<!-- UIToken&#45;&gt;WalletCore -->
<g id="edge49" class="edge">
<title>UIToken&#45;&gt;WalletCore</title>
<path fill="none" stroke="lightgray" stroke-width="0.5" d="M488.62,-196.56C506.97,-178.47 528.96,-150.51 509.16,-135"/>
</g>
<!-- UIToken&#45;&gt;WReachability -->
<g id="edge50" class="edge">
<title>UIToken&#45;&gt;WReachability</title>
<path fill="none" stroke="black" d="M488.49,-196.43C493.02,-193.29 498.02,-190.48 503.16,-188.75 563.84,-168.38 1019.33,-203.48 1079.16,-180.75 1090.58,-176.41 1101.21,-168.43 1109.9,-160.33"/>
<polygon fill="black" stroke="black" points="1112.23,-162.94 1116.83,-153.4 1107.28,-157.99 1112.23,-162.94"/>
</g>
<!-- UITransaction&#45;&gt;UIComponents -->
<g id="edge91" class="edge">
<title>UITransaction&#45;&gt;UIComponents</title>
<path fill="none" stroke="lightgray" stroke-width="0.5" d="M548.01,-271.08C545.71,-270.48 543.42,-269.94 541.16,-269.5 526.98,-266.74 292.73,-270.16 281.16,-261.5 264.03,-248.68 284.76,-226.33 266.16,-215.75"/>
</g>
<!-- UITransaction&#45;&gt;UIPasscode -->
<g id="edge90" class="edge">
<title>UITransaction&#45;&gt;UIPasscode</title>
<path fill="none" stroke="lightgray" stroke-width="0.5" d="M548.01,-271.05C545.72,-270.45 543.42,-269.93 541.16,-269.5 517.9,-265.11 136.74,-271.23 115.16,-261.5 105.49,-257.14 97.05,-249.37 90.32,-241.46"/>
<polygon fill="lightgray" stroke="lightgray" stroke-width="0.5" points="93.08,-239.31 84.18,-233.57 87.56,-243.61 93.08,-239.31"/>
</g>
<!-- UITransaction&#45;&gt;WalletContext -->
<g id="edge93" class="edge">
<title>UITransaction&#45;&gt;WalletContext</title>
<path fill="none" stroke="lightgray" stroke-width="0.5" d="M626.19,-278.73C661.29,-269.67 711.6,-251.18 740.16,-215.75"/>
</g>
<!-- UITransaction&#45;&gt;WalletCore -->
<g id="edge92" class="edge">
<title>UITransaction&#45;&gt;WalletCore</title>
<path fill="none" stroke="lightgray" stroke-width="0.5" d="M603.34,-269.16C605.14,-266.7 606.81,-264.12 608.16,-261.5 617.83,-242.83 618.29,-236.69 620.16,-215.75"/>
</g>
<!-- UITransaction&#45;&gt;Kingfisher -->
<g id="edge89" class="edge">
<title>UITransaction&#45;&gt;Kingfisher</title>
<path fill="none" stroke="black" d="M1098.16,-213.75C1110.89,-208.01 1104.95,-195.5 1117.16,-188.75 1134.74,-179.04 1191.2,-192.93 1207.16,-180.75 1224.41,-167.59 1202.94,-139.5 1224.16,-135"/>
<path fill="none" stroke="black" d="M626.3,-286.1C690.29,-284.89 821.14,-280.14 930.16,-261.5 1006.44,-248.46 1027.62,-247.56 1098.16,-215.75"/>
</g>
</g>
</svg>
