<svg width="40" height="40" viewBox="0 0 40 40" fill="none" xmlns="http://www.w3.org/2000/svg">
<path d="M17.5405 10.1443C17.7539 9.43375 18.6676 9.15085 19.2417 9.69806L20.0308 10.451L20.2935 10.7127C20.8913 11.3372 21.3872 12.0542 21.7993 12.8465L21.8013 12.8494L21.9585 13.1639C22.674 14.6302 23.0965 16.0855 23.0767 17.4656L23.0649 17.7606V17.7615C23.0627 17.7983 23.0693 17.8341 23.0815 17.8651L23.103 17.907C23.1113 17.9191 23.1201 17.9297 23.1294 17.9383L23.1313 17.9402H23.1323L23.1763 17.9686L23.2134 17.9744L23.2212 17.9734L23.2632 17.9627L23.3091 17.9256C23.5695 17.6235 23.7855 17.3267 23.9595 17.0359L24.3911 16.3143L24.4673 16.2029C24.8763 15.6828 25.6864 15.6732 26.1011 16.2215L26.6079 16.8914L26.7534 17.0916C27.0891 17.5701 27.3933 18.1234 27.6187 18.6287L27.6245 18.6424L27.7886 19.0506C28.1458 20.0136 28.3335 21.0405 28.3335 22.077C28.3335 24.1934 27.5763 26.2042 26.1919 27.7693L25.9067 28.076C24.335 29.6873 22.2343 30.5798 20.0005 30.5799C17.906 30.5799 15.9282 29.7958 14.394 28.3699L14.0933 28.076V28.075C13.425 27.3887 12.8832 26.6049 12.4829 25.7547L12.3198 25.3865C11.9411 24.4721 11.7268 23.425 11.6782 22.4168L11.6675 21.9881V21.9686L11.6685 21.9666L11.6675 21.9656C11.6833 20.6962 11.9688 19.4708 12.5161 18.3318L12.7358 17.9061C13.2758 16.9283 14.0112 16.0571 14.8823 15.3651L14.8833 15.3641L15.188 15.1092C15.4847 14.8446 15.759 14.5523 16.0073 14.2371L16.0093 14.2352L16.186 14.0027C16.5865 13.4532 16.9048 12.8525 17.1343 12.2156L17.2017 12.0115C17.2639 11.8065 17.3112 11.5966 17.3433 11.3836L17.5073 10.2928L17.5405 10.1443ZM19.1489 12.6277L19.0562 12.9041V12.9061C18.7187 13.8432 18.2302 14.7173 17.6099 15.5008L17.6108 15.5018C17.2355 15.978 16.8126 16.4137 16.3511 16.8016L16.1509 16.9647C15.4915 17.4886 14.9324 18.151 14.5229 18.8924L14.3569 19.2147V19.2156C13.94 20.083 13.7214 21.0131 13.7085 21.9852C13.7094 22.8824 13.8865 23.8325 14.2065 24.6053L14.3296 24.8846C14.6335 25.5302 15.0454 26.1265 15.5552 26.6502L15.7827 26.8729C16.9443 27.9532 18.4279 28.5379 20.0005 28.5379C21.6776 28.5378 23.2528 27.8723 24.4448 26.6502L24.6616 26.4178C25.7134 25.2291 26.2925 23.7004 26.2925 22.077C26.2925 21.1764 26.1052 20.2804 25.7515 19.4539V19.4549C25.6331 19.1901 25.4875 18.9122 25.3315 18.6522C25.2722 18.7342 25.2141 18.8181 25.1509 18.8992L24.854 19.2615L24.8511 19.2645C24.511 19.6558 24.0524 19.9102 23.5493 19.9891L23.3315 20.0125C23.1136 20.0251 22.8957 20.0042 22.6851 19.951L22.4771 19.8865C22.2018 19.7863 21.9504 19.63 21.7388 19.4324V19.4334C21.5549 19.2624 21.4022 19.0614 21.2856 18.8406L21.1821 18.6141C21.0594 18.3029 21.0063 17.9675 21.0269 17.6346C21.0915 16.5742 20.7585 15.284 19.9868 13.7869V13.7859C19.7455 13.3223 19.4736 12.9078 19.1743 12.5359C19.1654 12.5664 19.1583 12.5974 19.1489 12.6277Z" fill="white" stroke="white" stroke-width="0.2" stroke-linecap="round" stroke-linejoin="round"/>
</svg>
