<svg xmlns="http://www.w3.org/2000/svg" width="768" height="768"><path d="M228.013 491.932c-10.121 10.121-10.588 28.196.274 38.564 10.34 10.835 28.663 10.368 38.784.247l116.928-116.928 116.928 116.928c10.368 10.34 28.196 10.588 38.564-.274 10.834-10.34 10.615-28.416.247-38.784L422.81 374.757l116.928-116.681c10.368-10.615 10.588-28.444-.247-38.812-4.955-4.99-11.82-8.08-19.406-8.08a27.261 27.261 0 0 0-19.163 7.837L383.998 335.945 267.07 219.017c-10.121-10.121-28.444-10.588-38.812.274-10.835 10.34-10.368 28.416-.247 38.537l116.928 116.928-116.928 117.175z"/></svg>