<svg xmlns="http://www.w3.org/2000/svg" width="768" height="768"><path d="M103.918 138.928c10.742-12.278 28.795-14.37 41.969-5.466l3.185 2.456 512 448c13.301 11.638 14.648 31.854 3.011 45.155-10.742 12.277-28.795 14.37-41.969 5.466l-3.185-2.455-85.231-74.57c-43.713 20.704-94.223 34.487-149.577 34.487-186.398 0-320.12-158.698-320.12-208 0-27.68 42.449-89.84 112.499-139.04l-69.571-60.877c-13.301-11.638-14.648-31.854-3.011-45.155zM256 384c0 70.693 57.308 128 128 128 26.782 0 51.643-8.225 72.194-22.287l-66.386-58.06c-1.904.23-3.842.348-5.808.348-26.326 0-47.702-21.193-47.997-47.449l-66.376-58.084C260.91 343.765 256 363.309 256 384zm128.119-208C571.233 176 704 334.698 704 384c0 20.346-22.49 59.323-62.107 98.089l-130.947-114.59c-7.826-60.801-58.313-108.242-120.475-111.337l-6.983-.16-79.991-69.974c25.51-6.372 52.481-10.027 80.622-10.027z"/></svg>