<svg xmlns="http://www.w3.org/2000/svg" width="768" height="768" fill="none"><path fill="#000" d="M156.938 252.357h454.178c12.295 0 22.179-10.125 22.179-22.179 0-12.536-9.884-22.178-22.179-22.178H156.938C144.643 208 135 217.883 135 230.178c0 12.054 9.643 22.179 21.938 22.179Zm0 153.75h454.178c12.295 0 22.179-10.125 22.179-22.179 0-12.536-9.884-22.178-22.179-22.178H156.938c-12.295 0-21.938 9.884-21.938 22.178 0 12.054 9.643 22.179 21.938 22.179Zm0 153.75h454.178c12.295 0 22.179-10.125 22.179-22.179a22.118 22.118 0 0 0-22.179-22.178H156.938c-12.295 0-21.938 9.884-21.938 22.178 0 12.054 9.643 22.179 21.938 22.179Z"/></svg>