<svg width="768" height="768" fill="none" xmlns="http://www.w3.org/2000/svg"><path d="M156.67 252.266h454.178c12.295 0 22.179-10.125 22.179-22.179 0-12.536-9.884-22.178-22.179-22.178H156.67c-12.295 0-21.938 9.883-21.938 22.178 0 12.054 9.643 22.179 21.938 22.179Zm0 153.75h454.178c12.295 0 22.179-10.125 22.179-22.179 0-12.536-9.884-22.178-22.179-22.178H156.67c-12.295 0-21.938 9.884-21.938 22.178 0 12.054 9.643 22.179 21.938 22.179Zm0 153.75h454.178c12.295 0 22.179-10.125 22.179-22.179a22.12 22.12 0 0 0-22.179-22.178H156.67c-12.295 0-21.938 9.884-21.938 22.178 0 12.054 9.643 22.179 21.938 22.179Z" fill="#000"/></svg>