<svg width="768" height="768" fill="none" xmlns="http://www.w3.org/2000/svg"><path d="M478.194 190.182c5.623-5.623 14.741-5.623 20.365 0l79.259 79.259c5.623 5.624 5.623 14.742 0 20.365l-29.624 29.623c-5.623 5.624-14.741 5.624-20.364 0l-79.259-79.259c-5.624-5.623-5.624-14.741 0-20.364l29.623-29.624ZM180 508.258a48 48 0 0 1 14.059-33.941L378.57 289.806c5.624-5.623 14.741-5.623 20.365 0l79.259 79.259c5.623 5.624 5.623 14.741 0 20.365L293.683 573.941A48 48 0 0 1 259.742 588H194.4c-7.953 0-14.4-6.447-14.4-14.4v-65.342Z" fill="#000"/></svg>