<svg xmlns="http://www.w3.org/2000/svg" width="768" height="768" fill="none"><path fill="#000" d="M305.547 571.14c-3.622 6.519-8.149 10.684-13.581 12.495-5.071 2.173-10.322 2.535-15.755 1.086-5.07-1.086-9.416-3.621-13.038-7.605-3.621-3.622-5.794-8.149-6.519-13.581-.724-5.795.725-11.952 4.346-18.471l200.46-347.68c3.621-6.519 7.967-10.865 13.038-13.038 5.432-2.173 10.683-2.535 15.754-1.086 5.07 1.086 9.416 3.621 13.038 7.605 3.621 3.984 5.794 8.873 6.519 14.668 1.086 5.433-.181 11.227-3.803 17.384L305.547 571.14Zm-58.128-149.937c-30.422 0-54.144-10.503-71.166-31.508-17.021-21.006-25.532-49.617-25.532-85.834 0-24.265 3.802-45.089 11.408-62.473 7.605-17.384 18.652-30.785 33.138-40.201 14.487-9.416 31.871-14.124 52.152-14.124 30.422 0 54.144 10.502 71.166 31.508 17.022 20.644 25.533 49.074 25.533 85.29 0 24.265-3.803 45.271-11.409 63.017-7.605 17.384-18.651 30.784-33.138 40.201-14.487 9.416-31.871 14.124-52.152 14.124Zm0-45.633c8.692 0 16.117-2.535 22.273-7.605 6.157-5.433 10.865-13.4 14.125-23.903 3.259-10.503 4.889-23.903 4.889-40.201 0-24.265-3.622-42.192-10.865-53.781-7.243-11.59-17.384-17.384-30.422-17.384-8.692 0-16.116 2.535-22.273 7.605s-10.865 12.857-14.125 23.36c-3.259 10.503-4.889 23.903-4.889 40.2 0 24.628 3.622 42.736 10.865 54.325 7.243 11.59 17.384 17.384 30.422 17.384ZM520.13 580.919c-30.421 0-54.143-10.503-71.165-31.509-17.022-21.005-25.533-49.617-25.533-85.833 0-24.265 3.803-45.09 11.408-62.474 7.606-17.384 18.652-30.784 33.139-40.2 14.486-9.417 31.87-14.125 52.151-14.125 30.422 0 54.144 10.503 71.166 31.509 17.022 20.643 25.533 49.073 25.533 85.29 0 24.265-3.803 45.271-11.408 63.017-7.606 17.384-18.652 30.784-33.139 40.2-14.486 9.417-31.87 14.125-52.152 14.125Zm0-45.633c8.692 0 16.117-2.535 22.274-7.606 6.157-5.07 10.865-12.857 14.124-23.36 3.26-10.865 4.889-24.446 4.889-40.743 0-24.265-3.621-42.193-10.865-53.782-7.243-11.589-17.384-17.384-30.422-17.384-8.691 0-16.116 2.535-22.273 7.605-6.157 5.071-10.865 12.857-14.124 23.36-3.26 10.503-4.889 23.903-4.889 40.201 0 24.627 3.621 42.735 10.865 54.325 7.243 11.589 17.384 17.384 30.421 17.384Z"/></svg>