<svg xmlns="http://www.w3.org/2000/svg" width="768" height="768" fill="none"><path fill="#000" fill-rule="evenodd" d="M384 134.4c10.604 0 19.2 8.596 19.2 19.2v229.728l58.497-53.27c7.84-7.139 19.983-6.571 27.123 1.269 7.14 7.84 6.572 19.983-1.268 27.123l-90.625 82.527c-7.326 6.672-18.528 6.672-25.854 0l-90.624-82.527c-7.84-7.14-8.408-19.283-1.269-27.123 7.14-7.84 19.283-8.408 27.124-1.269l58.496 53.27V153.6c0-10.604 8.596-19.2 19.2-19.2ZM203.078 240.045c8.812 5.898 11.174 17.823 5.276 26.635C185.897 300.229 172.8 340.556 172.8 384c0 116.643 94.558 211.2 211.2 211.2 116.643 0 211.2-94.557 211.2-211.2 0-43.444-13.096-83.771-35.553-117.32-5.899-8.812-3.537-20.737 5.275-26.635 8.812-5.899 20.737-3.537 26.635 5.275C618.113 284.992 633.6 332.716 633.6 384c0 137.85-111.75 249.6-249.6 249.6S134.4 521.85 134.4 384c0-51.284 15.487-99.008 42.043-138.68 5.898-8.812 17.823-11.174 26.635-5.275Z" clip-rule="evenodd"/></svg>