<svg width="768" height="768" fill="none" xmlns="http://www.w3.org/2000/svg"><path fill-rule="evenodd" clip-rule="evenodd" d="M180.094 588.874c-10.837-10.824-10.842-28.377-.012-39.207l388.873-388.871c10.83-10.829 28.394-10.834 39.23-.011 10.836 10.824 10.842 28.377.012 39.207L219.324 588.863c-10.83 10.829-28.394 10.834-39.23.011Z" fill="#000"/><path fill-rule="evenodd" clip-rule="evenodd" d="M484.609 591.878c-.108 15.315-12.611 27.643-27.926 27.535l-274.393-1.931c-17.496-.124-31.648-14.276-31.772-31.772l-1.931-274.393c-.108-15.315 12.22-27.818 27.535-27.926 15.315-.108 27.818 12.22 27.926 27.535l1.769 251.257 251.257 1.769c15.315.108 27.643 12.611 27.535 27.926Z" fill="#000"/></svg>