<svg width="768" height="768" fill="none" xmlns="http://www.w3.org/2000/svg"><path d="M352 180.8c0-11.488-9.312-20.8-20.8-20.8h-81.6c-49.485 0-89.6 40.115-89.6 89.6v268.8c0 49.485 40.115 89.6 89.6 89.6h268.8c49.485 0 89.6-40.115 89.6-89.6v-81.6c0-11.488-9.312-20.8-20.8-20.8-11.488 0-20.8 9.312-20.8 20.8v81.6c0 26.509-21.491 48-48 48H249.6c-26.51 0-48-21.491-48-48V249.6c0-26.51 21.49-48 48-48h81.6c11.488 0 20.8-9.313 20.8-20.8Z" fill="#000"/><path d="M575.74 235.476c8.298-7.946 8.579-21.113.634-29.409-7.949-8.295-21.114-8.577-29.412-.631L374.959 370.215V306.73c0-11.488-9.312-20.8-20.8-20.8-11.487 0-20.8 9.312-20.8 20.8v109.935c0 13.27 10.76 24 24 24h109.94c11.487 0 20.8-9.312 20.8-20.8 0-11.487-9.313-20.8-20.8-20.8h-62.322L575.74 235.476Z" fill="#000"/></svg>