<svg width="768" height="768" fill="none" xmlns="http://www.w3.org/2000/svg"><path d="M343.741 522.054c38.33 0 74.25-11.572 104.143-31.34l105.589 105.831c6.991 6.75 15.911 10.125 25.554 10.125 20.009 0 34.714-15.67 34.714-35.438 0-9.161-3.134-18.08-9.884-24.83L498.991 441.054c21.697-30.858 34.473-68.224 34.473-108.724 0-104.384-85.339-189.723-189.723-189.723-104.143 0-189.723 85.339-189.723 189.723 0 104.384 85.339 189.724 189.723 189.724Zm0-50.625c-76.42 0-139.098-62.679-139.098-139.099 0-76.419 62.678-139.098 139.098-139.098 76.42 0 139.098 62.679 139.098 139.098 0 76.42-62.678 139.099-139.098 139.099Z" fill="#000"/></svg>