<svg xmlns="http://www.w3.org/2000/svg" width="768" height="744" fill="none"><path fill="#000" fill-rule="evenodd" d="M371.491 134.906c7.09-6.455 17.928-6.455 25.018 0l87.701 79.848c7.588 6.908 8.138 18.66 1.23 26.248-6.909 7.588-18.66 8.139-26.248 1.23l-56.611-51.542v222.296c0 10.262-8.319 18.58-18.581 18.58-10.262 0-18.581-8.318-18.581-18.58V190.69l-56.611 51.542c-7.588 6.909-19.339 6.358-26.248-1.23-6.908-7.588-6.358-19.34 1.23-26.248l87.701-79.848Zm-162.577 97.395c8.528 5.708 10.814 17.249 5.105 25.777-21.732 32.466-34.406 71.493-34.406 113.535C179.613 484.494 271.119 576 384 576s204.387-91.506 204.387-204.387c0-42.041-12.675-81.069-34.406-113.536-5.708-8.528-3.421-20.068 5.106-25.776 8.528-5.708 20.069-3.422 25.777 5.106 25.696 38.392 40.684 84.578 40.684 134.206 0 133.404-108.144 241.548-241.548 241.548S142.452 505.017 142.452 371.613c0-49.628 14.987-95.814 40.686-134.207 5.708-8.527 17.249-10.813 25.776-5.105Z" clip-rule="evenodd"/></svg>