<svg width="768" height="768" fill="none" xmlns="http://www.w3.org/2000/svg"><path fill-rule="evenodd" clip-rule="evenodd" d="m384 153.234 103.55 94.278c7.841 7.139 8.41 19.282 1.271 27.123-7.139 7.841-19.282 8.41-27.123 1.272L403.2 222.646v229.706c0 10.604-8.596 19.2-19.2 19.2s-19.2-8.596-19.2-19.2V222.647l-58.498 53.26c-7.841 7.138-19.984 6.569-27.123-1.272-7.139-7.841-6.57-19.984 1.271-27.123L384 153.234Zm-180.922 86.811c8.812 5.898 11.174 17.823 5.275 26.635C185.896 300.229 172.8 340.556 172.8 384c0 116.643 94.557 211.2 211.2 211.2 116.643 0 211.2-94.557 211.2-211.2 0-43.444-13.096-83.771-35.553-117.32-5.899-8.812-3.537-20.737 5.275-26.635 8.812-5.899 20.737-3.537 26.635 5.275C618.113 284.992 633.6 332.716 633.6 384c0 137.85-111.75 249.6-249.6 249.6S134.4 521.85 134.4 384c0-51.284 15.487-99.008 42.043-138.68 5.898-8.812 17.823-11.174 26.635-5.275Z" fill="#000"/></svg>