<svg width="768" height="768" fill="none" xmlns="http://www.w3.org/2000/svg"><path d="M352 180.804c0-11.487-9.312-20.8-20.8-20.8h-81.6c-49.485 0-89.6 40.115-89.6 89.6v268.799c0 49.485 40.115 89.6 89.6 89.6h268.8c49.485 0 89.6-40.115 89.6-89.6v-81.6c0-11.488-9.312-20.8-20.8-20.8-11.488 0-20.8 9.312-20.8 20.8v81.6c0 26.509-21.491 48-48 48H249.6c-26.51 0-48-21.491-48-48V249.604c0-26.51 21.49-48 48-48h81.6c11.488 0 20.8-9.312 20.8-20.8Z" fill="#000"/><path d="M367.888 368.957c-8.295 7.946-8.576 21.114-.631 29.408 7.949 8.295 21.114 8.579 29.408.631l172.004-164.775v63.483c0 11.487 9.313 20.8 20.8 20.8 11.488 0 20.8-9.313 20.8-20.8V187.767c0-13.246-10.733-24-24-24H476.333c-11.487 0-20.8 9.312-20.8 20.8 0 11.487 9.313 20.8 20.8 20.8h62.321l-170.766 163.59Z" fill="#000"/></svg>