<svg width="768" height="768" fill="none" xmlns="http://www.w3.org/2000/svg"><path d="M357.034 148.673c9.346-24.911 44.584-24.911 53.93 0l51.032 136.025a28.8 28.8 0 0 0 25.937 18.665l146.988 5.25c27.009.964 37.935 35.244 16.466 51.66l-114.582 87.613a28.798 28.798 0 0 0-10.151 30.954l40.131 137.373c7.507 25.695-21.042 46.837-43.432 32.163l-123.567-80.989a28.799 28.799 0 0 0-31.575 0l-123.567 80.989c-22.389 14.674-50.938-6.468-43.432-32.164l40.132-137.372a28.801 28.801 0 0 0-10.151-30.954l-114.582-87.613c-21.469-16.416-10.543-50.696 16.466-51.66l146.988-5.25a28.8 28.8 0 0 0 25.937-18.665l51.032-136.025Z" fill="#000"/><path fill-rule="evenodd" clip-rule="evenodd" d="M345.799 144.458c13.24-35.291 63.16-35.291 76.4 0l51.033 136.025a16.798 16.798 0 0 0 15.129 10.888l146.988 5.25c38.263 1.366 53.741 49.929 23.326 73.185l-114.581 87.612a16.803 16.803 0 0 0-5.922 18.057l40.132 137.373c10.634 36.402-29.81 66.353-61.529 45.564l-123.567-80.989a16.8 16.8 0 0 0-18.418 0l-123.568 80.989c-31.718 20.789-72.163-9.162-61.528-45.564l40.131-137.373a16.8 16.8 0 0 0-5.921-18.057l-114.582-87.612c-30.414-23.256-14.936-71.819 23.326-73.185l146.988-5.25a16.8 16.8 0 0 0 15.13-10.888l51.033-136.025Zm53.929 8.43c-5.452-14.531-26.007-14.531-31.459 0l-51.032 136.025a40.801 40.801 0 0 1-36.744 26.443l-146.988 5.249c-15.755.563-22.129 20.559-9.605 30.135l114.582 87.613a40.8 40.8 0 0 1 14.38 43.852l-40.131 137.372c-4.379 14.99 12.275 27.323 25.335 18.762l123.567-80.988a40.8 40.8 0 0 1 44.731 0l123.567 80.988c13.061 8.561 29.715-3.772 25.336-18.761l-40.132-137.373a40.8 40.8 0 0 1 14.381-43.852l114.582-87.613c12.523-9.576 6.15-29.572-9.605-30.135l-146.988-5.249a40.8 40.8 0 0 1-36.744-26.443l-51.033-136.025Z" fill="#000"/></svg>