<svg width="40" height="40" viewBox="0 0 40 40" fill="none" xmlns="http://www.w3.org/2000/svg">
<path d="M19.9907 28.8709C19.6134 28.8709 19.3073 28.7503 19.0723 28.5091C18.8434 28.2679 18.729 27.9555 18.729 27.5721V16.9588L18.8682 13.5911L19.6011 14.055L16.7993 17.2464L14.7119 19.3245C14.5944 19.442 14.4614 19.5379 14.313 19.6121C14.1646 19.6802 13.9976 19.7142 13.812 19.7142C13.4718 19.7142 13.1873 19.6028 12.9585 19.3802C12.7297 19.1513 12.6152 18.8576 12.6152 18.4988C12.6152 18.1587 12.7451 17.8587 13.0049 17.5989L19.063 11.5223C19.1805 11.4048 19.3228 11.312 19.4897 11.244C19.6567 11.1759 19.8237 11.1419 19.9907 11.1419C20.1639 11.1419 20.3309 11.1759 20.4917 11.244C20.6587 11.312 20.8009 11.4048 20.9185 11.5223L26.9858 17.5989C27.2456 17.8587 27.3755 18.1587 27.3755 18.4988C27.3755 18.8576 27.2611 19.1513 27.0322 19.3802C26.8034 19.6028 26.5189 19.7142 26.1787 19.7142C25.9932 19.7142 25.8231 19.6802 25.6685 19.6121C25.52 19.5379 25.3901 19.442 25.2788 19.3245L23.1821 17.2464L20.3804 14.055L21.1133 13.5911L21.2432 16.9588V27.5721C21.2432 27.9555 21.1257 28.2679 20.8906 28.5091C20.6618 28.7503 20.3618 28.8709 19.9907 28.8709Z" fill="white"/>
</svg>
