<svg width="40" height="40" viewBox="0 0 40 40" fill="none" xmlns="http://www.w3.org/2000/svg">
<mask id="path-2-outside-1_33078_577169" maskUnits="userSpaceOnUse" x="8.29883" y="8.61206" width="23" height="22" fill="black">
<rect fill="white" x="8.29883" y="8.61206" width="23" height="22"/>
<path fill-rule="evenodd" clip-rule="evenodd" d="M20.5314 10.3222C20.9862 9.8675 21.603 9.61206 22.2462 9.61206C22.8893 9.61206 23.506 9.86746 23.9609 10.3221L26.346 12.7057C26.8007 13.1606 27.0561 13.7774 27.0561 14.4205C27.0561 15.0637 26.8007 15.6805 26.346 16.1353L24.3075 18.1738L30.431 24.2973C30.7906 24.6569 30.7906 25.2399 30.431 25.5996C30.0714 25.9592 29.4883 25.9592 29.1287 25.5996L23.0053 19.4761L20.9517 21.5296C20.4969 21.9843 19.8801 22.2398 19.2369 22.2398C18.5938 22.2398 17.9769 21.9843 17.5221 21.5296L15.1387 19.1462C14.684 18.6914 14.4284 18.0744 14.4284 17.4313C14.4284 16.7882 14.6839 16.1713 15.1386 15.7165L20.5006 10.3544C20.5106 10.3435 20.5208 10.3327 20.5314 10.3222ZM21.8537 11.6053C21.8476 11.6118 21.8414 11.6182 21.835 11.6246L16.441 17.0186C16.3316 17.128 16.2701 17.2765 16.2701 17.4313C16.2701 17.5861 16.3316 17.7346 16.441 17.844L18.8242 20.2272C18.9336 20.3366 19.0822 20.3981 19.2369 20.3981C19.3917 20.3981 19.5401 20.3367 19.6496 20.2273M21.8537 11.6053C21.9609 11.508 22.1007 11.4537 22.2462 11.4537C22.401 11.4537 22.5494 11.5152 22.6589 11.6247L25.0436 14.0078C25.153 14.1173 25.2145 14.2657 25.2145 14.4205C25.2145 14.5753 25.153 14.7237 25.0436 14.8332L19.6496 20.2273M10.4918 27.3078C10.7617 25.8431 12.0388 24.7799 13.5281 24.7799H18.1976C19.6859 24.7799 20.9624 25.8417 21.2334 27.3051L21.4625 28.5415H21.5044C22.0129 28.5415 22.4252 28.9538 22.4252 29.4623C22.4252 29.9709 22.0129 30.3831 21.5044 30.3831H20.7128C20.7012 30.3834 20.6897 30.3834 20.6782 30.3831H11.0493C11.0378 30.3834 11.0263 30.3834 11.0148 30.3831H10.2197C9.7111 30.3831 9.29883 29.9709 9.29883 29.4623C9.29883 28.9538 9.7111 28.5415 10.2197 28.5415H10.2644L10.4918 27.3078ZM12.1371 28.5415H19.5895L19.4226 27.6405C19.3132 27.05 18.7981 26.6216 18.1976 26.6216H13.5281C12.9272 26.6216 12.4118 27.0506 12.3029 27.6416L12.1371 28.5415Z"/>
</mask>
<path fill-rule="evenodd" clip-rule="evenodd" d="M20.5314 10.3222C20.9862 9.8675 21.603 9.61206 22.2462 9.61206C22.8893 9.61206 23.506 9.86746 23.9609 10.3221L26.346 12.7057C26.8007 13.1606 27.0561 13.7774 27.0561 14.4205C27.0561 15.0637 26.8007 15.6805 26.346 16.1353L24.3075 18.1738L30.431 24.2973C30.7906 24.6569 30.7906 25.2399 30.431 25.5996C30.0714 25.9592 29.4883 25.9592 29.1287 25.5996L23.0053 19.4761L20.9517 21.5296C20.4969 21.9843 19.8801 22.2398 19.2369 22.2398C18.5938 22.2398 17.9769 21.9843 17.5221 21.5296L15.1387 19.1462C14.684 18.6914 14.4284 18.0744 14.4284 17.4313C14.4284 16.7882 14.6839 16.1713 15.1386 15.7165L20.5006 10.3544C20.5106 10.3435 20.5208 10.3327 20.5314 10.3222ZM21.8537 11.6053C21.8476 11.6118 21.8414 11.6182 21.835 11.6246L16.441 17.0186C16.3316 17.128 16.2701 17.2765 16.2701 17.4313C16.2701 17.5861 16.3316 17.7346 16.441 17.844L18.8242 20.2272C18.9336 20.3366 19.0822 20.3981 19.2369 20.3981C19.3917 20.3981 19.5401 20.3367 19.6496 20.2273M21.8537 11.6053C21.9609 11.508 22.1007 11.4537 22.2462 11.4537C22.401 11.4537 22.5494 11.5152 22.6589 11.6247L25.0436 14.0078C25.153 14.1173 25.2145 14.2657 25.2145 14.4205C25.2145 14.5753 25.153 14.7237 25.0436 14.8332L19.6496 20.2273M10.4918 27.3078C10.7617 25.8431 12.0388 24.7799 13.5281 24.7799H18.1976C19.6859 24.7799 20.9624 25.8417 21.2334 27.3051L21.4625 28.5415H21.5044C22.0129 28.5415 22.4252 28.9538 22.4252 29.4623C22.4252 29.9709 22.0129 30.3831 21.5044 30.3831H20.7128C20.7012 30.3834 20.6897 30.3834 20.6782 30.3831H11.0493C11.0378 30.3834 11.0263 30.3834 11.0148 30.3831H10.2197C9.7111 30.3831 9.29883 29.9709 9.29883 29.4623C9.29883 28.9538 9.7111 28.5415 10.2197 28.5415H10.2644L10.4918 27.3078ZM12.1371 28.5415H19.5895L19.4226 27.6405C19.3132 27.05 18.7981 26.6216 18.1976 26.6216H13.5281C12.9272 26.6216 12.4118 27.0506 12.3029 27.6416L12.1371 28.5415Z" fill="white"/>
<path d="M20.5314 10.3222L20.4607 10.2515L20.4607 10.2515L20.5314 10.3222ZM23.9609 10.3221L23.8902 10.3928L23.8902 10.3928L23.9609 10.3221ZM26.346 12.7057L26.4167 12.635L26.4167 12.635L26.346 12.7057ZM26.346 16.1353L26.4167 16.206L26.4167 16.206L26.346 16.1353ZM24.3075 18.1738L24.2368 18.1031C24.218 18.1219 24.2075 18.1473 24.2075 18.1738C24.2075 18.2004 24.218 18.2258 24.2368 18.2445L24.3075 18.1738ZM30.431 24.2973L30.5017 24.2266L30.431 24.2973ZM30.431 25.5996L30.5017 25.6703L30.431 25.5996ZM29.1287 25.5996L29.058 25.6703L29.1287 25.5996ZM23.0053 19.4761L23.076 19.4054C23.0369 19.3663 22.9736 19.3663 22.9345 19.4054L23.0053 19.4761ZM20.9517 21.5296L21.0224 21.6004L21.0224 21.6003L20.9517 21.5296ZM17.5221 21.5296L17.4514 21.6003L17.4514 21.6004L17.5221 21.5296ZM15.1387 19.1462L15.068 19.2169L15.068 19.2169L15.1387 19.1462ZM15.1386 15.7165L15.0679 15.6458L15.0679 15.6458L15.1386 15.7165ZM20.5006 10.3544L20.5714 10.4252L20.5747 10.4217L20.5006 10.3544ZM21.835 11.6246L21.7643 11.5538L21.7643 11.5538L21.835 11.6246ZM21.8537 11.6053L21.7863 11.5311L21.781 11.5367L21.8537 11.6053ZM16.441 17.0186L16.3703 16.9478L16.3703 16.9479L16.441 17.0186ZM16.441 17.844L16.3703 17.9147L16.3703 17.9148L16.441 17.844ZM18.8242 20.2272L18.7535 20.2979L18.7535 20.2979L18.8242 20.2272ZM19.6496 20.2273L19.7202 20.298L19.7203 20.298L19.6496 20.2273ZM22.6589 11.6247L22.5882 11.6954L22.5882 11.6954L22.6589 11.6247ZM25.0436 14.0078L25.1143 13.9371L25.1142 13.9371L25.0436 14.0078ZM25.0436 14.8332L25.1144 14.9039L25.1144 14.9039L25.0436 14.8332ZM10.4918 27.3078L10.3934 27.2897L10.4918 27.3078ZM21.2334 27.3051L21.3318 27.2868L21.2334 27.3051ZM21.4625 28.5415L21.3641 28.5597C21.3729 28.6071 21.4142 28.6415 21.4625 28.6415V28.5415ZM20.7128 30.3831V30.2831L20.7109 30.2832L20.7128 30.3831ZM20.6782 30.3831L20.6801 30.2831H20.6782V30.3831ZM11.0493 30.3831V30.2831L11.0474 30.2832L11.0493 30.3831ZM11.0148 30.3831L11.0167 30.2831H11.0148V30.3831ZM10.2644 28.5415V28.6415C10.3126 28.6415 10.354 28.607 10.3627 28.5596L10.2644 28.5415ZM19.5895 28.5415V28.6415C19.6192 28.6415 19.6473 28.6283 19.6663 28.6054C19.6853 28.5826 19.6932 28.5525 19.6878 28.5233L19.5895 28.5415ZM12.1371 28.5415L12.0387 28.5234C12.0333 28.5526 12.0412 28.5826 12.0602 28.6055C12.0792 28.6283 12.1074 28.6415 12.1371 28.6415V28.5415ZM19.4226 27.6405L19.5209 27.6223L19.4226 27.6405ZM12.3029 27.6416L12.2046 27.6235L12.3029 27.6416ZM22.2462 9.51206C21.5765 9.51206 20.9343 9.77803 20.4607 10.2515L20.6021 10.3929C21.0382 9.95697 21.6295 9.71206 22.2462 9.71206V9.51206ZM24.0316 10.2514C23.558 9.77799 22.9158 9.51206 22.2462 9.51206V9.71206C22.8627 9.71206 23.4541 9.95693 23.8902 10.3928L24.0316 10.2514ZM27.1561 14.4205C27.1561 13.7509 26.8902 13.1086 26.4167 12.635L26.2753 12.7764C26.7112 13.2125 26.9561 13.8039 26.9561 14.4205H27.1561ZM26.4167 16.206C26.8902 15.7324 27.1561 15.0902 27.1561 14.4205H26.9561C26.9561 15.0372 26.7112 15.6285 26.2753 16.0646L26.4167 16.206ZM24.3782 18.2445L26.4167 16.206L26.2753 16.0646L24.2368 18.1031L24.3782 18.2445ZM30.5017 24.2266L24.3782 18.1031L24.2368 18.2445L30.3603 24.368L30.5017 24.2266ZM30.5017 25.6703C30.9003 25.2716 30.9003 24.6252 30.5017 24.2266L30.3603 24.368C30.6808 24.6886 30.6808 25.2083 30.3603 25.5288L30.5017 25.6703ZM29.058 25.6703C29.4567 26.0689 30.103 26.0689 30.5017 25.6703L30.3603 25.5288C30.0397 25.8494 29.52 25.8494 29.1994 25.5288L29.058 25.6703ZM22.9345 19.5468L29.058 25.6703L29.1994 25.5288L23.076 19.4054L22.9345 19.5468ZM19.2369 22.3398C19.9066 22.3398 20.5488 22.0738 21.0224 21.6004L20.881 21.4589C20.4449 21.8949 19.8535 22.1398 19.2369 22.1398V22.3398ZM17.4514 21.6004C17.925 22.0738 18.5672 22.3398 19.2369 22.3398V22.1398C18.6203 22.1398 18.0289 21.8949 17.5928 21.4589L17.4514 21.6004ZM14.3284 17.4313C14.3284 18.101 14.5945 18.7433 15.068 19.2169L15.2094 19.0755C14.7734 18.6394 14.5284 18.0479 14.5284 17.4313H14.3284ZM15.0679 15.6458C14.5944 16.1194 14.3284 16.7616 14.3284 17.4313H14.5284C14.5284 16.8147 14.7733 16.2233 15.2093 15.7872L15.0679 15.6458ZM20.4299 10.2837L15.0679 15.6458L15.2093 15.7872L20.5713 10.4251L20.4299 10.2837ZM20.4607 10.2515C20.449 10.2632 20.4376 10.2751 20.4266 10.2872L20.5747 10.4217C20.5835 10.4119 20.5927 10.4023 20.6021 10.3929L20.4607 10.2515ZM21.9057 11.6953C21.9128 11.6883 21.9197 11.6811 21.9264 11.674L21.781 11.5367C21.7755 11.5425 21.77 11.5482 21.7643 11.5538L21.9057 11.6953ZM16.5117 17.0893L21.9057 11.6953L21.7643 11.5538L16.3703 16.9478L16.5117 17.0893ZM16.3701 17.4313C16.3701 17.303 16.421 17.18 16.5117 17.0893L16.3703 16.9479C16.2421 17.0761 16.1701 17.25 16.1701 17.4313H16.3701ZM16.5117 17.7733C16.421 17.6826 16.3701 17.5596 16.3701 17.4313H16.1701C16.1701 17.6126 16.2421 17.7865 16.3703 17.9147L16.5117 17.7733ZM18.8949 20.1565L16.5117 17.7733L16.3703 17.9148L18.7535 20.2979L18.8949 20.1565ZM19.2369 20.2981C19.1087 20.2981 18.9856 20.2471 18.8948 20.1564L18.7535 20.2979C18.8817 20.426 19.0556 20.4981 19.2369 20.4981V20.2981ZM19.5789 20.1565C19.4881 20.2472 19.3652 20.2981 19.2369 20.2981V20.4981C19.4182 20.4981 19.592 20.4261 19.7202 20.298L19.5789 20.1565ZM21.9209 11.6794C22.0097 11.5987 22.1256 11.5537 22.2462 11.5537V11.3537C22.0758 11.3537 21.912 11.4173 21.7865 11.5313L21.9209 11.6794ZM22.2462 11.5537C22.3745 11.5537 22.4975 11.6047 22.5882 11.6954L22.7296 11.5539C22.6014 11.4257 22.4275 11.3537 22.2462 11.3537V11.5537ZM24.9728 14.0785C25.0635 14.1692 25.1145 14.2922 25.1145 14.4205H25.3145C25.3145 14.2392 25.2425 14.0653 25.1143 13.9371L24.9728 14.0785ZM25.1145 14.4205C25.1145 14.5488 25.0636 14.6718 24.9729 14.7625L25.1144 14.9039C25.2425 14.7756 25.3145 14.6018 25.3145 14.4205H25.1145ZM24.9729 14.7625L19.5788 20.1566L19.7203 20.298L25.1144 14.9039L24.9729 14.7625ZM13.5281 24.6799C11.9905 24.6799 10.6721 25.7775 10.3934 27.2897L10.5901 27.3259C10.8513 25.9087 12.087 24.8799 13.5281 24.8799V24.6799ZM18.1976 24.6799H13.5281V24.8799H18.1976V24.6799ZM21.3318 27.2868C21.0519 25.776 19.7341 24.6799 18.1976 24.6799V24.8799C19.6377 24.8799 20.8728 25.9073 21.1351 27.3233L21.3318 27.2868ZM21.5608 28.5233L21.3318 27.2868L21.1351 27.3233L21.3641 28.5597L21.5608 28.5233ZM21.5044 28.4415H21.4625V28.6415H21.5044V28.4415ZM22.5252 29.4623C22.5252 28.8985 22.0682 28.4415 21.5044 28.4415V28.6415C21.9577 28.6415 22.3252 29.009 22.3252 29.4623H22.5252ZM21.5044 30.4831C22.0682 30.4831 22.5252 30.0261 22.5252 29.4623H22.3252C22.3252 29.9156 21.9577 30.2831 21.5044 30.2831V30.4831ZM20.7128 30.4831H21.5044V30.2831H20.7128V30.4831ZM20.6763 30.4831C20.689 30.4834 20.7018 30.4834 20.7147 30.4831L20.7109 30.2832C20.7006 30.2834 20.6903 30.2834 20.6801 30.2832L20.6763 30.4831ZM11.0493 30.4831H20.6782V30.2831H11.0493V30.4831ZM11.0129 30.4831C11.0257 30.4834 11.0385 30.4834 11.0512 30.4831L11.0474 30.2832C11.0372 30.2834 11.027 30.2834 11.0167 30.2832L11.0129 30.4831ZM10.2197 30.4831H11.0148V30.2831H10.2197V30.4831ZM9.19883 29.4623C9.19883 30.0261 9.65587 30.4831 10.2197 30.4831V30.2831C9.76633 30.2831 9.39883 29.9156 9.39883 29.4623H9.19883ZM10.2197 28.4415C9.65587 28.4415 9.19883 28.8985 9.19883 29.4623H9.39883C9.39883 29.009 9.76633 28.6415 10.2197 28.6415V28.4415ZM10.2644 28.4415H10.2197V28.6415H10.2644V28.4415ZM10.3934 27.2897L10.166 28.5234L10.3627 28.5596L10.5901 27.3259L10.3934 27.2897ZM19.5895 28.4415H12.1371V28.6415H19.5895V28.4415ZM19.3242 27.6587L19.4911 28.5597L19.6878 28.5233L19.5209 27.6223L19.3242 27.6587ZM18.1976 26.7216C18.7499 26.7216 19.2236 27.1156 19.3242 27.6587L19.5209 27.6223C19.4027 26.9844 18.8463 26.5216 18.1976 26.5216V26.7216ZM13.5281 26.7216H18.1976V26.5216H13.5281V26.7216ZM12.4013 27.6597C12.5015 27.1161 12.9754 26.7216 13.5281 26.7216V26.5216C12.8789 26.5216 12.3222 26.985 12.2046 27.6235L12.4013 27.6597ZM12.2354 28.5596L12.4013 27.6597L12.2046 27.6235L12.0387 28.5234L12.2354 28.5596ZM26.4167 12.635L24.0315 10.2514L23.8902 10.3928L26.2753 12.7765L26.4167 12.635ZM21.0224 21.6003L23.076 19.5468L22.9345 19.4054L20.881 21.4589L21.0224 21.6003ZM15.068 19.2169L17.4514 21.6003L17.5928 21.4589L15.2094 19.0755L15.068 19.2169ZM22.5882 11.6954L24.9729 14.0785L25.1142 13.9371L22.7296 11.5539L22.5882 11.6954Z" fill="white" mask="url(#path-2-outside-1_33078_577169)"/>
</svg>
