<svg width="40" height="40" viewBox="0 0 40 40" fill="none" xmlns="http://www.w3.org/2000/svg">
<path d="M31.1396 20.2441C31.1396 21.6191 30.9069 22.9189 30.4414 24.1436C29.9759 25.361 29.3242 26.4603 28.4863 27.4414C27.6556 28.4225 26.6816 29.2354 25.5645 29.8799C24.4473 30.5316 23.2334 30.972 21.9229 31.2012V32.5654C21.9229 32.8376 21.862 33.0417 21.7402 33.1777C21.6185 33.3138 21.4645 33.3783 21.2783 33.3711C21.0993 33.3711 20.9059 33.2959 20.6982 33.1455L17.2178 30.6318C16.9743 30.4528 16.8525 30.2451 16.8525 30.0088C16.8597 29.7725 16.9814 29.5684 17.2178 29.3965L20.709 26.8828C20.9095 26.7396 21.0993 26.6644 21.2783 26.6572C21.4645 26.6501 21.6185 26.7145 21.7402 26.8506C21.862 26.9867 21.9229 27.1872 21.9229 27.4521V28.8486C22.9111 28.6338 23.8242 28.265 24.6621 27.7422C25.5072 27.2194 26.2412 26.5749 26.8643 25.8086C27.4873 25.0423 27.9707 24.1901 28.3145 23.252C28.6654 22.3066 28.8408 21.304 28.8408 20.2441C28.8408 19.0339 28.6081 17.8988 28.1426 16.8389C27.6771 15.779 27.0469 14.8516 26.252 14.0566C25.9798 13.7559 25.8545 13.4658 25.876 13.1865C25.8975 12.9001 25.9977 12.6566 26.1768 12.4561C26.3844 12.234 26.653 12.1123 26.9824 12.0908C27.319 12.0693 27.6234 12.2054 27.8955 12.499C28.8981 13.4801 29.6895 14.6403 30.2695 15.9795C30.8496 17.3115 31.1396 18.7331 31.1396 20.2441ZM8.86035 20.2441C8.86035 18.8691 9.08952 17.5693 9.54785 16.3447C10.0133 15.1201 10.665 14.0208 11.5029 13.0469C12.3408 12.0658 13.3184 11.2493 14.4355 10.5977C15.5527 9.94596 16.7666 9.50911 18.0771 9.28711V7.91211C18.0771 7.63997 18.1344 7.43945 18.249 7.31055C18.3708 7.17448 18.5247 7.11003 18.7109 7.11719C18.8971 7.11719 19.0941 7.19238 19.3018 7.34277L22.7822 9.85645C23.0186 10.0355 23.1367 10.2432 23.1367 10.4795C23.1367 10.7158 23.0186 10.9199 22.7822 11.0918L19.291 13.6055C19.0905 13.7487 18.8971 13.8239 18.7109 13.8311C18.5247 13.8382 18.3708 13.7738 18.249 13.6377C18.1344 13.5016 18.0771 13.3011 18.0771 13.0361V11.6396C17.0889 11.8545 16.1722 12.2233 15.3271 12.7461C14.4821 13.2689 13.748 13.9134 13.125 14.6797C12.502 15.446 12.015 16.3018 11.6641 17.2471C11.3203 18.1852 11.1484 19.1842 11.1484 20.2441C11.1484 21.4544 11.3812 22.5895 11.8467 23.6494C12.3122 24.7093 12.9495 25.6331 13.7588 26.4209C14.0238 26.7288 14.1455 27.026 14.124 27.3125C14.1025 27.5918 14.0023 27.8281 13.8232 28.0215C13.6084 28.2435 13.3327 28.3652 12.9961 28.3867C12.6667 28.4154 12.3695 28.2829 12.1045 27.9893C11.1019 27.0081 10.3105 25.8516 9.73047 24.5195C9.15039 23.1803 8.86035 21.7552 8.86035 20.2441Z" fill="white"/>
</svg>
