<svg xmlns="http://www.w3.org/2000/svg" width="60" height="60" fill="none"><path stroke="#469CEC" stroke-linecap="round" stroke-linejoin="round" stroke-width="3.047" d="m22.062 18.608 1.609-5.648-5.288-1.847"/><path stroke="#469CEC" stroke-linecap="round" stroke-linejoin="round" stroke-width="3.047" d="M23.67 12.96c-6.26 2.333-10.996 8.045-11.743 15.14-1.048 9.982 6.193 18.924 16.175 19.973S47.026 41.882 48.075 31.9c.746-7.096-2.699-13.67-8.339-17.252M24.69 37.068l10.62-14.136"/><path fill="#469CEC" d="M35.35 37.676a2.929 2.929 0 1 0 0-5.858 2.929 2.929 0 0 0 0 5.858m-10.7-9.492a2.929 2.929 0 1 0-.001-5.858 2.929 2.929 0 0 0 0 5.857"/></svg>