<svg width="22" height="22" viewBox="0 0 22 22" fill="none" xmlns="http://www.w3.org/2000/svg">
<path d="M11 0C17.0751 0 22 4.92487 22 11C22 17.0751 17.0751 22 11 22C4.92487 22 0 17.0751 0 11C0 4.92487 4.92487 0 11 0ZM9.24121 9.07617C8.99772 9.07617 8.79362 9.15495 8.62891 9.3125C8.46419 9.47005 8.38184 9.66341 8.38184 9.89258C8.38184 10.1289 8.46419 10.3258 8.62891 10.4834C8.79362 10.6338 8.99772 10.709 9.24121 10.709H10.3262V15.1992H9.04785C8.80436 15.1992 8.60026 15.278 8.43555 15.4355C8.278 15.5859 8.19922 15.7793 8.19922 16.0156C8.19922 16.252 8.278 16.4489 8.43555 16.6064C8.60026 16.7568 8.80436 16.832 9.04785 16.832H13.3662C13.6097 16.832 13.8102 16.7568 13.9678 16.6064C14.1325 16.4489 14.2148 16.252 14.2148 16.0156C14.2148 15.7793 14.1325 15.5859 13.9678 15.4355C13.8102 15.278 13.6097 15.1992 13.3662 15.1992H12.1738V10.1289C12.1738 9.80664 12.0951 9.55241 11.9375 9.36621C11.7871 9.17285 11.5615 9.07617 11.2607 9.07617H9.24121ZM10.8633 4.5C10.4622 4.5 10.1185 4.64323 9.83203 4.92969C9.55273 5.20898 9.41309 5.55273 9.41309 5.96094C9.41309 6.36198 9.55273 6.70573 9.83203 6.99219C10.1185 7.27148 10.4622 7.41113 10.8633 7.41113C11.2643 7.41113 11.6045 7.27148 11.8838 6.99219C12.1702 6.70573 12.3135 6.36198 12.3135 5.96094C12.3135 5.55273 12.1702 5.20898 11.8838 4.92969C11.6045 4.64323 11.2643 4.5 10.8633 4.5Z" fill="#007AFF"/>
</svg>
