<svg xmlns="http://www.w3.org/2000/svg" width="161" height="160" fill="none"><g clip-path="url(#a)"><path fill="url(#b)" d="M113.68 86.434q-.233-.555-.485-1.1a35.998 35.998 0 0 0-65.39 0 36 36 0 0 0 11.312 44.027 36 36 0 0 0 26.716 6.642A36 36 0 0 0 116.5 100.4a35.8 35.8 0 0 0-2.82-13.966m-3.048 28.604-1.597-4.2 3.929-2.103a33 33 0 0 1-2.332 6.307zm-62.338-6.244 3.88 2.079-1.574 4.147a33 33 0 0 1-2.306-6.226m-1.068-8.394q0-1.633.155-3.227l2.973 3.297-2.961 3.287a35 35 0 0 1-.167-3.357m3.347-14.566 1.605 4.244-3.94 2.107a33.2 33.2 0 0 1 2.335-6.351m62.416 6.33-3.963-2.126 1.619-4.26a33.2 33.2 0 0 1 2.344 6.387m-19.425 30.819-3.123-2.114a22 22 0 0 0 2.848-1.643zm-8.44 2.969-2.11-2.98a23 23 0 0 0 3.13-.55zm-8.992.108-1.05-3.634c1.099.274 2.217.464 3.344.57zm-2.028 1.922-4.688 2.884-1.637-5.029 4.769-3.227zm-6.45-5.058.27-3.692q1.343.908 2.801 1.614zm0-44.988 3.004 2.043q-1.422.702-2.733 1.595zm8.477-3.155 2.248 3.025a23 23 0 0 0-3.276.558zm8.99.108 1 3.482a23 23 0 0 0-3.064-.54zm1.981-2.099 4.69-2.904 1.64 5.077-4.77 3.255zm6.45 5.092-.27 3.682a22.5 22.5 0 0 0-2.772-1.605zm-12.947 42.735a20.2 20.2 0 0 1-5.438-.743c-8.515-2.381-14.779-10.21-14.779-19.474a20.18 20.18 0 0 1 7.045-15.323q.118-.062.22-.146.102-.085.182-.19a20.2 20.2 0 0 1 5.645-3.259 1.2 1.2 0 0 0 .405-.147q.634-.224 1.282-.405a20.19 20.19 0 0 1 18.317 3.907 1 1 0 0 0 .143.121q.22.184.434.375a20.18 20.18 0 0 1 6.761 15.067c0 9.34-6.367 17.221-14.989 19.531-1.668.447-3.42.686-5.228.686m-22.62-18.401-3.625-1.739 3.606-1.732a23 23 0 0 0 .011 3.471zm45.265-3.503 3.608 1.732-3.616 1.734q.066-.876.068-1.779a26 26 0 0 0-.068-1.69zm-1.879-7.507 3.571.315-2.512 2.604a22 22 0 0 0-1.059-2.919m-4.48-6.61 3.639-.91-1.492 3.46a23 23 0 0 0-2.146-2.555zm-16.155-7.778-3.444-4.632 3.21-4.26 3.476 4.273zm-8.187 1.46-4.77-3.262 1.637-5.075 4.69 2.903zM62.163 87.17l-1.483-3.444 3.612.903q-1.156 1.187-2.13 2.53zm-3.39 6.993-2.504-2.614 3.556-.315a23 23 0 0 0-1.052 2.918zm-5.314-1.94 3.913 4.064-5.209 2.488-3.565-3.96zm-1.296 9.951 5.203 2.5-3.911 4.064-4.867-2.604zm6.646 4.581a22.5 22.5 0 0 0 1.089 2.967l-3.637-.323zm5.599 9.551-3.737.934 1.527-3.546q1.008 1.388 2.21 2.612m16.328 7.753 3.242 4.57-3.477 4.246-3.21-4.233zm7.925-1.391 4.768 3.226-1.633 5.031-4.69-2.884zm10.361-8.987 1.517 3.526-3.709-.928a23 23 0 0 0 2.192-2.6zm3.392-6.947 2.536 2.637-3.619.32q.646-1.443 1.083-2.963zm5.352 1.969-3.912-4.064 5.203-2.499 3.571 3.959zm1.282-9.963-5.208-2.5 3.911-4.063 4.863 2.602zm-2.349-9.564-5.619-.496 2.283-5.302 5.294.642zm-5.501-8.222-5.47 1.37.42-5.757 5.207-1.123zM85.897 70.62l-2.87-3.528a33.2 33.2 0 0 1 6.679 1.168zm-10.58.055-3.86-2.39a33 33 0 0 1 6.549-1.178zM65.49 82.359l-5.47-1.369-.164-5.512 5.213 1.126zm-7.635 1.055 2.282 5.3-5.618.499-1.966-5.158zm-3.357 28.324 5.619.498-2.278 5.3-5.295-.645zm5.512 8.218 5.472-1.371-.422 5.758-5.213 1.125zm15.31 10.191 2.685 3.542a33.3 33.3 0 0 1-6.537-1.168zm10.577.055 3.794 2.335a33 33 0 0 1-6.666 1.168zm9.832-11.65 5.469 1.375.162 5.513-5.213-1.127zm7.644-1.055-2.283-5.302 5.619-.498 1.957 5.158zm7.485-17.068 2.998-3.324a34 34 0 0 1-.006 6.646zm-2.749-18.975-4.43-.538.135-4.524a33.6 33.6 0 0 1 4.295 5.062M99.975 73.2l-4.21.91L94.44 70a33.3 33.3 0 0 1 5.536 3.2m-33.189-3.192-1.335 4.137-4.232-.913a33.4 33.4 0 0 1 5.567-3.224M57.4 76.421l.134 4.524-4.424.537a33.7 33.7 0 0 1 4.29-5.06m-4.174 43.052 4.299.521-.13 4.378a33.7 33.7 0 0 1-4.17-4.893zm8.156 8.217 4.101-.885 1.296 3.993a33.4 33.4 0 0 1-5.397-3.108m33.064 3.115 1.313-4.03 4.126.886a33.4 33.4 0 0 1-5.44 3.137zm9.379-6.403-.131-4.437 4.359-.529a33.6 33.6 0 0 1-4.228 4.966"/><path fill="url(#c)" d="M11.167 96v37.333A26.67 26.67 0 0 0 37.833 160h37.334v-17.935C54.489 139.444 38.5 121.789 38.5 100.4a43 43 0 0 1 .228-4.4z"/><path fill="url(#d)" d="M48.5 0a26.667 26.667 0 0 0-26.667 26.667v3.05c0 4.779 1.419 9.227 3.862 12.95H16.5a16 16 0 0 0-16 16v10.666a16 16 0 0 0 16 16h24.783c5.445-14.162 18.34-24.628 33.884-26.597v-16.07H45.449c-7.146 0-12.949-5.802-12.949-12.949v-3.05a16 16 0 0 1 16-16 26.666 26.666 0 0 1 26.667 26.666v5.334h10.666v-5.334A26.667 26.667 0 0 1 112.5 10.667a16 16 0 0 1 16 16v3.05c0 7.147-5.803 12.95-12.949 12.95H85.833v16.069c15.545 1.97 28.439 12.435 33.884 26.597H144.5a16.003 16.003 0 0 0 16-16V58.667a16 16 0 0 0-16-16h-9.195a23.5 23.5 0 0 0 3.862-12.95v-3.05A26.667 26.667 0 0 0 112.5 0c-13.579 0-25.472 7.253-32 18.09A37.31 37.31 0 0 0 48.5 0"/><path fill="url(#e)" fill-rule="evenodd" d="M85.833 160v-17.935c20.678-2.621 36.667-20.276 36.667-41.665a42 42 0 0 0-.228-4.4h27.561v37.333A26.667 26.667 0 0 1 123.167 160z" clip-rule="evenodd"/></g><defs><linearGradient id="b" x1="16.1" x2="183.305" y1="10.4" y2="62.589" gradientUnits="userSpaceOnUse"><stop stop-color="#E66373"/><stop offset=".339" stop-color="#DE5C9B"/><stop offset=".708" stop-color="#AA3FCF"/><stop offset="1" stop-color="#774DD1"/></linearGradient><linearGradient id="c" x1="16.1" x2="183.305" y1="10.4" y2="62.589" gradientUnits="userSpaceOnUse"><stop stop-color="#E66373"/><stop offset=".339" stop-color="#DE5C9B"/><stop offset=".708" stop-color="#AA3FCF"/><stop offset="1" stop-color="#774DD1"/></linearGradient><linearGradient id="d" x1="16.1" x2="183.305" y1="10.4" y2="62.589" gradientUnits="userSpaceOnUse"><stop stop-color="#E66373"/><stop offset=".339" stop-color="#DE5C9B"/><stop offset=".708" stop-color="#AA3FCF"/><stop offset="1" stop-color="#774DD1"/></linearGradient><linearGradient id="e" x1="16.1" x2="183.305" y1="10.4" y2="62.589" gradientUnits="userSpaceOnUse"><stop stop-color="#E66373"/><stop offset=".339" stop-color="#DE5C9B"/><stop offset=".708" stop-color="#AA3FCF"/><stop offset="1" stop-color="#774DD1"/></linearGradient><clipPath id="a"><path fill="#fff" d="M.5 0h160v160H.5z"/></clipPath></defs></svg>