<svg width="40" height="40" viewBox="0 0 40 40" fill="none" xmlns="http://www.w3.org/2000/svg">
<path d="M19.9907 11.1419C20.3618 11.1419 20.6618 11.2625 20.8906 11.5037C21.1257 11.7449 21.2432 12.0573 21.2432 12.4407V23.054L21.1133 26.4217L20.3804 25.9578L23.1821 22.7664L25.2788 20.6883C25.3901 20.5708 25.52 20.478 25.6685 20.41C25.8231 20.3358 25.9932 20.2986 26.1787 20.2986C26.5189 20.2986 26.8034 20.4131 27.0322 20.6419C27.2611 20.8646 27.3755 21.1553 27.3755 21.514C27.3755 21.8541 27.2456 22.1541 26.9858 22.4139L20.9185 28.4905C20.8009 28.6081 20.6587 28.7008 20.4917 28.7689C20.3309 28.8369 20.1639 28.8709 19.9907 28.8709C19.8237 28.8709 19.6567 28.8369 19.4897 28.7689C19.3228 28.7008 19.1805 28.6081 19.063 28.4905L13.0049 22.4139C12.7451 22.1541 12.6152 21.8541 12.6152 21.514C12.6152 21.1553 12.7297 20.8646 12.9585 20.6419C13.1873 20.4131 13.4718 20.2986 13.812 20.2986C13.9976 20.2986 14.1646 20.3358 14.313 20.41C14.4614 20.478 14.5944 20.5708 14.7119 20.6883L16.7993 22.7664L19.6011 25.9578L18.8682 26.4217L18.729 23.054V12.4407C18.729 12.0573 18.8434 11.7449 19.0723 11.5037C19.3073 11.2625 19.6134 11.1419 19.9907 11.1419Z" fill="white"/>
</svg>
