<svg xmlns="http://www.w3.org/2000/svg" width="768" height="768" fill="none"><path fill="#000" fill-rule="evenodd" d="M503.467 483.516c10.712-1.115 20.3 6.666 21.414 17.378l6.237 59.934 60.491 10.743c10.604 1.883 17.673 12.006 15.79 22.61s-12.006 17.674-22.61 15.791l-74.957-13.312a19.5 19.5 0 0 1-15.986-17.182l-7.757-74.548c-1.114-10.712 6.666-20.299 17.378-21.414" clip-rule="evenodd"/><path fill="#000" fill-rule="evenodd" d="M364.5 151.386c0-10.77 8.731-19.501 19.501-19.501 139.242 0 252.128 112.87 252.128 252.115 0 87.435-44.541 164.46-112.052 209.651-8.95 5.992-21.062 3.593-27.053-5.357s-3.592-21.062 5.358-27.053C559.543 522.977 597.127 457.87 597.127 384c0-117.702-95.421-213.114-213.126-213.114-10.77 0-19.501-8.73-19.501-19.5m-203.885 22.442c1.885-10.603 12.009-17.671 22.613-15.786l74.957 13.325a19.5 19.5 0 0 1 15.983 17.181l7.757 74.547c1.114 10.713-6.666 20.3-17.378 21.415s-20.3-6.666-21.414-17.378l-6.237-59.937-60.494-10.754c-10.604-1.885-17.672-12.009-15.787-22.613" clip-rule="evenodd"/><path fill="#000" fill-rule="evenodd" d="M270.952 180.615c5.963 8.943 3.546 21.027-5.397 26.99-57.171 38.117-94.707 102.94-94.707 176.472 0 117.139 95.353 212.218 213.152 212.218 10.749 0 19.463 8.713 19.463 19.462s-8.714 19.462-19.463 19.462c-139.148 0-252.077-112.358-252.077-251.142 0-87.133 44.538-163.853 112.039-208.859 8.943-5.963 21.027-3.546 26.99 5.397" clip-rule="evenodd"/></svg>