<svg xmlns="http://www.w3.org/2000/svg" width="768" height="768" fill="none"><path fill="#000" d="M174.432 243.913c5.997-8.946 18.111-11.337 27.057-5.341 8.946 5.997 11.337 18.111 5.341 27.057A212.2 212.2 0 0 0 170.9 383.98c-.036 117.709 95.344 213.161 213.042 213.197 117.705.036 213.15-95.341 213.197-213.069a212.2 212.2 0 0 0-35.836-118.365c-5.989-8.951-3.588-21.063 5.364-27.052s21.063-3.588 27.052 5.364a251.2 251.2 0 0 1 42.423 140.094c-.056 139.242-112.968 252.072-252.212 252.03-139.24-.042-252.074-112.963-252.032-252.187a251.2 251.2 0 0 1 42.534-140.079"/><path fill="#000" d="M366.668 137.802c9.907-8.727 24.757-8.727 34.664 0q.122.106.24.214l87.052 79.27c7.963 7.252 8.54 19.585 1.289 27.549-7.252 7.963-19.585 8.54-27.549 1.289l-58.159-52.961v236.52c0 10.655-8.546 19.315-19.158 19.501h-.343c-10.77 0-19.501-8.731-19.501-19.501V191.88l-59.568 54.244c-7.871 7.167-20.011 6.686-27.294-1.015l-.255-.274c-7.251-7.964-6.674-20.298 1.289-27.549l87.053-79.27z"/></svg>