<svg xmlns="http://www.w3.org/2000/svg" width="768" height="768" fill="none"><path fill="#000" d="M216.518 140.57c3.551-10.168 14.672-15.531 24.84-11.98l67.687 23.642c9.75 3.405 15.154 13.821 12.324 23.753l-20.596 72.294c-2.951 10.358-13.74 16.362-24.097 13.412-10.358-2.951-16.363-13.74-13.412-24.098l15.557-54.606-50.324-17.577c-10.057-3.513-15.414-14.432-12.092-24.508z"/><path fill="#000" d="M295.79 152.369c10.092-3.761 21.322 1.371 25.084 11.463 3.761 10.092-1.371 21.322-11.463 25.083-75.272 28.053-129.166 96.249-137.726 177.555-12.291 117.063 72.627 221.924 189.684 234.225 117.062 12.302 221.921-72.604 234.222-189.66 8.55-81.329-29.994-159.261-97.8-202.325-9.091-5.773-11.781-17.824-6.007-26.916s17.825-11.781 26.916-6.007c80.191 50.93 125.792 143.129 115.679 239.325-14.553 138.478-138.603 238.924-277.086 224.371-138.478-14.552-238.936-138.602-224.396-277.091 10.125-96.173 73.882-176.849 162.893-210.023m140.212 134.202c6.469-8.611 18.693-10.347 27.304-3.878s10.347 18.693 3.878 27.304L331.248 490.938c-6.469 8.611-18.694 10.347-27.305 3.878-8.61-6.469-10.347-18.693-3.877-27.304z"/><path fill="#000" d="M452.106 487.007a37.491 37.491 0 1 0 0-74.982 37.491 37.491 0 0 0 0 74.982m-136.96-121.498a37.49 37.49 0 0 0 37.484-37.498 37.49 37.49 0 0 0-37.497-37.484 37.49 37.49 0 0 0 0 74.969"/></svg>