<svg xmlns="http://www.w3.org/2000/svg" width="768" height="768" fill="none"><path fill="#000" fill-rule="evenodd" d="M585.956 445.747c-28.143 92.052-113.499 150.933-205.195 149.486-10.602-.167-19.333 8.292-19.5 18.895s8.292 19.333 18.895 19.5c108.341 1.709 209.244-67.807 242.522-176.654s-11.501-222.903-102.276-282.07c-8.884-5.79-20.779-3.283-26.569 5.601-5.791 8.883-3.283 20.779 5.6 26.569 76.829 50.076 114.666 146.621 86.523 238.673M505.6 384c0-10.604-8.596-19.2-19.2-19.2h-83.2v-83.2c0-10.604-8.596-19.2-19.2-19.2s-19.2 8.596-19.2 19.2v83.2h-83.2c-10.604 0-19.2 8.596-19.2 19.2s8.596 19.2 19.2 19.2h83.2v83.2c0 10.604 8.596 19.2 19.2 19.2s19.2-8.596 19.2-19.2v-83.2h83.2c10.604 0 19.2-8.596 19.2-19.2m-98.892-230.132c.167-10.602-8.292-19.333-18.895-19.5-108.341-1.71-209.244 67.807-242.522 176.654s11.501 222.903 102.276 282.07c8.884 5.79 20.779 3.283 26.569-5.601 5.79-8.883 3.283-20.779-5.601-26.569-76.828-50.076-114.665-146.621-86.522-238.673s113.499-150.933 205.195-149.486c10.602.167 19.333-8.292 19.5-18.895" clip-rule="evenodd"/></svg>