<svg xmlns="http://www.w3.org/2000/svg" width="768" height="768" fill="none"><path fill="#000" d="M595.042 372.147c-.001 15.485-6.015 28.989-17.697 39.916L342.947 641.641c-9.941 9.508-22.624 15.074-36.994 15.074-29.733 0-53.139-23.406-53.139-53.139 0-14.854 5.976-27.9 15.909-37.833l.111-.111 198.302-193.485-198.374-193.556c-9.991-9.991-15.948-23.397-15.948-37.872 0-29.733 23.406-53.14 53.139-53.14 14.749 0 27.075 5.587 36.956 15.039l.103.099L577.59 332.17c11.083 11.083 17.01 24.288 17.444 39.484l.002.064z"/></svg>