<svg xmlns="http://www.w3.org/2000/svg" width="768" height="768" fill="none"><path fill="#000" fill-rule="evenodd" d="M449.445 77a71.64 71.64 0 0 1 50.649 20.973l70.454 70.41a71.644 71.644 0 0 1 0 101.305l-60.214 60.214L691.211 510.78c10.623 10.622 10.623 27.844 0 38.466s-27.844 10.622-38.466 0L471.867 368.368l-60.659 60.659a71.644 71.644 0 0 1-101.305 0L239.5 358.624a71.644 71.644 0 0 1-.003-101.308L397.884 98.929q.441-.486.908-.952A71.64 71.64 0 0 1 449.445 77M437.3 136.446 277.97 295.777a17.243 17.243 0 0 0 0 24.383l70.394 70.395a17.246 17.246 0 0 0 24.381.002l159.333-159.333a17.244 17.244 0 0 0-.003-24.381l-70.438-70.394a17.246 17.246 0 0 0-23.785-.571q-.272.288-.552.568M102.238 599.705c7.973-43.264 45.696-74.67 89.689-74.67h137.928c43.962 0 81.668 31.363 89.675 74.589l6.765 36.522h1.239c15.022 0 27.2 12.178 27.2 27.2s-12.178 27.2-27.2 27.2h-23.383q-.512.01-1.022 0H118.707q-.509.01-1.02 0H94.2c-15.022 0-27.2-12.178-27.2-27.2s12.178-27.2 27.2-27.2h1.321zm48.6 36.441H370.97l-4.93-26.613c-3.231-17.443-18.446-30.098-36.185-30.098H191.927c-17.751 0-32.973 12.673-36.19 30.13z" clip-rule="evenodd"/></svg>