<svg xmlns="http://www.w3.org/2000/svg" width="768" height="768" fill="none"><path fill="#000" d="M445.244 106.669a60.23 60.23 0 0 0-42.582 17.634q-.375.377-.73.771l-146.31 146.31a60.223 60.223 0 0 0 .002 85.16l64.987 64.987a60.227 60.227 0 0 0 85.161-.002l60.169-60.169 171.14 171.143c7.498 7.499 19.654 7.499 27.153 0s7.498-19.655 0-27.153L493.091 334.21l59.759-59.76a60.22 60.22 0 0 0 17.634-42.581 60.25 60.25 0 0 0-17.638-42.585l-65.024-64.982a60.23 60.23 0 0 0-42.579-17.633zm-15.388 44.788q.266-.268.523-.543a21.82 21.82 0 0 1 30.297.548l65.027 64.983a21.83 21.83 0 0 1-.006 30.857L378.622 394.374a21.826 21.826 0 0 1-30.858.002l-64.986-64.985a21.833 21.833 0 0 1 .003-30.859zM200.977 520.239h140.427c33.936 0 63.042 24.212 69.222 57.579l8.335 44.986h6.056c10.603 0 19.2 8.597 19.2 19.2 0 10.605-8.597 19.2-19.2 19.2h-21.689q-.36.01-.721 0H139.829q-.358.01-.719 0h-21.785c-10.605 0-19.2-8.595-19.2-19.2 0-10.603 8.595-19.2 19.2-19.2h6.138l8.28-44.924c6.155-33.397 35.274-57.64 69.234-57.64zM162.51 622.803h217.396l-7.035-37.993c-2.81-15.165-16.041-26.172-31.467-26.172H200.977c-15.436 0-28.672 11.021-31.47 26.202z"/></svg>