<svg xmlns="http://www.w3.org/2000/svg" width="768" height="768" fill="none"><path fill="#000" d="M314.784 282.787c-11.715 11.714-11.715 30.709 0 42.425l58.787 58.786-58.787 58.787c-11.715 11.715-11.715 30.709 0 42.426s30.71 11.716 42.427 0l58.786-58.786 58.787 58.786c11.716 11.716 30.709 11.716 42.426 0s11.716-30.711 0-42.426l-58.786-58.787 58.786-58.786c11.716-11.716 11.716-30.711 0-42.427s-30.709-11.716-42.426 0l-58.787 58.787-58.786-58.787c-11.716-11.716-30.709-11.714-42.427.002m266.574-120.354c32.638 4.272 50.465 12.182 63.196 24.576 12.614 12.268 20.577 29.269 24.912 60.648 4.467 32.325 4.533 75.135 4.533 136.341s-.067 104.016-4.533 136.343c-4.335 31.379-12.307 48.39-24.921 60.658-12.731 12.394-30.549 20.295-63.184 24.567C547.945 609.94 503.768 610 440.959 610h-84.416c-36.181 0-61.289-.03-81.117-1.874-19.22-1.789-31.209-5.13-41.275-10.557-10.059-5.43-19.24-13.482-30.889-28.267-12.062-15.309-25.351-35.938-44.553-65.837l-21.792-33.92c-16.229-25.265-27.118-42.292-34.19-56.369-6.76-13.451-8.73-21.773-8.73-29.176 0-7.404 1.97-15.727 8.73-29.178 7.073-14.076 17.973-31.117 34.202-56.385l21.754-33.912c.002-.002-.002.004 0 0 19.201-29.883 32.486-50.506 44.55-65.819 11.647-14.789 20.827-22.845 30.876-28.271 10.088-5.433 22.09-8.775 41.311-10.563 19.832-1.844 44.94-1.874 81.122-1.874h84.384c62.827 0 107.012.06 140.432 4.435m105.03-18.436c-25.794-25.104-58.246-35.952-97.244-41.056C551.375 98 503.254 98 443.092 98h-87.965c-34.431 0-62.33 0-85.264 2.133-23.851 2.218-44.552 6.891-64.22 17.487l-.021.011c-19.708 10.638-34.846 25.318-49.522 43.948-14.041 17.826-28.843 40.865-47.034 69.176l-23.45 36.551c-15.182 23.635-27.832 43.329-36.498 60.575C39.98 346.062 34 363.883 34 384.001s5.981 37.938 15.118 56.119c8.667 17.246 21.317 36.94 36.497 60.574L108.94 537c18.264 28.44 33.111 51.559 47.196 69.435 14.68 18.633 29.817 33.299 49.519 43.934 19.659 10.602 40.368 15.28 64.214 17.498 22.93 2.134 50.83 2.134 85.261 2.134h87.995c60.147 0 108.261 0 146.025-4.941 38.993-5.103 71.445-15.952 97.239-41.057 25.915-25.205 37.217-57.115 42.513-95.448C734 491.645 734 444.677 734 386.264v-4.526c0-58.413 0-105.381-5.098-142.291-5.296-38.333-16.598-70.243-42.513-95.448z"/></svg>