<svg xmlns="http://www.w3.org/2000/svg" width="768" height="768"><path fill="#000" fill-rule="evenodd" d="m583.665 243 3.511 1.523c26.657 11.758 49.925 26.462 66.903 44.165C671.184 306.526 683 328.696 683 354.16v239.776c0 25.464-11.816 47.633-28.921 65.472-16.978 17.702-40.246 32.405-66.903 44.163C533.785 727.122 461.93 741 384 741c-77.93 0-149.785-13.878-203.176-37.428-26.658-11.758-49.926-26.461-66.903-44.163C96.815 641.569 85 619.4 85 593.937V354.161c0-25.465 11.815-47.635 28.921-65.473 14.855-15.49 34.526-28.684 57.07-39.617l9.833-4.548c1.162-.512 2.332-1.02 3.511-1.523 4.085 14.544 11.85 28.273 23.295 39.715l6.737 6.735a278.121 278.121 0 0 0-11.6 4.799c-22.53 9.937-39.07 21.068-49.603 32.05-9.103 9.494-13.798 20.186-13.8 27.862v4.2c1.115 6.75 4.943 14.625 13.457 23.486 10.549 10.98 27.112 22.104 49.677 32.036C247.553 433.72 311.7 446.673 384 446.673s136.447-12.954 181.502-32.79c22.565-9.932 39.13-21.056 49.679-32.036 8.514-8.861 12.341-16.737 13.456-23.488v-4.198c0-7.641-3.397-17.012-13.8-27.862-10.533-10.982-27.072-22.113-49.605-32.05a276.819 276.819 0 0 0-11.598-4.8l6.738-6.734c11.445-11.443 19.21-25.17 23.293-39.715ZM139.362 441.055l.002 152.882c0 7.641 3.397 17.011 13.8 27.859 10.533 10.985 27.072 22.114 49.603 32.05C247.755 673.69 311.81 686.651 384 686.651c72.192 0 136.245-12.961 181.232-32.805 22.533-9.936 39.072-21.065 49.606-32.05 10.402-10.848 13.798-20.218 13.798-27.859V441.055l-.841.575c-12.104 8.208-25.7 15.526-40.317 21.959C534.008 487.127 462.045 501 384 501s-150.008-13.872-203.478-37.411c-14.956-6.583-28.846-14.093-41.16-22.534ZM384 0c15 0 27.161 12.185 27.161 27.215V264.08l2.397-2.4 50.06-50.16 13.017-13.043c10.606-10.628 27.804-10.628 38.41 0 6.505 6.518 9.02 15.52 7.547 23.959a27.105 27.105 0 0 1-7.548 14.529l-32.484 32.551-79.355 79.512c-10.606 10.63-27.803 10.63-38.409 0l-79.355-79.512-32.486-32.551a27.109 27.109 0 0 1-7.547-14.53c-1.473-8.438 1.042-17.44 7.547-23.958 10.607-10.628 27.805-10.628 38.412 0l13.017 13.043 50.059 50.16 2.396 2.4V27.215C356.84 12.185 369.001 0 384 0Z"/></svg>
