<svg xmlns="http://www.w3.org/2000/svg" width="768" height="768"><path fill="#000" fill-rule="evenodd" d="M475.139 213c42.125 6.29 80.337 16.877 112.037 30.877 26.657 11.774 49.925 26.496 66.903 44.222C671.184 305.961 683 328.157 683 353.658v240.088c0 25.497-11.816 47.694-28.921 65.557-16.978 17.725-40.246 32.447-66.903 44.22C533.785 727.104 461.93 741 384 741c-77.93 0-149.785-13.896-203.176-37.476-26.658-11.774-49.926-26.496-66.903-44.221C96.815 641.44 85 619.243 85 593.746V353.658c0-25.501 11.815-47.697 28.921-65.559 16.977-17.726 40.245-32.448 66.903-44.222 31.7-14 69.91-24.586 112.037-30.877v55.088c-34.616 5.744-65.26 14.612-90.094 25.58-22.53 9.95-39.07 21.094-49.603 32.091-10.403 10.862-13.8 20.244-13.8 27.899v4.703c1.115 6.75 4.943 14.625 13.457 23.486 10.549 10.98 27.112 22.104 49.677 32.036C247.553 433.72 311.7 446.673 384 446.673s136.447-12.954 181.502-32.79c22.565-9.932 39.13-21.056 49.679-32.036 8.514-8.861 12.341-16.737 13.456-23.488v-4.701c0-7.687-4.697-18.395-13.8-27.899-10.533-10.997-27.072-22.141-49.605-32.092-24.834-10.967-55.476-19.835-90.093-25.58V213ZM139.362 441.055l.002 152.69c0 7.652 3.397 17.034 13.8 27.896 10.533 10.996 27.072 22.142 49.603 32.092C247.755 673.603 311.81 686.58 384 686.58c72.192 0 136.245-12.978 181.232-32.847 22.533-9.95 39.072-21.096 49.606-32.092 10.402-10.862 13.798-20.244 13.798-27.895V441.055l-.841.575c-12.104 8.208-25.7 15.526-40.317 21.959C534.008 487.127 462.045 501 384 501s-150.008-13.872-203.478-37.411c-14.956-6.583-28.846-14.093-41.16-22.534ZM364.796 7.971c10.605-10.628 27.803-10.628 38.408 0l111.84 112.063c10.608 10.628 10.608 27.86 0 38.488-10.606 10.628-27.804 10.628-38.41 0L411.162 92.92v236.866C411.16 344.814 398.999 357 384 357c-15 0-27.161-12.186-27.161-27.215V92.919l-65.473 65.603c-10.606 10.628-27.804 10.628-38.41 0-10.608-10.628-10.608-27.86 0-38.488Z"/></svg>
