<svg xmlns="http://www.w3.org/2000/svg" width="756" height="756" fill="none"><path fill="#000" fill-rule="evenodd" d="m273.244 182.699 3.956.001h201.6l3.957-.001c31.367-.01 51.99-.017 69.216 6.011a107.1 107.1 0 0 1 65.717 65.717c6.028 17.226 6.021 37.849 6.011 69.217l-.001 3.956v86.502c.001 24.002.001 43.167-1.264 58.647-1.297 15.876-4.018 29.531-10.409 42.073a107.1 107.1 0 0 1-46.804 46.805c-12.542 6.39-26.198 9.111-42.074 10.409-15.479 1.264-34.645 1.264-58.646 1.264H291.498c-24.001 0-43.167 0-58.646-1.264-15.877-1.298-29.532-4.019-42.074-10.409a107.1 107.1 0 0 1-46.804-46.805c-6.391-12.542-9.112-26.197-10.409-42.073-1.265-15.48-1.265-34.646-1.265-58.647v-90.458c-.01-31.368-.017-51.991 6.011-69.217a107.1 107.1 0 0 1 65.717-65.717c17.226-6.028 37.848-6.021 69.216-6.011M277.2 220.5c-36.772 0-50.338.267-60.688 3.889a69.3 69.3 0 0 0-42.523 42.523c-2.92 8.345-3.659 18.781-3.836 41.788h415.695c-.177-23.007-.916-33.443-3.836-41.788a69.3 69.3 0 0 0-42.523-42.523c-10.35-3.622-23.916-3.889-60.689-3.889zm308.7 126H170.1v66.78c0 25.01.015 42.631 1.139 56.391 1.107 13.538 3.192 21.665 6.415 27.991a69.3 69.3 0 0 0 30.285 30.285c6.325 3.223 14.452 5.308 27.991 6.414 13.759 1.124 31.38 1.139 56.39 1.139h171.36c25.011 0 42.632-.015 56.391-1.139 13.539-1.106 21.666-3.191 27.991-6.414a69.3 69.3 0 0 0 30.285-30.285c3.223-6.326 5.308-14.453 6.415-27.991 1.124-13.76 1.138-31.381 1.138-56.391z" clip-rule="evenodd"/></svg>