<svg xmlns="http://www.w3.org/2000/svg" width="768" height="768" fill="none"><path fill="#000" fill-rule="evenodd" d="M196.085 108.003 574.852 108c13.4 0 26.791 1.968 40.785 8.492 16.774 7.819 25.669 20.144 31.902 29.258.487.71.935 1.44 1.357 2.188C656.224 160.981 660 175.064 660 190.212c0 14.395-3.424 30.077-11.104 43.744q-.107.198-.224.391L409.375 645.408A29.35 29.35 0 0 1 383.896 660a29.37 29.37 0 0 1-25.375-14.771L123.616 235.044l-.202-.335c-5.376-8.859-13.69-22.558-15.144-40.237a80.1 80.1 0 0 1 10.487-46.672 79.73 79.73 0 0 1 35.258-32.331c15.86-7.411 31.933-7.466 42.07-7.466m158.553 58.721H196.085c-10.416 0-14.416.641-17.211 1.949a21 21 0 0 0-9.283 8.525 21.4 21.4 0 0 0-2.795 12.462c.204 2.497 1.223 5.352 7.225 15.253q.189.311.369.627l180.248 314.744zm58.723 0v355.115l184.423-316.798c2.081-3.782 3.492-9.247 3.492-14.829 0-4.526-.938-8.458-3.036-12.51-2.202-3.166-3.543-4.842-4.665-5.991-.962-.981-1.702-1.507-2.749-1.994-4.361-2.033-8.823-2.993-15.974-2.993z" clip-rule="evenodd"/></svg>