<svg xmlns="http://www.w3.org/2000/svg" width="762" height="762" fill="none"><path fill="#000" d="M360.165 618.033a129 129 0 0 1-17.86 14.883c-12.402 9.426-25.301 17.363-39.191 24.805-27.285 13.89-56.059 24.308-86.321 30.261-7.441 1.489-14.882 2.977-22.324 3.969l-11.41 1.488-5.457.496-5.457.497-11.41.992-11.41.496c-7.442.496-15.379.496-22.821.992q-33.486 0-66.972-2.977c2.48-3.472 4.96-7.441 7.441-11.41 6.945-10.914 13.395-22.82 19.348-34.726 10.914-23.813 19.347-48.617 26.293-73.422 6.449-24.309 14.386-47.625 23.316-71.438 8.93-23.812 19.348-46.632 31.254-68.957-8.434 9.426-15.875 19.844-22.82 30.758-6.946 10.418-13.891 21.828-19.844 32.742-12.402 22.325-23.316 46.137-31.75 69.95-8.93 23.316-18.355 46.632-29.766 67.964s-25.3 41.176-41.175 60.028L5.458 715.267l25.796 3.473c31.75 4.465 63.996 6.946 96.243 5.953 7.937-.496 16.371-.496 24.308-1.488l11.906-.992 11.907-1.489c7.937-.992 15.875-2.976 23.812-3.968 7.938-1.985 15.875-3.473 23.813-5.953 7.937-1.985 15.379-4.961 23.316-7.442 7.441-2.976 15.379-5.953 22.82-9.426 14.883-6.449 29.27-14.882 42.664-23.812q20.092-13.395 37.208-31.254c10.914-11.906 20.835-24.309 27.781-38.695-5.457 6.945-10.914 12.898-16.867 17.859m177.601-428.129c8.93-8.929 20.836-13.89 33.735-13.89 12.402 0 24.308 4.464 33.734 13.89a48.217 48.217 0 0 1 0 67.469c-18.356 18.355-48.617 18.355-67.469 0-8.93-8.93-13.891-20.836-13.891-33.734s4.961-24.805 13.891-33.735m33.735 110.133c19.843 0 39.191-7.441 54.074-22.324a77.256 77.256 0 0 0 0-108.645c-29.766-29.765-78.383-29.765-108.149 0-14.386 14.387-22.324 33.735-22.324 54.075 0 20.339 7.938 39.687 22.324 54.074 14.387 14.883 33.735 22.82 54.075 22.82m22.324 110.133c-109.637 96.738-155.278 105.668-200.918 84.832l49.609-62.508c7.442-8.93 12.402-19.844 15.379-31.254l19.844-83.84-83.344 19.844c-11.41 2.977-22.324 7.938-31.254 15.379l-62.508 49.609c-21.332-45.64-11.906-91.281 84.336-200.918C476.25 97.631 668.735 73.818 725.786 68.857c-4.465 57.051-28.278 250.032-131.961 341.313m-72.926 149.82c-.992 4.465-3.473 8.93-7.441 11.41-11.411 7.938-29.27 18.852-45.145 28.774l.992-2.977c7.442-30.262 7.442-53.578 0-69.453 20.836-6.449 43.16-17.859 68.461-35.223-6.449 23.317-13.394 51.098-16.867 67.469m-173.137-54.074c-6.449 8.434-16.867 12.898-27.285 12.402h-25.301l86.321-104.179-104.18 86.32v-25.301c-.496-10.418 3.969-20.836 12.402-27.285L381 375.443c5.954-4.465 12.899-7.937 19.844-9.922l37.207-8.929-8.929 37.207c-1.985 7.441-4.961 14.387-9.922 20.34zM198.934 326.33l-2.976.992c9.425-15.875 20.339-33.734 28.277-45.144 2.48-3.969 6.945-6.45 11.41-7.442 16.371-3.472 44.152-10.418 67.469-16.371-17.364 25.301-28.774 48.121-35.223 68.957-15.379-8.929-38.695-8.93-68.957-.992M741.165 38.596c-10.418.496-262.434 11.906-378.024 143.371-10.914 12.402-21.332 25.301-31.75 38.199-16.867 4.465-75.406 20.34-101.203 25.797-11.906 2.48-22.82 9.426-29.766 19.844-17.859 25.797-48.617 78.878-49.609 80.863l-22.324 38.199 40.679-17.859c26.79-11.41 71.438-23.317 87.313-13.891 2.48 1.488 5.457 4.465 5.953 11.906.496 18.852 5.457 37.207 14.883 55.563l-5.457 4.465c-15.379 12.402-24.309 31.254-23.317 51.097v70.942h70.942c19.844.992 38.695-7.938 51.098-23.317l4.464-5.457c18.356 9.426 36.711 14.883 55.563 14.883 7.441.496 9.922 2.977 11.906 5.953 9.922 15.875-1.984 61.02-13.89 87.809l-17.86 40.68 38.199-22.325c2.481-1.488 55.067-32.246 80.864-50.105 9.921-6.945 16.867-17.363 19.347-29.766 5.457-25.797 21.332-84.832 25.797-101.699 11.906-9.426 24.309-20.34 37.703-32.246C743.645 315.912 755.551 63.4 756.047 52.982l.496-15.875z"/></svg>