<svg xmlns="http://www.w3.org/2000/svg" width="768" height="768" fill="none"><path fill="#000" d="M384.005 64.8c-175.56 0-319.2 143.64-319.2 319.2s143.64 319.2 319.2 319.2 319.2-143.64 319.2-319.2-143.64-319.2-319.2-319.2m-97.436 176.636 65.516 65.516 31.913 31.913 31.927-31.927 65.502-65.502c12.466-12.465 32.676-12.465 45.142 0 12.465 12.466 12.465 32.676 0 45.142l-90.042 90.042-7.387 7.387 65.511 65.511 31.918 31.918c12.465 12.466 12.465 32.676 0 45.142-12.466 12.465-32.676 12.465-45.142 0l-97.429-97.429-97.429 97.429c-12.466 12.465-32.676 12.465-45.142 0-12.465-12.466-12.465-32.676 0-45.142l97.429-97.429-97.429-97.429c-12.465-12.466-12.465-32.676 0-45.142 12.466-12.465 32.676-12.465 45.142 0"/></svg>