<svg xmlns="http://www.w3.org/2000/svg" width="768" height="768" fill="none"><path fill="#000" d="M303.406 97.282c26.434-78.91 143.04-76.289 163.469 7.874v.032a37.3 37.3 0 0 0 7.906 15.468 37.3 37.3 0 0 0 14.063 10.188 37.36 37.36 0 0 0 17.156 2.75 37.36 37.36 0 0 0 16.531-5.344l.032-.031c76.341-46.492 163.738 40.875 117.25 117.25A37.36 37.36 0 0 0 634.469 262a37.3 37.3 0 0 0 2.719 17.156 37.4 37.4 0 0 0 10.218 14.063 37.3 37.3 0 0 0 15.438 7.906l7.875 2.281c78.91 26.434 76.288 143.04-7.875 163.469h-.031a37.34 37.34 0 0 0-15.469 7.906 37.3 37.3 0 0 0-10.188 14.063 37.36 37.36 0 0 0-2.75 17.156 37.4 37.4 0 0 0 5.344 16.531l.031.032c46.492 76.342-40.874 163.738-117.25 117.25A37.35 37.35 0 0 0 506 634.469a37.3 37.3 0 0 0-17.156 2.719 37.4 37.4 0 0 0-20.688 21.468l-1.281 4.188c-21.087 86.875-144.663 86.875-165.75 0v-.031a37.3 37.3 0 0 0-7.906-15.469 37.3 37.3 0 0 0-14.063-10.188 37.4 37.4 0 0 0-17.156-2.75 37.4 37.4 0 0 0-16.531 5.344l-.031.031c-76.342 46.493-163.738-40.874-117.25-117.25a37.33 37.33 0 0 0 2.625-33.687 37.4 37.4 0 0 0-21.469-20.688l-4.188-1.281c-86.878-21.088-86.855-144.671.032-165.75a37.3 37.3 0 0 0 15.468-7.906 37.3 37.3 0 0 0 10.188-14.063 37.36 37.36 0 0 0 2.75-17.156 37.4 37.4 0 0 0-5.344-16.531l-.031-.031c-46.492-76.342 40.874-163.738 117.25-117.25l4.125 2.187c20.965 9.495 45.93-2.184 51.531-25.219zM419.25 113.03c-11.555-34.492-62.543-33.324-71.469 3.469h-.031c-13.655 56.138-77.793 82.738-127.219 52.688h-.031c-33.409-20.323-71.603 17.91-51.281 51.281l2.5 4.375a85.3 85.3 0 0 1 9.719 33.437 85.4 85.4 0 0 1-6.25 39.25 85.4 85.4 0 0 1-23.344 32.157 85.3 85.3 0 0 1-35.375 18.062c-37.969 9.222-37.945 63.256.031 72.469v.031a85.3 85.3 0 0 1 35.344 18.094 85.4 85.4 0 0 1 23.312 32.156 85.3 85.3 0 0 1 6.219 39.188 85.4 85.4 0 0 1-12.187 37.812c-20.323 33.409 17.91 71.603 51.281 51.281l4.375-2.5a85.3 85.3 0 0 1 33.437-9.718 85.34 85.34 0 0 1 71.407 29.593 85.3 85.3 0 0 1 18.093 35.344l.969 3.469c11.556 34.493 62.543 33.324 71.469-3.469h.031a85.3 85.3 0 0 1 18.094-35.344 85.4 85.4 0 0 1 32.156-23.312 85.3 85.3 0 0 1 39.188-6.219 85.4 85.4 0 0 1 37.812 12.188c32.371 19.691 69.228-15.589 53-48.157l-1.719-3.125a85.3 85.3 0 0 1-12.218-37.812 85.34 85.34 0 0 1 29.593-71.406 85.3 85.3 0 0 1 35.344-18.094c37.98-9.214 37.98-63.224 0-72.438v-.031a85.3 85.3 0 0 1-35.344-18.094 85.35 85.35 0 0 1-23.312-32.156 85.3 85.3 0 0 1-6.219-39.187 85.4 85.4 0 0 1 12.188-37.813c19.691-32.371-15.589-69.228-48.157-53l-3.125 1.719a85.3 85.3 0 0 1-37.812 12.219 85.4 85.4 0 0 1-39.25-6.25 85.4 85.4 0 0 1-32.156-23.344 85.3 85.3 0 0 1-18.094-35.344zM472 384c0-48.601-39.399-88-88-88s-88 39.399-88 88 39.399 88 88 88 88-39.399 88-88m48 0c0 75.111-60.889 136-136 136s-136-60.889-136-136 60.889-136 136-136 136 60.889 136 136"/></svg>