<svg xmlns="http://www.w3.org/2000/svg" width="768" height="768" fill="none"><path fill="#000" fill-rule="evenodd" d="M414.276 143.802c-7.699-31.736-52.853-31.736-60.553 0l-.003.013c-12.67 52.106-72.221 76.806-118.092 48.916l-.012-.007c-27.925-17.001-59.855 14.963-42.864 42.854a79.16 79.16 0 0 1 5.54 71.507 79.16 79.16 0 0 1-54.496 46.64c-31.73 7.704-31.728 52.853.006 60.551l.013.004a79.16 79.16 0 0 1 54.438 46.638 79.16 79.16 0 0 1-5.532 71.471c-16.994 27.923 14.967 59.849 42.857 42.859a79.16 79.16 0 0 1 71.507-5.54 79.16 79.16 0 0 1 46.64 54.496c7.704 31.73 52.853 31.728 60.551-.006l.004-.013a79.16 79.16 0 0 1 46.638-54.438 79.16 79.16 0 0 1 71.471 5.532c27.923 16.994 59.849-14.967 42.859-42.857a79.16 79.16 0 0 1-5.54-71.507 79.17 79.17 0 0 1 54.49-46.639c31.736-7.699 31.736-52.853 0-60.553l-.013-.003a79.16 79.16 0 0 1-54.438-46.638 79.16 79.16 0 0 1 5.532-71.471c16.994-27.923-14.967-59.849-42.857-42.859a79.16 79.16 0 0 1-71.507 5.54 79.17 79.17 0 0 1-46.639-54.49m-107.2-11.316c19.565-80.648 134.283-80.648 153.847 0l.002.006a31.167 31.167 0 0 0 46.517 19.273l.008-.005c70.861-43.169 151.985 37.925 108.826 108.816l-.003.005a31.16 31.16 0 0 0-2.178 28.137 31.17 31.17 0 0 0 21.419 18.358c80.648 19.565 80.648 134.283 0 153.847l-.006.002a31.167 31.167 0 0 0-19.273 46.517l.005.008c43.169 70.861-37.925 151.985-108.816 108.826l-.005-.003a31.16 31.16 0 0 0-28.137-2.178 31.17 31.17 0 0 0-18.359 21.419c-19.564 80.648-134.282 80.648-153.847 0l-.001-.006a31.167 31.167 0 0 0-46.517-19.273l-.008.005c-70.861 43.169-151.985-37.925-108.826-108.816l.003-.005a31.16 31.16 0 0 0 2.178-28.137 31.17 31.17 0 0 0-21.419-18.359c-80.648-19.564-80.648-134.282 0-153.847l.006-.001a31.167 31.167 0 0 0 19.273-46.517l-.005-.008c-43.167-70.857 37.915-151.976 108.804-108.833 18.125 11.02 41.513 1.294 46.512-19.231m-7.929 166.661a120.003 120.003 0 0 1 169.706 0 120.003 120.003 0 0 1 0 169.706 120.003 120.003 0 0 1-169.706 0 120.003 120.003 0 0 1 0-169.706M384 312a72.003 72.003 0 0 0-72 72 72.003 72.003 0 0 0 72 72 72.003 72.003 0 0 0 72-72 72.003 72.003 0 0 0-72-72" clip-rule="evenodd"/></svg>