<svg width="768" height="768" fill="none" xmlns="http://www.w3.org/2000/svg"><path d="M614.745 445.07c-11.051 6.651-23.945 7.86-33.768 2.418-12.279-7.255-19.647-23.581-19.647-45.953v-68.326c0-32.651-12.893-56.232-34.996-62.279-37.452-10.884-65.694 34.465-76.132 51.396L383.894 426.93V298.139c-.614-29.627-10.437-47.162-28.856-52.604-12.279-3.628-30.698-1.814-48.503 24.791L158.569 503.721c-19.647-36.884-30.084-78-30.084-119.721 0-140.884 114.811-255.163 255.409-255.163 140.598 0 255.41 114.279 255.41 255.163v1.209c1.228 27.21-7.368 48.977-24.559 59.861ZM695.789 384v-1.209C695.175 211.674 555.191 72 383.894 72 211.984 72 72 211.674 72 384c0 171.721 139.984 312 311.894 312 79.202 0 154.106-29.628 211.818-83.442 11.666-10.884 12.28-28.418 1.228-39.907-10.437-11.488-28.242-12.093-39.908-1.814l-.614.605c-46.661 43.535-109.285 68.325-173.752 68.325-75.517 0-143.054-32.651-189.715-84.651l133.231-210.418v97.349c0 46.558 18.418 61.674 33.768 65.906 15.349 4.233 38.679 1.21 63.852-38.093l73.062-116.697c2.456-3.628 4.298-7.256 6.753-9.675v59.256c0 43.535 17.805 78.605 48.504 95.535 27.628 15.721 62.624 13.907 91.481-3.628 35.61-22.977 54.642-62.884 52.187-110.651Z" fill="#000"/></svg>