<svg width="768" height="768" fill="none" xmlns="http://www.w3.org/2000/svg"><path d="M132 311.959c0-56.437 45.751-102.188 102.188-102.188v48c-29.927 0-54.188 24.261-54.188 54.188v257.812c0 39.765 32.236 72 72 72h172.688c23.92 0 43.312-19.391 43.312-43.312h48c0 50.43-40.882 91.312-91.312 91.312H252c-66.274 0-120-53.726-120-120V311.959Z" fill="#000"/><path d="M420 150.24v83.531c0 39.765 32.235 72 72 72h71.961v196.718c0 26.51-21.49 48-48 48H330.188c-26.51 0-48-21.49-48-48V198.24c0-26.51 21.49-48 47.999-48H420Zm143.961 107.531H492c-13.255 0-24-10.745-24-24V150.24h9.948a48.006 48.006 0 0 1 29.019 9.765l16.757 12.718 23.406 19.986a47.998 47.998 0 0 1 16.831 36.504v28.558Zm-10.119-122.448-17.856-13.552a95.995 95.995 0 0 0-58.038-19.531H330.187c-53.019 0-95.999 42.981-95.999 96v304.249c0 53.019 42.98 96 96 96h185.773c53.02 0 96-42.981 96-96V229.213a96 96 0 0 0-33.662-73.008l-24.457-20.882Z" fill="#000"/></svg>