<svg xmlns="http://www.w3.org/2000/svg" width="768" height="768" fill="none"><path fill="#000" fill-rule="evenodd" d="M594.918 395.05c6.104-116.482-83.375-215.859-199.857-221.963-116.483-6.105-215.86 83.374-221.964 199.857-6.105 116.482 83.374 215.859 199.857 221.964s215.859-83.375 221.964-199.858M397.07 134.739c137.662 7.215 243.41 124.66 236.195 262.321-7.214 137.662-124.659 243.41-262.321 236.195-137.661-7.214-243.409-124.66-236.195-262.321 7.215-137.661 124.66-243.409 262.321-236.195m6.761 100.516c10.14 3.1 15.847 13.834 12.747 23.974l-3.023 9.887 16.966 5.187 3.022-9.887c3.1-10.14 13.834-15.848 23.975-12.747 10.14 3.1 15.848 13.834 12.747 23.974l-3.653 11.948c10.449 6.306 19.255 15.104 25.228 25.728 8.234 14.649 10.478 31.809 5.389 47.865-4.584 14.462-14.55 26.237-27.559 33.742a76 76 0 0 1 3.241 4.816c10.424 16.843 13.631 36.955 7.87 55.796-5.76 18.842-19.665 33.722-37.725 41.857-13.242 5.964-28.016 8.025-42.53 6.354l-5.108 16.708c-3.1 10.141-13.834 15.848-23.974 12.748s-15.848-13.834-12.748-23.975l4.692-15.348-16.965-5.187-4.692 15.348c-3.1 10.141-13.834 15.848-23.975 12.748-10.14-3.1-15.848-13.834-12.747-23.975l4.692-15.348-41.886-12.806c-10.141-3.1-15.848-13.834-12.748-23.974s13.834-15.848 23.975-12.748l8.6 2.63 44.678-146.136-8.6-2.629c-10.141-3.1-15.848-13.834-12.748-23.975 3.1-10.14 13.834-15.847 23.975-12.747l41.886 12.806 3.023-9.887c3.1-10.14 13.834-15.848 23.975-12.747m-34.789 60.407-14.394 47.079 71.54 21.872c8.136 1.948 16.17 1.034 22.478-1.992 6.331-3.037 10.312-7.848 11.958-13.04 1.644-5.188 1.155-11.374-2.258-17.445-3.384-6.02-9.367-11.325-17.086-14.389zm46.428 105.829-72.049-22.028-19.057 62.334 72.049 22.027c10.831 3.312 21.971 2.568 30.872-1.441 8.804-3.966 14.503-10.642 16.774-18.072s1.28-16.151-3.801-24.361c-5.137-8.302-13.957-15.148-24.788-18.459" clip-rule="evenodd"/></svg>