<svg xmlns="http://www.w3.org/2000/svg" width="756" height="756" fill="none"><path fill="#000" fill-rule="evenodd" d="M585.907 377.998c0-114.82-93.08-207.9-207.9-207.9s-207.9 93.08-207.9 207.9 93.08 207.9 207.9 207.9 207.9-93.08 207.9-207.9m-207.9-245.7c135.696 0 245.7 110.004 245.7 245.7 0 135.697-110.004 245.7-245.7 245.7-135.697 0-245.7-110.003-245.7-245.7 0-135.696 110.003-245.7 245.7-245.7m11.823 98.462c10.129 2.525 16.292 12.782 13.767 22.91l-2.462 9.875 16.944 4.225 2.462-9.875c2.525-10.128 12.783-16.291 22.911-13.766s16.292 12.783 13.766 22.911l-2.975 11.933c10.596 5.661 19.706 13.856 26.124 23.992 8.85 13.975 11.94 30.729 7.764 46.774-3.761 14.453-12.951 26.542-25.352 34.59a75 75 0 0 1 3.434 4.567c11.114 16.02 15.303 35.625 10.611 54.444-4.692 18.818-17.595 34.162-34.929 43.089-12.71 6.546-27.127 9.333-41.48 8.438l-4.161 16.687c-2.525 10.128-12.783 16.292-22.911 13.767s-16.291-12.783-13.766-22.911l3.822-15.329-16.945-4.225-3.822 15.329c-2.525 10.128-12.782 16.291-22.911 13.766-10.128-2.525-16.291-12.783-13.766-22.911l3.822-15.329-41.835-10.431c-10.128-2.525-16.292-12.782-13.766-22.91 2.525-10.129 12.782-16.292 22.91-13.767l8.59 2.142 36.391-145.956-8.59-2.142c-10.128-2.525-16.291-12.783-13.766-22.911s12.783-16.292 22.911-13.766l41.835 10.43 2.463-9.874c2.525-10.128 12.782-16.292 22.91-13.766m-31.085 61.173-11.724 47.022 71.451 17.815c8.099 1.496 15.949.184 21.995-3.116 6.067-3.312 9.732-8.246 11.083-13.435 1.349-5.185.549-11.24-3.118-17.032-3.637-5.743-9.792-10.651-17.538-13.265zm51.091 101.641-71.96-17.942-15.522 62.258 71.96 17.941c10.818 2.698 21.731 1.393 30.274-3.007 8.45-4.352 13.708-11.209 15.558-18.629s.427-15.943-4.991-23.752c-5.478-7.896-14.501-14.172-25.319-16.869" clip-rule="evenodd"/></svg>