<svg xmlns="http://www.w3.org/2000/svg" width="768" height="768" fill="none"><path fill="#000" fill-rule="evenodd" d="M229.57 141.469h308.857a37.5 37.5 0 0 1 18.254 4.762 37.44 37.44 0 0 1 13.581 13m.024.038L649.541 287.2a37.78 37.78 0 0 1-2.163 42.9L413.666 633.233c-.004.007.005-.006 0 0a37.387 37.387 0 0 1-59.322.019L120.64 330.128l-.021-.028a37.79 37.79 0 0 1-2.173-42.885l79.265-127.946c.004-.007-.005.007 0 0a37.5 37.5 0 0 1 13.605-13.038 37.5 37.5 0 0 1 18.254-4.762m.551 38.4-65.421 105.6h438.597l-65.421-105.6zm373.573 144H164.302l219.696 284.954z" clip-rule="evenodd"/><path fill="#000" fill-rule="evenodd" d="M384 141.469a19.2 19.2 0 0 1 15.36 7.68l88.074 117.432 40.918-95.476c4.178-9.746 15.465-14.261 25.211-10.084 9.747 4.177 14.262 15.465 10.085 25.211l-53.752 125.421-107.791 305.406a19.2 19.2 0 0 1-36.21 0L258.104 311.653l-53.752-125.421c-4.177-9.746.338-21.034 10.085-25.211 9.746-4.177 21.034.338 25.211 10.084l40.918 95.476 88.074-117.432a19.2 19.2 0 0 1 15.36-7.68m-86.475 166.499L384 552.98l86.475-245.012L384 192.669z" clip-rule="evenodd"/></svg>