<svg xmlns="http://www.w3.org/2000/svg" width="768" height="768" fill="none"><path fill="#000" fill-rule="evenodd" d="M384 720c185.568 0 336-150.432 336-336S569.568 48 384 48 48 198.432 48 384s150.432 336 336 336m.001-519.75c20.296 0 36.75 16.454 36.75 36.75v205.278l49.963-49.964c14.352-14.352 37.621-14.352 51.973 0s14.352 37.62 0 51.972l-112.7 112.7a36.75 36.75 0 0 1-51.975-.002l-112.681-112.7c-14.35-14.353-14.348-37.622.005-51.972s37.622-14.349 51.972.004l49.943 49.951V237c0-20.296 16.453-36.75 36.75-36.75" clip-rule="evenodd"/></svg>