<svg xmlns="http://www.w3.org/2000/svg" width="768" height="768" fill="none"><path fill="#000" fill-rule="evenodd" d="M158.886 50.87c4.954-14.182 20.467-21.662 34.649-16.708l90.775 31.71c13.598 4.75 21.135 19.278 17.189 33.13l-27.618 96.96c-4.116 14.448-19.164 22.824-33.611 18.708-14.448-4.115-22.823-19.163-18.708-33.61l10.848-38.086c-71.373 44.95-122.116 120.992-131.61 211.32-16.44 156.415 97.032 296.541 253.448 312.981 156.415 16.44 296.542-97.032 312.981-253.447 11.684-111.161-42.237-214.147-130.682-270.331-12.68-8.055-16.43-24.864-8.375-37.544 8.055-12.68 24.864-16.43 37.544-8.375 105.205 66.831 169.54 189.454 155.615 321.936-19.58 186.295-186.475 321.444-372.77 301.863-186.295-19.58-321.443-186.475-301.863-372.77 11.39-108.371 72.631-199.402 158.477-252.755l-29.581-10.334c-14.181-4.954-21.662-20.466-16.708-34.648Z" clip-rule="evenodd"/><path fill="#000" stroke="#000" d="M345.113 308.908c0 25.35-20.551 45.9-45.9 45.9-25.35 0-45.901-20.55-45.901-45.9 0-25.35 20.551-45.9 45.901-45.9 25.349 0 45.9 20.55 45.9 45.9Zm169.601 150.437c0 25.35-20.55 45.9-45.9 45.9-25.35 0-45.9-20.55-45.9-45.9 0-25.35 20.55-45.9 45.9-45.9 25.35 0 45.9 20.55 45.9 45.9Z"/><path fill="#000" fill-rule="evenodd" d="M484.518 250.363c12.009 9.024 14.429 26.075 5.405 38.085l-168.32 224c-9.024 12.009-26.076 14.429-38.085 5.405-12.01-9.024-14.43-26.076-5.405-38.085l168.32-224c9.024-12.01 26.075-14.43 38.085-5.405Z" clip-rule="evenodd"/></svg>
