<svg xmlns="http://www.w3.org/2000/svg" width="768" height="768"><path d="M353.278 323.84c0 20.501-16.62 37.12-37.12 37.12-20.501 0-37.12-16.619-37.12-37.12 0-20.501 16.619-37.12 37.12-37.12 20.5 0 37.12 16.619 37.12 37.12Zm135.681 120.35c0 20.501-16.619 37.12-37.12 37.12-20.501 0-37.12-16.619-37.12-37.12 0-20.501 16.619-37.12 37.12-37.12 20.501 0 37.12 16.619 37.12 37.12Z"/><path fill-rule="evenodd" d="M218.594 138.218c3.497-10.011 14.447-15.291 24.458-11.794l67.04 23.419c9.598 3.353 14.919 13.607 12.133 23.386l-20.397 71.607c-2.904 10.198-13.527 16.11-23.725 13.205-10.198-2.904-16.11-13.527-13.205-23.725l8.641-30.339c-53.959 33.171-92.436 90.126-99.563 157.94-12.193 116.004 71.963 219.927 187.966 232.119 116.004 12.193 219.928-71.963 232.119-187.966l19.095 2.007-19.095-2.007c8.665-82.443-31.326-158.82-96.918-200.488-8.951-5.685-11.597-17.551-5.911-26.501 5.685-8.951 17.551-11.597 26.501-5.911 77.422 49.182 124.765 139.421 114.518 236.914-14.409 137.095-137.227 236.551-274.323 222.142-137.095-14.41-236.551-137.227-222.142-274.323 8.452-80.415 54.203-147.857 118.209-186.981l-23.607-8.246c-10.011-3.497-15.291-14.447-11.794-24.458ZM462.865 279.05c8.477 6.371 10.186 18.407 3.815 26.884l-134.656 179.2c-6.37 8.477-18.406 10.185-26.883 3.815-8.477-6.37-10.186-18.406-3.815-26.883l134.656-179.2c6.37-8.477 18.406-10.186 26.883-3.816Z" clip-rule="evenodd"/></svg>