<svg xmlns="http://www.w3.org/2000/svg" width="768" height="768"><g fill="#000" fill-rule="evenodd"><path d="M384 54.857C565.78 54.857 713.142 202.22 713.142 384c0 181.781-147.362 329.143-329.144 329.143V571.638l.582.002c13.676 0 24.324-4.038 31.944-12.113l.366-.394c7.991-8.338 11.987-19.109 11.987-32.311 0-12.855-3.996-23.278-11.987-31.269-7.643-8.338-18.413-12.507-32.31-12.507l-.582.002v-27.105l.582.004c7.643 0 13.549-2.432 17.718-7.296 4.517-4.864 7.296-11.987 8.339-21.367l16.676-178.231c1.71-15.393-1.126-27.756-8.51-37.087l-.349-.435c-7.644-9.728-18.935-14.592-33.874-14.592l-.582.002V54.857Z"/><path d="M384 54.857v142.084c-15.124.118-26.46 4.845-34.01 14.181l-.326.409c-7.643 9.38-10.597 21.888-8.859 37.522l16.676 178.231c1.042 9.38 3.822 16.503 8.338 21.367 4.407 4.745 10.467 7.176 18.181 7.292v27.105l-.1.001c-13.58.135-24.47 4.303-32.673 12.504-7.99 7.991-11.986 18.414-11.986 31.269 0 13.202 3.996 23.973 11.986 32.311 8.222 8.221 19.146 12.39 32.773 12.505v141.505C202.219 713.143 54.857 565.781 54.857 384 54.857 202.219 202.22 54.857 384 54.857Z"/></g></svg>
