<svg width="768" height="768" fill="none" xmlns="http://www.w3.org/2000/svg"><path fill-rule="evenodd" clip-rule="evenodd" d="M260.67-.001h246.66c27.999 0 50.757 0 69.224 1.508 19.07 1.558 36.085 4.868 51.911 12.931a132.488 132.488 0 0 1 57.896 57.896c8.063 15.826 11.373 32.841 12.931 51.911 1.509 18.467 1.508 41.225 1.508 69.225v381.059c0 28 .001 50.758-1.508 69.225-1.558 19.07-4.868 36.085-12.931 51.911a132.495 132.495 0 0 1-57.896 57.896c-15.826 8.063-32.841 11.373-51.911 12.931-18.467 1.509-41.225 1.508-69.225 1.508H260.671c-28 0-50.758.001-69.225-1.508-19.07-1.558-36.085-4.868-51.911-12.931a132.49 132.49 0 0 1-57.896-57.896c-8.063-15.826-11.373-32.841-12.93-51.911-1.51-18.467-1.51-41.225-1.509-69.224v-8.13c0-15.906 12.894-28.8 28.8-28.8s28.8 12.894 28.8 28.8v6.912c0 29.508.022 49.908 1.317 65.752 1.267 15.507 3.608 24.098 6.844 30.451a74.887 74.887 0 0 0 32.724 32.724c6.353 3.236 14.944 5.577 30.451 6.844 15.844 1.295 36.244 1.317 65.752 1.317h244.224c29.508 0 49.908-.022 65.752-1.317 15.507-1.267 24.098-3.608 30.451-6.844a74.887 74.887 0 0 0 32.724-32.724c3.236-6.353 5.577-14.944 6.844-30.451 1.295-15.845 1.317-36.244 1.317-65.752V194.687c0-29.509-.022-49.908-1.317-65.752-1.267-15.508-3.608-24.098-6.844-30.451a74.883 74.883 0 0 0-32.724-32.724c-6.353-3.237-14.944-5.577-30.451-6.844-15.844-1.295-36.244-1.317-65.752-1.317H261.888c-29.508 0-49.908.022-65.752 1.317-15.507 1.267-24.098 3.608-30.451 6.844a74.883 74.883 0 0 0-32.724 32.724c-3.236 6.353-5.577 14.943-6.844 30.451-1.295 15.844-1.317 36.244-1.317 65.752v6.913c0 15.906-12.894 28.8-28.8 28.8s-28.8-12.894-28.8-28.8v-8.131c0-27.999 0-50.758 1.508-69.224 1.558-19.07 4.868-36.085 12.931-51.91a132.483 132.483 0 0 1 57.896-57.897c15.826-8.063 32.841-11.373 51.911-12.931C209.913-.002 232.671-.001 260.67-.001Zm83.764 219.636c11.247-11.247 29.482-11.247 40.729 0L549.528 384 385.163 548.365c-11.247 11.247-29.482 11.247-40.729 0s-11.247-29.483 0-40.73l94.835-94.835h-338.47c-15.906 0-28.8-12.894-28.8-28.8s12.894-28.8 28.8-28.8h338.47l-94.835-94.835c-11.247-11.247-11.247-29.483 0-40.73Z" fill="#000"/></svg>