<svg xmlns="http://www.w3.org/2000/svg" width="768" height="768" fill="none"><path fill="#000" fill-rule="evenodd" d="M279.89 571.371c6.841 22.805 39.134 22.805 45.975 0l11.877-39.592c23.183-77.28 83.646-137.741 160.926-160.921l39.582-11.873c22.806-6.84 22.807-39.133.002-45.975l-39.604-11.884c-77.27-23.184-137.722-83.638-160.904-160.908l-11.879-39.595c-6.841-22.805-39.134-22.805-45.975 0l-11.879 39.595c-23.182 77.27-83.634 137.724-160.904 160.908L67.503 313.01c-22.805 6.842-22.803 39.135.002 45.975l39.582 11.873c77.28 23.18 137.743 83.641 160.926 160.921zM583.356 674.35c4.096 13.655 23.433 13.655 27.529 0 13.881-46.271 50.083-82.474 96.355-96.353 13.655-4.096 13.652-23.432-.002-27.529-46.268-13.882-82.471-50.083-96.353-96.352-4.096-13.655-23.433-13.655-27.529 0-13.882 46.269-50.085 82.47-96.353 96.352-13.654 4.097-13.657 23.433-.002 27.529 46.272 13.879 82.474 50.082 96.355 96.353" clip-rule="evenodd"/></svg>