<svg xmlns="http://www.w3.org/2000/svg" width="768" height="768" fill="none"><path fill="#000" fill-rule="evenodd" d="M451.2 168c0-15.906 12.894-28.8 28.8-28.8h110.4c21.208 0 38.4 17.192 38.4 38.4V288c0 15.906-12.894 28.8-28.8 28.8s-28.8-12.894-28.8-28.8v-50.471L380.365 428.364c-11.247 11.247-29.483 11.247-40.73 0s-11.247-29.482 0-40.729L530.471 196.8H480c-15.906 0-28.8-12.894-28.8-28.8M240 244.8c-23.859 0-43.2 19.341-43.2 43.2v240c0 23.858 19.341 43.2 43.2 43.2h240c23.859 0 43.2-19.342 43.2-43.2v-72c0-15.906 12.894-28.8 28.8-28.8s28.8 12.894 28.8 28.8v72c0 55.67-45.13 100.8-100.8 100.8H240c-55.67 0-100.8-45.13-100.8-100.8V288c0-55.671 45.13-100.8 100.8-100.8h72c15.906 0 28.8 12.894 28.8 28.8s-12.894 28.8-28.8 28.8z" clip-rule="evenodd"/></svg>