<svg xmlns="http://www.w3.org/2000/svg" width="768" height="768" fill="none"><path fill="#000" d="M384.01 127.999c145.046 0 272.509 104.623 345.616 180.102 19.276 19.909 28.947 29.897 35.09 49.443 4.378 13.945 4.378 38.97 0 52.916-6.143 19.544-15.813 29.532-35.09 49.438C656.519 535.378 529.056 640 384.009 640S111.472 535.377 38.37 459.898C19.076 439.976 9.428 430.012 3.286 410.46c-4.38-13.945-4.38-38.971 0-52.916 6.142-19.553 15.79-29.52 35.085-49.443C111.472 232.621 238.962 128 384.01 128m-.004 93.092c-41.602 0-81.5 17.164-110.916 47.715-29.417 30.551-45.943 71.988-45.943 115.194s16.526 84.644 45.943 115.195c29.416 30.552 69.314 47.715 110.916 47.715 41.601 0 81.499-17.163 110.916-47.715 29.416-30.552 45.942-71.989 45.942-115.195s-16.526-84.643-45.942-115.194c-29.417-30.551-69.314-47.715-110.916-47.715m-63.382 97.083c16.81-17.458 39.609-27.266 63.381-27.266 23.773 0 46.571 9.808 63.38 27.266 16.81 17.459 26.254 41.137 26.254 65.826 0 24.69-9.443 48.368-26.253 65.826-16.81 17.459-39.609 27.266-63.38 27.266-23.774 0-46.572-9.807-63.382-27.266S294.371 408.69 294.371 384s9.443-48.367 26.253-65.826"/></svg>