<svg xmlns="http://www.w3.org/2000/svg" width="768" height="768" fill="none"><path fill="#000" fill-rule="evenodd" d="M143.011 143.029c9.372-9.373 24.568-9.373 33.941 0l155.874 155.874q.124.12.247.244.123.123.244.247l135.274 135.274.247.243.243.247 155.871 155.871c9.373 9.373 9.373 24.568 0 33.941s-24.568 9.373-33.941 0l-62.17-62.169c-43.162 21.742-92.285 37.194-144.86 37.194-123.192 0-228.512-84.763-286.139-142.053l-1.54-1.53c-13.812-13.713-25.09-24.91-31.684-45.126-2.784-8.535-3.742-18.619-3.742-27.289 0-8.668.957-18.754 3.742-27.291 6.599-20.221 17.897-31.436 31.738-45.176l1.535-1.523c25.161-25.01 58.625-54.456 98.14-80.017l-53.02-53.02c-9.373-9.373-9.373-24.569 0-33.941m87.818 121.759c-39.584 24.333-73.566 53.882-99.1 79.263-15.581 15.486-18.749 19.179-21.478 27.545-.627 1.922-1.376 6.453-1.375 12.401s.748 10.48 1.375 12.404c2.73 8.368 5.885 12.044 21.432 27.5 56.257 55.928 149.529 128.094 252.298 128.094 37.822 0 74.524-9.766 108.859-25.195l-42.689-42.69a119.999 119.999 0 0 1-166.277-166.277zm88.184 88.184a72.001 72.001 0 0 0 95.999 95.999zm29.923-182.715a276 276 0 0 1 35.045-2.258c123.193 0 228.522 84.765 286.15 142.056l1.502 1.492c13.826 13.728 25.122 24.943 31.72 45.17 2.783 8.532 3.743 18.616 3.745 27.287.002 8.669-.953 18.759-3.74 27.3-6.586 20.184-17.869 31.383-31.646 45.058l-1.333 1.323-.148.152-.153.153a680 680 0 0 1-30.246 28.301c-9.953 8.754-25.118 7.782-33.872-2.171s-7.782-25.118 2.171-33.871a633 633 0 0 0 27.902-26.097q.149-.153.3-.303c15.518-15.424 18.673-19.101 21.393-27.435.625-1.918 1.373-6.448 1.372-12.399-.002-5.95-.751-10.487-1.379-12.413-2.729-8.366-5.899-12.067-21.43-27.507-56.256-55.927-149.538-128.096-252.308-128.096-9.736 0-19.393.647-28.954 1.87-13.148 1.682-25.17-7.613-26.852-20.761s7.613-25.169 20.761-26.851" clip-rule="evenodd"/><path fill="#000" fill-rule="evenodd" d="m455.584 376.329 43.07 43.07a120 120 0 0 0-29.808-120.252 120 120 0 0 0-120.252-29.808l43.07 43.07a72 72 0 0 1 43.241 20.679 72 72 0 0 1 20.679 43.241" clip-rule="evenodd"/></svg>
