<svg xmlns="http://www.w3.org/2000/svg" width="768" height="768" fill="none"><path fill="#000" fill-rule="evenodd" d="M383.991 216c-102.77 0-196.052 72.169-252.308 128.096-15.543 15.452-18.702 19.135-21.432 27.504-.627 1.924-1.375 6.454-1.375 12.4s.748 10.477 1.375 12.401c2.73 8.367 5.887 12.046 21.432 27.501 56.256 55.927 149.538 128.095 252.308 128.095 102.768 0 196.031-72.167 252.288-128.095 15.539-15.448 18.711-19.142 21.438-27.501.627-1.924 1.375-6.455 1.375-12.401.001-5.946-.747-10.476-1.375-12.4-2.727-8.361-5.9-12.057-21.438-27.504C580.022 288.167 486.759 216 383.991 216m-286.15 94.055C155.47 252.765 260.799 168 383.992 168s228.503 84.766 286.13 142.055l1.534 1.524c13.803 13.705 25.101 24.922 31.695 45.135 2.785 8.535 3.743 18.618 3.742 27.286s-.957 18.752-3.742 27.287c-6.592 20.209-17.89 31.426-31.687 45.123l-1.542 1.532c-57.626 57.289-162.937 142.055-286.13 142.055S155.47 515.233 97.841 457.942l-1.535-1.525c-13.814-13.715-25.093-24.914-31.688-45.13-2.784-8.535-3.742-18.618-3.742-27.287 0-8.668.958-18.751 3.742-27.286 6.596-20.221 17.878-31.422 31.698-45.143zl15.096 15.185zm201.291-10.908a120.001 120.001 0 1 1 169.706 169.708 120.001 120.001 0 0 1-169.706-169.708M383.985 312a72.003 72.003 0 0 0-72 72 72.003 72.003 0 0 0 72 72 72.003 72.003 0 0 0 72-72 72.003 72.003 0 0 0-72-72" clip-rule="evenodd"/></svg>
