<svg xmlns="http://www.w3.org/2000/svg" width="768" height="768" fill="none"><path fill="#000" d="M60.25 476.157c164.159 213.105 483.341 213.104 647.5 0 41.774-54.236 41.778-130.11 0-184.344-164.159-213.087-483.341-213.087-647.5 0-41.778 54.234-41.774 130.108 0 184.344m609.469-29.282c-144.944 188.157-426.494 188.157-571.438 0-28.48-36.972-28.48-88.778 0-125.75 144.944-188.157 426.494-188.157 571.438 0 28.48 36.972 28.48 88.778 0 125.75M475.219 384c0 50.369-40.851 91.188-91.219 91.188-50.363-.007-91.187-40.823-91.187-91.188.001-50.362 40.825-91.18 91.187-91.187 50.367 0 91.217 40.82 91.219 91.187m48 0c-.002-76.876-62.342-139.187-139.219-139.187-76.871.007-139.186 62.315-139.187 139.187 0 76.874 62.315 139.181 139.187 139.188 76.878 0 139.219-62.31 139.219-139.188"/></svg>
