<svg xmlns="http://www.w3.org/2000/svg" width="768" height="768" fill="none"><path fill="#000" d="M224.905 199.682c18.173 0 32.905 14.732 32.905 32.905v64.215c0 18.173-14.732 32.905-32.905 32.905S192 314.975 192 296.802v-64.215c0-18.173 14.732-32.905 32.905-32.905m318.191 0c18.173 0 32.906 14.732 32.906 32.905v64.215c0 18.173-14.733 32.905-32.906 32.905s-32.905-14.732-32.905-32.905v-64.215c0-18.173 14.732-32.905 32.905-32.905m-159.097 0c18.173 0 32.905 14.732 32.905 32.905v172.884c0 18.173-14.732 32.905-32.905 32.905h-45.113c-18.173 0-32.905-14.732-32.905-32.905s14.732-32.905 32.905-32.905h12.208V232.587c0-18.173 14.732-32.905 32.905-32.905M229.824 502.181c12.516-13.176 33.344-13.711 46.52-1.195a156.317 156.317 0 0 0 215.311 0c13.176-12.516 34.003-11.981 46.519 1.195s11.981 34.004-1.195 46.52a222.13 222.13 0 0 1-305.959 0c-13.176-12.516-13.712-33.343-1.196-46.52"/><path fill="#000" fill-rule="evenodd" d="M639.064 58.917C623.22 57.622 602.82 57.6 573.312 57.6H566.4c-15.906 0-28.8-12.894-28.8-28.8S550.494 0 566.4 0h8.13c27.999 0 50.758 0 69.224 1.508 19.07 1.558 36.085 4.868 51.911 12.932a132.5 132.5 0 0 1 57.896 57.895c8.063 15.826 11.373 32.841 12.931 51.911 1.509 18.467 1.508 41.225 1.508 69.224v8.13c0 15.906-12.894 28.8-28.8 28.8s-28.8-12.894-28.8-28.8v-6.912c0-29.508-.022-49.908-1.317-65.752-1.267-15.507-3.608-24.098-6.844-30.45a74.9 74.9 0 0 0-32.724-32.725c-6.353-3.236-14.944-5.577-30.451-6.844m0 650.166c-15.844 1.295-36.244 1.317-65.752 1.317H566.4c-15.906 0-28.8 12.894-28.8 28.8s12.894 28.8 28.8 28.8h8.13c27.999 0 50.758.001 69.224-1.508 19.07-1.558 36.085-4.868 51.911-12.931a132.5 132.5 0 0 0 57.896-57.896c8.063-15.826 11.373-32.841 12.931-51.911 1.509-18.467 1.508-41.225 1.508-69.224v-8.13c0-15.906-12.894-28.8-28.8-28.8s-28.8 12.894-28.8 28.8v6.912c0 29.508-.022 49.908-1.317 65.752-1.267 15.507-3.608 24.098-6.844 30.451a74.9 74.9 0 0 1-32.724 32.724c-6.353 3.236-14.944 5.577-30.451 6.844M128.936 58.917c15.844-1.295 36.244-1.317 65.752-1.317h6.912c15.906 0 28.8-12.894 28.8-28.8S217.506 0 201.6 0h-8.13c-27.999 0-50.757 0-69.224 1.508-19.07 1.558-36.085 4.868-51.91 12.932A132.48 132.48 0 0 0 14.44 72.335C6.376 88.161 3.066 105.176 1.508 124.246 0 142.713 0 165.471 0 193.47v8.13c0 15.906 12.894 28.8 28.8 28.8s28.8-12.894 28.8-28.8v-6.912c0-29.508.022-49.908 1.317-65.752 1.267-15.507 3.608-24.098 6.844-30.45A74.88 74.88 0 0 1 98.486 65.76c6.353-3.236 14.944-5.577 30.451-6.844Zm0 650.166c15.844 1.295 36.244 1.317 65.752 1.317h6.912c15.906 0 28.8 12.894 28.8 28.8S217.506 768 201.6 768h-8.13c-27.999 0-50.757.001-69.224-1.508-19.07-1.558-36.085-4.868-51.91-12.931a132.5 132.5 0 0 1-57.896-57.896c-8.064-15.826-11.374-32.841-12.932-51.911C0 625.287 0 602.529 0 574.53v-8.13c0-15.906 12.894-28.8 28.8-28.8s28.8 12.894 28.8 28.8v6.912c0 29.508.022 49.908 1.317 65.752 1.267 15.507 3.608 24.098 6.844 30.451a74.9 74.9 0 0 0 32.724 32.724c6.353 3.236 14.944 5.577 30.451 6.844" clip-rule="evenodd"/></svg>