<svg xmlns="http://www.w3.org/2000/svg" width="768" height="768" fill="none"><path fill="#000" d="m563.366 358.653 24.97-10.79-.157-.352zM245.156 580.24l-19.422 19.043.017.019 19.404-19.062zm-37.229-228.812 24.482 11.853.012-.026zm55.807-69.49-16.805-21.388-.041.032zm34.668-34.526-21.264-16.962-.044.056zm34.498-61.491 25.571 9.273.016-.05zm75.068 20.166 24.137-12.535-.045-.086-24.093 12.62zm41.338 143.007 18.505-19.935-.058-.051zm22.521 8.18-1.417-27.161-.192.009zm21.629-10.611 20.47 17.911.064-.077zm44.944 22.783c9.53 22.052 14.564 45.956 14.564 69.981h54.4c0-31.581-6.605-62.822-19.028-91.564zm14.564 69.981c0 46.065-17.639 89.287-49.534 121.751l38.81 38.124c41.974-42.729 65.124-99.676 65.124-159.875zm-49.533 121.751c-31.997 32.576-74.33 50.352-119.434 50.352v54.4c59.815 0 116.096-23.722 158.243-66.628zM383.997 611.53c-45.107 0-87.439-17.776-119.437-50.352l-38.808 38.124c42.147 42.906 98.43 66.628 158.245 66.628zm-119.419-50.333c-15.644-15.956-27.833-34.439-36.199-54.496l-50.208 20.94c11.033 26.455 27.082 50.752 47.563 71.642zm-49.536-124.068c.325-25.917 6.169-50.716 17.367-73.849l-48.965-23.702c-14.694 30.355-22.372 63.017-22.798 96.87zm17.379-73.875c11.209-23.216 27.915-43.993 48.158-59.961l-33.691-42.711c-26.695 21.057-48.645 48.342-63.457 79.02zm48.117-59.928a236.8 236.8 0 0 0 39.171-39.007l-42.615-33.813a182.5 182.5 0 0 1-30.165 30.045zm39.128-38.952c16.651-20.876 29.739-44.188 38.805-69.18l-51.142-18.546c-7.03 19.386-17.195 37.512-30.19 53.803zm38.821-69.23a171.4 171.4 0 0 0 8.22-32.461l-53.788-8.141a117 117 0 0 1-5.609 22.157zm8.22-32.461 4.397-29.058-53.787-8.142-4.399 29.059zm-40.659-13.56 21.175 20.04 37.395-39.507-21.171-20.04zm21.175 20.04c14.279 13.517 26.396 29.973 36.649 49.544l48.189-25.241c-12.637-24.13-28.22-45.615-47.443-63.81zm36.605 49.458c20.72 39.905 29.644 74.271 27.907 102.48l54.298 3.344c2.569-41.726-10.727-86.215-33.926-130.892zm27.906 102.458a60.7 60.7 0 0 0 4.154 26.167l50.56-20.077a6.4 6.4 0 0 1-.42-2.698zm4.154 26.167a59.65 59.65 0 0 0 14.969 21.836l36.896-39.974a5.3 5.3 0 0 1-1.305-1.94zm14.912 21.785c5.674 5.267 12.4 9.415 19.757 12.076l18.505-51.155a3.9 3.9 0 0 1-1.255-.793zm19.757 12.076a57.3 57.3 0 0 0 22.88 3.322l-3.219-54.307a2.9 2.9 0 0 1-1.156-.17zm22.688 3.332c15.693-.819 30.247-7.94 40.681-19.865l-40.944-35.821c-.873 1.001-1.74 1.315-2.572 1.36zm40.746-19.943c8.829-10.163 16.531-20.611 22.999-31.344l-46.589-28.083c-4.678 7.761-10.474 15.687-17.482 23.757l41.073 35.671zm22.998-31.344 11.593-19.232-46.592-28.082-11.59 19.231zm-32.816-16.827 13.577 17.838 43.286-32.948-13.577-17.839zm13.577 17.838c7.616 10.007 15.29 23.351 20.804 35.632l49.625-22.285c-6.912-15.392-16.605-32.45-27.142-46.295zM228.379 506.701c-8.601-20.625-13.335-45.981-13.335-69.911h-54.4c0 30.349 5.876 62.915 17.527 90.851zm-13.335-69.911v-.248h-54.4v.477h54.4v-.244h-54.4v.244h54.4v-.477h-54.4v.248zm333.538-122.87c-9.804 16.262-32.915 17.507-44.409 2.405l43.286-32.948c-11.77-15.463-35.434-14.19-45.469 2.461zM371.104 133.625c-3.251 21.489-29.305 30.406-45.056 15.498l37.399-39.507c-16.125-15.264-42.801-6.133-46.13 15.867z"/></svg>