<svg xmlns="http://www.w3.org/2000/svg" width="768" height="768" fill="none"><path fill="#000" d="M655.031 79.031c9.373-9.372 24.565-9.372 33.938 0 9.372 9.373 9.372 24.565 0 33.938L505.938 296H608c13.255 0 24 10.745 24 24s-10.745 24-24 24H448c-13.255 0-24-10.745-24-24V160c0-13.255 10.745-24 24-24s24 10.745 24 24v102.063zM344 608c0 13.255-10.745 24-24 24s-24-10.745-24-24V505.938L112.969 688.969c-9.373 9.372-24.565 9.372-33.938 0-9.372-9.373-9.372-24.565 0-33.938L262.063 472H160c-13.255 0-24-10.745-24-24s10.745-24 24-24h160c13.255 0 24 10.745 24 24z"/></svg>