<svg xmlns="http://www.w3.org/2000/svg" width="768" height="768" fill="none"><path fill="#000" d="M303.031 431.031c9.373-9.372 24.565-9.372 33.938 0 9.372 9.373 9.372 24.565 0 33.938L153.938 648H256c13.255 0 24 10.745 24 24s-10.745 24-24 24H96c-13.255 0-24-10.745-24-24V512c0-13.255 10.745-24 24-24s24 10.745 24 24v102.062zM696 256c0 13.255-10.745 24-24 24s-24-10.745-24-24V153.938L464.969 336.969c-9.373 9.372-24.565 9.372-33.938 0-9.372-9.373-9.372-24.565 0-33.938L614.062 120H512c-13.255 0-24-10.745-24-24s10.745-24 24-24h160c13.255 0 24 10.745 24 24z"/></svg>