<svg xmlns="http://www.w3.org/2000/svg" width="768" height="768" fill="none"><path fill="#000" fill-rule="evenodd" d="M656.98 111.032c9.372 9.372 9.372 24.568 0 33.941L505.95 296.002h86.059c13.255 0 24 10.745 24 24s-10.745 24-24 24h-144c-13.255 0-24-10.745-24-24v-144c0-13.255 10.745-24 24-24s24 10.745 24 24v86.059l151.029-151.029c9.373-9.373 24.569-9.373 33.942 0m-480.971 360.97c-13.255 0-24-10.745-24-24s10.745-24 24-24h144c13.255 0 24 10.745 24 24v144c0 13.255-10.745 24-24 24s-24-10.745-24-24v-86.059l-151.03 151.03c-9.372 9.372-24.568 9.372-33.941 0-9.372-9.373-9.372-24.569 0-33.941l151.03-151.03z" clip-rule="evenodd"/></svg>