<svg xmlns="http://www.w3.org/2000/svg" width="768" height="768" fill="none"><path fill="#000" d="M565.359 408H408v216h122.672a34.7 34.7 0 0 0 24.516-10.172 34.7 34.7 0 0 0 10.171-24.516zM202.688 589.312c0 9.189 3.629 18.016 10.124 24.516A34.73 34.73 0 0 0 237.328 624H360V408H202.688zM624 296.016a5.33 5.33 0 0 0-1.547-3.75 5.4 5.4 0 0 0-1.734-1.172l-2.063-.422H408V360h210.656c1.415 0 2.797-.547 3.797-1.547a5.34 5.34 0 0 0 1.547-3.75zm-480 58.687.422 2.016c.264.637.629 1.236 1.125 1.734 1 1 2.382 1.547 3.797 1.547H360v-69.328H149.344c-1.415 0-2.797.594-3.797 1.594a5.33 5.33 0 0 0-1.547 3.75zm421.359-161.344c0-13.081-5.233-25.624-14.484-34.875S529.084 144 516 144h-.422c-19.701-.338-41.195 9.102-61.312 31.453-15.101 16.777-28.224 39.695-38.063 67.219H516a49.36 49.36 0 0 0 34.875-14.438c9.247-9.247 14.48-21.799 14.484-34.875m-362.437 4.875a49.36 49.36 0 0 0 14.203 30A49.34 49.34 0 0 0 252 242.672h99.844c-9.835-27.534-23.01-50.442-38.11-67.219-20.12-22.349-41.611-31.796-61.312-31.453H252c-13.08.003-25.626 5.236-34.875 14.484a49.34 49.34 0 0 0-14.437 34.875zm410.437-4.875c-.003 17.514-4.854 34.475-13.593 49.313h18.89l5.297.281a53.4 53.4 0 0 1 32.438 15.375A53.33 53.33 0 0 1 672 296.016v58.687a53.34 53.34 0 0 1-15.609 37.688A53.38 53.38 0 0 1 618.656 408h-5.297v181.312c0 21.925-8.731 42.951-24.234 58.454C573.622 663.267 552.595 672 530.672 672H237.328a82.73 82.73 0 0 1-58.453-24.234 82.67 82.67 0 0 1-24.187-58.454V408h-5.344a53.38 53.38 0 0 1-37.735-15.609 53.32 53.32 0 0 1-15.328-32.438l-.281-5.25v-58.687a53.33 53.33 0 0 1 15.609-37.688c10.002-10.001 23.59-15.656 37.735-15.656h18.89c-7.127-12.105-11.677-25.61-13.078-39.703l-.468-9.61c0-25.813 10.246-50.606 28.5-68.859 18.15-18.144 42.737-28.339 68.39-28.453V96c.104-.002.224.048.328.047L252 96v.047c36.727-.504 70.538 17.452 97.406 47.297 13.341 14.821 24.924 32.498 34.594 52.218 9.677-19.724 21.254-37.397 34.594-52.218 26.864-29.846 60.683-47.793 97.406-47.297V96l.047.047c.125.002.25-.05.375-.047l-.047.047c25.683.096 50.316 10.286 68.484 28.453 18.253 18.252 28.5 43.047 28.5 68.859"/></svg>