<svg xmlns="http://www.w3.org/2000/svg" width="768" height="769" fill="none"><path fill="#000" fill-rule="evenodd" d="M383.856 0C172.146 0 1 176 1 393.736c0 174.048 109.659 321.376 261.786 373.52 19.02 3.92 25.987-8.472 25.987-18.896 0-9.128-.627-40.416-.627-73.016-106.501 23.472-128.679-46.936-128.679-46.936-17.116-45.632-42.475-57.36-42.475-57.36-34.858-24.12 2.539-24.12 2.539-24.12 38.666 2.608 58.955 40.416 58.955 40.416 34.223 59.968 89.37 43.024 111.556 32.592 3.166-25.424 13.315-43.024 24.09-52.8-84.942-9.128-174.312-43.024-174.312-194.264 0-43.024 15.203-78.224 39.293-105.6-3.8-9.776-17.115-50.2 3.809-104.304 0 0 32.327-10.432 105.216 40.416a361 361 0 0 1 95.718-13.04c32.326 0 65.28 4.568 95.71 13.04 72.897-50.848 105.224-40.416 105.224-40.416 20.924 54.104 7.601 94.528 3.801 104.304 24.724 27.376 39.301 62.576 39.301 105.6 0 151.24-89.37 184.48-174.948 194.264 13.95 12.384 25.987 35.848 25.987 73.008 0 52.8-.627 95.176-.627 108.208 0 10.432 6.975 22.824 25.987 18.912 152.127-52.16 261.788-199.48 261.788-373.528C766.704 176 594.93 0 383.856 0" clip-rule="evenodd"/></svg>