<svg xmlns="http://www.w3.org/2000/svg" width="768" height="768" fill="none"><path fill="#000" fill-rule="evenodd" d="M385.2 44c187.335 0 339.2 151.865 339.2 339.2S572.535 722.4 385.2 722.4 46 570.535 46 383.2 197.865 44 385.2 44M134.951 519.272l1.417 2.576c38.177 68.369 103.713 119.379 181.795 138.218-27.23-38.659-47.338-83.419-60.605-130.936-42.092-2.188-83.269-5.474-122.607-9.858m500.5.002-2.274.249c-38.651 4.259-79.052 7.461-120.337 9.607-13.265 47.517-33.373 92.277-60.604 130.928 79.06-19.066 145.257-71.123 183.215-140.784m-180.09 12.147-3.479.096a2517 2517 0 0 1-136.841-.095c15.608 48.169 39.144 91.428 70.157 125.452 31.017-34.024 54.553-77.283 70.163-125.453m19.061-208.609-4.454.157a2511 2511 0 0 1-173.989-.155A509 509 0 0 0 292.4 383.2c0 31.685 2.92 63.103 8.668 93.36a2458 2458 0 0 0 168.262 0c5.75-30.257 8.67-61.675 8.67-93.36 0-20.318-1.201-40.526-3.578-60.388m-364.078-14.457-.552 2.033c-6.128 23.241-9.392 47.645-9.392 72.812 0 27.207 3.815 53.524 10.94 78.443 42.445 5.494 87.578 9.605 134.047 12.332-4.946-29.96-7.387-60.471-7.387-90.775 0-20.971 1.169-42.042 3.528-62.96-45.332-2.672-89.451-6.634-131.184-11.885m549.718-.004-4.824.603c-40.305 4.954-82.775 8.716-126.367 11.287A562 562 0 0 1 532.4 383.2c0 30.304-2.441 60.815-7.386 90.774 46.468-2.726 91.601-6.837 134.04-12.333C666.185 436.724 670 410.407 670 383.2c0-25.903-3.458-50.998-9.938-74.849m-274.86-198.826-.554.605c-37.805 41.729-64.434 97.223-79.06 158.58a2458 2458 0 0 0 159.226.001c-14.699-61.655-41.515-117.389-79.612-159.186m-67.037-3.184-1.406.336c-81.747 20.165-149.593 75.633-186.436 149.305 38.369 4.521 78.706 7.947 120.058 10.28 12.64-58.251 35.073-113.493 67.784-159.921m134.071-.007.237.345c32.581 46.359 54.937 101.474 67.549 159.582 41.349-2.332 81.686-5.758 120.056-10.276-37.055-74.096-105.467-129.777-187.842-149.651" clip-rule="evenodd"/></svg>