<svg xmlns="http://www.w3.org/2000/svg" width="768" height="768" fill="none"><path fill="#000" d="M384 652.8q55.775 0 104.484-21.18 48.733-21.154 85.344-57.792c24.426-24.408 43.687-52.962 57.792-85.666q21.18-49.058 21.18-104.16 0-55.777-21.18-104.484-21.155-48.735-57.792-85.344-36.61-36.638-85.344-57.819Q439.777 115.2 384 115.2q-55.103 0-104.16 21.155-49.057 21.18-85.668 57.819-36.636 36.611-57.792 85.344-21.18 48.707-21.18 104.484 0 55.103 21.18 104.16 21.154 49.056 57.792 85.666c24.408 24.426 52.963 43.687 85.668 57.792Q328.897 652.8 384 652.8M277.824 276.48h-79.296q19.489-33.6 48.706-58.464 29.246-24.863 66.876-36.96a371 371 0 0 0-21.154 46.02q-9.084 23.87-15.134 49.404zM175.68 437.76q-3.36-13.442-5.052-26.556-1.667-13.09-1.668-27.204 0-14.112 1.668-27.204 1.693-13.118 5.052-26.556h91.392a375 375 0 0 0-3.036 26.556q-.995 13.09-.995 27.204t.995 27.204a376 376 0 0 0 3.036 26.556zm117.276 103.139a371 371 0 0 0 21.154 46.045q-37.633-12.095-66.876-36.96-29.219-24.864-48.706-58.464h79.296q6.047 25.534 15.133 49.38zM384 597.696q-17.473-24.192-30.24-50.4-12.767-26.209-20.832-55.776h102.144q-8.065 29.569-20.832 55.776t-30.24 50.4m63.168-159.936H320.832a365 365 0 0 1-3.011-26.556q-1.02-13.09-1.02-27.204 0-14.112 1.02-27.204a366 366 0 0 1 3.011-26.556h126.336a376 376 0 0 1 3.036 26.556q.994 13.09.994 27.204t-.994 27.204a376 376 0 0 1-3.036 26.556m6.72 149.184a374 374 0 0 0 21.18-46.045q9.06-23.845 15.108-49.381h79.296q-19.487 33.6-48.732 58.464-29.219 24.864-66.851 36.961zM592.32 437.76h-91.392a365 365 0 0 0 3.01-26.556q1.02-13.09 1.02-27.204 0-14.112-1.02-27.204a365 365 0 0 0-3.01-26.556h91.392q3.36 13.442 5.052 26.556 1.666 13.09 1.666 27.204t-1.666 27.204q-1.693 13.116-5.052 26.556M490.176 276.48q-6.049-25.537-15.108-49.404a375 375 0 0 0-21.18-46.02q37.632 12.097 66.85 36.96 29.245 24.863 48.732 58.464h-79.296zm-75.936-55.776q12.768 26.207 20.832 55.776H332.928q8.065-29.569 20.832-55.776t30.24-50.4q17.472 24.192 30.24 50.4"/></svg>