<svg xmlns="http://www.w3.org/2000/svg" width="768" height="768" fill="none"><path fill="#000" fill-rule="evenodd" d="M309.008 315.298c0-81.527 66.091-147.618 147.619-147.618 81.527 0 147.618 66.091 147.618 147.618 0 81.528-66.091 147.619-147.618 147.619-19.753 0-38.554-3.87-55.723-10.874a19.2 19.2 0 0 0-20.829 4.201l-23.661 23.661H311.87c-10.604 0-19.2 8.596-19.2 19.2v26.965h-28.101c-10.604 0-19.2 8.596-19.2 19.2v37.081l-7.875 7.875h-63.669v-58.697l141.231-141.232a19.2 19.2 0 0 0 4.273-20.649c-6.654-16.795-10.321-35.121-10.321-54.35M456.627 129.28c-102.736 0-186.019 83.283-186.019 186.018 0 19.646 3.052 38.609 8.717 56.424L141.049 510a19.2 19.2 0 0 0-5.624 13.576v85.85c0 10.604 8.596 19.2 19.2 19.2h90.822a19.2 19.2 0 0 0 13.576-5.623l19.123-19.123a19.2 19.2 0 0 0 5.623-13.576V564.47h28.101c10.604 0 19.2-8.596 19.2-19.2v-26.965h33.297a19.2 19.2 0 0 0 13.576-5.623l20.614-20.614c18.291 6.005 37.817 9.249 58.07 9.249 102.735 0 186.018-83.284 186.018-186.019S559.362 129.28 456.627 129.28m62.018 205.267c22.492-22.491 22.492-58.956 0-81.447-22.491-22.491-58.956-22.491-81.447 0s-22.491 58.956 0 81.447 58.956 22.491 81.447 0" clip-rule="evenodd"/></svg>