<svg xmlns="http://www.w3.org/2000/svg" width="768" height="768" fill="none"><path fill="#000" fill-rule="evenodd" d="M640.799 537.751c14.626 0 26.484 11.857 26.484 26.48 0 13.582-10.222 24.776-23.393 26.308l-3.091.177H141.683c-14.626 0-26.483-11.858-26.483-26.485 0-13.578 10.223-24.772 23.394-26.304l3.089-.176zM537.787 192c43.876 0 79.45 35.57 79.45 79.448v211.863c0 14.626-11.858 26.48-26.485 26.48H193.511c-14.626 0-26.483-11.854-26.483-26.48V271.448c0-43.878 35.57-79.448 79.448-79.448zm0 52.961H246.478c-14.626 0-26.483 11.857-26.483 26.483v185.379h344.277V271.444c0-14.626-11.858-26.483-26.485-26.483" clip-rule="evenodd"/></svg>