<svg xmlns="http://www.w3.org/2000/svg" width="768" height="768" fill="none"><path fill="#000" fill-rule="evenodd" d="M425.144 171.106c10.362-10.362 17.327-17.307 23.121-22.225 5.622-4.773 8.865-6.5 11.34-7.304a32 32 0 0 1 19.777 0c2.474.804 5.718 2.531 11.34 7.304 5.793 4.918 12.759 11.863 23.121 22.225l83.269 83.269c10.362 10.362 17.306 17.327 22.225 23.121 4.773 5.622 6.5 8.865 7.304 11.34a32 32 0 0 1 0 19.777c-.804 2.475-2.531 5.718-7.304 11.34-4.919 5.793-11.863 12.759-22.225 23.121L374.458 565.728c-47.488 47.488-124.48 47.488-171.968 0s-47.488-124.481 0-171.969zm22.594-66.049c-9.215 2.994-16.886 8.235-24.325 14.55-7.132 6.055-15.202 14.126-24.871 23.795l-.551.551-222.654 222.654c-62.484 62.483-62.484 163.79 0 226.274s163.79 62.484 226.274 0l222.654-222.654.551-.551c9.669-9.669 17.74-17.74 23.795-24.871 6.314-7.439 11.556-15.11 14.55-24.326a70.4 70.4 0 0 0 0-43.509c-2.994-9.216-8.236-16.887-14.55-24.326-6.055-7.132-14.126-15.202-23.795-24.871l-.551-.551-83.269-83.269-.551-.551c-9.669-9.67-17.74-17.74-24.872-23.795-7.438-6.315-15.109-11.556-24.325-14.55a70.4 70.4 0 0 0-43.51 0M329.049 520.46c22.494-22.494 22.494-58.965 0-81.459-22.495-22.494-58.965-22.494-81.459 0s-22.494 58.965 0 81.459 58.964 22.494 81.459 0" clip-rule="evenodd"/></svg>