<svg xmlns="http://www.w3.org/2000/svg" width="768" height="768" fill="none"><path fill="#000" fill-rule="evenodd" d="m384.306 229.783-11.376 13.169c-6.932 8.025-19.056 8.911-27.081 1.979s-8.91-19.056-1.978-27.08l11.852-13.722q.459-.53.955-1.027a147.207 147.207 0 0 1 208.183.015 147.207 147.207 0 0 1-.015 208.184q-.475.475-.982.915l-13.67 11.879c-8.005 6.955-20.132 6.104-27.087-1.9-6.955-8.005-6.104-20.132 1.9-27.087l13.143-11.419a108.81 108.81 0 0 0-.444-153.421 108.807 108.807 0 0 0-153.4-.485m90.071 63.842c7.498 7.498 7.498 19.655 0 27.153l-153.6 153.6c-7.498 7.498-19.655 7.498-27.153 0s-7.498-19.655 0-27.153l153.6-153.6c7.498-7.498 19.655-7.498 27.153 0m-229.589 52.063c7.022 7.947 6.272 20.08-1.675 27.102l-12.997 11.484a108.02 108.02 0 0 0-31.741 76.489 108.04 108.04 0 0 0 32.105 76.851h.001a110.59 110.59 0 0 0 154.456.981l9.255-12.449c6.327-8.51 18.354-10.279 26.864-3.953 8.509 6.327 10.279 18.354 3.953 26.864l-10.163 13.67a19 19 0 0 1-1.914 2.202 148.99 148.99 0 0 1-209.44.001 146.42 146.42 0 0 1-43.517-104.167 146.43 146.43 0 0 1 43.517-104.167q.38-.375.781-.73l13.414-11.853c7.947-7.021 20.08-6.271 27.101 1.675" clip-rule="evenodd"/></svg>