<svg xmlns="http://www.w3.org/2000/svg" width="768" height="768" fill="none"><path fill="#000" d="M384 64c88.365 0 160 71.635 160 160v81.148a128.003 128.003 0 0 1 54.256 61.87C608 390.541 608 420.359 608 480s0 89.459-9.744 112.982a128.009 128.009 0 0 1-69.274 69.274C505.459 672 475.641 672 416 672h-64c-59.641 0-89.461 0-112.983-9.744a128.004 128.004 0 0 1-69.273-69.274c-9.743-23.523-9.743-53.341-9.743-112.982s0-89.459 9.743-112.982A128.012 128.012 0 0 1 224 305.148V224c0-88.366 71.635-160 160-160Zm96 224.86V224c0-53.019-42.98-96-96-96s-96 42.981-96 96v64.86c16.807-.86 37.45-.86 64-.86h64c26.551 0 47.194 0 64 .86Z"/></svg>