<svg xmlns="http://www.w3.org/2000/svg" width="768" height="768" fill="none"><path fill="#000" d="M508.798 244.676c0-68.856-55.875-124.676-124.8-124.676s-124.8 55.819-124.8 124.676v50.444l49.92-.096v-50.348c0-41.314 33.524-74.806 74.88-74.806s74.88 33.492 74.88 74.806v50.061l49.921-.096z"/><path fill="#000" d="M259.198 295.12c-27.585.053-49.919 22.43-49.919 50.014v102.328c0 52.763 0 79.145 10.088 99.376a96 96 0 0 0 43.074 43.074C282.672 600 309.054 600 361.818 600h44.321c52.803 0 79.205 0 99.449-10.103a96 96 0 0 0 43.028-43.029c10.103-20.243 10.103-46.645 10.103-99.449V344.466c0-27.555-22.365-49.878-49.92-49.825l-49.921.096-149.76.287z"/></svg>