<svg xmlns="http://www.w3.org/2000/svg" width="768" height="768" fill="none"><path fill="#000" fill-rule="evenodd" d="m594.355 395.945-6.386 122.518c-2.24 42.156-3.981 64.62-12.059 82.664a115.2 115.2 0 0 1-63.613 60.386c-19.042 7.36-42.438 7.729-87.373 7.747H339.1c-42.349-.047-64.915-.607-83.386-7.747a115.2 115.2 0 0 1-63.613-60.386c-8.604-19.222-10.02-43.457-12.507-91.167l-5.938-114.015c-1.954-37.509 27.933-68.992 65.492-68.992v-85.578c0-78.645 64.983-142.628 144.857-142.628 79.875 0 144.857 63.983 144.857 142.628v85.578q.563 0 1.124.01l1.12.028c36.499 1.224 65.163 32.195 63.249 68.954M470.92 326.953v-85.578c0-47.181-38.996-85.577-86.915-85.577-47.918 0-86.914 38.396-86.914 85.577v85.578z" clip-rule="evenodd"/></svg>