<svg xmlns="http://www.w3.org/2000/svg" width="768" height="768" fill="none"><path fill="#000" fill-rule="evenodd" d="M199.029 152.971c-12.718-12.719-33.34-12.719-46.058 0-12.719 12.718-12.719 33.34 0 46.058L248 294.059 294.059 248zM328 281.941 281.941 328l287.03 287.029c12.718 12.719 33.34 12.719 46.058 0 12.719-12.718 12.719-33.34 0-46.058zM119.029 119.029c31.464-31.464 82.478-31.463 113.942 0l416 416c31.464 31.464 31.464 82.478 0 113.942s-82.478 31.464-113.942 0l-416-416c-31.463-31.464-31.464-82.478 0-113.942" clip-rule="evenodd"/><path fill="#000" d="M633.149 345.193c-2.723 9.076-15.575 9.076-18.298 0a95.52 95.52 0 0 0-64.045-64.044c-9.076-2.723-9.074-15.575.001-18.298a95.53 95.53 0 0 0 64.044-64.044c2.723-9.076 15.575-9.076 18.298 0a95.53 95.53 0 0 0 64.044 64.044c9.075 2.723 9.077 15.575.001 18.298a95.52 95.52 0 0 0-64.045 64.044m-513.83 209.361c-2.178 7.261-12.46 7.261-14.638 0a76.42 76.42 0 0 0-51.236-51.235c-7.26-2.178-7.26-12.46 0-14.638a76.42 76.42 0 0 0 51.236-51.235c2.178-7.261 12.46-7.261 14.638 0a76.42 76.42 0 0 0 51.235 51.235c7.261 2.178 7.262 12.46.001 14.638a76.41 76.41 0 0 0-51.236 51.235m350.17-398.638c-1.633 5.445-9.345 5.445-10.979 0a57.3 57.3 0 0 0-38.426-38.427c-5.446-1.633-5.445-9.345 0-10.978a57.32 57.32 0 0 0 38.426-38.427c1.634-5.445 9.346-5.445 10.979 0a57.32 57.32 0 0 0 38.427 38.427c5.445 1.633 5.446 9.345 0 10.978a57.31 57.31 0 0 0-38.427 38.427m-160 512c-1.633 5.445-9.345 5.445-10.979 0a57.3 57.3 0 0 0-38.426-38.427c-5.446-1.633-5.445-9.345 0-10.978a57.31 57.31 0 0 0 38.426-38.427c1.634-5.445 9.346-5.445 10.98 0a57.31 57.31 0 0 0 38.426 38.427c5.445 1.633 5.446 9.345 0 10.978a57.31 57.31 0 0 0-38.427 38.427"/></svg>