<svg xmlns="http://www.w3.org/2000/svg" width="768" height="768" fill="none"><path fill="#000" fill-rule="evenodd" d="M199.036 152.969c-12.719-12.719-33.341-12.719-46.059 0-12.719 12.719-12.719 33.34 0 46.059l95.029 95.029 46.059-46.058zm128.97 128.971-46.059 46.059 105.981 105.98a236.7 236.7 0 0 0-25.586 42.297L119.035 232.969c-31.463-31.464-31.463-82.477 0-113.941s82.478-31.464 113.942 0l243.306 243.307a236.7 236.7 0 0 0-42.296 25.586z" clip-rule="evenodd"/><path fill="#000" d="M633.149 345.193c-2.723 9.076-15.576 9.076-18.298 0a95.52 95.52 0 0 0-64.045-64.044c-9.076-2.723-9.074-15.575.001-18.298a95.53 95.53 0 0 0 64.044-64.044c2.723-9.076 15.575-9.076 18.298 0a95.53 95.53 0 0 0 64.043 64.044c9.076 2.723 9.078 15.575.002 18.298a95.52 95.52 0 0 0-64.045 64.044m-513.83 209.361c-2.178 7.261-12.46 7.261-14.638 0a76.42 76.42 0 0 0-51.236-51.235c-7.26-2.178-7.26-12.46 0-14.638a76.42 76.42 0 0 0 51.236-51.235c2.178-7.261 12.46-7.261 14.638 0a76.42 76.42 0 0 0 51.235 51.235c7.261 2.178 7.262 12.46.001 14.638a76.41 76.41 0 0 0-51.236 51.235M469.49 155.916c-1.634 5.446-9.346 5.446-10.979 0a57.31 57.31 0 0 0-38.427-38.426c-5.446-1.634-5.445-9.345.001-10.979a57.32 57.32 0 0 0 38.426-38.426c1.633-5.446 9.345-5.446 10.979 0a57.32 57.32 0 0 0 38.426 38.426c5.445 1.634 5.446 9.345 0 10.979a57.3 57.3 0 0 0-38.426 38.426m-160.001 512c-1.633 5.445-9.345 5.445-10.979 0a57.3 57.3 0 0 0-38.426-38.427c-5.446-1.633-5.445-9.345 0-10.978a57.32 57.32 0 0 0 38.426-38.427c1.634-5.445 9.346-5.445 10.979 0a57.32 57.32 0 0 0 38.426 38.427c5.446 1.633 5.447 9.345.001 10.978a57.31 57.31 0 0 0-38.427 38.427"/></svg>
