<svg width="768" height="768" fill="none" xmlns="http://www.w3.org/2000/svg"><path fill-rule="evenodd" clip-rule="evenodd" d="M276.52 100.52a151.997 151.997 0 0 1 214.96 0A151.997 151.997 0 0 1 536 208v24h40c48.601 0 88 39.399 88 88v160c0 101.62-82.38 184-184 184H288c-101.62 0-184-82.38-184-184V320c0-48.601 39.399-88 88-88h40v-24a151.997 151.997 0 0 1 44.52-107.48ZM280 232h208v-24a103.998 103.998 0 0 0-177.539-73.539A104 104 0 0 0 280 208v24Zm-88 48c-22.091 0-40 17.909-40 40v160c0 75.111 60.889 136 136 136h192c75.111 0 136-60.889 136-136V320c0-22.091-17.909-40-40-40H192Zm118.461 94.461A103.998 103.998 0 0 1 488 448a103.998 103.998 0 0 1-177.539 73.539 104 104 0 0 1 0-147.078ZM384 392a56 56 0 1 0 0 112 56 56 0 0 0 0-112Z" fill="#000"/></svg>