<svg xmlns="http://www.w3.org/2000/svg" width="768" height="768" fill="none"><path fill="#000" d="M488 160c0-57.438-46.562-104-104-104s-104 46.562-104 104v72h208zM199.656 280c-41.935.007-74.997 35.718-71.781 77.531l17.25 224c2.89 37.507 34.162 66.469 71.781 66.469h334.188c37.619 0 68.891-28.962 71.781-66.469l17.25-224c3.216-41.813-29.846-77.524-71.781-77.531zM456 464c0-39.765-32.236-72-72-72s-72 32.235-72 72 32.235 72 72 72 72-32.235 72-72m48 0c0 66.274-53.726 120-120 120s-120-53.726-120-120 53.726-120 120-120 120 53.726 120 120m32-232h32.344c69.895.007 124.986 59.527 119.625 129.219l-17.219 224C665.934 647.731 613.793 696 551.094 696H216.906c-62.699 0-114.84-48.269-119.656-110.781l-17.219-224c-5.36-69.692 49.73-129.212 119.625-129.219H232v-72C232 76.053 300.053 8 384 8s152 68.053 152 152z"/></svg>