<svg xmlns="http://www.w3.org/2000/svg" width="768" height="768" fill="none"><path fill="#000" d="M624 384c0-21.57-2.914-42.458-8.25-62.344-34.78 4.353-71.494 7.695-109.219 9.938 1.929 17.422 3 34.95 3 52.406 0 25.267-2.084 50.697-6.14 75.703 38.645-2.291 76.176-5.754 111.515-10.312C620.783 428.596 624 406.676 624 384M174.047 500.25c31.736 57.195 86.12 100.053 151.078 116.438-22.259-32.156-38.812-69.108-49.828-108.329-34.735-1.817-68.722-4.525-101.25-8.109m419.859 0c-32.528 3.584-66.515 6.293-101.25 8.109-11.019 39.226-27.563 76.171-49.828 108.329 64.97-16.375 119.333-59.24 151.078-116.438m-152.015 10.125a2131 2131 0 0 1-115.829 0c13.029 39.69 32.493 75.274 57.938 103.5 25.442-28.222 44.863-63.816 57.891-103.5m16.64-176.531a2125 2125 0 0 1-149.109 0A430 430 0 0 0 306.469 384c0 26.462 2.474 52.679 7.219 77.953a2079 2079 0 0 0 140.578 0A423.5 423.5 0 0 0 461.531 384c0-16.879-1.058-33.654-3-50.156M384 154.078c-31.417 34.84-53.687 80.951-66.047 132.047a2081 2081 0 0 0 132.047 0c-12.36-51.092-34.585-97.209-66-132.047m-58.875-2.812c-67.862 17.113-124.189 63.156-155.203 124.218 31.752 3.706 65.079 6.496 99.234 8.438 10.571-48.21 29.149-93.923 55.969-132.656m117.703 0c26.826 38.735 45.395 84.441 55.969 132.656 34.155-1.942 67.482-4.733 99.234-8.438-31.022-61.065-87.328-107.115-155.203-124.218M144 384c0 22.671 3.172 44.6 9.047 65.391 35.339 4.559 72.87 8.02 111.515 10.312A474 474 0 0 1 258.469 384c0-17.455 1.025-34.985 2.953-52.406-37.725-2.244-74.44-5.584-109.219-9.938A240.3 240.3 0 0 0 144 384m528 0c0 159.058-128.942 288-288 288S96 543.058 96 384 224.942 96 384 96s288 128.942 288 288"/></svg>