<svg xmlns="http://www.w3.org/2000/svg" width="769" height="768" fill="none"><path fill="#000" d="M449.188 77.313c7.57-6.109 18.276-7.12 26.968-2.157 8.689 4.963 13.255 14.69 11.844 24.313l-.969 4.125-67.875 203.531 201.906-26.906c9.894-1.319 19.581 3.618 24.313 12.406a24 24 0 0 1-.813 24.156l-2.187 2.969-320 368c-7.509 8.636-20.093 10.768-30.031 5.094-9.935-5.675-14.494-17.583-10.875-28.438l67.843-203.562-201.875 26.937a24.01 24.01 0 0 1-21.312-39.531l320-368zM204.031 431.812l177.031-23.593a24.03 24.03 0 0 1 21.688 8.5 24 24 0 0 1 4.281 22.875l-41.969 125.843 199.376-229.281-177 23.625a24.03 24.03 0 0 1-21.688-8.5 24 24 0 0 1-4.281-22.875l41.937-125.875z"/></svg>