<svg xmlns="http://www.w3.org/2000/svg" width="768" height="768" fill="none"><path fill="#000" fill-rule="evenodd" d="M360.002 139.195c-39.764 0-72 32.235-72 71.999l.001 244.802c0 39.764 32.235 71.999 72 71.999h143.999c39.765 0 72.001-32.236 72.001-72v-168h-67.201c-45.067 0-81.6-36.533-81.6-81.6v-67.2zm115.2 0v67.2c0 18.557 15.043 33.6 33.6 33.6h67.201v-21.741c0-8.911-3.54-17.457-9.841-23.759l-45.46-45.459a33.6 33.6 0 0 0-23.759-9.841zm-234 54.964c8.272-58.206 58.309-102.964 118.8-102.964h136.941a81.6 81.6 0 0 1 57.7 23.9l45.46 45.459a81.6 81.6 0 0 1 23.9 57.7v237.741c0 58.479-41.831 107.187-97.202 117.837-8.272 58.205-58.309 102.963-118.799 102.963H264.001c-66.274 0-120-53.725-120-119.999l-.001-244.8c0-58.479 41.831-107.187 97.202-117.837m-1.2 49.933C212.036 253.976 192 280.646 192 311.996l.001 244.8c0 39.764 32.236 71.999 72 71.999h144.001c33.115 0 61.009-22.356 69.411-52.8h-117.41c-66.274 0-120-53.725-120-119.999z" clip-rule="evenodd"/></svg>