<svg xmlns="http://www.w3.org/2000/svg" width="768" height="768" fill="none"><path fill="#000" d="M108 384c0-76.207 30.963-145.125 80.859-195.047l-30.281-5.344-4.64-1.312c-10.379-4.113-16.789-15.066-14.766-26.485 2.03-11.414 11.815-19.533 22.969-19.828l4.875.375 81.187 14.438 3.844 1.031c8.595 3.056 14.87 10.808 15.844 20.11l8.39 80.765v4.875c-1.094 11.102-9.849 20.307-21.375 21.516-11.534 1.199-22.047-5.998-25.406-16.641l-.984-4.781-3.844-36.797C182.266 262.295 156 320.089 156 384c0 121.991 95.806 221.62 216.281 227.719L384 612l4.828.469C399.771 614.702 408 624.398 408 636s-8.229 21.298-19.172 23.531L384 660l-14.203-.375C223.967 652.232 108 531.667 108 384m504 0c0-121.991-95.806-221.62-216.281-227.719L384 156l-4.828-.469C368.229 153.298 360 143.602 360 132c0-13.255 10.745-24 24-24l14.203.375C544.033 115.768 660 236.333 660 384c0 76.207-31.01 145.078-80.906 195l30.328 5.391 4.64 1.312c10.379 4.113 16.79 15.066 14.766 26.485-2.03 11.414-11.815 19.533-22.969 19.828l-4.875-.375-81.187-14.438c-10.533-1.873-18.574-10.502-19.688-21.141l-8.39-80.765v-4.875c1.094-11.103 9.849-20.307 21.375-21.516 11.534-1.199 22.047 5.997 25.406 16.641l.984 4.781 3.797 36.75C585.688 505.658 612 447.911 612 384"/></svg>