<svg xmlns="http://www.w3.org/2000/svg" width="768" height="768" fill="none"><path fill="#000" d="M333.234 406.781c51.732.002 94.913 36.181 105.844 84.61H624l4.828.468C639.77 494.093 648 503.789 648 515.391c-.003 11.596-8.235 21.248-19.172 23.484l-4.828.516H439.078c-10.935 48.422-54.116 84.607-105.844 84.609-51.728 0-94.907-36.186-105.843-84.609H144c-13.253 0-23.997-10.748-24-24 0-13.255 10.745-24 24-24h83.391c10.932-48.429 54.11-84.61 105.843-84.61m0 48c-33.477 0-60.609 27.133-60.609 60.61.003 33.474 27.134 60.609 60.609 60.609 33.474-.002 60.607-27.136 60.61-60.609 0-33.476-27.134-60.608-60.61-60.61M434.766 144c51.728 0 94.907 36.186 105.843 84.609H624l4.828.516c10.937 2.236 19.169 11.888 19.172 23.484 0 11.602-8.23 21.298-19.172 23.532l-4.828.468h-83.391c-10.932 48.429-54.11 84.61-105.843 84.61-51.732-.002-94.913-36.181-105.844-84.61H144c-13.255 0-24-10.745-24-24 .003-13.252 10.747-24 24-24h184.922c10.935-48.423 54.116-84.607 105.844-84.609m0 48c-33.474.002-60.607 27.136-60.61 60.609 0 33.476 27.134 60.608 60.61 60.61 33.477 0 60.609-27.133 60.609-60.61-.003-33.474-27.134-60.609-60.609-60.609"/></svg>