<svg xmlns="http://www.w3.org/2000/svg" width="768" height="768" fill="none"><path fill="#000" d="M659.953 388.441c-1.111 69.109-28.054 137.93-80.812 190.688-107.785 107.785-282.497 107.785-390.282 0s-107.784-282.497 0-390.281c107.504-107.504 281.587-107.786 389.438-.844l6.187-38.672 1.219-4.734c3.946-10.432 14.809-17.018 26.25-15.188 13.085 2.104 22.022 14.432 19.922 27.516L617.25 247.77l-1.031 4.125c-3.195 9.167-11.725 15.676-21.703 16.078l-93.422 3.703-4.828-.328c-11.019-1.802-19.651-11.144-20.11-22.735-.45-11.579 7.404-21.564 18.235-24.234l4.828-.703 45.093-1.781c-89.109-88.151-232.773-87.852-321.515.89-89.04 89.04-89.04 233.367 0 322.406 89.039 89.04 233.367 89.04 322.406 0 43.579-43.579 65.83-100.356 66.75-157.5l-.094-11.437c-.444-13.246 9.957-24.351 23.203-24.797 13.241-.438 24.351 9.961 24.797 23.203z"/></svg>