<svg xmlns="http://www.w3.org/2000/svg" width="768" height="768" fill="none"><path fill="#000" d="M520.781 161.766c7.95-10.599 23.007-12.768 33.61-4.829 10.599 7.95 12.768 23.007 4.828 33.61l-312 416.015-3.328 3.563c-8.352 7.402-21.005 8.176-30.281 1.219-10.604-7.953-12.781-23.006-4.829-33.61zm65.766 351.855c0-30.48-24.694-55.209-55.172-55.219-30.486 0-55.219 24.733-55.219 55.219.01 30.478 24.739 55.172 55.219 55.172 30.471-.01 55.162-24.701 55.172-55.172m48 0c-.01 56.981-46.191 103.162-103.172 103.172-56.99 0-103.209-46.185-103.219-103.172 0-56.996 46.223-103.219 103.219-103.219 56.987.01 103.172 46.23 103.172 103.219M291.844 254.414c0-30.48-24.695-55.209-55.172-55.219-30.486 0-55.219 24.733-55.219 55.219.01 30.478 24.739 55.172 55.219 55.172 30.471-.01 55.162-24.701 55.172-55.172m48 0c-.01 56.981-46.191 103.162-103.172 103.172-56.99 0-103.209-46.185-103.219-103.172 0-56.996 46.223-103.219 103.219-103.219 56.987.01 103.172 46.23 103.172 103.219"/></svg>