<svg xmlns="http://www.w3.org/2000/svg" width="768" height="768" fill="none"><path fill="#000" d="m553.594 104.921 5.578.373a44.2 44.2 0 0 1 10.781 2.795l5.063 2.376 4.734 3.028c4.481 3.298 8.254 7.463 11.203 12.206l.047-.046 87 139.575v.047l3.094 5.917a43.9 43.9 0 0 1 3.468 19.52c-.457 8.941-3.607 17.544-9.093 24.645l-.047.046-256.5 330.538.047.047a43.9 43.9 0 0 1-15.422 12.578 44.3 44.3 0 0 1-14.438 4.24l-5.015.279a44.2 44.2 0 0 1-19.453-4.519 43.9 43.9 0 0 1-15.422-12.578v.046L92.766 315.403l-.047-.046a44 44 0 0 1-9.14-24.645c-.457-8.946 1.87-17.818 6.609-25.437v-.047l86.999-139.575a43.95 43.95 0 0 1 15.938-15.188l5.062-2.376a44.3 44.3 0 0 1 16.407-3.168zm-169.5 442.953 84.609-238.201H299.484zm-51.375-1.257-84.141-236.944h-99.609zm102.75-.094 183.75-236.85h-99.61zm103.547-284.556h80.437l-47.578-76.31zm-225.422 0h141l-70.547-93.454zm-164.907 0h80.485l-32.953-76.31zm122.579-23.48 64.828-85.86h-101.86zm225.609 0 37.078-85.86H432.047z"/></svg>