<svg xmlns="http://www.w3.org/2000/svg" width="768" height="768" fill="none"><path fill="#000" fill-rule="evenodd" d="M172.764 172.767c10.622-10.622 27.844-10.622 38.466 0l172.767 172.767 172.767-172.767c10.622-10.622 27.844-10.622 38.466 0s10.622 27.845 0 38.467L422.464 384.001 595.23 556.767c10.622 10.623 10.622 27.845 0 38.467s-27.844 10.622-38.466 0L383.997 422.467 211.23 595.234c-10.622 10.622-27.844 10.622-38.466 0s-10.623-27.844 0-38.467L345.53 384.001 172.764 211.234c-10.623-10.622-10.623-27.844 0-38.467" clip-rule="evenodd"/></svg>