<svg xmlns="http://www.w3.org/2000/svg" width="768" height="768" fill="none"><path fill="#000" fill-rule="evenodd" d="M451.692 134.45c-41.074 0-74.371 33.297-74.371 74.37 0 41.074 33.297 74.371 74.371 74.371s74.371-33.297 74.371-74.371c0-41.073-33.297-74.37-74.371-74.37m-146.341 35.92c17.012-64.922 76.083-112.82 146.341-112.82 70.258 0 129.329 47.898 146.341 112.82H704c21.235 0 38.45 17.215 38.45 38.45 0 21.236-17.215 38.45-38.45 38.45H598.033c-17.012 64.923-76.083 112.821-146.341 112.821-70.258 0-129.329-47.898-146.341-112.821H64c-21.235 0-38.45-17.214-38.45-38.45 0-21.235 17.215-38.45 38.45-38.45zm10.956 314.439c-41.073 0-74.37 33.297-74.37 74.371 0 41.073 33.297 74.37 74.37 74.37 41.074 0 74.371-33.297 74.371-74.37 0-41.074-33.297-74.371-74.371-74.371Zm-146.34 35.92c17.011-64.922 76.082-112.82 146.34-112.82 70.258 0 129.329 47.898 146.341 112.82H704c21.235 0 38.45 17.215 38.45 38.451 0 21.235-17.215 38.45-38.45 38.45H462.648c-17.012 64.922-76.083 112.82-146.341 112.82-70.258 0-129.329-47.898-146.34-112.82H64c-21.235 0-38.45-17.215-38.45-38.45 0-21.236 17.215-38.451 38.45-38.451h105.967Z" clip-rule="evenodd"/></svg>