<svg xmlns="http://www.w3.org/2000/svg" width="768" height="768" fill="none"><path fill="#000" fill-rule="evenodd" d="M451.692 134.45c-41.074 0-74.371 33.297-74.371 74.37s33.297 74.371 74.371 74.371 74.371-33.297 74.371-74.371-33.297-74.37-74.371-74.37m-146.341 35.92c17.012-64.922 76.083-112.82 146.341-112.82s129.329 47.898 146.341 112.82H704c21.235 0 38.45 17.215 38.45 38.45s-17.215 38.45-38.45 38.45H598.033c-17.012 64.923-76.083 112.821-146.341 112.821S322.363 312.193 305.351 247.27H64c-21.235 0-38.45-17.214-38.45-38.45 0-21.235 17.215-38.45 38.45-38.45zm10.956 314.439c-41.073 0-74.37 33.297-74.37 74.371s33.297 74.37 74.37 74.37 74.371-33.297 74.371-74.37-33.297-74.371-74.371-74.371m-146.34 35.92c17.011-64.922 76.082-112.82 146.34-112.82s129.329 47.898 146.341 112.82H704c21.235 0 38.45 17.215 38.45 38.451 0 21.235-17.215 38.45-38.45 38.45H462.648c-17.012 64.922-76.083 112.82-146.341 112.82s-129.329-47.898-146.34-112.82H64c-21.235 0-38.45-17.215-38.45-38.45S42.765 520.729 64 520.729z" clip-rule="evenodd"/></svg>