<svg width="768" height="768" fill="none" xmlns="http://www.w3.org/2000/svg"><path d="M544 128h-32a64 64 0 0 0-64-64H320a64.001 64.001 0 0 0-64 64h-32a95.996 95.996 0 0 0-67.882 28.118A95.996 95.996 0 0 0 128 224v384a95.996 95.996 0 0 0 28.118 67.882A95.996 95.996 0 0 0 224 704h320a95.996 95.996 0 0 0 67.882-28.118A95.996 95.996 0 0 0 640 608V224a95.996 95.996 0 0 0-28.118-67.882A95.996 95.996 0 0 0 544 128Zm-224 0h128v64H320v-64Zm256 480a31.996 31.996 0 0 1-9.373 22.627A31.996 31.996 0 0 1 544 640H224a31.996 31.996 0 0 1-22.627-9.373A31.996 31.996 0 0 1 192 608V224a31.996 31.996 0 0 1 9.373-22.627A31.996 31.996 0 0 1 224 192h32a64 64 0 0 0 64 64h128a64.003 64.003 0 0 0 64-64h32a31.996 31.996 0 0 1 22.627 9.373A31.996 31.996 0 0 1 576 224v384Z" fill="#000"/></svg>