<svg xmlns="http://www.w3.org/2000/svg" width="768" height="768" fill="none"><path fill="#000" d="M544 128h-32a64 64 0 0 0-64-64H320a64 64 0 0 0-64 64h-32a96 96 0 0 0-67.882 28.118A96 96 0 0 0 128 224v384a96 96 0 0 0 28.118 67.882A96 96 0 0 0 224 704h320a96 96 0 0 0 67.882-28.118A96 96 0 0 0 640 608V224a96 96 0 0 0-28.118-67.882A96 96 0 0 0 544 128m-224 0h128v64H320zm256 480a32 32 0 0 1-9.373 22.627A32 32 0 0 1 544 640H224a32 32 0 0 1-22.627-9.373A32 32 0 0 1 192 608V224a32 32 0 0 1 9.373-22.627A32 32 0 0 1 224 192h32a64 64 0 0 0 64 64h128a64.003 64.003 0 0 0 64-64h32a32 32 0 0 1 22.627 9.373A32 32 0 0 1 576 224z"/></svg>