<svg xmlns="http://www.w3.org/2000/svg" width="768" height="768" fill="none"><path fill="#000" d="M305.547 571.14q-5.433 9.779-13.581 12.495-7.606 3.26-15.755 1.086-7.605-1.629-13.038-7.605-5.431-5.433-6.519-13.581-1.086-8.692 4.346-18.471l200.46-347.68q5.431-9.779 13.038-13.038 8.148-3.26 15.754-1.086 7.605 1.629 13.038 7.605 5.431 5.976 6.519 14.668 1.63 8.149-3.803 17.384zm-58.128-149.937q-45.633 0-71.166-31.508-25.532-31.509-25.532-85.834 0-36.397 11.408-62.473 11.408-26.077 33.138-40.201t52.152-14.124q45.633 0 71.166 31.508 25.533 30.966 25.533 85.29 0 36.398-11.409 63.017-11.408 26.076-33.138 40.201t-52.152 14.124m0-45.633q13.039 0 22.273-7.605 9.235-8.149 14.125-23.903 4.889-15.754 4.889-40.201 0-36.397-10.865-53.781-10.865-17.385-30.422-17.384-13.038 0-22.273 7.605c-9.235 7.605-10.865 12.857-14.125 23.36q-4.889 15.755-4.889 40.2 0 36.942 10.865 54.325t30.422 17.384M520.13 580.919q-45.632 0-71.165-31.509-25.533-31.508-25.533-85.833 0-36.398 11.408-62.474 11.409-26.076 33.139-40.2t52.151-14.125q45.633 0 71.166 31.509 25.533 30.964 25.533 85.29 0 36.398-11.408 63.017-11.409 26.076-33.139 40.2-21.729 14.125-52.152 14.125m0-45.633q13.038 0 22.274-7.606t14.124-23.36q4.89-16.298 4.889-40.743 0-36.398-10.865-53.782t-30.422-17.384q-13.037 0-22.273 7.605t-14.124 23.36q-4.89 15.754-4.889 40.201 0 36.94 10.865 54.325 10.865 17.384 30.421 17.384"/></svg>