<svg xmlns="http://www.w3.org/2000/svg" width="768" height="768"><g fill="#000" fill-rule="evenodd"><path d="m577.26 262.238.881.074c18.064 1.559 34.455 4.894 49.303 13.337a113.603 113.603 0 0 1 49.989 58.267c6.086 15.959 6.89 32.667 5.684 50.758l-.124 1.77c-1.269 17.233-4.497 38.214-8.424 63.737l-23.093 150.086c-2.517 16.243-4.758 29.975-7.425 41.433-3.241 13.928-7.514 26.448-15.034 37.974a113.595 113.595 0 0 1-48.256 41.399c-12.536 5.681-25.56 8-39.818 9.086l-1.729.125c-12.5.857-27.408.916-45.117.916H384v-54.4l116.56-.007c15.55-.028 26.969-.17 36.254-.877l1.206-.096c10.273-.858 15.993-2.35 20.29-4.297a59.207 59.207 0 0 0 25.147-21.574l.296-.463c2.56-4.069 4.899-9.734 7.315-20.115l.356-1.56c2.438-10.897 4.615-24.938 7.727-45.167L620.603 443.2H383.999v-54.4h244.192c.266-2.711.482-5.286.646-7.746l.083-1.315c.825-13.83-.323-21.211-2.316-26.436a59.198 59.198 0 0 0-25.474-30.033l-.576-.332c-4.937-2.807-12.206-5.092-26.428-6.369l-.661-.058c-12.442-1.073-28.028-1.268-49.239-1.303l-9.29-.008H384v-54.4h138.52c21.602.026 39.715.195 54.742 1.438Z"/><path d="M384 260.799V315.2l-138.172.005c-22.264.026-38.452.198-51.293 1.306l-1.313.118c-13.793 1.288-20.915 3.545-25.776 6.309a59.199 59.199 0 0 0-26.05 30.365l-.184.496c-1.94 5.364-2.998 13.02-2.05 27.255.164 2.46.381 5.035.647 7.746h244.19v54.4H147.397l23.028 149.644c2.409 15.497 4.289 26.867 6.389 36.012l.119.515c2.509 10.78 4.934 16.475 7.611 20.578a59.207 59.207 0 0 0 25.147 21.574l.502.223c4.326 1.874 10.137 3.305 20.385 4.123l.608.047c10.159.773 22.87.87 40.752.882l6.661.002h105.4v54.4H270.262c-16.928-.016-31.208-.128-43.205-1.041-14.258-1.086-27.282-3.405-39.818-9.086a113.595 113.595 0 0 1-48.256-41.399c-7.52-11.526-11.793-24.046-15.034-37.974l-.378-1.652c-2.94-13.066-5.39-28.992-8.332-48.112l-23.39-152.057c-3.262-21.355-5.85-39.283-6.906-54.324l-.06-.881c-1.206-18.091-.403-34.799 5.684-50.758a113.599 113.599 0 0 1 49.989-58.267c14.588-8.295 30.664-11.66 48.354-13.253l.949-.084c16.075-1.386 35.73-1.502 59.471-1.513H384ZM364.781 44.767c10.622-10.623 27.844-10.623 38.466 0l128 128c10.623 10.622 10.623 27.844 0 38.466-10.622 10.623-27.844 10.623-38.466 0L384.014 102.467 275.247 211.233c-10.622 10.623-27.844 10.623-38.466 0-10.623-10.622-10.623-27.844 0-38.466l128-128Z"/><path d="M256 492.8c15.022 0 27.2 12.178 27.2 27.2v80c0 15.022-12.178 27.2-27.2 27.2-15.022 0-27.2-12.178-27.2-27.2v-80c0-15.022 12.178-27.2 27.2-27.2ZM384 492.8c15.022 0 27.2 12.178 27.2 27.2v80c0 15.022-12.178 27.2-27.2 27.2-15.022 0-27.2-12.178-27.2-27.2v-80c0-15.022 12.178-27.2 27.2-27.2ZM512 492.8c15.022 0 27.2 12.178 27.2 27.2v80c0 15.022-12.178 27.2-27.2 27.2-15.022 0-27.2-12.178-27.2-27.2v-80c0-15.022 12.178-27.2 27.2-27.2Z"/></g></svg>
