<svg xmlns="http://www.w3.org/2000/svg" width="768" height="768" fill="none"><path fill="#000" fill-rule="evenodd" d="M182.401 147.265a35.13 35.13 0 0 0-24.844 10.292 35.13 35.13 0 0 0-10.292 24.844v67.2c0 17.709-14.355 32.064-32.064 32.064-17.708 0-32.063-14.355-32.063-32.064v-67.2A99.266 99.266 0 0 1 182.4 83.137h67.2c17.709 0 32.064 14.356 32.064 32.064 0 17.709-14.355 32.064-32.064 32.064zm303.936-32.064c0-17.708 14.356-32.063 32.064-32.063h67.2a99.266 99.266 0 0 1 99.264 99.263v67.2c0 17.709-14.355 32.064-32.064 32.064-17.708 0-32.064-14.355-32.064-32.064v-67.2a35.13 35.13 0 0 0-10.291-24.844 35.13 35.13 0 0 0-24.845-10.292h-67.2c-17.708 0-32.064-14.355-32.064-32.064m-403.2 268.8c0-17.708 14.356-32.064 32.064-32.064h537.6c17.709 0 32.064 14.356 32.064 32.064 0 17.709-14.355 32.064-32.064 32.064h-537.6c-17.708 0-32.063-14.355-32.063-32.064Zm32.064 102.336c17.709 0 32.064 14.356 32.064 32.064v67.2a35.13 35.13 0 0 0 10.292 24.845 35.13 35.13 0 0 0 24.844 10.291h67.2c17.709 0 32.064 14.356 32.064 32.064 0 17.709-14.355 32.064-32.064 32.064h-67.2a99.266 99.266 0 0 1-99.264-99.264v-67.2c0-17.708 14.356-32.064 32.064-32.064m537.6 0c17.709 0 32.064 14.356 32.064 32.064v67.2a99.27 99.27 0 0 1-29.073 70.191 99.27 99.27 0 0 1-70.191 29.073h-67.2c-17.708 0-32.064-14.355-32.064-32.064 0-17.708 14.356-32.064 32.064-32.064h67.2a35.13 35.13 0 0 0 35.136-35.136v-67.2c0-17.708 14.356-32.064 32.064-32.064" clip-rule="evenodd"/></svg>