<svg xmlns="http://www.w3.org/2000/svg" width="768" height="768" fill="none"><path fill="#000" d="M72 576v-48c0-13.255 10.745-24 24-24s24 10.745 24 24v48c0 39.764 32.236 72 72 72h48c13.255 0 24 10.745 24 24s-10.745 24-24 24h-48c-66.274 0-120-53.726-120-120m576 0v-48c0-13.255 10.745-24 24-24s24 10.745 24 24v48c0 66.274-53.726 120-120 120h-48c-13.255 0-24-10.745-24-24s10.745-24 24-24h48c39.764 0 72-32.236 72-72m-8-216c13.255 0 24 10.745 24 24s-10.745 24-24 24H128c-13.255 0-24-10.745-24-24s10.745-24 24-24zM72 240v-48c0-66.274 53.726-120 120-120h48c13.255 0 24 10.745 24 24s-10.745 24-24 24h-48c-39.764 0-72 32.236-72 72v48c0 13.255-10.745 24-24 24s-24-10.745-24-24m576 0v-48c0-39.765-32.235-72-72-72h-48c-13.255 0-24-10.745-24-24s10.745-24 24-24h48c66.274 0 120 53.726 120 120v48c0 13.255-10.745 24-24 24s-24-10.745-24-24"/></svg>