<svg xmlns="http://www.w3.org/2000/svg" width="768" height="768" fill="none"><path fill="#000" fill-rule="evenodd" d="M192 152a40 40 0 0 0-28.284 11.716A40 40 0 0 0 152 192v64c0 13.255-10.745 24-24 24s-24-10.745-24-24v-64a88 88 0 0 1 25.775-62.225A88 88 0 0 1 192 104h64c13.255 0 24 10.745 24 24s-10.745 24-24 24zm296-24c0-13.255 10.745-24 24-24h64a88 88 0 0 1 62.225 25.775A88 88 0 0 1 664 192v64c0 13.255-10.745 24-24 24s-24-10.745-24-24v-64a40 40 0 0 0-11.716-28.284A40 40 0 0 0 576 152h-64c-13.255 0-24-10.745-24-24M104 384c0-13.255 10.745-24 24-24h512c13.255 0 24 10.745 24 24s-10.745 24-24 24H128c-13.255 0-24-10.745-24-24m24 104c13.255 0 24 10.745 24 24v64a40 40 0 0 0 11.716 28.284A40 40 0 0 0 192 616h64c13.255 0 24 10.745 24 24s-10.745 24-24 24h-64a88 88 0 0 1-62.225-25.775A88 88 0 0 1 104 576v-64c0-13.255 10.745-24 24-24m512 0c13.255 0 24 10.745 24 24v64a88 88 0 0 1-25.775 62.225A88 88 0 0 1 576 664h-64c-13.255 0-24-10.745-24-24s10.745-24 24-24h64a40 40 0 0 0 28.284-11.716A40 40 0 0 0 616 576v-64c0-13.255 10.745-24 24-24" clip-rule="evenodd"/></svg>