<svg width="768" height="768" fill="none" xmlns="http://www.w3.org/2000/svg"><path fill-rule="evenodd" clip-rule="evenodd" d="M152.907 184.907A46.804 46.804 0 0 1 186 171.2h52a46.804 46.804 0 0 1 33.093 13.707A46.804 46.804 0 0 1 284.8 218v52a46.804 46.804 0 0 1-13.707 33.093A46.804 46.804 0 0 1 238 316.8h-52a46.804 46.804 0 0 1-33.093-13.707A46.804 46.804 0 0 1 139.2 270v-52a46.804 46.804 0 0 1 13.707-33.093ZM186 212.8a5.2 5.2 0 0 0-5.2 5.2v52a5.2 5.2 0 0 0 5.2 5.2h52a5.2 5.2 0 0 0 5.2-5.2v-52a5.2 5.2 0 0 0-5.2-5.2h-52Zm182-41.6c11.488 0 20.8 9.312 20.8 20.8v26c0 11.488-9.312 20.8-20.8 20.8-11.488 0-20.8-9.312-20.8-20.8v-26c0-11.488 9.312-20.8 20.8-20.8Zm96.907 13.707A46.804 46.804 0 0 1 498 171.2h52a46.804 46.804 0 0 1 33.093 13.707A46.804 46.804 0 0 1 596.8 218v52a46.804 46.804 0 0 1-13.707 33.093A46.804 46.804 0 0 1 550 316.8h-52a46.804 46.804 0 0 1-33.093-13.707A46.804 46.804 0 0 1 451.2 270v-52a46.804 46.804 0 0 1 13.707-33.093ZM498 212.8a5.2 5.2 0 0 0-5.2 5.2v52a5.2 5.2 0 0 0 5.2 5.2h52a5.2 5.2 0 0 0 5.2-5.2v-52a5.2 5.2 0 0 0-5.2-5.2h-52Zm-130 88.4c11.488 0 20.8 9.312 20.8 20.8v57.2h83.46c11.488 0 20.8 9.312 20.8 20.8 0 11.488-9.312 20.8-20.8 20.8H368c-11.488 0-20.8-9.312-20.8-20.8v-78c0-11.488 9.312-20.8 20.8-20.8ZM139.2 400c0-11.488 9.312-20.8 20.8-20.8h104c11.488 0 20.8 9.312 20.8 20.8 0 11.488-9.312 20.8-20.8 20.8H160c-11.488 0-20.8-9.312-20.8-20.8Zm416 0c0-11.488 9.312-20.8 20.8-20.8h.26c11.488 0 20.8 9.312 20.8 20.8 0 11.488-9.312 20.8-20.8 20.8H576c-11.488 0-20.8-9.312-20.8-20.8Zm-402.293 96.907A46.804 46.804 0 0 1 186 483.2h52a46.804 46.804 0 0 1 33.093 13.707A46.804 46.804 0 0 1 284.8 530v52a46.804 46.804 0 0 1-13.707 33.093A46.804 46.804 0 0 1 238 628.8h-52a46.804 46.804 0 0 1-33.093-13.707A46.804 46.804 0 0 1 139.2 582v-52a46.804 46.804 0 0 1 13.707-33.093ZM186 524.8a5.2 5.2 0 0 0-5.2 5.2v52a5.2 5.2 0 0 0 5.2 5.2h52a5.2 5.2 0 0 0 5.2-5.2v-52a5.2 5.2 0 0 0-5.2-5.2h-52ZM347.2 504c0-11.488 9.312-20.8 20.8-20.8h52c11.488 0 20.8 9.312 20.8 20.8 0 11.488-9.312 20.8-20.8 20.8h-31.2V608c0 11.488-9.312 20.8-20.8 20.8-11.488 0-20.8-9.312-20.8-20.8V504Zm156 0c0-11.488 9.312-20.8 20.8-20.8h52c11.488 0 20.8 9.312 20.8 20.8 0 11.488-9.312 20.8-20.8 20.8h-52c-11.488 0-20.8-9.312-20.8-20.8Zm-52 104c0-11.488 9.312-20.8 20.8-20.8h104c11.488 0 20.8 9.312 20.8 20.8 0 11.488-9.312 20.8-20.8 20.8H472c-11.488 0-20.8-9.312-20.8-20.8Z" fill="#000"/></svg>