<svg xmlns="http://www.w3.org/2000/svg" width="768" height="768" fill="none"><path fill="#000" d="M384 48c185.568 0 336 150.432 336 336S569.568 720 384 720 48 569.568 48 384 198.432 48 384 48Zm-1.779 437.459c-14.181 0-25.526 4.261-34.035 12.782-8.154 8.167-12.231 18.819-12.231 31.956 0 13.492 4.077 24.499 12.231 33.021C356.695 571.739 368.04 576 382.221 576c14.181 0 25.171-4.261 32.97-12.782 8.154-8.522 12.232-19.529 12.232-33.021 0-13.137-4.078-23.789-12.232-31.956-7.799-8.521-18.789-12.782-32.97-12.782ZM386.475 192c-15.245 0-31.73 2.13-49.456 6.391-17.727 4.261-33.858 10.652-48.393 19.173-9.218 5.326-15.776 11.54-19.676 18.641-3.9 6.746-5.495 13.67-4.786 20.771.709 7.102 3.19 13.315 7.445 18.641 4.254 4.971 9.926 8.167 17.017 9.587 7.445 1.065 15.776-.888 24.994-5.859 10.281-6.036 20.74-10.652 31.375-13.847 10.991-3.196 22.867-4.793 35.63-4.793 13.472 0 23.753 2.84 30.844 8.521 7.445 5.681 11.167 13.492 11.167 23.434 0 5.326-.886 10.652-2.658 15.978-1.419 4.971-4.255 10.297-8.509 15.978-3.9 5.326-9.04 11.717-15.422 19.173-9.218 9.587-16.663 18.996-22.335 28.228-5.318 9.231-9.218 18.463-11.699 27.695-2.482 8.876-3.723 18.463-3.723 28.76 0 8.876 2.127 15.977 6.382 21.303 4.608 4.971 10.813 7.457 18.612 7.457 7.8 0 13.649-1.776 17.549-5.326 4.254-3.551 6.913-7.989 7.977-13.315 1.064-7.456 3.013-14.38 5.85-20.771 2.836-6.747 7.445-13.67 13.826-20.771 6.382-7.457 15.067-15.801 26.058-25.032 12.408-10.297 22.158-20.061 29.248-29.293 7.091-9.587 12.231-19.173 15.422-28.76 3.191-9.587 4.786-19.884 4.786-30.89 0-18.109-4.963-33.909-14.89-47.401-9.572-13.493-23.221-24.145-40.948-31.956C430.436 195.906 409.874 192 386.475 192Z"/></svg>