<svg xmlns="http://www.w3.org/2000/svg" width="768" height="768" fill="none"><path fill="#000" d="M384 48c185.568 0 336 150.432 336 336S569.568 720 384 720 48 569.568 48 384 198.432 48 384 48m-1.779 437.459q-21.271 0-34.035 12.782-12.231 12.25-12.231 31.956 0 20.238 12.231 33.021Q360.95 576 382.221 576t32.97-12.782q12.231-12.783 12.232-33.021 0-19.706-12.232-31.956-11.698-12.782-32.97-12.782M386.475 192q-22.867 0-49.456 6.391t-48.393 19.173q-13.827 7.99-19.676 18.641-5.85 10.12-4.786 20.771 1.063 10.653 7.445 18.641 6.38 7.457 17.017 9.587 11.167 1.598 24.994-5.859 15.422-9.054 31.375-13.847 16.486-4.793 35.63-4.793 20.208 0 30.844 8.521 11.167 8.521 11.167 23.434 0 7.989-2.658 15.978-2.128 7.456-8.509 15.978-5.85 7.989-15.422 19.173-13.827 14.38-22.335 28.228-7.977 13.847-11.699 27.695-3.723 13.314-3.723 28.76 0 13.314 6.382 21.303 6.913 7.457 18.612 7.457 11.7 0 17.549-5.326 6.381-5.326 7.977-13.315 1.595-11.184 5.85-20.771 4.254-10.12 13.826-20.771 9.572-11.185 26.058-25.032 18.613-15.445 29.248-29.293 10.636-14.38 15.422-28.76t4.786-30.89q0-27.163-14.89-47.401-14.358-20.24-40.948-31.956Q421.573 192 386.475 192"/></svg>