<svg xmlns="http://www.w3.org/2000/svg" width="756" height="756" fill="none"><path fill="#000" fill-rule="evenodd" d="M378 132.3c10.438 0 18.9 8.462 18.9 18.9v226.139l57.582-52.438c7.718-7.028 19.672-6.469 26.7 1.249 7.028 7.717 6.469 19.671-1.249 26.699l-89.208 81.238c-7.212 6.568-18.238 6.568-25.451 0l-89.208-81.238c-7.717-7.028-8.276-18.982-1.248-26.699s18.982-8.277 26.699-1.249l57.583 52.438V151.2c0-10.438 8.462-18.9 18.9-18.9M199.905 236.294c8.674 5.806 10.999 17.545 5.193 26.219C182.992 295.538 170.1 335.235 170.1 378c0 114.82 93.08 207.9 207.9 207.9S585.9 492.82 585.9 378c0-42.765-12.892-82.462-34.998-115.487-5.806-8.674-3.482-20.413 5.193-26.219 8.674-5.806 20.413-3.482 26.219 5.193C608.455 280.539 623.7 327.518 623.7 378c0 135.696-110.004 245.7-245.7 245.7-135.697 0-245.7-110.004-245.7-245.7 0-50.482 15.245-97.461 41.386-136.513 5.806-8.675 17.545-10.999 26.219-5.193" clip-rule="evenodd"/></svg>