<svg xmlns="http://www.w3.org/2000/svg" width="768" height="768" fill="none"><path fill="#000" fill-rule="evenodd" d="M619.233 508.767c10.623 10.622 10.623 27.844 0 38.466l-80 80c-10.622 10.623-27.844 10.623-38.466 0l-80-80c-10.623-10.622-10.623-27.844 0-38.466s27.844-10.623 38.466 0l33.567 33.566V224c0-15.022 12.178-27.2 27.2-27.2s27.2 12.178 27.2 27.2v318.333l33.567-33.566c10.622-10.623 27.844-10.623 38.466 0m-272-249.534c-10.622 10.623-27.844 10.623-38.466 0L275.2 225.667V544c0 15.022-12.178 27.2-27.2 27.2s-27.2-12.178-27.2-27.2V225.667l-33.567 33.566c-10.622 10.623-27.844 10.623-38.466 0s-10.623-27.844 0-38.466l80-80c10.622-10.623 27.844-10.623 38.466 0l80 80c10.623 10.622 10.623 27.844 0 38.466" clip-rule="evenodd"/></svg>