<svg xmlns="http://www.w3.org/2000/svg" width="768" height="768" fill="none"><path fill="#000" d="M343.741 522.054c38.331 0 74.25-11.572 104.143-31.34l105.589 105.831c6.991 6.75 15.911 10.125 25.554 10.125 20.009 0 34.714-15.67 34.714-35.438 0-9.161-3.134-18.08-9.884-24.83L498.991 441.054c21.697-30.858 34.474-68.224 34.474-108.724 0-104.384-85.34-189.723-189.724-189.723-104.143 0-189.723 85.339-189.723 189.723s85.339 189.724 189.723 189.724m0-50.625c-76.419 0-139.098-62.679-139.098-139.099s62.679-139.098 139.098-139.098S482.84 255.911 482.84 332.33s-62.679 139.099-139.099 139.099"/></svg>