<svg width="768" height="768" fill="none" xmlns="http://www.w3.org/2000/svg"><path fill-rule="evenodd" clip-rule="evenodd" d="M587.906 179.126c10.837 10.824 10.842 28.377.012 39.207L199.045 607.204c-10.83 10.829-28.394 10.834-39.23.011-10.836-10.824-10.842-28.377-.012-39.207l388.873-388.871c10.83-10.829 28.394-10.834 39.23-.011Z" fill="#000"/><path fill-rule="evenodd" clip-rule="evenodd" d="M283.391 176.122c.108-15.315 12.611-27.643 27.926-27.535l274.393 1.931c17.496.124 31.648 14.276 31.772 31.772l1.931 274.393c.108 15.315-12.22 27.818-27.535 27.926-15.315.108-27.818-12.22-27.926-27.535l-1.769-251.257-251.257-1.769c-15.315-.108-27.643-12.611-27.535-27.926Z" fill="#000"/></svg>