<svg xmlns="http://www.w3.org/2000/svg" width="768" height="768" fill="none"><path fill="#000" fill-rule="evenodd" d="M365.905 56.926c10.257-9.339 25.936-9.339 36.193 0L522.93 166.938c10.977 9.995 11.774 26.995 1.78 37.973s-26.995 11.774-37.972 1.779l-75.856-69.063v303.378c0 14.845-12.035 26.88-26.88 26.88-14.846 0-26.88-12.035-26.88-26.88V137.627l-75.856 69.063c-10.977 9.995-27.978 9.198-37.972-1.779s-9.198-27.978 1.78-37.973zm-222.42 134.072c12.337 8.258 15.643 24.953 7.385 37.289-29.806 44.528-47.188 98.051-47.188 155.715 0 154.816 125.503 280.32 280.32 280.32 154.816 0 280.32-125.504 280.32-280.32 0-57.664-17.382-111.187-47.188-155.715-8.258-12.336-4.952-29.031 7.385-37.289s29.032-4.952 37.29 7.385c35.544 53.1 56.273 116.98 56.273 185.619 0 184.507-149.573 334.08-334.08 334.08s-334.08-149.573-334.08-334.08c0-68.639 20.729-132.519 56.273-185.619 8.258-12.337 24.953-15.643 37.29-7.385" clip-rule="evenodd"/></svg>