<svg xmlns="http://www.w3.org/2000/svg" width="768" height="768" fill="none"><path fill="#000" d="M439.515 76.742a62.4 62.4 0 0 1 34.008 33.79c2.932 6.958 4.056 15.07 4.524 26.926a50.54 50.54 0 0 0 24.804 42.212 51.16 51.16 0 0 0 49.296.25c10.545-5.554 18.19-8.611 25.74-9.61a63.34 63.34 0 0 1 46.488 12.356c9.921 7.582 17.222 20.156 31.886 45.334s21.964 37.782 23.618 50.076a62.4 62.4 0 0 1-12.448 46.144c-4.65 5.99-11.17 11.013-21.278 17.347-14.851 9.234-24.398 25.022-24.398 42.432s9.547 33.197 24.429 42.463c10.078 6.303 16.6 11.326 21.216 17.316a62.4 62.4 0 0 1 12.48 46.146c-1.652 12.324-8.954 24.898-23.618 50.076-14.633 25.178-21.964 37.784-31.886 45.334a63.12 63.12 0 0 1-46.488 12.354c-7.55-.999-15.194-4.056-25.74-9.61a51.17 51.17 0 0 0-49.265.25c-15.195 8.705-24.211 24.804-24.835 42.214-.468 11.856-1.593 19.968-4.524 26.926a62.4 62.4 0 0 1-34.008 33.79C427.972 696 413.308 696 384.012 696s-43.962 0-55.504-4.742c-15.414-6.334-27.643-18.502-34.008-33.79-2.933-6.958-4.056-15.07-4.524-26.926-.655-17.408-9.642-33.478-24.804-42.214a51.16 51.16 0 0 0-49.296-.25c-10.546 5.554-18.19 8.611-25.741 9.61-16.536 2.154-33.259-2.278-46.487-12.354-9.922-7.582-17.223-20.156-31.887-45.334s-21.965-37.784-23.619-50.076a62.4 62.4 0 0 1 12.448-46.146c4.65-5.99 11.17-11.012 21.278-17.346 14.853-9.234 24.4-25.022 24.4-42.432s-9.548-33.196-24.43-42.462c-10.077-6.304-16.598-11.326-21.216-17.316-10.17-13.136-14.664-29.734-12.48-46.145 1.654-12.324 8.955-24.898 23.619-50.076 14.631-25.178 21.965-37.782 31.887-45.334a63.34 63.34 0 0 1 46.487-12.355c7.551.999 15.195 4.056 25.741 9.61a51.17 51.17 0 0 0 49.265-.25 50.55 50.55 0 0 0 24.835-42.213c.468-11.825 1.59-19.968 4.524-26.926a62.4 62.4 0 0 1 34.008-33.79c11.575-4.742 26.208-4.742 55.504-4.742s43.961 0 55.504 4.742zM384.011 477.6c52.104 0 94.316-41.902 94.316-93.6s-42.243-93.6-94.316-93.6-94.318 41.902-94.318 93.6 42.244 93.6 94.318 93.6"/></svg>