<svg xmlns="http://www.w3.org/2000/svg" width="768" height="768" fill="none"><path fill="#000" fill-rule="evenodd" d="M501.211 216.771c6.202 11.715 1.733 26.239-9.982 32.44l-204 107.996c-11.715 6.201-26.238 1.732-32.44-9.983s-1.732-26.238 9.982-32.44l204-107.995c11.715-6.202 26.239-1.732 32.44 9.982M254.789 420.766c6.202-11.715 20.726-16.183 32.441-9.981l204 108.004c11.714 6.202 16.183 20.726 9.981 32.441-6.202 11.714-20.726 16.183-32.441 9.981l-204-108.005c-11.714-6.202-16.183-20.726-9.981-32.44" clip-rule="evenodd"/><path fill="#000" fill-rule="evenodd" d="M552 516c-26.51 0-48 21.49-48 48s21.49 48 48 48 48-21.49 48-48-21.49-48-48-48m-96 48c0-53.019 42.981-96 96-96s96 42.981 96 96-42.981 96-96 96-96-42.981-96-96M216 336c-26.51 0-48 21.49-48 48s21.49 48 48 48 48-21.49 48-48-21.49-48-48-48m-96 48c0-53.019 42.981-96 96-96s96 42.981 96 96-42.981 96-96 96-96-42.981-96-96m432-228c-26.51 0-48 21.49-48 48s21.49 48 48 48 48-21.49 48-48-21.49-48-48-48m-96 48c0-53.019 42.981-96 96-96s96 42.981 96 96-42.981 96-96 96-96-42.981-96-96" clip-rule="evenodd"/></svg>