<svg xmlns="http://www.w3.org/2000/svg" width="768" height="768" fill="none"><path fill="#000" fill-rule="evenodd" d="M367.029 79.03c9.373-9.373 24.569-9.373 33.942 0l96 95.999c9.372 9.373 9.372 24.569 0 33.942-9.373 9.372-24.569 9.372-33.942 0L408 153.941V456c0 13.255-10.745 24-24 24s-24-10.745-24-24V153.941l-55.029 55.03c-9.373 9.372-24.569 9.372-33.942 0-9.372-9.373-9.372-24.569 0-33.942zM252 324c-39.764 0-72 32.235-72 72v180c0 39.765 32.236 72 72 72h264c39.765 0 72-32.235 72-72V396c0-39.765-32.235-72-72-72h-24c-13.255 0-24-10.745-24-24s10.745-24 24-24h24c66.274 0 120 53.726 120 120v180c0 66.274-53.726 120-120 120H252c-66.274 0-120-53.726-120-120V396c0-66.274 53.726-120 120-120h24c13.255 0 24 10.745 24 24s-10.745 24-24 24z" clip-rule="evenodd"/></svg>