<svg width="768" height="768" fill="none" xmlns="http://www.w3.org/2000/svg"><path fill-rule="evenodd" clip-rule="evenodd" d="M139.199 255.999c0-64.507 52.293-116.8 116.8-116.8h48c11.488 0 20.8 9.313 20.8 20.8 0 11.488-9.312 20.8-20.8 20.8h-48c-41.532 0-75.2 33.668-75.2 75.2v256c0 41.532 33.668 75.2 75.2 75.2h256c41.532 0 75.2-33.668 75.2-75.2v-12.138c0-11.487 9.313-20.8 20.8-20.8 11.488 0 20.8 9.313 20.8 20.8v12.138c0 64.507-52.293 116.8-116.8 116.8h-256c-64.507 0-116.8-52.293-116.8-116.8v-256Z" fill="#000"/><path fill-rule="evenodd" clip-rule="evenodd" d="M447.999 276.799c-76.878 0-139.2 62.322-139.2 139.2v80c0 11.488-9.312 20.8-20.8 20.8-11.487 0-20.8-9.312-20.8-20.8v-80c0-99.853 80.947-180.8 180.8-180.8h144c11.488 0 20.8 9.313 20.8 20.8 0 11.488-9.312 20.8-20.8 20.8h-144Z" fill="#000"/><path fill-rule="evenodd" clip-rule="evenodd" d="M617.222 241.292c8.123 8.123 8.123 21.293 0 29.416l-90.51 90.509c-8.123 8.123-21.293 8.123-29.415 0-8.123-8.122-8.123-21.292 0-29.415l90.509-90.51c8.123-8.123 21.293-8.123 29.416 0Z" fill="#000"/><path fill-rule="evenodd" clip-rule="evenodd" d="M617.223 270.707c-8.122 8.123-21.292 8.123-29.415 0l-90.51-90.509c-8.123-8.123-8.123-21.293 0-29.416 8.123-8.123 21.293-8.123 29.416 0l90.509 90.51c8.123 8.122 8.123 21.292 0 29.415Z" fill="#000"/></svg>