<svg xmlns="http://www.w3.org/2000/svg" width="768" height="768" fill="none"><path fill="#000" d="M412.002 132.004a28 28 0 0 0-56 0v26.936l-18.312-9.688a28 28 0 0 0-21.336-2.006 28 28 0 0 0-16.506 13.668 27.995 27.995 0 0 0 3.187 30.948 28 28 0 0 0 8.475 6.894l44.492 23.52v53.256a111.9 111.9 0 0 0-51.912 30.016l-46.144-26.656 1.876-50.288a28.006 28.006 0 0 0-26.95-29.022 28.003 28.003 0 0 0-29.022 26.95l-.756 20.692-23.324-13.44a28 28 0 0 0-21.562-3.343 28 28 0 0 0-17.414 13.148 28 28 0 0 0 2.418 31.544 28 28 0 0 0 8.558 7.119l23.324 13.468-17.556 11.032a28 28 0 0 0 29.792 47.404l42.616-26.768 46.116 26.628a112.1 112.1 0 0 0 0 59.976l-46.116 26.6-42.616-26.74a28 28 0 0 0-38.12 9.106 28 28 0 0 0 8.328 38.298l17.556 11.032-23.324 13.44a28 28 0 0 0-13.055 17.006 28.013 28.013 0 0 0 19.799 34.311 28.02 28.02 0 0 0 21.256-2.793l23.296-13.468.784 20.72a28 28 0 0 0 18.247 25.207 28 28 0 0 0 35.997-16.517 28 28 0 0 0 1.728-10.79l-1.876-50.288 46.144-26.656a111.75 111.75 0 0 0 51.912 30.016v53.256l-44.492 23.52a28 28 0 0 0-11.662 37.842 28 28 0 0 0 37.842 11.662l18.312-9.688v26.936a28 28 0 0 0 56 0v-26.936l18.312 9.688a28 28 0 0 0 26.18-49.504l-44.492-23.52v-53.256a111.9 111.9 0 0 0 51.912-29.988l46.144 26.628-1.876 50.288a28.01 28.01 0 0 0 26.936 29.036 28.006 28.006 0 0 0 29.036-26.936l.756-20.72 23.324 13.468a28.001 28.001 0 1 0 28-48.496l-23.296-13.44 17.528-11.032a28.006 28.006 0 1 0-29.792-47.432l-42.616 26.768-46.116-26.6a112.1 112.1 0 0 0 0-60.004l46.116-26.628 42.616 26.768a28.006 28.006 0 1 0 29.792-47.432L592.91 295.72l23.324-13.468a28 28 0 0 0 8.29-7.186 27.99 27.99 0 0 0 2.12-31.155 28 28 0 0 0-38.41-10.155l-23.324 13.44-.756-20.692a28.007 28.007 0 0 0-39.666-24.404 28 28 0 0 0-14.577 15.714 28 28 0 0 0-1.729 10.79l1.876 50.288-46.144 26.628a111.9 111.9 0 0 0-51.912-29.988v-53.256l44.492-23.52a28 28 0 1 0-26.18-49.504l-18.312 9.688z"/></svg>