<svg xmlns="http://www.w3.org/2000/svg" width="768" height="768" fill="none"><path fill="#000" d="M156.67 252.265h454.178c12.295 0 22.179-10.125 22.179-22.178 0-12.536-9.884-22.179-22.179-22.179H156.67c-12.295 0-21.938 9.884-21.938 22.179 0 12.053 9.643 22.178 21.938 22.178m0 153.75h454.178c12.295 0 22.179-10.125 22.179-22.178 0-12.536-9.884-22.179-22.179-22.179H156.67c-12.295 0-21.938 9.884-21.938 22.179 0 12.053 9.643 22.178 21.938 22.178m0 153.75h454.178c12.295 0 22.179-10.125 22.179-22.178a22.12 22.12 0 0 0-22.179-22.179H156.67c-12.295 0-21.938 9.884-21.938 22.179 0 12.053 9.643 22.178 21.938 22.178"/></svg>