<svg width="768" height="768" fill="none" xmlns="http://www.w3.org/2000/svg"><path fill-rule="evenodd" clip-rule="evenodd" d="M334.563 140.243c17.135-45.671 81.737-45.67 98.871 0l51.033 136.025a4.801 4.801 0 0 0 4.323 3.111l146.988 5.249c49.516 1.769 69.546 64.614 30.186 94.71l-114.581 87.613a4.8 4.8 0 0 0-1.692 5.159l40.131 137.373c13.763 47.109-38.578 85.869-79.625 58.966L386.63 587.46a4.8 4.8 0 0 0-5.262 0L257.8 668.449c-41.047 26.903-93.387-11.857-79.625-58.966l40.132-137.373a4.8 4.8 0 0 0-1.692-5.159l-114.582-87.613c-39.36-30.096-19.329-92.941 30.187-94.71l146.988-5.249a4.801 4.801 0 0 0 4.323-3.111l51.032-136.025Zm46.658 14.507c-.53.346-1.19.951-1.716 2.354l-51.033 136.024c-7.488 19.961-26.246 33.459-47.551 34.22l-146.988 5.25c-1.539.055-2.322.502-2.808.893-.614.493-1.235 1.321-1.594 2.446-.358 1.125-.331 2.16-.116 2.917.171.6.55 1.418 1.774 2.354l114.582 87.612c17.333 13.254 24.729 35.805 18.61 56.75L224.25 622.942c-.425 1.454-.255 2.336-.038 2.927.271.738.852 1.583 1.788 2.277.937.693 1.915 1.002 2.7 1.046.628.035 1.521-.059 2.788-.889l123.567-80.989a52.8 52.8 0 0 1 57.887 0l123.567 80.989c1.267.83 2.16.924 2.789.889.785-.044 1.763-.353 2.699-1.046.937-.694 1.517-1.539 1.788-2.277.217-.591.388-1.473-.037-2.927L503.617 485.57c-6.119-20.945 1.276-43.496 18.61-56.75l114.582-87.612c1.223-.936 1.603-1.754 1.773-2.354.215-.757.243-1.792-.116-2.917-.358-1.125-.979-1.953-1.593-2.446-.486-.391-1.269-.838-2.809-.893l-146.988-5.25a52.798 52.798 0 0 1-47.55-34.219l-51.033-136.025c-.526-1.403-1.186-2.008-1.716-2.354-.658-.431-1.623-.76-2.778-.76-1.156 0-2.12.329-2.778.76Z" fill="#000"/></svg>