<svg xmlns="http://www.w3.org/2000/svg" width="768" height="768" fill="none"><path fill="#000" fill-rule="evenodd" d="M403.199 614.399c0 10.604-8.596 19.2-19.2 19.2-137.851 0-249.6-111.75-249.6-249.6 0-70.779 29.471-134.666 76.761-180.07l-32.763-5.826c-10.44-1.856-17.398-11.825-15.542-22.265 1.857-10.44 11.825-17.398 22.265-15.542l74.24 13.202a19.2 19.2 0 0 1 15.736 16.917l7.68 73.838c1.097 10.547-6.564 19.987-17.111 21.084s-19.986-6.564-21.083-17.111l-4.077-39.194c-41.664 38.593-67.706 93.74-67.706 154.967 0 116.642 94.557 211.2 211.2 211.2 10.604 0 19.2 8.596 19.2 19.2m201.943-22.238c-1.856 10.44-11.825 17.399-22.265 15.542l-74.24-13.201a19.2 19.2 0 0 1-15.735-16.917l-7.68-73.839c-1.097-10.547 6.563-19.986 17.11-21.083s19.987 6.563 21.084 17.11l4.076 39.195c41.665-38.594 67.707-93.741 67.707-154.968 0-116.643-94.558-211.2-211.2-211.2-10.604 0-19.2-8.596-19.2-19.2s8.596-19.2 19.2-19.2c137.85 0 249.6 111.75 249.6 249.6 0 70.779-29.471 134.666-76.762 180.07l32.763 5.826c10.44 1.857 17.399 11.825 15.542 22.265" clip-rule="evenodd"/></svg>