<svg xmlns="http://www.w3.org/2000/svg" width="768" height="768" fill="none"><path fill="#000" fill-rule="evenodd" d="M450.53 111.479a35.2 35.2 0 0 1 38.36 7.631l160 160c13.747 13.746 13.747 36.034 0 49.78-13.746 13.747-36.034 13.747-49.78 0l-99.91-99.91V624c0 19.44-15.76 35.2-35.2 35.2-19.44 0-35.2-15.76-35.2-35.2V144a35.2 35.2 0 0 1 21.73-32.521ZM304 108.8c19.44 0 35.2 15.76 35.2 35.2v480a35.201 35.201 0 0 1-60.09 24.89l-160-160c-13.747-13.746-13.747-36.034 0-49.78 13.746-13.747 36.034-13.747 49.78 0l99.91 99.91V144c0-19.44 15.76-35.2 35.2-35.2Z" clip-rule="evenodd"/></svg>
