<svg xmlns="http://www.w3.org/2000/svg" width="768" height="768"><g fill="#000" fill-rule="nonzero"><path d="m425.888 94.41 54.025.01v54.38l-53.458.022c-12.503.029-19.118.172-23.88.745l-4.906.884a59.409 59.409 0 0 0-13.081 4.817l-4.044 2.276-.639.4-.32.206c-4.634 3.02-9.477 7.534-21.988 20.003l-3.172 3.168-186.23 186.238c-13.328 13.368-22.94 23.206-30.1 31.639l-.823.977c-7.665 9.165-10.881 15.011-12.479 19.927a59.207 59.207 0 0 0-.21 35.932l.21.661c1.626 5.002 4.928 10.967 12.886 20.412l.416.492c8.237 9.7 19.717 21.26 36.367 37.912l77.433 77.434 22.473 22.252 2.1 2.028c5.513 5.301 10.328 9.743 14.76 13.506 9.73 8.261 15.816 11.649 20.904 13.303l4.507 1.282a59.222 59.222 0 0 0 32.085-1.282l4.044-1.613c4.212-1.993 9.325-5.339 16.366-11.272l.494-.418c9.138-7.758 19.924-18.393 35.063-33.518l187.245-187.251c11.654-11.714 15.927-16.357 18.844-20.881l.304-.48.198-.319 2.276-4.044a59.32 59.32 0 0 0 4.817-13.081l.884-4.906.107-.962c.52-5.021.627-12.16.642-25.455l.019-89.893c-.026-19.378-.183-33.408-1.099-44.623l-.109-1.273c-1.06-11.902-2.914-18.318-5.261-22.923l-2.298-4.066a59.177 59.177 0 0 0-19.49-19.489l-4.066-2.299-.492-.245c-4.737-2.31-11.412-4.12-23.704-5.124l-1.465-.114c-6.17-.46-13.19-.708-21.45-.836l-60.68-.149V94.42l61.542.148 2.532.044c8.784.167 16.745.473 23.941 1.06 16.089 1.315 30.744 4.15 44.459 11.138l7.822 4.375a113.593 113.593 0 0 1 37.433 37.432l4.375 7.823c6.988 13.714 9.822 28.369 11.137 44.459l.138 1.775c.974 13.132 1.086 28.74 1.098 47.166l.001 10.014.024 83.084c-.01 13.964-.179 25.167-2.057 35.71l-1.082 5.237a113.62 113.62 0 0 1-9.259 25.036l-4.353 7.8c-5.563 9.075-12.722 16.992-21.876 26.296L437.86 640.936c-12.568 12.526-23.338 23.043-33.031 31.272-10.772 9.144-21.576 16.702-33.919 21.633l-5.392 1.944a113.61 113.61 0 0 1-61.562 2.431l-8.618-2.431c-14.639-4.756-27.004-13.13-39.311-23.577-6.033-5.123-12.491-11.12-19.534-17.943l-23.047-22.871-84.786-84.792c-12.865-12.9-23.644-23.912-32.041-33.803-10.448-12.306-18.821-24.672-23.578-39.31a113.605 113.605 0 0 1 0-70.181c4.757-14.639 13.13-27.004 23.578-39.31 8.595-10.124 19.685-21.422 32.953-34.718l7.86-7.864L325.81 133.039c9.304-9.155 17.221-16.313 26.295-21.876l7.801-4.353a113.557 113.557 0 0 1 25.036-9.26l5.237-1.082c10.542-1.877 21.745-2.047 35.709-2.057Z"/><path d="M522.744 246.066c21.869 21.869 21.869 57.327 0 79.196s-57.327 21.869-79.196 0-21.869-57.327 0-79.196 57.327-21.869 79.196 0Z"/></g></svg>
