<svg xmlns="http://www.w3.org/2000/svg" width="768" height="768" fill="none"><path fill="#000" d="M384 768c212.077 0 384-171.923 384-384S596.077 0 384 0 0 171.923 0 384s171.923 384 384 384"/><path fill="#fff" d="M173.82 379.946q167.916-73.158 223.94-96.461c106.641-44.355 128.8-52.06 143.243-52.318 3.177-.053 10.279.734 14.88 4.468 3.885 3.152 4.954 7.41 5.465 10.399s1.149 9.797.642 15.117c-5.779 60.719-30.784 208.069-43.505 276.076-5.383 28.776-15.982 38.425-26.243 39.369-22.299 2.052-39.233-14.737-60.831-28.895-33.797-22.154-52.89-35.945-85.696-57.564-37.913-24.984-13.335-38.716 8.271-61.157 5.654-5.873 103.907-95.241 105.809-103.348.237-1.014.458-4.794-1.787-6.789s-5.559-1.314-7.951-.771q-5.084 1.154-161.973 107.059-22.987 15.784-41.643 15.382c-13.711-.297-40.085-7.753-59.692-14.126-24.048-7.817-43.16-11.95-41.496-25.226q1.3-10.371 28.567-21.215"/></svg>