<svg xmlns="http://www.w3.org/2000/svg" width="768" height="768" fill="none"><path fill="#000" fill-rule="evenodd" d="M89.748 378.325Q324.83 275.904 403.265 243.28c149.297-62.098 180.319-72.885 200.54-73.241 4.447-.078 14.391 1.024 20.832 6.25 5.438 4.413 6.935 10.375 7.651 14.559s1.608 13.716.899 21.164c-8.091 85.007-43.098 291.297-60.908 386.507-7.536 40.286-22.374 53.794-36.74 55.116-31.219 2.873-54.926-20.632-85.163-40.453-47.316-31.016-74.046-50.323-119.975-80.589-53.078-34.978-18.669-54.202 11.58-85.62 7.916-8.222 145.469-133.338 148.132-144.688.333-1.419.642-6.711-2.502-9.505s-7.783-1.838-11.13-1.078q-7.12 1.615-226.763 149.882-32.183 22.099-58.301 21.535c-19.195-.415-56.119-10.854-83.567-19.776-33.668-10.944-60.426-16.73-58.096-35.316q1.82-14.522 39.994-29.702" clip-rule="evenodd"/></svg>