<svg xmlns="http://www.w3.org/2000/svg" width="768" height="769" fill="none"><path fill="#000" fill-rule="evenodd" d="M122.553.204 649.533.2c18.644 0 37.274 2.738 56.744 11.815 23.338 10.88 35.714 28.026 44.384 40.707a41 41 0 0 1 1.89 3.044C762.745 73.913 768 93.506 768 114.583c0 20.027-4.765 41.845-15.449 60.861-.101.185-.205.363-.309.544L419.304 747.903a40.85 40.85 0 0 1-35.449 20.298 40.85 40.85 0 0 1-35.304-20.55L21.727 176.958q-.141-.231-.282-.467c-7.48-12.325-19.047-31.385-21.07-55.982a111.5 111.5 0 0 1 14.59-64.934 110.93 110.93 0 0 1 49.056-44.982C86.088.28 108.449.203 122.553.203Zm220.595 81.699H122.553c-14.493 0-20.057.892-23.946 2.711a29.2 29.2 0 0 0-12.915 11.862 29.8 29.8 0 0 0-3.89 17.339c.286 3.473 1.702 7.446 10.054 21.221q.262.433.513.872l250.779 437.905zm81.703 0v494.075l256.587-440.764c2.896-5.262 4.859-12.866 4.859-20.631 0-6.298-1.305-11.768-4.224-17.405-3.064-4.406-4.93-6.738-6.49-8.336-1.339-1.365-2.369-2.097-3.826-2.775-6.067-2.829-12.274-4.164-22.224-4.164z" clip-rule="evenodd"/></svg>