<svg xmlns="http://www.w3.org/2000/svg" width="768" height="768" fill="none"><path fill="#000" fill-rule="evenodd" d="M384 132c-139.176 0-252 112.824-252 252s112.824 252 252 252 252-112.824 252-252-112.824-252-252-252M84 384C84 218.315 218.315 84 384 84s300 134.315 300 300-134.315 300-300 300S84 549.685 84 384" clip-rule="evenodd"/><path fill="#000" d="M384.004 545.426q-13.038 0-19.992-7.776-6.953-7.776-6.953-21.6V357.506q0-14.256 6.953-21.6 6.954-7.776 19.992-7.776t19.991 7.776q7.388 7.344 7.388 21.6V516.05q0 13.824-6.953 21.6t-20.426 7.776m0-257.472q-15.211 0-23.903-7.344-8.257-7.776-8.257-21.168 0-13.824 8.257-21.168 8.692-7.344 23.903-7.344 15.646 0 23.902 7.344 8.258 7.344 8.258 21.168 0 13.392-8.258 21.168-8.257 7.344-23.902 7.344"/></svg>