<svg xmlns="http://www.w3.org/2000/svg" width="768" height="768" fill="none"><path fill="#000" fill-rule="evenodd" d="M384 120c-145.803 0-264 118.197-264 264s118.197 264 264 264 264-118.197 264-264-118.197-264-264-264M72 384C72 211.687 211.687 72 384 72s312 139.687 312 312-139.687 312-312 312S72 556.313 72 384" clip-rule="evenodd"/><path fill="#000" d="M384.065 546.91q-12.48 0-19.136-7.487-6.656-7.488-6.656-20.801V365.95q0-13.728 6.656-20.8 6.656-7.488 19.136-7.488t19.136 7.488q7.072 7.072 7.072 20.8v152.672q0 13.313-6.656 20.801t-19.552 7.487m0-247.936q-14.56 0-22.88-7.071-7.904-7.488-7.904-20.385 0-13.311 7.904-20.384 8.32-7.072 22.88-7.072 14.976 0 22.88 7.072 7.905 7.073 7.904 20.384 0 12.897-7.904 20.385-7.904 7.071-22.88 7.071"/></svg>