<svg width="768" height="768" fill="none" xmlns="http://www.w3.org/2000/svg"><path fill-rule="evenodd" clip-rule="evenodd" d="M122.082 154.44c-3.774-32.973 34.591-53.7 60.101-32.471l103.528 86.155c60.897-32.165 135.681-32.165 196.578 0l103.528-86.155c25.51-21.229 63.875-.502 60.101 32.471l-15.369 134.296c15.086 19.999 51.259 76.509 38.95 148.213C647.394 565.715 529.728 672 384 672c-145.973 0-264.193-110.932-285.499-235.051-12.309-71.704 23.864-128.214 38.95-148.213L122.082 154.44Zm50.864 22.289 12.674 110.746c1.21 10.578-2.225 20.477-8.08 27.876-10.79 13.635-41.194 58.353-31.731 113.477C163.274 530.57 262.069 624 384 624c122.175 0 220.012-89.271 238.191-195.172 9.463-55.124-20.941-99.842-31.731-113.477-5.855-7.399-9.291-17.298-8.08-27.876l12.674-110.746-87.755 73.029c-12.58 10.469-29.678 10.895-42.586 3.478-49.275-28.315-112.152-28.315-161.426 0-12.908 7.417-30.006 6.991-42.587-3.478l-87.754-73.029Z" fill="#000"/><ellipse cx="265.244" cy="403.904" rx="66" ry="44" transform="rotate(20 265.244 403.904)" fill="#000"/><ellipse cx="502.869" cy="404.086" rx="66" ry="44" transform="rotate(-20 502.869 404.086)" fill="#000"/><path d="M432.851 501.26c-27.978-9.693-74.232-9.66-99.981.106-9.327 3.537-9.585 14.71-2.224 21.442 14.245 13.026 37.475 31.744 53.354 31.751 15.342.006 37.546-17.469 51.879-30.402 7.998-7.217 7.152-19.371-3.028-22.897Z" fill="#000"/></svg>