<svg xmlns="http://www.w3.org/2000/svg" xml:space="preserve" style="enable-background:new 0 0 768 768" viewBox="0 0 768 768"><path d="M384 0C172 0 0 171.9 0 383.9 0 596.1 171.9 768 384 768s384-171.9 384-384.1C767.9 171.9 596 0 384 0zm48 534.1c0 16.8-4.1 29.7-12.4 38.7-8.2 8.9-20.2 13.5-36 13.5-15.1 0-26.7-4.5-35-13.5-8.1-9-12.3-21.8-12.3-38.7V364.2c0-16.8 4.1-29.7 12.3-38.7 8.3-8.9 20-13.4 35-13.4 15.4 0 27.2 4.4 35.5 13.3 8.6 9.1 12.9 22 12.9 38.9v169.8zm-8.7-272c-8.8 7.8-22.1 11.8-39.7 11.8-16.9 0-29.9-4-39.3-11.8-9-7.9-13.4-19.4-13.4-34.4 0-14.7 4.5-26 13.5-33.9 9.3-7.9 22.4-11.8 39.2-11.8 17.6 0 30.8 3.9 39.7 11.8 9 7.9 13.5 19.2 13.5 33.8 0 15.1-4.5 26.6-13.5 34.5z"/></svg>
