<svg xmlns="http://www.w3.org/2000/svg" width="768" height="768" fill="none"><path fill="#000" fill-rule="evenodd" d="M439.269 635.29c36.017 28.182 81.026 42.359 133.967 42.359a315 315 0 0 0 35.121-1.984 24.9 24.9 0 0 0 9.181-2.666 24.2 24.2 0 0 0 7.4-5.892 23.25 23.25 0 0 0 4.47-8.201 22.8 22.8 0 0 0 .843-9.233c-.823-6.279-4.182-11.987-9.343-15.878-5.162-3.89-11.707-5.646-18.203-4.884-54.36 5.907-98.472-4.206-131.475-29.694-54.512-42.276-62.656-114.976-63.165-119.516l-.023-.205c-.51-6.36-3.612-12.265-8.624-16.414-5.011-4.149-11.522-6.203-18.1-5.71-6.577.493-12.683 3.492-16.974 8.339-4.291 4.846-6.415 11.142-5.905 17.503l.006.065c.436 4.73 8.828 95.915 80.824 152.011M383.46 0c137.714 0 210.953 38.657 231.608 51.653 4.487 1.752 8.329 4.761 11.034 8.64s4.15 8.452 4.149 13.13a23.1 23.1 0 0 1-1.983 9.08 23.7 23.7 0 0 1-5.433 7.651 24.6 24.6 0 0 1-8.052 5.05 25.3 25.3 0 0 1-9.44 1.675c-5.399.043-10.665-1.616-15.002-4.726q-.035-.018-.29-.184c-4.813-3.141-68.781-44.884-206.542-44.884-142.617 0-205.805 44.895-206.505 45.4-4.245 2.857-9.293 4.39-14.466 4.394a25.3 25.3 0 0 1-9.434-1.66 24.7 24.7 0 0 1-8.056-5.031 23.7 23.7 0 0 1-5.445-7.633 23 23 0 0 1-2.004-9.069 22.8 22.8 0 0 1 2.187-9.646 23.5 23.5 0 0 1 6.104-7.918.6.6 0 0 0 .359-.157 18.7 18.7 0 0 1 2.997-2.206C165.487 42.706 238.905 0 383.46 0M60.228 312.748c3.789 2.323 8.08 3.524 12.44 3.482 4.315.054 8.565-1.134 12.311-3.441s6.853-5.651 8.999-9.685c26.705-48.31 108.697-160.961 290.047-160.961 185.794 0 264.958 122.418 290.921 162.649 3.758 5.739 9.442 9.676 15.848 10.976 6.405 1.3 13.029-.139 18.467-4.012 2.661-1.891 4.943-4.337 6.714-7.192a26.9 26.9 0 0 0 3.595-9.437 27.7 27.7 0 0 0-.089-10.201 26.8 26.8 0 0 0-3.758-9.363c-14.346-22.37-44.461-68.817-98.195-109.849-65.287-49.998-143.885-75.362-233.503-75.362-206.796 0-301.567 130.757-332.715 186.778a27.2 27.2 0 0 0-3.095 9.644 27.8 27.8 0 0 0 .613 10.183 26.7 26.7 0 0 0 4.223 9.133c1.958 2.711 4.398 4.975 7.177 6.658m413.346 454.564c1.877.48 3.804.711 5.736.686 5.073.004 10.008-1.743 14.052-4.974s6.975-7.769 8.346-12.921a25 25 0 0 0 .429-9.338 24.6 24.6 0 0 0-3.021-8.79 23.3 23.3 0 0 0-6.002-6.879 22 22 0 0 0-8.053-3.904c-112.323-29.357-159.223-150.683-162.825-160.261a255.5 255.5 0 0 1-7.718-47.556c-1.635-23.084-.485-54.9 14.271-75.254 10.821-14.878 28.209-22.062 52.968-22.062 45.084 0 52.636 23.259 64.44 71.502 11.471 47.03 27.211 111.508 114.775 116.137 33.612 1.708 63.955-14.032 85.264-44.14 31.977-45.146 38.046-114.253 15.421-175.826-17.797-48.227-51.818-96.469-93.466-132.388-53.786-46.184-118.226-70.64-186.434-70.64-147.585 0-245.667 105.361-277.448 209.877-29.172 96.435 6.192 236.324 7.718 242.36l.001.003c1.691 6.172 5.606 11.4 10.908 14.563s11.566 4.01 17.452 2.359a21.9 21.9 0 0 0 8.071-3.955 23.3 23.3 0 0 0 5.979-6.953 24.5 24.5 0 0 0 2.948-8.857c.412-3.13.226-6.316-.547-9.369-.318-1.198-33.446-132.389-8.188-215.848 13.621-44.826 41.906-88.44 77.606-119.33 43.132-37.291 96.917-57.134 155.455-57.134 137.127 0 214.9 112.657 236.814 172.409 17.055 46.296 13.121 98.737-9.504 130.904-8.369 11.797-23.125 25.654-45.583 24.457-51.138-2.746-60.021-29.422-72.325-80.219l-.044-.183c-5.843-24.336-11.904-49.579-27-70.058-18.372-25.143-45.099-37.291-82.146-37.291-39.848 0-70.024 13.92-89.865 41.059-42.787 58.831-15.725 158.801-13.988 165.216l.05.185.333 1.357c2.134 6.162 54.603 154.339 195.12 191.056m-172.163.687a22 22 0 0 1-9.185-1.997c-2.907-1.324-5.536-3.267-7.732-5.713-56.33-63.837-88.194-135.219-100.185-224.475v-.475c-6.73-59.09 3.123-142.748 51.404-200.267 35.638-42.443 85.738-64.016 148.647-64.016 74.399 0 132.866 37.352 169.323 107.851 26.452 51.216 31.697 102.253 31.834 104.348a26.6 26.6 0 0 1-.929 9.586 25.3 25.3 0 0 1-4.26 8.471c-1.922 2.493-4.281 4.553-6.941 6.061a21.6 21.6 0 0 1-8.562 2.726c-6.038.707-12.091-1.177-16.853-5.247s-7.85-9.999-8.599-16.507c-3.993-30.622-13.17-60.19-27.073-87.226-28.256-53.836-71.247-81.204-128.107-81.204-49.115 0-87.542 15.959-113.979 47.468-38.109 45.423-45.476 115.397-40.246 161.687 10.505 78.928 38.594 141.717 88.193 197.828a24.4 24.4 0 0 1 4.752 8.089 25.8 25.8 0 0 1 1.452 9.451 25.7 25.7 0 0 1-2.077 9.313c-1.264 2.923-3.059 5.542-5.279 7.7-4.274 4.184-9.829 6.516-15.598 6.548" clip-rule="evenodd"/></svg>