<svg xmlns="http://www.w3.org/2000/svg" width="768" height="768" fill="none"><path fill="#000" d="M417.351 50c63.336 0 114.711 51.313 114.711 114.651v33.651h93.888c14.845 0 26.88 12.035 26.88 26.88 0 14.846-12.035 26.88-26.88 26.88h-13.376v388.369c0 41.613-32.382 77.726-75.188 77.726H231.443c-42.806 0-75.187-36.114-75.187-77.726V252.062H142.88c-14.845 0-26.88-12.034-26.88-26.88 0-14.844 12.035-26.88 26.88-26.88h93.887v-33.651C236.767 101.313 288.143 50 351.478 50zm0 53.76h-65.873c-33.679 0-60.952 27.279-60.952 60.891v33.651h187.777v-33.651c0-33.612-27.272-60.891-60.952-60.891m141.463 148.302H210.016V640.43c0 14.551 10.874 23.967 21.427 23.967h305.943c10.553 0 21.428-9.416 21.428-23.967z"/></svg>