<svg width="768" height="768" fill="none" xmlns="http://www.w3.org/2000/svg"><path fill-rule="evenodd" clip-rule="evenodd" d="M374.401 138.241c-29.691 0-53.76 24.069-53.76 53.76v29.925h165.12v-29.925c0-29.691-24.068-53.76-53.76-53.76h-57.6Zm-124.16 129.765v340.305c0 12.988 9.708 21.45 19.2 21.45H536.96c9.491 0 19.2-8.462 19.2-21.45V268.006H250.241Zm351.999 0v340.305c0 36.156-28.116 67.53-65.28 67.53H269.441c-37.165 0-65.28-31.375-65.28-67.53V268.006h-12.16c-12.725 0-23.04-10.315-23.04-23.04 0-12.724 10.315-23.04 23.04-23.04h82.56v-29.925c0-55.14 44.7-99.84 99.84-99.84h57.6c55.141 0 99.84 44.7 99.84 99.84v29.925h82.56c12.725 0 23.04 10.316 23.04 23.04 0 12.725-10.315 23.04-23.04 23.04H602.24Z" fill="#000"/></svg>