<svg xmlns="http://www.w3.org/2000/svg" width="768" height="768" fill="none"><path fill="#000" d="M422.365 608.009c0 21.208-17.192 38.4-38.4 38.4-144.919 0-262.4-117.48-262.4-262.4 0-58.504 19.16-112.525 51.499-156.138l-16.832-1.643c-21.107-2.062-36.546-20.844-34.485-41.951 2.062-21.108 20.844-36.547 41.951-34.486l99.556 9.724c17.916 1.75 32.211 15.71 34.386 33.58l12.444 102.276c2.562 21.053-12.428 40.196-33.481 42.757-21.052 2.562-40.195-12.428-42.757-33.481l-3.094-25.431c-20.449 29.834-32.387 65.922-32.387 104.793 0 102.504 83.096 185.6 185.6 185.6 21.208 0 38.4 17.193 38.4 38.4m223.818-24.267c-2.061 21.107-20.843 36.547-41.951 34.485l-99.555-9.723c-17.916-1.75-32.212-15.711-34.386-33.58l-12.445-102.277c-2.561-21.052 12.429-40.195 33.481-42.756 21.053-2.562 40.196 12.428 42.757 33.48l3.095 25.432c20.449-29.835 32.386-65.922 32.386-104.793 0-102.505-83.096-185.601-185.6-185.601-21.207 0-38.4-17.192-38.4-38.4s17.193-38.4 38.4-38.4c144.92 0 262.4 117.481 262.4 262.401 0 58.504-19.159 112.524-51.498 156.137l16.831 1.644c21.107 2.062 36.547 20.844 34.485 41.951"/></svg>