<svg xmlns="http://www.w3.org/2000/svg" width="768" height="768" fill="none"><path fill="#000" fill-rule="evenodd" d="M384.042 185.666c-9.82 0-19.183 3.866-26.044 10.662-6.851 6.787-10.649 15.932-10.649 25.41v324.524c0 9.478 3.798 18.623 10.649 25.41 6.861 6.796 16.224 10.662 26.044 10.662h196.571c9.82 0 19.183-3.866 26.044-10.662 6.851-6.787 10.649-15.932 10.649-25.41V221.738c0-9.478-3.798-18.623-10.649-25.41-6.861-6.796-16.224-10.662-26.044-10.662zm-66.62-30.308C335.137 137.81 359.106 128 384.042 128h196.571c24.936 0 48.905 9.81 66.621 27.358 17.724 17.557 27.733 41.429 27.733 66.38v324.524c0 24.951-10.009 48.823-27.733 66.38C629.518 630.19 605.549 640 580.613 640H384.042c-24.936 0-48.905-9.81-66.62-27.358-17.725-17.557-27.734-41.429-27.734-66.38V221.738c0-24.951 10.009-48.823 27.734-66.38m-97.189 37.547c15.923 0 28.83 12.909 28.83 28.833v324.524c0 15.924-12.907 28.833-28.83 28.833s-28.83-12.909-28.83-28.833V221.738c0-15.924 12.907-28.833 28.83-28.833m-98.285 32.452c15.922 0 28.83 12.909 28.83 28.833v259.62c0 15.924-12.908 28.833-28.83 28.833-15.923 0-28.83-12.909-28.83-28.833V254.19c0-15.924 12.907-28.833 28.83-28.833" clip-rule="evenodd"/></svg>