<svg xmlns="http://www.w3.org/2000/svg" width="768" height="768" fill="none"><path fill="#000" d="M680 281.594c0-27.275-.009-46.291-1.219-61.094-1.186-14.522-3.405-22.867-6.625-29.187a72 72 0 0 0-31.468-31.469c-6.321-3.22-14.666-5.439-29.188-6.625-14.803-1.21-33.818-1.219-61.094-1.219H360v464h190.406c27.276 0 46.291-.009 61.094-1.219 14.523-1.186 22.867-3.405 29.188-6.625a72.02 72.02 0 0 0 31.468-31.468c3.22-6.321 5.439-14.666 6.625-29.188 1.21-14.803 1.219-33.818 1.219-61.094zM608 408c13.255 0 24 10.745 24 24s-10.745 24-24 24H432c-13.255 0-24-10.745-24-24s10.745-24 24-24zm0-96c13.255 0 24 10.745 24 24s-10.745 24-24 24H432c-13.255 0-24-10.745-24-24s10.745-24 24-24zm0-96c13.255 0 24 10.745 24 24s-10.745 24-24 24H432c-13.255 0-24-10.745-24-24s10.745-24 24-24zM88 486.406c0 27.276.01 46.291 1.219 61.094 1.186 14.522 3.405 22.867 6.625 29.188a72.02 72.02 0 0 0 31.469 31.468c6.32 3.22 14.664 5.439 29.187 6.625 14.803 1.21 33.819 1.219 61.094 1.219H312V152h-94.406c-27.275 0-46.291.009-61.094 1.219-14.522 1.186-22.867 3.405-29.187 6.625a72 72 0 0 0-31.47 31.469c-3.22 6.32-5.438 14.665-6.624 29.187C88.009 235.303 88 254.319 88 281.594zm640 0c0 26.483.031 47.79-1.375 65-1.429 17.491-4.477 32.849-11.719 47.063a119.97 119.97 0 0 1-52.437 52.437c-14.215 7.243-29.571 10.29-47.063 11.719-17.21 1.406-38.517 1.375-65 1.375H217.594c-26.483 0-47.79.031-65-1.375-17.492-1.429-32.848-4.476-47.063-11.719a119.98 119.98 0 0 1-52.437-52.437c-7.242-14.214-10.29-29.572-11.719-47.063-1.406-17.21-1.375-38.517-1.375-65V281.594c0-26.483-.031-47.79 1.375-65 1.43-17.492 4.477-32.848 11.719-47.063a120 120 0 0 1 52.437-52.437c14.215-7.242 29.571-10.29 47.063-11.719 17.21-1.406 38.517-1.375 65-1.375h332.812c26.483 0 47.79-.031 65 1.375 17.492 1.429 32.848 4.477 47.063 11.719a119.98 119.98 0 0 1 52.437 52.437c7.242 14.215 10.29 29.571 11.719 47.063 1.406 17.21 1.375 38.517 1.375 65z"/></svg>