<svg xmlns="http://www.w3.org/2000/svg" width="768" height="768" fill="none"><path fill="#000" d="M576 400H192v208c0 22.091 17.909 40 40 40h304c22.091 0 40-17.909 40-40zm-64 144c13.255 0 24 10.745 24 24s-10.745 24-24 24H256c-13.255 0-24-10.745-24-24s10.745-24 24-24zm0-88c13.255 0 24 10.745 24 24s-10.745 24-24 24H256c-13.255 0-24-10.745-24-24s10.745-24 24-24zm64-296c0-22.091-17.909-40-40-40H232c-22.091 0-40 17.909-40 40v192h384zm48 448c0 48.601-39.399 88-88 88H232c-48.601 0-88-39.399-88-88V160c0-48.601 39.399-88 88-88h304c48.601 0 88 39.399 88 88z"/></svg>