<svg xmlns="http://www.w3.org/2000/svg" width="768" height="768" fill="none"><path fill="#000" d="M648 192c0-22.091-17.909-40-40-40H376v464h232c22.091 0 40-17.909 40-40zm-64 192c13.255 0 24 10.745 24 24s-10.745 24-24 24H440c-13.255 0-24-10.745-24-24s10.745-24 24-24zm0-88c13.255 0 24 10.745 24 24s-10.745 24-24 24H440c-13.255 0-24-10.745-24-24s10.745-24 24-24zm0-88c13.255 0 24 10.745 24 24s-10.745 24-24 24H440c-13.255 0-24-10.745-24-24s10.745-24 24-24zM120 576c0 22.091 17.909 40 40 40h168V152H160c-22.091 0-40 17.909-40 40zm576 0c0 48.601-39.399 88-88 88H160c-48.601 0-88-39.399-88-88V192c0-48.601 39.399-88 88-88h448c48.601 0 88 39.399 88 88z"/></svg>