<svg xmlns="http://www.w3.org/2000/svg" width="768" height="768" fill="none"><path fill="#000" d="M599.969 408H168v142.406c0 27.276.009 46.291 1.219 61.094 1.186 14.522 3.405 22.867 6.625 29.188a72 72 0 0 0 31.469 31.468c6.32 3.22 14.665 5.439 29.187 6.625 14.803 1.21 33.819 1.219 61.094 1.219h172.781c27.275 0 46.29-.01 61.094-1.219 14.519-1.186 22.868-3.406 29.187-6.625a72 72 0 0 0 31.469-31.468c3.22-6.321 5.438-14.665 6.625-29.188 1.21-14.803 1.219-33.818 1.219-61.094zM528 568c13.255 0 24 10.745 24 24s-10.745 24-24 24H240c-13.255 0-24-10.745-24-24s10.745-24 24-24zm0-96c13.255 0 24 10.745 24 24s-10.745 24-24 24H240c-13.255 0-24-10.745-24-24s10.745-24 24-24zm71.969-254.406c0-27.275-.009-46.291-1.219-61.094-1.187-14.523-3.405-22.867-6.625-29.187a72 72 0 0 0-31.469-31.47c-6.319-3.218-14.668-5.438-29.187-6.624C516.665 88.009 497.65 88 470.375 88H297.594c-27.275 0-46.291.01-61.094 1.219-14.522 1.186-22.867 3.405-29.187 6.625a72 72 0 0 0-31.469 31.469c-3.22 6.32-5.439 14.665-6.625 29.187-1.21 14.803-1.219 33.819-1.219 61.094V360h431.969zm48 332.812c0 26.483.031 47.79-1.375 65-1.429 17.488-4.449 32.851-11.688 47.063a120.04 120.04 0 0 1-52.437 52.437c-14.215 7.243-29.602 10.29-47.094 11.719-17.211 1.406-38.518 1.375-65 1.375H297.594c-26.483 0-47.79.031-65-1.375-17.492-1.429-32.848-4.477-47.063-11.719a119.98 119.98 0 0 1-52.437-52.437c-7.242-14.215-10.29-29.571-11.719-47.063-1.406-17.21-1.375-38.517-1.375-65V217.594c0-26.483-.031-47.79 1.375-65 1.429-17.492 4.477-32.848 11.719-47.063a120 120 0 0 1 52.437-52.437c14.215-7.242 29.571-10.29 47.063-11.719 17.21-1.406 38.517-1.375 65-1.375h172.781c26.482 0 47.789-.03 65 1.375 17.492 1.43 32.879 4.476 47.094 11.719a120.04 120.04 0 0 1 52.437 52.437c7.239 14.212 10.259 29.575 11.688 47.063 1.406 17.21 1.375 38.517 1.375 65z"/></svg>