<svg xmlns="http://www.w3.org/2000/svg" width="768" height="768" fill="none"><path fill="#000" fill-rule="evenodd" d="M550.403 172.8c-45.079 0-87.024 31.656-113.257 57.511-3.818 3.763-5.496 5.462-6.643 6.917-.708.897-1.05 1.493-1.425 2.607-.013.062-.07.315-.129.787a21 21 0 0 0-.149 2.579c0 .981.059 1.875.149 2.579.059.471.116.725.129.787.375 1.113.717 1.709 1.424 2.605 1.148 1.455 2.825 3.153 6.644 6.918 26.233 25.854 68.178 57.51 113.257 57.51s87.014-31.655 113.248-57.51c3.817-3.761 5.496-5.461 6.646-6.919.71-.9 1.052-1.497 1.425-2.604.013-.062.07-.316.129-.787.09-.704.149-1.598.149-2.579s-.059-1.875-.149-2.58a8 8 0 0 0-.129-.786c-.373-1.108-.715-1.705-1.426-2.606-1.15-1.457-2.829-3.157-6.645-6.918-26.234-25.856-68.169-57.511-113.248-57.511m-140.212 30.161c27.376-26.981 78.924-68.561 140.212-68.561 61.289 0 112.828 41.581 140.203 68.561l.974.957c6.349 6.238 12.929 12.702 16.654 24.021 1.679 5.104 2.166 10.753 2.166 15.262s-.487 10.158-2.167 15.262c-3.724 11.317-10.304 17.781-16.65 24.016l-.977.96C663.231 310.419 611.692 352 550.403 352c-61.288 0-112.836-41.58-140.212-68.561l-.974-.958c-6.355-6.243-12.925-12.698-16.65-24.018-1.68-5.104-2.167-10.753-2.167-15.262s.487-10.158 2.167-15.262c3.725-11.322 10.297-17.778 16.654-24.024zm-132.61-17.362 4.019.001H320c10.604 0 19.2 8.596 19.2 19.2S330.604 224 320 224h-38.4c-37.356 0-51.138.272-61.652 3.951a70.4 70.4 0 0 0-43.197 43.198c-2.967 8.477-3.718 19.079-3.898 42.451H358.4c10.604 0 19.2 8.596 19.2 19.2s-8.596 19.2-19.2 19.2H172.8v67.84c0 25.407.015 43.308 1.157 57.286 1.124 13.753 3.242 22.01 6.516 28.435a70.4 70.4 0 0 0 30.766 30.766c6.426 3.274 14.682 5.392 28.435 6.516 13.978 1.142 31.879 1.157 57.286 1.157h174.08c25.407 0 43.308-.015 57.286-1.157 13.753-1.124 22.009-3.242 28.435-6.516a70.4 70.4 0 0 0 30.766-30.766c3.274-6.425 5.392-14.682 6.516-28.435 1.142-13.978 1.157-31.879 1.157-57.286V409.6c0-10.604 8.596-19.2 19.2-19.2s19.2 8.596 19.2 19.2v11.076c0 24.382 0 43.852-1.284 59.577-1.318 16.128-4.083 30-10.574 42.741a108.8 108.8 0 0 1-47.548 47.548c-12.741 6.492-26.613 9.256-42.741 10.574-15.725 1.284-35.195 1.284-59.578 1.284h-175.75c-24.383 0-43.853 0-59.578-1.284-16.128-1.318-30-4.082-42.741-10.574a108.8 108.8 0 0 1-47.548-47.548c-6.491-12.741-9.256-26.613-10.574-42.741-1.284-15.725-1.284-35.195-1.284-59.578V332.8l-.001-4.019c-.01-31.866-.017-52.816 6.106-70.315a108.8 108.8 0 0 1 66.761-66.76c17.499-6.124 38.449-6.117 70.315-6.107" clip-rule="evenodd"/><path fill="#000" d="M509.448 243.198a40.963 40.963 0 0 0 40.96 40.96 40.96 40.96 0 1 0-40.96-40.96"/></svg>