<svg xmlns="http://www.w3.org/2000/svg" width="768" height="768" fill="none"><path fill="#000" fill-rule="evenodd" d="m695.905 324.4.098 117.816a834 834 0 0 1-3.22 33.625 41.36 41.36 0 0 1-12.014 24.291 41.36 41.36 0 0 1-24.472 11.642c-59.835 6.699-121.751 6.699-181.586 0a41.36 41.36 0 0 1-24.472-11.642 41.36 41.36 0 0 1-12.014-24.291 791.5 791.5 0 0 1 0-183.928 41.365 41.365 0 0 1 36.486-35.933 824.2 824.2 0 0 1 181.586 0c19.088 2.114 34.307 17.235 36.486 35.933a775 775 0 0 1 3.122 32.519zm-130.401 10.699a48.78 48.78 0 0 0-34.492 14.286 48.783 48.783 0 0 0 0 68.984 48.78 48.78 0 0 0 68.983 0 48.779 48.779 0 0 0-34.491-83.27" clip-rule="evenodd"/><path fill="#000" d="M676.19 190.058c5.041 8.748-4.455 18.536-14.503 17.43a873 873 0 0 0-192.382 0 90.15 90.15 0 0 0-53.478 25.538 90.15 90.15 0 0 0-26.064 53.223 840.5 840.5 0 0 0 0 195.244 90.14 90.14 0 0 0 79.542 78.761 872.8 872.8 0 0 0 192.382 0c10.113-1.138 19.706 8.748 14.601 17.56a161.65 161.65 0 0 1-122.922 79.672l-21.202 2.211a1452.6 1452.6 0 0 1-323.759-2.244l-14.048-1.658A127.835 127.835 0 0 1 82.752 545.751a1224 1224 0 0 1 0-323.759 127.83 127.83 0 0 1 111.605-110.044l14.048-1.659a1452 1452 0 0 1 323.759-2.244l21.202 2.244a161.3 161.3 0 0 1 122.824 79.769"/></svg>