<svg xmlns="http://www.w3.org/2000/svg" width="768" height="768" fill="none"><path fill="#000" fill-rule="evenodd" d="M614.4 96c10.604 0 19.2 8.596 19.2 19.2v70.4H704c10.604 0 19.2 8.596 19.2 19.2S714.604 224 704 224h-70.4v70.4c0 10.604-8.596 19.2-19.2 19.2s-19.2-8.596-19.2-19.2V224h-70.4c-10.604 0-19.2-8.596-19.2-19.2s8.596-19.2 19.2-19.2h70.4v-70.4c0-10.604 8.596-19.2 19.2-19.2m-336.819 89.599 4.019.001h140.8c10.604 0 19.2 8.596 19.2 19.2s-8.596 19.2-19.2 19.2H281.6c-37.356 0-51.138.272-61.652 3.951a70.4 70.4 0 0 0-43.197 43.197c-2.967 8.478-3.718 19.08-3.898 42.452H512c10.604 0 19.2 8.596 19.2 19.2S522.604 352 512 352H172.8v67.84c0 25.407.015 43.308 1.157 57.286 1.124 13.753 3.242 22.009 6.516 28.435a70.4 70.4 0 0 0 30.766 30.766c6.426 3.274 14.682 5.392 28.435 6.516 13.978 1.142 31.879 1.157 57.286 1.157h174.08c25.407 0 43.308-.015 57.286-1.157 13.753-1.124 22.009-3.242 28.435-6.516a70.4 70.4 0 0 0 30.766-30.766c3.274-6.426 5.392-14.682 6.516-28.435 1.142-13.978 1.157-31.879 1.157-57.286V396.8c0-10.604 8.596-19.2 19.2-19.2s19.2 8.596 19.2 19.2v23.875c0 24.383 0 43.853-1.284 59.578-1.318 16.128-4.083 30-10.574 42.741a108.8 108.8 0 0 1-47.548 47.548c-12.741 6.491-26.613 9.256-42.741 10.574-15.725 1.284-35.195 1.284-59.578 1.284h-175.75c-24.383 0-43.853 0-59.578-1.284-16.128-1.318-30-4.083-42.741-10.574a108.8 108.8 0 0 1-47.548-47.548c-6.491-12.741-9.256-26.613-10.574-42.741-1.284-15.726-1.284-35.196-1.284-59.578V332.8l-.001-4.019c-.01-31.866-.017-52.816 6.106-70.315a108.8 108.8 0 0 1 66.761-66.761c17.499-6.123 38.449-6.116 70.315-6.106" clip-rule="evenodd"/></svg>