<svg xmlns="http://www.w3.org/2000/svg" width="128" height="128" fill="none"><g clip-path="url(#a)"><path fill="#009393" d="M64 128c35.346 0 64-28.654 64-64S99.346 0 64 0 0 28.654 0 64s28.654 64 64 64"/><path fill="#fff" fill-rule="evenodd" d="M64.078 68.574c11.007 0 20.205-1.86 22.453-4.347-1.909-2.109-8.813-3.77-17.58-4.224v5.253c-1.57.082-3.202.122-4.874.122s-3.304-.04-4.877-.122v-5.253c-8.765.455-15.672 2.115-17.58 4.224 2.25 2.487 11.45 4.347 22.457 4.347zM83.634 43.85v7.233H68.95V56.1c10.314.536 18.053 2.741 18.11 5.38v5.5c-.057 2.639-7.796 4.839-18.11 5.376v12.31h-9.748v-12.31c-10.314-.536-18.05-2.737-18.108-5.376v-5.5c.058-2.639 7.794-4.844 18.108-5.38v-5.016H44.518V43.85zm-44.89-11.512H90.29c1.232 0 2.366.648 2.98 1.7l15.016 25.786a3.36 3.36 0 0 1-.563 4.109l-41.334 40.349a3.467 3.467 0 0 1-4.832 0L20.274 63.987a3.365 3.365 0 0 1-.512-4.19l16.052-25.839a3.45 3.45 0 0 1 2.932-1.619z" clip-rule="evenodd"/></g><defs><clipPath id="a"><path fill="#fff" d="M0 0h128v128H0z"/></clipPath></defs></svg>