<svg width="480" height="480" fill="none" xmlns="http://www.w3.org/2000/svg"><circle cx="240" cy="240" r="240" fill="url(#a)"/><path d="M442.769 154.651a219.999 219.999 0 1 0-333.444 262.334A220 220 0 0 0 460 240a218.573 218.573 0 0 0-17.231-85.349Zm-18.63 174.801-9.757-25.667 24.008-12.852a202.373 202.373 0 0 1-14.251 38.546v-.027Zm-380.95-38.153 23.714 12.7-9.623 25.346a202.221 202.221 0 0 1-14.092-38.046ZM36.66 240c0-6.653.315-13.226.946-19.719l18.166 20.147-18.095 20.084A212.474 212.474 0 0 1 36.66 240Zm20.45-89.015 9.81 25.935-24.08 12.878a203.025 203.025 0 0 1 14.27-38.813Zm381.432 38.688-24.213-12.994 9.89-26.042a202.874 202.874 0 0 1 14.323 39.036ZM319.838 378.004l-19.086-12.914a136.548 136.548 0 0 0 17.4-10.042l1.686 22.956Zm-51.575 18.149-12.896-18.212a138.414 138.414 0 0 0 19.13-3.362l-6.234 21.574Zm-54.956.66-6.421-22.207a138.43 138.43 0 0 0 20.441 3.478l-14.02 18.729Zm-12.396 11.745-28.646 17.623-10.007-30.733 29.146-19.719 9.507 32.829Zm-39.42-30.911 1.659-22.564a136.62 136.62 0 0 0 17.115 9.864l-18.774 12.7Zm0-274.928 18.363 12.485a139.14 139.14 0 0 0-16.704 9.748l-1.659-22.233Zm51.807-19.282 13.744 18.488a139.068 139.068 0 0 0-20.022 3.407l6.278-21.895Zm54.947.66 6.109 21.279a138.541 138.541 0 0 0-18.729-3.299l12.62-17.98Zm12.102-12.825 28.655-17.747 10.024 31.027-29.145 19.888-9.534-33.168Zm39.42 31.117-1.65 22.501a137.762 137.762 0 0 0-16.945-9.81l18.595-12.691Zm-79.125 261.158c-68.119 0-123.547-55.428-123.547-123.547a123.313 123.313 0 0 1 43.05-93.643c.478-.251.929-.55 1.346-.892a7.2 7.2 0 0 0 1.115-1.16 123.684 123.684 0 0 1 34.497-19.915 7.142 7.142 0 0 0 2.47-.9 123.372 123.372 0 0 1 119.774 21.404 6.75 6.75 0 0 0 .874.74 123.315 123.315 0 0 1 32.432 42.315A123.316 123.316 0 0 1 364.189 240c0 68.119-55.419 123.547-123.547 123.547ZM102.407 251.095l-22.154-10.622 22.038-10.586a140.269 140.269 0 0 0 .071 21.208h.045Zm276.622-21.405 22.047 10.586-22.1 10.596c.273-3.568.413-7.192.419-10.872-.036-3.46-.16-6.912-.419-10.328l.053.018Zm-11.486-45.876 21.823 1.926-15.349 15.911a136.544 136.544 0 0 0-6.474-17.837Zm-27.371-40.392 22.234-5.565-9.115 21.146a140.225 140.225 0 0 0-13.119-15.616v.035Zm-98.727-47.535L220.398 67.58l19.62-26.033 21.235 26.113-19.808 28.227Zm-50.032 8.919-29.155-19.933 10.007-31.01 28.664 17.74-9.516 33.203Zm-63.473 54.348-9.061-21.047 22.073 5.521a140.019 140.019 0 0 0-13.012 15.455v.071Zm-20.717 42.738-15.304-15.973 21.734-1.927a137.85 137.85 0 0 0-6.43 17.828v.072ZM74.751 190.03l23.91 24.838-31.83 15.206-21.788-24.205 29.708-15.839Zm-7.92 60.815 31.794 15.277-23.901 24.838-29.743-15.911 21.85-24.204Zm40.615 27.995a136.918 136.918 0 0 0 6.653 18.131L91.874 295l15.572-16.16Zm34.211 58.371-22.831 5.708 9.328-21.672a141.823 141.823 0 0 0 13.503 15.964Zm99.788 47.374 19.808 27.933-21.244 25.944-19.62-25.864 21.056-28.013Zm48.427-8.499 29.136 19.719-9.979 30.742-28.655-17.623 9.498-32.838Zm63.321-54.919 9.266 21.547-22.662-5.673a140.824 140.824 0 0 0 13.396-15.883v.009Zm20.726-42.452 15.5 16.115-22.117 1.954a137.208 137.208 0 0 0 6.617-18.105v.036Zm32.704 12.031-23.901-24.838 31.794-15.268 21.823 24.195-29.716 15.911Zm7.839-60.886-31.829-15.278 23.901-24.828 29.716 15.901-21.788 24.205Zm-14.358-58.443-34.336-3.032 13.948-32.401 32.356 3.925-11.968 31.508Zm-33.614-50.246-33.435 8.365 2.577-35.174 31.812-6.867-.954 33.676Zm-93.509-63.17-17.534-21.555a202.798 202.798 0 0 1 40.811 7.135L272.981 58Zm-64.65.34-23.598-14.609a202.338 202.338 0 0 1 40.026-7.197l-16.428 21.806Zm-60.057 71.409-33.435-8.365-.999-33.685 31.857 6.876 2.577 35.174Zm-46.661 6.448 13.948 32.392-34.336 3.041-12.013-31.517 32.401-3.916ZM81.101 309.287l34.336 3.041-13.922 32.392-32.356-3.942L81.1 309.287Zm33.685 50.22 33.435-8.375-2.578 35.184-31.856 6.876.999-33.685Zm93.554 62.277 16.41 21.645a203.03 203.03 0 0 1-39.946-7.134l23.536-14.511Zm64.641.339 23.187 14.27a202.697 202.697 0 0 1-40.739 7.134l17.552-21.404Zm60.083-71.196 33.426 8.402.99 33.693-31.856-6.885-2.56-35.21Zm46.715-6.448-13.949-32.4 34.336-3.041 11.96 31.517-32.347 3.924Zm45.742-104.301 18.319-20.316a208.05 208.05 0 0 1 .981 20.102c0 6.915-.339 13.753-1.017 20.513l-18.283-20.299Zm-16.802-115.957-27.068-3.291.821-27.647a204.932 204.932 0 0 1 26.247 30.938Zm-49.702-50.452-25.73 5.566-8.107-25.115a203.72 203.72 0 0 1 33.837 19.55ZM156.194 54.265l-8.161 25.284-25.863-5.583a204.372 204.372 0 0 1 34.024-19.701ZM98.831 93.46l.82 27.647-27.032 3.282a205.737 205.737 0 0 1 26.212-30.929ZM73.323 356.555l26.273 3.184-.793 26.755a205.621 205.621 0 0 1-25.48-29.903v-.036Zm49.845 50.22 25.061-5.414 7.919 24.401a204.719 204.719 0 0 1-32.98-18.987Zm202.056 19.031 8.026-24.623 25.213 5.413a203.83 203.83 0 0 1-33.239 19.166v.044Zm57.318-39.125-.802-27.121 26.639-3.228a205.338 205.338 0 0 1-25.837 30.349Z" fill="#fff"/><defs><linearGradient id="a" x1="240" y1="0" x2="240" y2="480" gradientUnits="userSpaceOnUse"><stop stop-color="#629CE6"/><stop offset=".5" stop-color="#3F79CF"/><stop offset="1" stop-color="#2E74B5"/></linearGradient></defs></svg>