<svg width="40" height="40" fill="none" xmlns="http://www.w3.org/2000/svg"><g clip-path="url(#a)" fill="#fff"><path d="M20 40c11.046 0 20-8.954 20-20S31.046 0 20 0 0 8.954 0 20s8.954 20 20 20Z" fill-opacity=".2"/><path fill-rule="evenodd" clip-rule="evenodd" d="M14.435 13.217h11.217c.397 0 .794.059 1.208.252.497.231.76.596.945.866a2.517 2.517 0 0 1 .37 1.317 2.68 2.68 0 0 1-.336 1.307l-7.087 12.174a.87.87 0 0 1-1.506-.005L12.288 16.98l-.006-.01c-.16-.262-.406-.668-.449-1.192a2.373 2.373 0 0 1 1.355-2.34c.47-.219.946-.22 1.246-.22Zm4.696 1.74h-4.696c-.309 0-.427.018-.51.057a.623.623 0 0 0-.358.622c.006.074.037.158.214.451a.904.904 0 0 1 .011.019l5.339 9.321v-10.47Zm1.739 0v10.516l5.461-9.382a.949.949 0 0 0 .104-.439.772.772 0 0 0-.09-.37 1.4 1.4 0 0 0-.138-.178.255.255 0 0 0-.082-.059 1.04 1.04 0 0 0-.473-.089H20.87Z"/></g><defs><clipPath id="a"><path fill="#fff" d="M0 0h40v40H0z"/></clipPath></defs></svg>