<svg width="100" height="100" viewBox="0 0 100 100" fill="none" xmlns="http://www.w3.org/2000/svg">
<g clip-path="url(#clip0_2011_144)">
<rect width="100" height="100" rx="50" fill="#0098EA"/>
<path fill-rule="evenodd" clip-rule="evenodd" d="M68.3599 27.4335C69.6469 27.4335 70.9339 27.6243 72.2818 28.2494C73.8977 29.0045 74.7503 30.1899 75.3511 31.0668C76.137 32.354 76.5515 33.8334 76.5488 35.3415C76.5544 36.8266 76.1798 38.2884 75.4608 39.5878L52.4409 79.1239C51.9346 79.9976 51 80.5341 49.9901 80.5308C48.9803 80.5274 48.0492 79.9847 47.5487 79.1076L24.9552 39.6528L24.9349 39.6203C24.4193 38.7678 23.6194 37.4525 23.4773 35.7515C23.2158 32.5485 24.9699 29.5196 27.8783 28.152C29.4049 27.4416 30.9517 27.4335 31.9261 27.4335H68.3599ZM47.1752 33.0841H31.9261C30.9233 33.0841 30.5376 33.145 30.2697 33.2709C29.4945 33.6298 29.0294 34.438 29.1085 35.2885C29.1288 35.532 29.2263 35.804 29.8028 36.754L29.8393 36.8149L47.1752 67.087V33.0841ZM52.8266 67.2377L70.5685 36.7667C70.7922 36.3253 70.9064 35.8365 70.9015 35.3418C70.9015 34.9074 70.8121 34.5298 70.6091 34.1401C70.476 33.9363 70.3266 33.7436 70.1625 33.5637C70.0872 33.4814 69.9961 33.4151 69.8946 33.3688C69.4122 33.1557 68.8867 33.0584 68.3599 33.0846H52.8266V67.2377Z" fill="white"/>
</g>
<defs>
<clipPath id="clip0_2011_144">
<rect width="100" height="100" fill="white"/>
</clipPath>
</defs>
</svg>
