<svg width="100" height="100" viewBox="0 0 100 100" fill="none" xmlns="http://www.w3.org/2000/svg">
<g clip-path="url(#clip0_8_8)">
<path d="M50 100C77.6142 100 100 77.6142 100 50C100 22.3858 77.6142 0 50 0C22.3858 0 0 22.3858 0 50C0 77.6142 22.3858 100 50 100Z" fill="#009393"/>
<path fill-rule="evenodd" clip-rule="evenodd" d="M50.0613 53.5738C58.66 53.5738 65.8463 52.12 67.6025 50.1775C66.1113 48.53 60.7175 47.2325 53.8675 46.8775V50.9813C52.6413 51.045 51.3663 51.0763 50.06 51.0763C48.7538 51.0763 47.4788 51.045 46.25 50.9813V46.8775C39.4025 47.2325 34.0063 48.53 32.515 50.1775C34.2738 52.12 41.4613 53.5738 50.06 53.5738H50.0613ZM65.3388 34.2575V39.9088H53.8675V43.8275C61.925 44.2463 67.9713 45.9688 68.0163 48.03V52.3275C67.9713 54.3888 61.925 56.1075 53.8675 56.5275V66.145H46.2513V56.5275C38.1938 56.1088 32.15 54.3888 32.105 52.3275V48.03C32.15 45.9688 38.1938 44.2463 46.2513 43.8275V39.9088H34.78V34.2575H65.34H65.3388ZM30.2688 25.2638H70.5388C71.5013 25.2638 72.3875 25.77 72.8675 26.5925L84.5988 46.7375C85.2063 47.7825 85.0263 49.1013 84.1588 49.9475L51.8663 81.4701C50.8188 82.4913 49.1363 82.4913 48.0913 81.4701L15.8388 49.99C14.9525 49.1225 14.785 47.7663 15.4388 46.7163L27.98 26.53C28.4688 25.745 29.3363 25.265 30.27 25.265L30.2688 25.2638Z" fill="white"/>
</g>
<defs>
<clipPath id="clip0_8_8">
<rect width="100" height="100" fill="white"/>
</clipPath>
</defs>
</svg>
