<svg width="100" height="100" viewBox="0 0 100 100" fill="none" xmlns="http://www.w3.org/2000/svg">
<g clip-path="url(#clip0_2011_225)">
<path d="M0 0H100V100H0V0Z" fill="url(#paint0_linear_2011_225)"/>
<path d="M89.7998 33.2475C85.6453 23.377 77.9713 15.4025 68.2676 10.872C58.5639 6.34159 47.523 5.57852 37.2884 8.73097C27.0537 11.8834 18.3556 18.7264 12.8828 27.9315C7.40987 37.1366 5.55272 48.0469 7.67185 58.5443C9.79098 69.0417 15.7352 78.3771 24.3504 84.7382C32.9657 91.0993 43.6373 94.0321 54.2934 92.9673C64.9494 91.9025 74.8297 86.916 82.0159 78.976C89.2021 71.036 93.1816 60.7089 93.1816 49.9997C93.1892 44.2454 92.0392 38.5483 89.7998 33.2475ZM86.1407 67.5566L84.2271 62.5202L88.9407 59.9975C88.2672 62.6078 87.3298 65.1428 86.143 67.5634L86.1407 67.5566ZM11.368 60.0679L16.0248 62.5611L14.1362 67.5384C12.966 65.1473 12.0371 62.6445 11.368 60.0679ZM10.0907 49.9997C10.0907 48.6929 10.1521 47.4043 10.2748 46.1293L13.843 50.0838L10.2907 54.027C10.1584 52.6886 10.0932 51.3446 10.0907 49.9997ZM14.1043 32.527L16.0293 37.6179L11.3021 40.1452C11.9744 37.517 12.9133 34.9644 14.1043 32.527ZM88.9725 40.1225L84.2203 37.5702L86.1612 32.4588C87.3585 34.9103 88.3006 37.4783 88.9725 40.1225ZM65.6703 77.0884L61.9248 74.552C63.1103 73.98 64.252 73.3214 65.3407 72.5816L65.6703 77.0884ZM55.5475 80.6497L53.0157 77.0747C54.2811 76.9432 55.5357 76.723 56.7703 76.4157L55.5475 80.6497ZM44.7612 80.7793L43.4998 76.4202C44.818 76.7475 46.1589 76.977 47.5112 77.102L44.7612 80.7793ZM42.3293 83.0838L36.7043 86.5452L34.7407 80.5134L40.4612 76.6429L42.3271 83.0861L42.3293 83.0838ZM34.5907 77.0157L34.9157 72.5884C35.9884 73.3157 37.1089 73.9611 38.2748 74.5247L34.5907 77.0157ZM34.5907 23.0543L38.1953 25.5043C37.0589 26.0657 35.9634 26.7043 34.9157 27.4179L34.5907 23.0543ZM44.7589 19.2702L47.4566 22.8975C46.1316 23.0247 44.8203 23.2497 43.5248 23.5679L44.7589 19.2702ZM55.543 19.3997L56.743 23.5747C55.5342 23.275 54.3064 23.0586 53.068 22.927L55.5453 19.3997H55.543ZM57.9203 16.8816L63.543 13.3975L65.5112 19.4884L59.7907 23.3929L57.9203 16.8816ZM65.6566 22.9884L65.3316 27.4066C64.2703 26.6861 63.1589 26.0429 62.0066 25.4793L65.6566 22.9884ZM50.1248 74.2497C36.7543 74.2497 25.8748 63.3702 25.8748 49.9997C25.874 46.508 26.6289 43.0574 28.0875 39.8848C29.546 36.7122 31.6738 33.8929 34.3248 31.6202C34.5122 31.5199 34.6769 31.3822 34.8089 31.2157C36.8407 29.5566 39.1271 28.2384 41.5816 27.3066C41.7525 27.2792 41.9168 27.2198 42.0657 27.1316C46.0132 25.7403 50.2538 25.3959 54.374 26.132C58.4942 26.8681 62.3533 28.6595 65.5748 31.3316C65.6275 31.3847 65.6845 31.4333 65.7453 31.477C68.4473 33.7484 70.6198 36.5834 72.1105 39.7831C73.6013 42.9828 74.3741 46.4698 74.3748 49.9997C74.3748 63.3702 63.4975 74.2497 50.1248 74.2497ZM22.993 52.177L18.6453 50.0929L22.9703 48.0157C22.8694 49.4011 22.874 50.7922 22.9839 52.177H22.993ZM77.2884 47.977L81.6157 50.0543L77.2771 52.1338C77.3316 51.4338 77.3589 50.7225 77.3612 49.9997C77.3551 49.3233 77.3271 48.6471 77.2771 47.9725L77.2884 47.977ZM75.0339 38.9725L79.318 39.3497L76.3044 42.4725C75.9634 41.277 75.5384 40.1088 75.0339 38.9725ZM69.6612 31.0429L74.0248 29.952L72.2362 34.102C71.4534 33.0189 70.5928 31.9942 69.6612 31.0361V31.0429ZM50.2839 21.7134L46.1521 16.1566L50.0043 11.0475L54.1725 16.1725L50.2839 21.7134ZM40.4634 23.4634L34.7407 19.552L36.7043 13.4657L42.3316 16.9475L40.4634 23.4634ZM28.0043 34.1316L26.2271 29.9997L30.5589 31.0838C29.6362 32.0316 28.7816 33.0452 28.0043 34.1179V34.1316ZM23.9362 42.5179L20.9362 39.3838L25.1998 39.0066C24.6998 40.1429 24.2793 41.3111 23.9384 42.5066V42.5202L23.9362 42.5179ZM17.5634 40.1907L22.2566 45.0657L16.0112 48.052L11.7339 43.302L17.5634 40.1907ZM16.0112 52.1293L22.2498 55.127L17.5589 60.002L11.7203 56.8793L16.0112 52.1293ZM23.9816 57.6225C24.3339 58.8384 24.7703 60.027 25.2884 61.1816L20.9248 60.7952L23.9816 57.6225ZM30.6975 69.0793L26.2157 70.1997L28.0475 65.9475C28.8521 67.0543 29.7384 68.102 30.6975 69.0793ZM50.2839 78.3793L54.1703 83.8611L50.0021 88.952L46.1498 83.877L50.2839 78.3793ZM59.7884 76.7111L65.5089 80.5816L63.5498 86.6157L57.9248 83.1566L59.7884 76.7111ZM72.218 65.9316L74.0362 70.1588L69.5884 69.0452C70.5407 68.0747 71.418 67.0316 72.218 65.9316ZM76.2862 57.5997L79.3271 60.7611L74.9862 61.1452C75.5021 59.9929 75.9362 58.8043 76.2862 57.5907V57.5997ZM82.7044 59.9611L78.0134 55.0861L84.2544 52.0861L88.5384 56.8361L82.7044 59.9611ZM84.243 48.0088L77.9953 45.0088L82.6884 40.1384L88.5203 43.2588L84.243 48.0088ZM81.4248 36.5384L74.6862 35.9429L77.4225 29.5838L83.7748 30.3543L81.4248 36.5384ZM74.8271 26.6747L68.2657 28.3179L68.7703 21.4134L75.0157 20.0657L74.8271 26.6747ZM56.4725 14.277L53.0316 10.0452C55.743 10.2384 58.4271 10.7066 61.043 11.4475L56.4748 14.277H56.4725ZM43.7839 14.3452L39.1521 11.477C41.7169 10.7431 44.3491 10.2695 47.0089 10.0634L43.7816 14.3429L43.7839 14.3452ZM31.9953 28.3588L25.4339 26.7179L25.2362 20.1043L31.4907 21.4566L31.9953 28.3588ZM22.8362 29.6247L25.5748 35.9838L18.8362 36.5793L16.4771 30.3952L22.8362 29.6247ZM18.8112 63.5997L25.5498 64.1952L22.818 70.5543L16.468 69.7816L18.8089 63.5997H18.8112ZM25.4225 73.4566L31.9862 71.8134L31.4793 78.7179L25.2271 80.0679L25.4225 73.4566ZM43.7862 85.6816L47.0066 89.9293C44.3528 89.7256 41.726 89.2566 39.1657 88.5293L43.7862 85.6816ZM56.4725 85.7475L61.0248 88.5475C58.4143 89.2855 55.7353 89.7546 53.0293 89.9475L56.4725 85.7475ZM68.268 71.7725L74.8271 73.4225L75.0225 80.0361L68.768 78.6838L68.268 71.7725ZM77.4362 70.5066L74.6975 64.1475L81.4384 63.5497L83.7839 69.7361L77.4362 70.5066ZM86.4134 50.0338L90.0089 46.0475C90.2663 48.6982 90.2641 51.3677 90.0021 54.0179L86.4134 50.0338ZM83.118 27.2747L77.8021 26.6293L77.9634 21.202C79.8774 23.0509 81.6056 25.0851 83.118 27.2747ZM73.3612 17.3725L68.3112 18.4634L66.7203 13.5338C69.0518 14.5976 71.2757 15.883 73.3612 17.3725ZM33.5498 13.5429L31.9475 18.5066L26.8725 17.4111C28.968 15.9111 31.2043 14.6157 33.5498 13.5429ZM22.2907 21.2361L22.4498 26.6634L17.1453 27.3088C18.6563 25.1201 20.3798 23.086 22.2907 21.2361ZM17.2839 72.877L22.443 73.502L22.2839 78.752C20.4338 76.96 18.7595 74.995 17.2839 72.8838V72.877ZM27.068 82.7338L31.9862 81.6725L33.5407 86.4611C31.2721 85.4223 29.1052 84.1745 27.068 82.7338ZM66.7271 86.4702L68.3044 81.6361L73.2521 82.6997C71.2009 84.1558 69.017 85.4151 66.7293 86.4611L66.7271 86.4702ZM77.9771 78.7884L77.8203 73.4679L83.0475 72.8316C81.5554 74.9776 79.858 76.9733 77.9794 78.7907L77.9771 78.7884Z" fill="white"/>
</g>
<defs>
<linearGradient id="paint0_linear_2011_225" x1="50" y1="0" x2="50" y2="100" gradientUnits="userSpaceOnUse">
<stop stop-color="#629CE6"/>
<stop offset="0.505" stop-color="#3F79CF"/>
<stop offset="1" stop-color="#2E74B5"/>
</linearGradient>
<clipPath id="clip0_2011_225">
<rect width="100" height="100" rx="50" fill="white"/>
</clipPath>
</defs>
</svg>
