<svg width="22" height="22" viewBox="0 0 22 22" fill="none" xmlns="http://www.w3.org/2000/svg">
<path d="M11 0C17.0751 0 22 4.92487 22 11C22 17.0751 17.0751 22 11 22C4.92487 22 0 17.0751 0 11C0 4.92487 4.92487 0 11 0ZM11.9297 5.42676C11.7184 5.42676 11.543 5.50065 11.4033 5.64746C11.2674 5.79062 11.1993 5.96403 11.1992 6.16797V8.09082H11.0654C10.1344 8.09082 9.3265 8.23633 8.64258 8.52637C7.96243 8.81276 7.39869 9.2297 6.95117 9.77734C6.5072 10.3252 6.17546 10.9877 5.95703 11.7646C5.73862 12.538 5.6299 13.4119 5.62988 14.3857C5.62988 14.7187 5.69212 14.9694 5.81738 15.1377C5.94629 15.3096 6.10384 15.3955 6.29004 15.3955C6.42964 15.3955 6.56221 15.3655 6.6875 15.3047C6.81641 15.2438 6.93327 15.1162 7.03711 14.9229C7.31994 14.3931 7.6495 13.9703 8.02539 13.6553C8.40128 13.3403 8.83839 13.1132 9.33594 12.9736C9.83357 12.8341 10.4103 12.7637 11.0654 12.7637H11.1992V14.7031C11.1993 14.907 11.2674 15.0769 11.4033 15.2129C11.543 15.349 11.7171 15.417 11.9248 15.417C12.0643 15.4169 12.1971 15.387 12.3223 15.3262C12.4511 15.2689 12.5851 15.1734 12.7246 15.041L16.9785 11.0449C17.0823 10.9483 17.1563 10.8444 17.1992 10.7334C17.2457 10.6225 17.2686 10.5185 17.2686 10.4219C17.2685 10.3217 17.2457 10.2177 17.1992 10.1104C17.1562 9.99935 17.0824 9.89551 16.9785 9.79883L12.7246 5.83496C12.5707 5.6882 12.4345 5.5843 12.3164 5.52344C12.2018 5.45902 12.0729 5.42676 11.9297 5.42676Z" fill="#007AFF"/>
</svg>
