<svg width="40" height="40" viewBox="0 0 40 40" fill="none" xmlns="http://www.w3.org/2000/svg">
<path d="M20 31.3838C18.4603 31.3838 17.0173 31.0938 15.6709 30.5137C14.3245 29.9336 13.1429 29.1315 12.126 28.1074C11.109 27.0905 10.3105 25.9124 9.73047 24.5732C9.15039 23.2269 8.86035 21.7839 8.86035 20.2441C8.86035 18.8978 9.08594 17.623 9.53711 16.4199C9.98828 15.2096 10.6149 14.1211 11.417 13.1543C12.2262 12.1803 13.168 11.3675 14.2422 10.7158C15.3236 10.057 16.4945 9.59863 17.7549 9.34082V7.93359C17.7549 7.66146 17.8122 7.45736 17.9268 7.32129C18.0485 7.18522 18.2025 7.12077 18.3887 7.12793C18.582 7.13509 18.7826 7.21029 18.9902 7.35352L22.4707 9.87793C22.707 10.0498 22.8216 10.2575 22.8145 10.501C22.8145 10.7373 22.6999 10.9414 22.4707 11.1133L18.9795 13.627C18.7718 13.7702 18.5749 13.8454 18.3887 13.8525C18.2025 13.8525 18.0485 13.7881 17.9268 13.6592C17.8122 13.5231 17.7549 13.3226 17.7549 13.0576V11.6934C16.8096 11.944 15.9359 12.3343 15.1338 12.8643C14.3317 13.3942 13.6335 14.0352 13.0391 14.7871C12.4447 15.5391 11.9792 16.3805 11.6426 17.3115C11.3132 18.2354 11.1484 19.2129 11.1484 20.2441C11.1484 21.4616 11.3776 22.6074 11.8359 23.6816C12.2943 24.7487 12.9281 25.6904 13.7373 26.5068C14.5537 27.3161 15.4954 27.9463 16.5625 28.3975C17.6296 28.8558 18.7754 29.085 20 29.085C21.2174 29.085 22.3597 28.8558 23.4268 28.3975C24.501 27.9463 25.4427 27.3161 26.252 26.5068C27.0612 25.6904 27.695 24.7487 28.1533 23.6816C28.6117 22.6074 28.8408 21.4616 28.8408 20.2441C28.8408 19.2988 28.7012 18.4001 28.4219 17.5479C28.1426 16.6956 27.7487 15.9115 27.2402 15.1953C26.7318 14.4792 26.1338 13.8525 25.4463 13.3154C25.1813 13.0863 25.0166 12.8213 24.9521 12.5205C24.8877 12.2197 24.9557 11.9297 25.1562 11.6504C25.3496 11.3997 25.611 11.2565 25.9404 11.2207C26.2699 11.1777 26.5814 11.2852 26.875 11.543C27.7487 12.2305 28.5042 13.029 29.1416 13.9385C29.779 14.848 30.2695 15.8363 30.6133 16.9033C30.9642 17.9704 31.1396 19.084 31.1396 20.2441C31.1396 21.7839 30.8496 23.2269 30.2695 24.5732C29.6895 25.9124 28.891 27.0905 27.874 28.1074C26.8571 29.1315 25.6755 29.9336 24.3291 30.5137C22.9827 31.0938 21.5397 31.3838 20 31.3838Z" fill="white"/>
<path d="M17.1133 20.5391C16.5638 20.5391 16.1237 20.3581 15.793 19.9961C15.4648 19.6341 15.3008 19.1315 15.3008 18.4883C15.3008 17.8398 15.4661 17.3398 15.7969 16.9883C16.1276 16.6367 16.5664 16.4609 17.1133 16.4609C17.6602 16.4609 18.099 16.6367 18.4297 16.9883C18.7604 17.3372 18.9258 17.8359 18.9258 18.4844C18.9258 19.125 18.7617 19.6276 18.4336 19.9922C18.1055 20.3568 17.6654 20.5391 17.1133 20.5391ZM17.1133 19.4961C17.2669 19.4961 17.3802 19.4141 17.4531 19.25C17.5286 19.0859 17.5664 18.832 17.5664 18.4883C17.5664 18.1523 17.5286 17.9036 17.4531 17.7422C17.3802 17.5807 17.2669 17.5 17.1133 17.5C16.9596 17.5 16.8451 17.5807 16.7695 17.7422C16.6966 17.9036 16.6602 18.1523 16.6602 18.4883C16.6602 18.832 16.6966 19.0859 16.7695 19.25C16.8451 19.4141 16.9596 19.4961 17.1133 19.4961ZM22.8867 23.8984C22.3372 23.8984 21.8971 23.7174 21.5664 23.3555C21.2383 22.9961 21.0742 22.4948 21.0742 21.8516C21.0742 21.2005 21.2396 20.6992 21.5703 20.3477C21.901 19.9961 22.3398 19.8203 22.8867 19.8203C23.4336 19.8203 23.8724 19.9961 24.2031 20.3477C24.5339 20.6992 24.6992 21.1992 24.6992 21.8477C24.6992 22.4883 24.5352 22.9896 24.207 23.3516C23.8789 23.7161 23.4388 23.8984 22.8867 23.8984ZM22.8867 22.8594C23.0404 22.8594 23.1536 22.7773 23.2266 22.6133C23.3021 22.4466 23.3398 22.1927 23.3398 21.8516C23.3398 21.513 23.3021 21.2643 23.2266 21.1055C23.1536 20.944 23.0404 20.8633 22.8867 20.8633C22.7331 20.8633 22.6185 20.944 22.543 21.1055C22.4701 21.2643 22.4336 21.513 22.4336 21.8516C22.4336 22.1927 22.4701 22.4466 22.543 22.6133C22.6185 22.7773 22.7331 22.8594 22.8867 22.8594ZM17.6094 23.8242C17.4479 23.7305 17.3529 23.5977 17.3242 23.4258C17.2982 23.2565 17.3385 23.0911 17.4453 22.9297L21.543 16.7383C21.6445 16.5872 21.7747 16.4909 21.9336 16.4492C22.0951 16.4076 22.25 16.4284 22.3984 16.5117C22.5599 16.6029 22.6562 16.7357 22.6875 16.9102C22.7214 17.0846 22.6862 17.2526 22.582 17.4141L18.4844 23.6289C18.388 23.7747 18.2539 23.8646 18.082 23.8984C17.9128 23.9349 17.7552 23.9102 17.6094 23.8242Z" fill="white"/>
</svg>
