<svg width="40" height="40" viewBox="0 0 40 40" fill="none" xmlns="http://www.w3.org/2000/svg">
<path d="M9.47313 25.0859C8.84031 25.0859 8.34813 24.5938 8.34813 23.9609C8.34813 23.3359 8.84031 22.8359 9.47313 22.8359C10.0981 22.8359 10.5903 23.3359 10.5903 23.9609C10.5903 24.5938 10.0981 25.0859 9.47313 25.0859ZM11.8009 22.9531V18.2188H11.2775C10.7931 18.2188 10.4963 17.9297 10.4963 17.4609C10.4963 17 10.7931 16.7188 11.2775 16.7188H11.8009V15.6172C11.8009 14.9922 12.1759 14.6016 12.7775 14.6016C13.3713 14.6016 13.7463 14.9922 13.7463 15.6172V16.7188H14.6447C15.1291 16.7188 15.4259 17 15.4259 17.4609C15.4259 17.9297 15.1291 18.2188 14.6447 18.2188H13.7463V22.5312C13.7463 23.1562 13.965 23.4297 14.5275 23.4766L14.6681 23.4922C15.1838 23.5391 15.4494 23.7578 15.4494 24.2109C15.4494 24.7812 14.9494 25.0859 14.0588 25.0859H13.9806C12.5353 25.0859 11.8009 24.3672 11.8009 22.9531ZM19.7147 25.1641C17.285 25.1641 15.7069 23.5469 15.7069 20.8594C15.7069 18.1875 17.3006 16.5469 19.7147 16.5469C22.1287 16.5469 23.7225 18.1797 23.7225 20.8594C23.7225 23.5469 22.1444 25.1641 19.7147 25.1641ZM19.7147 23.625C20.9491 23.625 21.7459 22.625 21.7459 20.8594C21.7459 19.1016 20.9491 18.0938 19.7147 18.0938C18.4881 18.0938 17.6834 19.1016 17.6834 20.8594C17.6834 22.625 18.4803 23.625 19.7147 23.625ZM25.5112 25.1562C24.9409 25.1562 24.5425 24.7891 24.5425 24.1328V17.5391C24.5425 16.9375 24.8941 16.5547 25.4722 16.5547C26.0425 16.5547 26.4331 16.9375 26.4331 17.5391V18.1172H26.4722C26.9175 17.1328 27.7769 16.5625 29.0503 16.5625C30.8784 16.5625 31.9175 17.7344 31.9175 19.6484V24.1328C31.9175 24.7891 31.5191 25.1562 30.9487 25.1562C30.3784 25.1562 29.9722 24.7891 29.9722 24.1328V20.0391C29.9722 18.8672 29.4253 18.2109 28.3159 18.2109C27.1987 18.2109 26.4878 19.0156 26.4878 20.2031V24.1328C26.4878 24.7891 26.0816 25.1562 25.5112 25.1562Z" fill="white"/>
</svg>
