<svg width="40" height="40" viewBox="0 0 40 40" fill="none" xmlns="http://www.w3.org/2000/svg">
<path d="M7.20312 14.6328C7.20312 14.3203 7.3125 14.0547 7.53125 13.8359C7.75 13.6172 8.01953 13.5078 8.33984 13.5078H8.42188C8.95312 13.5078 9.41406 13.4102 9.80469 13.2148C10.1953 13.0117 10.6367 12.7383 11.1289 12.3945C11.5195 12.1055 11.9766 11.8164 12.5 11.5273C13.0234 11.2383 13.6406 11.0938 14.3516 11.0938C15.0703 11.0938 15.6953 11.2461 16.2266 11.5508C16.7656 11.8477 17.2266 12.1406 17.6094 12.4297C18.0234 12.7422 18.4023 13 18.7461 13.2031C19.0977 13.4062 19.5156 13.5078 20 13.5078C20.4844 13.5078 20.8984 13.4062 21.2422 13.2031C21.5938 13 21.9766 12.7422 22.3906 12.4297C22.7812 12.1406 23.2422 11.8477 23.7734 11.5508C24.3047 11.2461 24.9297 11.0938 25.6484 11.0938C26.3594 11.0938 26.9766 11.2383 27.5 11.5273C28.0312 11.8164 28.4922 12.1055 28.8828 12.3945C29.3594 12.7383 29.793 13.0117 30.1836 13.2148C30.582 13.4102 31.0469 13.5078 31.5781 13.5078H31.6602C31.9805 13.5078 32.25 13.6172 32.4688 13.8359C32.6875 14.0547 32.7969 14.3203 32.7969 14.6328C32.7969 14.9531 32.6875 15.2227 32.4688 15.4414C32.25 15.6602 31.9805 15.7695 31.6602 15.7695H31.5781C30.8047 15.7695 30.1602 15.6875 29.6445 15.5234C29.1289 15.3594 28.6914 15.1562 28.332 14.9141C27.9805 14.6719 27.668 14.4336 27.3945 14.1992C27.1289 13.957 26.8594 13.7578 26.5859 13.6016C26.3125 13.4375 26 13.3555 25.6484 13.3555C25.2969 13.3555 24.9844 13.4375 24.7109 13.6016C24.4375 13.7578 24.1641 13.957 23.8906 14.1992C23.6172 14.4336 23.3086 14.6719 22.9648 14.9141C22.6289 15.1562 22.2227 15.3594 21.7461 15.5234C21.2695 15.6875 20.6875 15.7695 20 15.7695C19.3125 15.7695 18.7305 15.6875 18.2539 15.5234C17.7773 15.3594 17.3672 15.1562 17.0234 14.9141C16.6875 14.6719 16.3828 14.4336 16.1094 14.1992C15.8438 13.957 15.5703 13.7578 15.2891 13.6016C15.0156 13.4375 14.7031 13.3555 14.3516 13.3555C13.9922 13.3555 13.6758 13.4375 13.4023 13.6016C13.1367 13.7578 12.8672 13.957 12.5938 14.1992C12.3281 14.4336 12.0195 14.6719 11.668 14.9141C11.3164 15.1562 10.8789 15.3594 10.3555 15.5234C9.83203 15.6875 9.1875 15.7695 8.42188 15.7695H8.33984C8.01953 15.7695 7.75 15.6602 7.53125 15.4414C7.3125 15.2227 7.20312 14.9531 7.20312 14.6328ZM14.3516 18.1836C14.7891 18.1836 15.1836 18.2461 15.5352 18.3711C15.8945 18.4961 16.2266 18.6406 16.5312 18.8047L15.0781 20.6328C14.9688 20.5859 14.8555 20.543 14.7383 20.5039C14.6211 20.4648 14.4922 20.4453 14.3516 20.4453C13.9922 20.4453 13.6758 20.5273 13.4023 20.6914C13.1367 20.8555 12.8672 21.0586 12.5938 21.3008C12.3281 21.543 12.0195 21.7852 11.668 22.0273C11.3164 22.2617 10.8789 22.4609 10.3555 22.625C9.83203 22.7812 9.1875 22.8594 8.42188 22.8594H8.33984C8.01953 22.8594 7.75 22.75 7.53125 22.5312C7.3125 22.3125 7.20312 22.0469 7.20312 21.7344C7.20312 21.4219 7.3125 21.1562 7.53125 20.9375C7.75 20.7188 8.01953 20.6094 8.33984 20.6094H8.42188C8.95312 20.6094 9.41406 20.5117 9.80469 20.3164C10.1953 20.1133 10.6367 19.8398 11.1289 19.4961C11.5195 19.2148 11.9766 18.9258 12.5 18.6289C13.0234 18.332 13.6406 18.1836 14.3516 18.1836ZM31.6602 20.6094C31.9805 20.6094 32.25 20.7188 32.4688 20.9375C32.6875 21.1562 32.7969 21.4219 32.7969 21.7344C32.7969 22.0469 32.6875 22.3125 32.4688 22.5312C32.25 22.75 31.9805 22.8594 31.6602 22.8594H31.5781C30.8047 22.8594 30.1602 22.7812 29.6445 22.625C29.1289 22.4609 28.6914 22.2617 28.332 22.0273C27.9805 21.7852 27.668 21.543 27.3945 21.3008C27.1289 21.0586 26.8594 20.8555 26.5859 20.6914C26.3125 20.5273 26 20.4453 25.6484 20.4453C25.5 20.4453 25.3633 20.4648 25.2383 20.5039C25.1133 20.543 24.9922 20.5898 24.875 20.6445L23.4453 18.8398C23.75 18.6602 24.0859 18.5078 24.4531 18.3828C24.8203 18.25 25.2188 18.1836 25.6484 18.1836C26.3594 18.1836 26.9766 18.332 27.5 18.6289C28.0312 18.9258 28.4922 19.2148 28.8828 19.4961C29.3594 19.8398 29.793 20.1133 30.1836 20.3164C30.582 20.5117 31.0469 20.6094 31.5781 20.6094H31.6602ZM16.6016 24.1484C16.3047 24.1484 16.0703 24.0703 15.8984 23.9141C15.7266 23.75 15.6367 23.5469 15.6289 23.3047C15.6211 23.0625 15.7109 22.8242 15.8984 22.5898L19.1445 18.4531C19.3945 18.1406 19.6719 17.9844 19.9766 17.9844C20.2891 17.9766 20.5703 18.1328 20.8203 18.4531L24.0547 22.5898C24.2422 22.832 24.3281 23.0742 24.3125 23.3164C24.3047 23.5508 24.2148 23.75 24.043 23.9141C23.8711 24.0703 23.6406 24.1484 23.3516 24.1484H16.6016ZM18.7109 22.9648H21.2773V30.3008C21.2773 30.6445 21.1523 30.9414 20.9023 31.1914C20.6523 31.4414 20.3516 31.5664 20 31.5664C19.6406 31.5664 19.3359 31.4414 19.0859 31.1914C18.8359 30.9414 18.7109 30.6445 18.7109 30.3008V22.9648Z" fill="white"/>
</svg>
