<svg xmlns="http://www.w3.org/2000/svg" width="128" height="128" fill="none"><g fill-rule="evenodd" clip-path="url(#a)" clip-rule="evenodd"><path fill="#F90" d="M126.084 79.492c-8.549 34.289-43.278 55.158-77.572 46.607C14.232 117.55-6.636 82.818 1.917 48.53 10.462 14.237 45.192-6.634 79.475 1.915c34.292 8.55 55.158 43.285 46.609 77.577"/><path fill="#fff" d="M92.222 54.89c1.274-8.517-5.211-13.095-14.078-16.15l2.876-11.537-7.022-1.75-2.8 11.233a296 296 0 0 0-5.627-1.324l2.82-11.307-7.019-1.75-2.878 11.533a235 235 0 0 1-4.485-1.054l.008-.036-9.685-2.418-1.868 7.5s5.21 1.195 5.1 1.269c2.845.71 3.36 2.592 3.273 4.084l-3.276 13.143c.196.05.45.122.73.234-.234-.058-.484-.122-.742-.184l-4.593 18.412c-.348.864-1.23 2.16-3.218 1.669.07.102-5.105-1.275-5.105-1.275l-3.486 8.04 9.139 2.277c1.7.427 3.366.873 5.006 1.293L42.387 98.46l7.015 1.75 2.878-11.545c1.916.52 3.777 1 5.597 1.452l-2.868 11.491 7.022 1.75 2.907-11.647c11.975 2.266 20.98 1.352 24.77-9.479 3.055-8.72-.152-13.751-6.453-17.032 4.589-1.058 8.045-4.076 8.968-10.31m-37.66 25.325c4.76 1.182 19.444 5.897 21.614-2.824 2.268-9.095-12.998-11.448-17.758-12.636zm5.62-22.537c3.965.989 16.186 5.019 18.166-2.914 2.062-8.275-10.705-10.119-14.67-11.107z"/></g><defs><clipPath id="a"><path fill="#fff" d="M0 0h128v128H0z"/></clipPath></defs></svg>