<svg xmlns="http://www.w3.org/2000/svg" width="128" height="128" fill="none"><g clip-path="url(#a)"><path fill="#000" fill-rule="evenodd" d="M126.084 79.492c-8.549 34.289-43.278 55.158-77.572 46.607C14.232 117.55-6.636 82.818 1.917 48.53 10.462 14.237 45.192-6.634 79.475 1.915c34.292 8.55 55.158 43.285 46.609 77.577" clip-rule="evenodd"/><path fill="#fff" d="M64 20 43.42 48.336 34.8 90.224 64 108l29.2-17.776-8.794-42.064zM39.55 88.288l6.509-31.856 14.776 44.88zm8.62-39.072L64 27.392l15.832 21.824-15.831 47.872zm18.821 52.096 14.776-44.88 6.508 31.856z"/></g><defs><clipPath id="a"><path fill="#fff" d="M0 0h128v128H0z"/></clipPath></defs></svg>