<svg xmlns="http://www.w3.org/2000/svg" width="128" height="128" fill="none"><g clip-path="url(#a)"><path fill="#fff" fill-rule="evenodd" d="M126.084 79.492c-8.549 34.289-43.278 55.158-77.572 46.607C14.232 117.55-6.636 82.818 1.917 48.53 10.462 14.237 45.192-6.634 79.475 1.915c34.292 8.55 55.158 43.285 46.609 77.577" clip-rule="evenodd"/><path fill="#F26822" d="M63.993 0C28.66 0-.037 28.693.008 63.992c.009 7.062 1.135 13.855 3.249 20.21h19.145V30.369l41.59 41.59 41.589-41.59v53.834h19.15c2.117-6.354 3.237-13.148 3.25-20.21C128.041 28.657 99.328.009 63.993.009z"/><path fill="#4D4D4D" d="m54.428 81.519-18.15-18.152v33.875H22.4l-13.095.002c11.232 18.428 31.53 30.754 54.686 30.754s43.456-12.329 54.69-30.757H91.703V63.368L73.552 81.52l-9.562 9.56z"/></g><defs><clipPath id="a"><path fill="#fff" d="M0 0h128v128H0z"/></clipPath></defs></svg>