<svg xmlns="http://www.w3.org/2000/svg" width="128" height="128" fill="none"><g clip-path="url(#a)"><path fill="#212121" fill-rule="evenodd" d="M126.084 79.492c-8.549 34.289-43.278 55.158-77.572 46.607C14.232 117.55-6.636 82.818 1.917 48.53 10.462 14.237 45.192-6.634 79.475 1.915c34.292 8.55 55.158 43.285 46.609 77.577" clip-rule="evenodd"/><g clip-path="url(#b)"><path fill="#F0B90B" d="M42.666 36.333 64 24l21.334 12.333-8 4.333L64 32.998l-13.667 7.668zm42.332 15.334-7.667-4.333L64 55.002l-13.667-7.668-7.667 4.333v9.002L56 68.336v15.667l7.667 4.666 7.667-4.666V68.67l13.335-7.667v-9.335zm0 24.666v-8.999L77.334 72v8.666zm5.667 3.001-13.334 7.668V96l21.334-12.333V59.002l-8 4.998zM83.002 44l7.668 4.666v9.001l7.667-4.665V44l-7.667-4.666zM56 90.333v8.998l7.667 4.666 7.667-4.666v-8.998l-7.667 4.665zm-13.334-14 7.667 4.333v-8.999l-7.667-4.665zM56 44l7.667 4.666 8-4.666L64 39.334zm-19.002 4.666 8-4.666-8-4.666L29.334 44v8.998l7.668 4.666v-8.998zm0 15.334-7.667-4.666V84l21.335 12.333v-8.999L37.33 79.667V64z"/></g></g><defs><clipPath id="a"><path fill="#fff" d="M0 0h128v128H0z"/></clipPath><clipPath id="b"><path fill="#fff" d="M24 24h80v80H24z"/></clipPath></defs></svg>