<svg xmlns="http://www.w3.org/2000/svg" width="128" height="128" fill="none"><g clip-path="url(#a)"><path fill="#fff" fill-rule="evenodd" d="M126.084 79.492c-8.549 34.289-43.278 55.158-77.572 46.607C14.232 117.55-6.636 82.818 1.917 48.53 10.462 14.237 45.192-6.634 79.475 1.915c34.292 8.55 55.158 43.285 46.609 77.577" clip-rule="evenodd"/><path fill="#008DE4" d="M76.396 31.519H47.272l-2.415 13.494 26.287.031c12.95 0 16.767 4.706 16.658 12.497-.063 3.99-1.792 10.752-2.54 12.95-1.995 5.843-6.093 12.496-21.457 12.48l-25.555-.015-2.408 13.51h29.061c10.254 0 14.601-1.2 19.23-3.32 10.237-4.752 16.329-14.85 18.776-28.032 3.623-19.634-.896-33.595-26.514-33.595"/><path fill="#008DE4" d="M34.705 57.216c-7.635 0-8.726 4.97-9.443 7.978-.95 3.927-1.262 5.532-1.262 5.532h29.825c7.635 0 8.726-4.971 9.443-7.978.95-3.927 1.262-5.532 1.262-5.532z"/></g><defs><clipPath id="a"><path fill="#fff" d="M0 0h128v128H0z"/></clipPath></defs></svg>