<svg xmlns="http://www.w3.org/2000/svg" width="128" height="128" fill="none"><g clip-path="url(#a)"><path fill="#E84142" fill-rule="evenodd" d="M126.084 79.492c-8.549 34.289-43.278 55.158-77.572 46.607C14.232 117.55-6.636 82.818 1.917 48.53 10.462 14.237 45.192-6.634 79.475 1.915c34.292 8.55 55.158 43.285 46.609 77.577" clip-rule="evenodd"/><path fill="#fff" d="M33.474 89.435h12.413c2.922 0 4.383 0 5.687-.36a9.4 9.4 0 0 0 3.818-2.215c.996-.948 1.714-2.204 3.132-4.683v-.002l.042-.072 16.099-28.439c1.43-2.497 2.136-3.753 2.45-5.071a9.3 9.3 0 0 0 0-4.366c-.311-1.308-1.026-2.556-2.434-5.015l-.032-.056-6.3-10.991c-1.305-2.292-1.965-3.439-2.797-3.863a3.16 3.16 0 0 0-2.86 0c-.833.424-1.493 1.57-2.797 3.863L29.248 82.15c-1.289 2.26-1.933 3.392-1.886 4.317a3.15 3.15 0 0 0 1.43 2.466c.786.502 2.074.502 4.682.502m61.543 0H77.232c-2.624 0-3.944 0-4.714-.502a3.18 3.18 0 0 1-1.43-2.48c-.046-.92.603-2.04 1.902-4.281l.031-.053 8.877-15.23c1.304-2.246 1.964-3.36 2.781-3.785a3.13 3.13 0 0 1 2.844 0c.811.413 1.443 1.48 2.693 3.594l.002.003.102.172 8.909 15.23.128.221c1.235 2.13 1.865 3.217 1.82 4.113a3.14 3.14 0 0 1-1.43 2.48c-.786.518-2.106.518-4.73.518"/></g><defs><clipPath id="a"><path fill="#fff" d="M0 0h128v128H0z"/></clipPath></defs></svg>