<svg xmlns="http://www.w3.org/2000/svg" width="128" height="128" fill="none"><g clip-path="url(#a)"><path fill="#fff" fill-rule="evenodd" d="M126.084 79.492c-8.549 34.289-43.278 55.158-77.572 46.607C14.232 117.55-6.636 82.818 1.917 48.53 10.462 14.237 45.192-6.634 79.475 1.915c34.292 8.55 55.158 43.285 46.609 77.577" clip-rule="evenodd"/><path fill="#E6007A" d="M64.01 38.457c8.763 0 15.868-4.132 15.868-9.228 0-5.097-7.105-9.229-15.868-9.229s-15.868 4.132-15.868 9.229 7.104 9.228 15.868 9.228m0 69.535c8.763 0 15.868-4.132 15.868-9.23 0-5.096-7.105-9.228-15.868-9.228s-15.868 4.132-15.868 9.229 7.104 9.229 15.868 9.229M41.898 51.233c4.381-7.59 4.353-15.81-.064-18.36s-11.55 1.535-15.931 9.125c-4.382 7.589-4.354 15.809.063 18.359s11.55-1.535 15.932-9.124m60.214 34.762c4.382-7.59 4.356-15.808-.058-18.356s-11.544 1.538-15.926 9.127-4.356 15.808.058 18.356 11.544-1.538 15.926-9.127m-60.276 9.124c4.416-2.55 4.445-10.77.063-18.36s-11.515-11.674-15.931-9.124c-4.417 2.55-4.446 10.77-.064 18.36s11.515 11.674 15.932 9.124m60.221-34.763c4.414-2.548 4.44-10.767.058-18.356s-11.512-11.675-15.926-9.127-4.44 10.767-.058 18.356 11.512 11.676 15.926 9.127"/></g><defs><clipPath id="a"><path fill="#fff" d="M0 0h128v128H0z"/></clipPath></defs></svg>