<svg xmlns="http://www.w3.org/2000/svg" width="128" height="128" fill="none"><g clip-path="url(#a)"><path fill="#586FEB" fill-rule="evenodd" d="M126.084 79.492c-8.549 34.289-43.278 55.158-77.572 46.607C14.232 117.55-6.636 82.818 1.917 48.53 10.462 14.237 45.192-6.634 79.475 1.915c34.292 8.55 55.158 43.285 46.609 77.577" clip-rule="evenodd"/><path fill="#C8D5F5" d="M63.992 19.2v33.115L91.98 64.822z"/><path fill="#fff" d="M63.993 19.2 36 64.822l27.993-12.507z"/><path fill="#C8D5F5" d="M63.992 86.279v22.501L92 70.031z"/><path fill="#fff" d="M63.993 108.78V86.275L36 70.031z"/><path fill="#7B90F2" d="m63.992 81.073 27.989-16.251-27.989-12.5z"/><path fill="#C8D5F5" d="m36 64.822 27.993 16.25v-28.75z"/></g><defs><clipPath id="a"><path fill="#fff" d="M0 0h128v128H0z"/></clipPath></defs></svg>