<svg xmlns="http://www.w3.org/2000/svg" width="128" height="128" fill="none"><g clip-path="url(#a)"><path fill="#fff" fill-rule="evenodd" d="M126.084 79.492c-8.549 34.289-43.278 55.158-77.572 46.607C14.232 117.55-6.636 82.818 1.917 48.53 10.462 14.237 45.192-6.634 79.475 1.915c34.292 8.55 55.158 43.285 46.609 77.577" clip-rule="evenodd"/><g fill="#0033AD" clip-path="url(#b)"><path d="M42.317 63.683c-.205 3.562 2.534 6.612 6.093 6.817h.384a6.434 6.434 0 0 0 6.45-6.484c0-3.588-2.892-6.484-6.476-6.458a6.465 6.465 0 0 0-6.451 6.125m-24.115-1.666a2.074 2.074 0 0 0-2.201 1.971c-.052 1.153.819 2.15 1.97 2.202 1.153.077 2.126-.82 2.203-1.971s-.82-2.125-1.972-2.202m23.706-35.909c1.023-.512 1.433-1.792.921-2.816s-1.792-1.433-2.816-.921a2.08 2.08 0 0 0-.921 2.79 2.07 2.07 0 0 0 2.816.947m6.552 11.451a3.23 3.23 0 0 0 1.435-4.327 3.23 3.23 0 0 0-4.327-1.433 3.23 3.23 0 0 0-1.433 4.326 3.23 3.23 0 0 0 4.326 1.434M26.394 45.43a2.677 2.677 0 0 0 3.686-.768 2.677 2.677 0 0 0-.768-3.686 2.677 2.677 0 0 0-3.686.768 2.65 2.65 0 0 0 .768 3.686m3.917 15.434a3.217 3.217 0 0 0-3.405 3.046 3.217 3.217 0 0 0 3.047 3.405 3.217 3.217 0 0 0 3.405-3.046 3.23 3.23 0 0 0-3.047-3.405M26.752 82.57a2.67 2.67 0 0 0-1.177 3.584 2.67 2.67 0 0 0 3.584 1.178 2.67 2.67 0 0 0 1.177-3.584c-.665-1.306-2.278-1.843-3.584-1.178m12.545-28.395c1.766 1.153 4.121.666 5.248-1.102 1.152-1.769.665-4.126-1.101-5.254-1.767-1.153-4.122-.666-5.248 1.102a3.784 3.784 0 0 0 1.1 5.254m39.809-16.871c1.485.973 3.507.563 4.48-.921.973-1.485.563-3.508-.922-4.48s-3.507-.563-4.48.921c-.998 1.51-.589 3.508.922 4.48m6.603-11.4c.973.64 2.253.358 2.893-.614.64-.973.359-2.253-.614-2.893a2.095 2.095 0 0 0-2.893.588 2.156 2.156 0 0 0 .614 2.919M79.59 57.505c-3.558-.205-6.63 2.537-6.809 6.1-.205 3.562 2.535 6.637 6.093 6.816h.359c3.558 0 6.45-2.896 6.45-6.484.026-3.408-2.662-6.253-6.092-6.432m-29.005-3.792a6.48 6.48 0 0 0 5.785 3.562c3.559 0 6.452-2.896 6.452-6.483 0-1-.23-2-.692-2.922-1.612-3.204-5.504-4.485-8.678-2.87-3.2 1.64-4.48 5.535-2.867 8.713m50.663-8.283c1.305-.665 1.817-2.278 1.152-3.583a2.67 2.67 0 0 0-3.584-1.152 2.67 2.67 0 0 0-1.178 3.558c.691 1.306 2.279 1.843 3.61 1.178m-16.385 2.055c-1.869.949-2.637 3.23-1.69 5.1.948 1.871 3.226 2.64 5.095 1.692s2.637-3.23 1.69-5.1a3.817 3.817 0 0 0-5.095-1.692m-21.12-22.559c1.46.077 2.714-1.05 2.816-2.509.103-1.459-1.05-2.713-2.508-2.816a2.677 2.677 0 0 0-2.816 2.484 2.705 2.705 0 0 0 2.508 2.841m-.025 16.741a3.77 3.77 0 0 0 3.993-3.588 3.77 3.77 0 0 0-3.584-3.998 3.77 3.77 0 0 0-3.993 3.588c-.103 2.102 1.484 3.896 3.584 3.998M43.136 80.52c1.869-.948 2.637-3.229 1.69-5.1s-3.226-2.64-5.096-1.69c-1.869.948-2.637 3.23-1.69 5.1s3.226 2.64 5.095 1.691m23.041-33.295c-1.945 2.999-1.126 6.997 1.869 8.944s6.989 1.128 8.934-1.87c1.946-2.999 1.127-6.997-1.868-8.945a6.4 6.4 0 0 0-3.533-1.05 6.48 6.48 0 0 0-5.402 2.921m11.239 27.066c-1.613-3.204-5.504-4.485-8.679-2.87-3.2 1.614-4.48 5.51-2.867 8.687 1.613 3.204 5.504 4.485 8.678 2.87a6.443 6.443 0 0 0 2.893-8.636c0-.026 0-.026-.025-.051m11.29-.464c-1.766-1.153-4.121-.666-5.248 1.102-1.152 1.768-.665 4.126 1.1 5.253 1.767 1.154 4.123.667 5.249-1.102a3.784 3.784 0 0 0-1.1-5.253m12.389-9.715a3.217 3.217 0 0 0-3.047-3.404 3.217 3.217 0 0 0-3.404 3.046 3.217 3.217 0 0 0 3.046 3.405c1.766.102 3.302-1.28 3.405-3.047m8.934-2.301a2.073 2.073 0 0 0-2.201 1.971c-.051 1.152.819 2.15 1.971 2.202 1.152.077 2.125-.82 2.202-1.971a2.107 2.107 0 0 0-1.972-2.202m-8.422 20.758a2.68 2.68 0 0 0-3.687.768 2.677 2.677 0 0 0 .768 3.686 2.68 2.68 0 0 0 3.687-.768 2.65 2.65 0 0 0-.768-3.686m-59.341 19.525a2.096 2.096 0 0 0-2.893.589 2.096 2.096 0 0 0 .589 2.893c.973.64 2.253.358 2.893-.589.665-.947.384-2.253-.589-2.893m43.827-.203c-1.024.512-1.434 1.792-.922 2.816s1.792 1.434 2.816.922a2.08 2.08 0 0 0 .922-2.791 2.07 2.07 0 0 0-2.816-.947M61.824 80.775a6.49 6.49 0 0 0-1.869-8.97 6.476 6.476 0 0 0-8.96 1.871c-1.971 2.998-1.126 6.996 1.869 8.97a6.4 6.4 0 0 0 3.533 1.05c2.201.026 4.224-1.076 5.427-2.921m-12.928 9.918c-1.485-.973-3.507-.564-4.48.921-.972 1.485-.563 3.507.922 4.48s3.507.564 4.48-.921a3.203 3.203 0 0 0-.922-4.48m15.08 12.378c-1.46-.077-2.714 1.05-2.816 2.509-.103 1.459 1.05 2.713 2.509 2.816a2.677 2.677 0 0 0 2.816-2.483 2.705 2.705 0 0 0-2.51-2.842M64 86.335a3.77 3.77 0 0 0-3.993 3.588 3.77 3.77 0 0 0 3.584 3.998c2.099.103 3.89-1.486 3.993-3.588A3.787 3.787 0 0 0 64 86.335m15.539 4.1c-1.588.819-2.228 2.765-1.408 4.352.819 1.587 2.764 2.227 4.352 1.408a3.23 3.23 0 0 0 1.433-4.326c-.819-1.588-2.765-2.253-4.377-1.434"/></g></g><defs><clipPath id="a"><path fill="#fff" d="M0 0h128v128H0z"/></clipPath><clipPath id="b"><path fill="#fff" d="M16 19.602h96v88.8H16z"/></clipPath></defs></svg>