<svg xmlns="http://www.w3.org/2000/svg" width="128" height="128" fill="none"><g clip-path="url(#a)"><path fill="#08C" d="M64 128c35.346 0 64-28.654 64-64S99.346 0 64 0 0 28.654 0 64s28.654 64 64 64"/><path fill="#fff" fill-rule="evenodd" d="M43.12 36.889h42.086c1.489 0 2.977.218 4.531.943 1.864.869 2.853 2.238 3.545 3.251q.08.118.151.243a9.44 9.44 0 0 1 1.234 4.697c0 1.6-.38 3.342-1.234 4.86l-.025.044L66.82 96.601a3.263 3.263 0 0 1-5.65-.02L35.068 51.005l-.023-.038c-.597-.984-1.521-2.506-1.683-4.47a8.9 8.9 0 0 1 1.166-5.186 8.86 8.86 0 0 1 3.917-3.592c1.763-.824 3.548-.83 4.675-.83m17.618 6.524H43.12c-1.158 0-1.602.072-1.913.217-.43.2-.79.53-1.031.947a2.4 2.4 0 0 0-.31 1.385c.022.277.135.595.802 1.695l.041.07 20.028 34.971zm6.525 0v39.458l20.49-35.2c.232-.42.389-1.027.389-1.648 0-.503-.104-.94-.337-1.39-.245-.352-.394-.538-.519-.665a1 1 0 0 0-.305-.222c-.485-.226-.98-.333-1.775-.333z" clip-rule="evenodd"/></g><defs><clipPath id="a"><path fill="#fff" d="M0 0h128v128H0z"/></clipPath></defs></svg>