<svg xmlns="http://www.w3.org/2000/svg" width="128" height="128" fill="none"><g clip-path="url(#a)"><path fill="#345D9D" fill-rule="evenodd" d="M126.084 79.492c-8.549 34.289-43.278 55.158-77.572 46.607C14.232 117.55-6.636 82.818 1.917 48.53 10.462 14.237 45.192-6.634 79.475 1.915c34.292 8.55 55.158 43.285 46.609 77.577" clip-rule="evenodd"/><path fill="#fff" d="m58.422 88.64 6.663-22.47 10.383-2.944 2.17-7.439-10.228 3.1 10.847-36.882v-.589a1.8 1.8 0 0 0-1.86-1.735H62.606a2.34 2.34 0 0 0-2.325 1.704l-12.862 43.7-10.227 3.1-2.325 7.128 10.228-3.1-9.143 31.148h54.547a2.305 2.305 0 0 0 2.325-1.704l3.099-10.693v-.589a1.797 1.797 0 0 0-1.86-1.735z"/></g><defs><clipPath id="a"><path fill="#fff" d="M0 0h128v128H0z"/></clipPath></defs></svg>