<svg xmlns="http://www.w3.org/2000/svg" width="128" height="128" fill="none"><g clip-path="url(#a)"><path fill="#fff" fill-rule="evenodd" d="M126.084 79.492c-8.549 34.289-43.278 55.158-77.572 46.607C14.232 117.55-6.636 82.818 1.917 48.53 10.462 14.237 45.192-6.634 79.475 1.915c34.292 8.55 55.158 43.285 46.609 77.577" clip-rule="evenodd"/><path fill="#3AB83A" d="M36 67.996a16244 16244 0 0 1 28.115 14.787L92 67.996A13294 13294 0 0 1 64.115 108.8C54.723 95.178 44.35 80.148 36 67.996m1.072-4.087 27.073-14.27 26.721 14.165-26.705 14.287zm27.043-18.843L36 59.686 63.992 19.2 92 59.777z"/><path fill="#0B8311" d="M64.114 82.783 92 67.996A31427 31427 0 0 1 64.114 108.8zm.03-33.145 26.721 14.166L64.16 78.091zm-.03-4.571L63.992 19.2l28.007 40.577z"/><path fill="#0B8311" d="m37.072 63.908 27.074 2.195 26.721-2.286L64.16 78.105z"/><path fill="#146714" d="m64.144 66.103 26.721-2.286L64.16 78.105z"/></g><defs><clipPath id="a"><path fill="#fff" d="M0 0h128v128H0z"/></clipPath></defs></svg>