<svg xmlns="http://www.w3.org/2000/svg" width="128" height="128" fill="none"><g clip-path="url(#a)"><path fill="#988430" d="M64 128c35.346 0 64-28.654 64-64S99.346 0 64 0 0 28.654 0 64s28.654 64 64 64"/><path fill="#7A6A2A" d="M64 125.95c34.214 0 61.95-27.736 61.95-61.95S98.214 2.05 64 2.05 2.05 29.786 2.05 64 29.786 125.95 64 125.95"/><path fill="#BA9F33" d="M64 124.644c33.493 0 60.645-27.152 60.645-60.645S97.493 3.354 64 3.354 3.355 30.506 3.355 64 30.507 124.644 64 124.644"/><path fill="#CFB66C" fill-rule="evenodd" d="M27.982 57.167c-.363-.33-.745-.662-1.098-.994-.352-.33-.714-.662-1.076-.994l-1.078-1.023c-.176-.177-.362-.332-.538-.508-.176-.155-.383-.332-.56-.487-1.429-1.357-2.867-2.713-4.276-4.07 1.46 1.336 2.89 2.662 4.35 4.018l.507.508c.176.175.362.331.539.507l1.076.994c.363.331.715.663 1.077 1.024.363.361.715.694 1.078 1.024zM9.01 56.963s5.199.538 7.736.9c2.35.332 9.703 1.46 9.703 1.46zm0 0c1.46.124 2.92.279 4.38.434.746.073 1.46.156 2.176.228l1.097.125c.362.051.714.103 1.077.155l4.35.693 2.174.363c.715.124 1.43.26 2.175.383a52 52 0 0 1-2.175-.28l-2.174-.31-4.35-.642c-.363-.052-.715-.125-1.077-.176l-1.098-.126c-.715-.073-1.46-.176-2.175-.26-1.46-.175-2.92-.362-4.38-.59zm16.922 3.715s-5.55 1.409-7.425 1.947c-1.844.508-7.426 2.206-7.426 2.206z" clip-rule="evenodd"/><path fill="#CFB66C" fill-rule="evenodd" d="M25.931 60.675c-1.232.362-2.458.715-3.708 1.046l-3.707.994c-1.232.363-2.458.715-3.687 1.077l-1.843.508c-.61.176-1.232.33-1.863.508.61-.205 1.232-.415 1.843-.59l1.843-.59c1.232-.384 2.458-.747 3.686-1.13 1.253-.31 2.486-.642 3.739-.943 1.19-.3 2.444-.6 3.697-.88m-14.073 7.57c.61-.227 7.653-3.51 9.289-4.276.819-.384 3.2-1.23 3.2-1.23z" clip-rule="evenodd"/><path fill="#CFB66C" fill-rule="evenodd" d="M11.859 68.247c.537-.205 1.045-.456 1.563-.694l1.532-.715 3.077-1.48c1.024-.487 2.019-1.024 3.075-1.482a21 21 0 0 1 1.615-.59l.82-.258c.279-.072.538-.156.819-.228-1.024.486-2.102.9-3.128 1.377-1.024.508-2.07.922-3.128 1.377l-3.127 1.377c-1.05.426-2.074.88-3.12 1.316zm.682 2.867s6.38-3.738 8.575-4.94c1.15-.642 4.867-2.485 4.867-2.485z" clip-rule="evenodd"/><path fill="#CFB66C" fill-rule="evenodd" d="M12.54 71.115c1.077-.663 2.175-1.336 3.273-2.02l1.638-.994c.56-.331 1.098-.642 1.668-.973.559-.332 1.097-.663 1.667-.974q.406-.25.849-.434l.87-.435c1.15-.56 2.299-1.13 3.51-1.616-1.097.694-2.226 1.285-3.355 1.895-.559.31-1.129.59-1.688.901-.559.31-1.098.642-1.668.943-.559.331-1.097.642-1.667.942l-1.688.922-3.407 1.843zm13.39-6.608s-3.966 3.045-5.25 4.018c-1.284.974-5.064 3.708-5.064 3.708z" clip-rule="evenodd"/><path fill="#E2CC85" fill-rule="evenodd" d="m48.694 89.06-2.03-3.842 1.18-4.805 8.42-3.252-3.584-7.352 1.771-7.425 3.325-6.65 10.273-1.615 7.55-7.197 16.3 1.232 3.2 17.43-6.162 21.944-3.51 11.36-14.23.54-6.607-4.578-7.736-3.232z" clip-rule="evenodd"/><path fill="#F1D789" fill-rule="evenodd" d="M73.652 88.939s-1.968.9-5.325.693c-.971-1.304-7.775-1.915-7.775-1.915s-.849-.26-2.35.362c-1.512.615-2.942.539-4.278.87s-2.662-1.409-3.686-1.771c-1.024-.383-2.382-1.305-2.382-1.305l-2.867-.28-5.758-2.433-9.147-9.113-2.485 3.891-.767 4.816 2.765 5.706 7.446 6.783 14.52 3.686 8.605-2.535 10.78-4.557 2.704-2.9z" clip-rule="evenodd"/><path fill="#F4ECB4" fill-rule="evenodd" d="m22.069 56.73 1.843-5.582 2.196-3.604 7.073-.59-2.124 6.192-5.912 10.522 2.454 9.393-4.35 2.174-1.336-2.05-1.076-4.701-.073-5.282z" clip-rule="evenodd"/><path fill="#F3E19D" fill-rule="evenodd" d="m30.001 88.552-1.357-1.895s-.362-.9-.154-1.688c.204-.797.175-.85.072-1.15s-.974-1.336-.922-2.226c.052-.902-.072-1.202.59-1.916.694-.694.487-1.895.487-1.895l.901.559.205-.31s.33.258.33.662c.073-.559-.227-3.148.456-3.738.684-.59 1.895 2.765 1.895 2.765l-.745-4.868-1.916-4.99-3.408-4.557-.204-5.023v-.435s-1.564 2.403-2 4.3c-.31 1.305.436 2.89.28 4.764-.124 1.864-.28 1.72.176 2.458.455.738 1.564 2.257 1.13 3.355-.384.943-1.689.28-1.689.28s-.259.766-.611 1.046c-.124-.456-.259-.746-.507-1.024-.021.176-.073.414-.073.414s-.228-.715-.456-1.616c-.31-1.2-.641-2.785-.942-3.634a80 80 0 0 0-.434 1.967l.176 2.279.849 3.127.82 2.048.796 2.506.693 1.684.56 1.284.486 2.89 2.35 2.485 1.254.56.91-.467z" clip-rule="evenodd"/><path fill="#F2E8B0" fill-rule="evenodd" d="M23.3 52.173s-1.688 2.867-2.174 5.757-.922 5.945-.614 9.88c.31 3.967.9 6.4 1.377 8.14.82 2.89 2.941 6.908 2.941 6.908l.073-.156a11 11 0 0 1-.85-2.123c-.28-1.098-.383-2.402-.642-2.993-.228-.59-.611-1.098-.797-1.823-.177-.693-.205-1.79-.746-2.609-.228-.331-.508-1.201-.59-2.07-.104-1.306.052-2.766-.073-3.967-.228-2-.383-3.356-.176-4.402s1.285-4.018 1.948-6.379c.435-1.512.175-2.786.973-4.101.797-1.305 1.284-2.454 1.46-3.252.205-.725-2.112 3.19-2.112 3.19z" clip-rule="evenodd"/><path fill="#F5EEC0" fill-rule="evenodd" d="M31.307 51.023s-.87.26-1.284.715c-.415.435-.591.797-1.15 1.533-.56.735-.59 1.336-1.047 2.257-.455.901-1.46 2.258-1.584 2.745-.124.486-.331 2.764-.59 3.842-.228 1.077.259 2.403.259 2.403l.59-.125s0 .766.59 1.285c.59.507.694-1.72.694-1.72l2.206-7.446 3.323-2.258.363-1.822-2.372-1.409z" clip-rule="evenodd"/><path fill="#E6DB9D" fill-rule="evenodd" d="M32.922 54.4s-1.564.103-2.33.663c-.311.227-.435.414-.766.694-.611.507-1.233.973-1.533 1.638-.332.662-.694 1.667-.943 3.562-.104.797-.104 1.533-.176 2.175-.104.87-.259 1.563-.176 2.048.104.994 1.13 1.512 1.229 2.64l2.123-1.076 1.999-7.881 4.246-2.663-2.403-2.692-1.273.887z" clip-rule="evenodd"/><path fill="#E5CB7A" fill-rule="evenodd" d="M21.72 107.473q.015-.117.027-.236c.31-2.662.363-4.68.59-5.944.331-1.791.56-2.457.508-3.128-.073-1.076-.155-1.863-.052-2.692.155-1.098 1.233-2.403 1.202-3.304-.021-.714-.384-1.18-.694-1.615-.311-.435-.56-.797-.56-.797s2.124-1.46 2.103-7.343q.065.019.124.052l1.046 2.972.715.87 2.744 5.115 3.532 3.429 5.219 3.51 3.272 3.561.331 9.497-4.276 5.551-.7 1.268a60.9 60.9 0 0 1-15.13-10.767z" clip-rule="evenodd"/><path fill="#D8C173" fill-rule="evenodd" d="M34.785 116.555s.073-1.18 1.046-1.947c.156.259.259.508.228.694.176-.31 1.408-2.299 4.194-2.817 2.786-.507 3.46-2.537 3.46-2.537l5.912-5.375 6.763-6.223 8.222-2.89 3.843-.943s.072.28-.073.901c.715-.051 2.3-.414 3.946-.994.663-.259 1.285-.362 1.616-.02.486.455.559 1.532.59 2.174.797-.176 1.718-.942 2.457-.87 1.181.125 2.227 1.512 3.428 1.512 1.585 0 2.299-.973 3.407-1.74.663-.455 1.616-1.024 2.154-1.408 1.284-.943 14.872-5.095 14.872-5.095l4.763.31.767 5.116-.41 13.374-.152.147-21.66 11.312-30.023 4.603a60.2 60.2 0 0 1-19.194-6.602l-.154-.683z" clip-rule="evenodd"/><path fill="#F1D789" fill-rule="evenodd" d="M23.54 109.171c.427-.892.81-1.638.878-1.905.054.538.151 1.718.348 2.973a63 63 0 0 1-1.225-1.069z" clip-rule="evenodd"/><path fill="#E0CD81" fill-rule="evenodd" d="m45.474 121.759 3.883-1.08.33.104s.177.103.177.455c.486-.279.9-.228 1.201-.414.155.331.31 1.429.994 1.564.714.155 1.48-.311 2.258-.901.766-.611 1.638-1.377 2.298-1.688q.364.668.643 1.377c.87-.694 2.381-3.51 4.535-3.459a8.17 8.17 0 0 1 2.992-3.614c1.999-1.357 3.251-1.46 4.815-1.336a8.2 8.2 0 0 1 2.258-2.02c.259.104.973.539 1.864.125.901-.414 1.916-2.02 3.252-2.226.72-.1 1.452.054 2.071.434 0 0 3.891-3.863 6.576-5.147-.104-.311-.31-1.481 2.837-4.07.176.156.052.591.176.614.052 0 .82-.331 1.792-1.077 1.201-.9 2.64-1.843 3.51-2.102 1.638-.487 3.376.507 3.376.507.148-.103.313-.18.487-.228.414-.072.714-.124.942-.204-.02.538.28 1.46 0 2.257a5 5 0 0 0 1.024.435c-.175.383-.559 1.357-1.2 1.823.538.259.61.559 1.377.819-.311.435-.82 1.181-1.046 1.638-.228.487-1.047 2.506-1.41 3.272-.382.767-.9 2.175-1.149 2.458-.25.283-1.15 1.481-1.843 2.071.614-.228 3.128-.994 4.194-1.285-.317.466-1.926 2.853-3.473 5.149a60.77 60.77 0 0 1-49.746 5.759z" clip-rule="evenodd"/><path fill="#DFC57C" fill-rule="evenodd" d="M33.177 54.12s-.9 0-1.076.125c-.176.124.901.384 1.232.508s1.046.694 1.232 1.15c.176.434 6.473 2.971 6.473 2.971l4.453-.228 1.535-2.12-2.92-2.559 2.048-6.037-2.713.434-6.525 3.892-3.272 1.253z" clip-rule="evenodd"/><path fill="#E5CC7C" fill-rule="evenodd" d="M42.958 56.117a.7.7 0 0 0 .614.33c.921 0 1.77.229 2.122.694.59.747 2.227 3.128 2.227 3.128l3.915 1.409.252-4.61-4.277-2.971-4.867 1.791v.228h.014" clip-rule="evenodd"/><path fill="#D2C281" fill-rule="evenodd" d="M42.189 57.828s.714.052 1.615-.28c.9-.331 2.382-1.046 3.024-.766.9.383.714 1.585 1.688 2.663.59.663 1.667.642 2.278 1.357s2.713.383 2.713.383l.798 4.3-3.2 4.102-1.047 5.095h-4.326l-3.953-1.568-1.947-4.71.974-4.764z" clip-rule="evenodd"/><path fill="#E2C270" fill-rule="evenodd" d="M50.559 58.033q.161.05.33.052c-.123.104-.383.33-.28.921.105.59.436 1.336.157 1.792.222.243.389.533.486.849.176.508.228.974 1.377 1.047a2.4 2.4 0 0 0-.455.362s.797.694 1.201 1.335c.414-.017 1.512-.359 1.512-.359l.228.156.486-.205s-.455-.176-.124-1.284c.31-.974.59-.922.615-.994.023-.072.228-1.098.228-1.512.155-.538.279-2.174.279-2.174l-.331-3.614-1.864-1.13-1.515-1.462-1.43 2.692-.941.939-.073 2.33z" clip-rule="evenodd"/><path fill="#CCB360" fill-rule="evenodd" d="M55.043 55.013s.331.942.456 1.667q.066-.212.072-.435s.26 1.43.31 2.02c.104-.021.205-.052.228.051s.26 1.254.205 1.895a5.16 5.16 0 0 1 1.74-1.74c.414-.258.9-.538 1.409-.559.797-.02 1.377.508 2.33.508 2.298 0 4.38-1.688 5.913-2.206 1.128-.383 2.102-.663 2.785-1.285.332-.279.922-.9 1.46-1.822.715-1.229 1.46-2.299 2.207-2.433a4.6 4.6 0 0 1-1.024.072s.228-.228.614-.538.85-.694 1.511-.694c1.181 0 1.771.175 2.434.175.663-.02 1.046-.175 1.046-.175s.694.487 2.258.487c1.564.02 2.61.155 3.428.228s3.562-.228 4.35-.205c.512.02 1.016.143 1.48.362l-2.537-7.372-9.115-7.967-5.426 3.842-8.348 8.347-8.077 2.993-1.689 1.895v2.889z" clip-rule="evenodd"/><path fill="#D5B457" fill-rule="evenodd" d="M73.165 50.786s.228-.227.61-.538c.383-.31.85-.694 1.513-.694 1.18 0 1.77.176 2.434.176.662-.02 1.045-.176 1.045-.176s.695.486 2.258.486c1.564.02 2.61.155 3.428.227s3.562-.227 4.35-.204a3.8 3.8 0 0 1 1.48.362l-1.15-3.324-1.335-2.537-3.811-4.174-4.609-2.713c-.02-.02-1.584-.435-1.584-.435l-4.143 2.506-3.758 9.725-.073 2.048 2.433 1.15c.611-1.024 1.285-1.844 1.917-1.947-.57.062-1.005.062-1.005.062" clip-rule="evenodd"/><path fill="#D2B257" fill-rule="evenodd" d="M73.115 51.479c-.363.02-.663-.052-.746-.31-.31-.87-.56-.995-.82-.995s-.61.56-.818.61c-.209.052-.456-.641-.456-.641l-.228-.104s-1.336.87-2.278 1.895c-.942 1.026-2.485 2.766-3.179 3.076s-3.076.414-3.891.59-1.72.767-1.843.901c-.125.135.363.28.435.414.073.124-.798.072-.87.205-.051.103.205.693.331.994.223-.11.466-.171.715-.176.797-.021 1.377.507 2.33.507 2.299 0 4.38-1.688 5.913-2.206 1.129-.383 2.102-.663 2.786-1.284.33-.28.921-.901 1.46-1.823.393-.631.777-1.222 1.16-1.657z" clip-rule="evenodd"/><path fill="#D2B159" fill-rule="evenodd" d="M40.14 102.732s-.205-.767-2.102-2.745c-.539-.559-.87-1.024-1.232-1.356-.902-.85-1.43-1.077-2.072-1.564-1.408-1.046-2.94-1.046-4.121-2.33-1.18-1.284-2.556-3.738-3.512-6.245-.942-2.506-1.201-3.303-1.201-3.376s.26-.559.59-.487c.332.073.332.715.415.87q.248.382.559.714c.487.56 1.18 1.229 1.533 2.227-.073-.85-.363-1.791-.363-1.791s1.823 1.15 3.376 2.35c1.564 1.202 2.206 1.616 2.662 2.382.457.766 1.533 2.786 2.048 3.376s7.578 2.817 7.578 2.817l3.36 2.505 1.667 3.655-1.305 2.048-2.506.539-4.07-1.823z" clip-rule="evenodd"/><path fill="#C2A44D" fill-rule="evenodd" d="M31.1 90.137s.85 1.356 2.92 2.64c1.865 1.13 4.816 2.155 7.447 2.766 1.511.362 3.024.642 4.38.663 3.656.051 6.172-.994 9.29-1.336 1.688-.176 3.76-.31 5.913-.82 2.765-.662 4.401-1.408 6.628-2.457 1.615-.746 3.097-1.305 4.297-2.02 1.689-.993 2.92-2.101 4.35-2.432-.176.486-.362 1.356-1.77 2.257.745-.021 1.77-.072 1.77-.072s-.994.59-2.744 1.915c-1.077.82-2.506 2.206-3.966 3.128-.943.59-1.968 1.024-2.641 1.377-1.639.901-2.3 1.357-3.376 2.458.383-.02.414 0 .414 0s-1.357.176-2.33.694c-.205 0-.56-.073-1.18.103-.488.155-1.13.508-1.792.694-.943.28-1.253.156-1.253.156l.155.31s-1.229-.021-1.638.021c.072.02.052.051.052.051a.7.7 0 0 0-.205.073 2.1 2.1 0 0 1-.642.279c-.124.021-.228.021-.384.052.052.124.456.819.643 1.229-.155.104-2.486 1.864-2.486 1.864q.11.171.176.363c.073.227.104.559.176.714.176.31.28.362.28.362s-.28.052-.767.176c-.414.104-.922.28-1.638.383q-.33.043-.663.052c.104.228.559 1.098-.28 2.102s-1.098 1.15-1.356 1.792a3 3 0 0 0-.415-.259c-.28-.125-.663-.31-.797-.559a6.6 6.6 0 0 1-.31.973c-.26.694-.643 1.378-.715 1.895-.28-.31-.797-.921-1.512-.797s-1.284 1.098-1.408 1.377c0-.176-.125-.31-.155-.103-.021.228-.415 2.609-2.61 4.535-.02-.486-.02-1.564-.073-1.915-.204.205-.455.507-1.947 1.149-1.46.642-1.228 1.284-1.228 1.284s-.125-1.024.663-2.102c.797-1.077 1.284-1.585 1.284-1.667a.46.46 0 0 0-.104-.228c-.104-.104-.31-.228-.31-.311.123-.051 1.356-.642 1.283-1.864-.072-1.097-.538-1.667-.87-2.071-.05-.052.488-.435.415-.559-.052-.072-.714-.56-.797-.819a2.4 2.4 0 0 1 .103-.455c.073-.228.125-.384.104-.539-.052-.259-.332-.974-.414-1.046.072.021.59 0 .59 0s-.414-.663-.487-.973c-.073-.311-.228-1.13-.31-1.284.175.02.61.051.61 0 .021-.156-.383-.415-.204-.615.124.021.362.124.59.415-.125-.332-.332-.974-.767-1.233.205-.072.9-.259 1.512.103.61.363.819.87.819.87s.362.28.922.694c.642.508 1.46 1.229 2.765 1.74.28.155.994.155 1.512.052q.34-.082.642-.259a1.2 1.2 0 0 1 .228-.104 5 5 0 0 0-.383-.642c.176 0 .383.021.383.021s.124-.28-.435-.819c.124-.124.28-.205.28-.415-.176-.02-.487-.279-.56-.383.104-.072.26-.31.436-.383-.156-.124-.539-.642-.715-.693a3.3 3.3 0 0 0 .487-.228s-.87-.228-1.15-.415c-.28-.204-.694-.559-.942-.662-.26-.104-.715-.155-.901-.363.175.052.455 0 .663 0 .155 0 .228.021.279.021-.02-.073-.02-.228.384-.28.194-.029.383-.088.559-.176 0 0-.384-.02-.82-.435-.435-.414-.797-.745-1.045-.797-.26-.052-.746.176-1.046.155-.415-.051-.59-.259-.59-.259s-1.378.125-4.433-1.74c-2.64-1.615-3.79-3.044-3.79-3.044q-.372-.135-.715-.332c-.994-.517-2.371-1.594-2.33-3.003z" clip-rule="evenodd"/><path fill="#CAA13E" fill-rule="evenodd" d="M69.199 27.98c.24.078.452.222.614.415.487.559.798 1.615-.31 2.744.435.155.614.205.994.155-.383.456-1.253 1.43-1.305 2.279-.052.693.383.9.383.9s-.663.767-.694 2.049a8.3 8.3 0 0 1 1.025-.974c.766-.61 1.822-1.304 2.537-1.74q-.014.276.072.539s1.336-1.098 2.458-.61c.507.227.28.941.28.941s.693-.258 1.18.229c.487.486 1.175 1.742 1.528 2.229.155.227.56.662.973 1.335a17 17 0 0 1 1.409 2.972c.02-.538.155-1.377 1.688-.85 1.533.54 3.272 1.669 4.732 3.892 1.46 2.224 1.822 4.734 2.557 5.69.746.921 1.513 2.454 1.565 3.096.051.642-.229 2.713 1.304 8.316.435-1.74 1.098-5.603 1.098-5.603l.362-3.407.415-10.543-11.009-9.145-8.606-6.245-5.602.538z" clip-rule="evenodd"/><path fill="#B59544" fill-rule="evenodd" d="M89.652 43.673s-.156-1.025-2.744-2.765c-2.59-1.72-4.61-1.72-6.473-3.18-1.43-1.15-2.92-3.79-3.891-4.66-.943-.86-1.098-3.345-1.098-3.345l3.18-2.662 4.728-6.835 3.997-4.4 1.915 2.662 2.663 3.127 1.48 6.276.539 9.186-4.3 6.596z" clip-rule="evenodd"/><path fill="#C89D3A" fill-rule="evenodd" d="M92.852 54.682a11.7 11.7 0 0 0-.508-4.12c-.683-2.124-2.174-5.894-2.867-7.305-.28-1.564-.073-1.689.228-1.865.3-.176 1.43-.819 2.048-3.075s2.537-2.33 2.537-2.33l1.18-.87 1.793 4.484 1.563 4.05.487 3.096.362 2.64-.85 5.583-4.193 3.79z" clip-rule="evenodd"/><path fill="#CEB052" fill-rule="evenodd" d="M34.331 116.9v-.115a.9.9 0 0 0 .227-.204c.073-.104.125-.228.176-.259.104-.052.591-.205.85-.156.258.049.942.331 1.305.311.745-.021 1.615-.591 2.993-.331 2.071.383 2.558 1.791 3.76 2.588.819.56 1.666.311 1.79.311h.28c.052 0 .435-.435.642-.414.415.021.456.363.714.383.611.073 1.792-.31 2.383-.155a1.14 1.14 0 0 1 .745.745c.125.383.02.87-.28 1.15-.641.589-1.252 1.149-1.377 1.638q.237.181.455.385a60.3 60.3 0 0 1-14.663-5.871z" clip-rule="evenodd"/><path fill="#CCA847" fill-rule="evenodd" d="M89.477 96.207s1.615-2.154 2.174-3.22c.56-1.1-1.77-15.027-1.77-15.027l4.68-15.337-.124-4.991s.228-4.61.766-6.608c.643 1.15 2.642 2.537 3.076 3.273.205-1.41.901-4.381.798-7.55.383.59 1.304 6.524 1.304 6.524l.922 3.997 1.202 4.246L103.841 66l.797 3.097.455.745.384 1.305.362 1.409 1.046 3.303.615 2.713.486 4.92q.159.565.228 1.149c.021.538-.072.85-.072.943s.176 1.18.104 1.999c-.104.819-.104 1.46-.746 2.047-.643.588-1.046 4.101-1.046 4.101l-1.15-.766s.228-1.046-.31-1.999c-.539-.952-1.585-1.15-2.175-.993-.59.124-1.771.31-2.154.641-.363.331-1.253 1.357-2.071 1.823-1.024.614-2.693.663-3.583.87-.901.204-1.895.819-2.942 1.532-.82.531-1.687.988-2.588 1.366z" clip-rule="evenodd"/><path fill="#C39D3C" fill-rule="evenodd" d="M89.477 118.835s.068.045.2.117a60.8 60.8 0 0 0 19.387-14.37c-.059-2.096-.136-4.244-.221-5.04-.175-1.688-.051-3.407-.103-4.401s-.611-5.044-.87-6.09c-.28-1.046-.819-1.564-.901-1.564-.072.022-.508 1.968-.508 2.458s-.103 1.668-.103 1.968c-.073-.021-.104-.205-.104-.28-.103.259-.228.715-.279.767s.072-.435 0-.539c-.073-.104-.205-.052-.177-.31q.02-.231.073-.456s-.311.456-.538 1.615c-.228 1.15-.228 1.181-.311 1.285-.072.124-.486.538-.508.694-.02.279.384.559.415.714.02.26-.363 1.46-.487 2.048s-.072 1.74-.205 2.33c-.104.538-.205.849-.559 1.076.259.052.507.125.507.125s.363 1.532-.559 2.837c-.331.456-.414.663-.766 1.078-.694.766-1.233 1.638-1.285 2.205a4 4 0 0 1-.072-.508s-1.076 1.254-1.532 1.969c-.59.921-1.409.869-1.639 1.097s-.28.642-.205.974c-.204.051-.59.124-.849.921-.124.414-.435.82-.922 1.098-.486.279-1.077.363-1.377.435.259.072.362.072.487.155-.155.259-.87.663-1.667 1.181-.798.487-1.181 1.201-1.378 1.667-.205.435-.507.715-.994.767.205.124.508.413.663.507-.228.052-.615.052-1.305.642-.725.601-.973.777-1.305.829z" clip-rule="evenodd"/><path fill="#D2BA6B" fill-rule="evenodd" d="M75.066 123.634a6 6 0 0 1 1.278-.678c1.616-.642 3.324-.766 3.998-.973.642-.205 1.15-.487 1.947-.642q-.032.272-.058.513a60 60 0 0 1-7.168 1.78z" clip-rule="evenodd"/><path fill="#C0993A" fill-rule="evenodd" d="M104.858 81.148s-.331 1.792-.921 2.92c-.591 1.13-1.229 2.693-1.229 2.693q.006-.53.124-1.046c-.745.435-2.558 1.481-3.072 1.947-.487.434-1.305 1.201-1.512 1.564.487-1.43.994-2.713 1.077-3.304-.745.539-4.226 3.407-6.037 5.303l-5.645 4.567q-.977.526-2.009.94c-.972.414-2.122.766-2.971 1.098.228-.611.59-1.15 1.097-1.668.539-.507 2.154-2.257 2.403-3.072.228-.849.28-1.356-.02-2.071-.28.072-.922.104-1.357.228s-.901.59-.901.59.33-1.895 1.045-3.687c-.538.02-1.46.176-1.46.176s1.284-2.154 3.482-3.655c-.673.143-1.332.347-1.968.61-1.284.539-2.692 1.336-3.738 1.771.59-.82 4.732-6.731 7.198-12.24 2.457-5.5 3.375-6.908 3.914-9.86.28-1.46.205-3.617.28-5.55.071-1.916.31-3.635.155-4.785.641.797 3.044 3.045 3.127 8.068.072 5.022-2.299 11.806-4.815 15.461.614.176 2.206.384 3.841-2.458 1.636-2.84 1.616-3.634 2.207-4.815.072.59.051.797.051.797s2.383-2.889 3.511-6.524c.228 1.564.901 2.942-.156 5.81-.942 2.589-2.174 3.221-2.174 3.221s.611-.104 1.511-.642c.156.383.125.819.384.973s.611.414.663.663c.279-.415.714-.943.849-1.336-.103.82-.176 4.401.205 6.224.798-.073 1.616-.124 2.175-1.564-.383 1.409-.383 2.257-.124 3.459.424-.29.807-.808.807-.808z" clip-rule="evenodd"/><path fill="#A88F33" fill-rule="evenodd" d="M77.949 24.065s-.797.33-2.154.33c-1.18 0-.849-.455-2.692-.455-2.837 0-12.748 1.639-14.488 1.616-1.13-.02 3.81.486 3.81.486l12.625.176 2.537-.204.942-1.919z" clip-rule="evenodd"/><path fill="#E3C571" fill-rule="evenodd" d="M45.215 48.746s-1.616 1.232-2.3 2.175-1.045 1.563-1.822 2.33a1.6 1.6 0 0 0 .538-.072s0 .204-.124.258a.73.73 0 0 1 .59.205c-.228.124-.85.746-.363 1.481.363.56 1.13.61 1.13.61s-.176.509.559.457c1.584-.073 3.355-.767 4.173-.59.82.204 1.285.28 1.864 1.284.615.994 1.15 1.15 1.15 1.15s.362-.923.28-2.3c.297-.742.462-1.53.486-2.33l-.538-3.966-2.35-2.972-3.045 1.688-.228.59z" clip-rule="evenodd"/><path fill="#D8B65B" fill-rule="evenodd" d="M48.103 48.156s.228.539 1.181.59c-.104.228-.104.26-.072.435l.05.435q.16-.077.28-.205c.053.228-.051.59 0 .85q.05.237.156.454a1 1 0 0 1 .052-.103c.02-.051.204.56.714 1.024 0-.071.017-.142.052-.204.007.13.05.255.124.362a.4.4 0 0 1-.103-.072s.05 1.638.33 2.485q.072-.081.125-.176c0-.051-.02.456-.072.82-.073.362-.02.87-.02.87a2.7 2.7 0 0 1 .61-.363c.31-.125.819-.508 1.129-1.357q.27-.723.414-1.481.151.291.205.614c.021.259.508.124.508.124l.104-1.129.614-2.558.559-1.584 2.693-4.194 4.864-3.746 4.246.973 3.583-4.867-6.172-3.708-5.84.611-5.302 7.342-4.245 6.66z" clip-rule="evenodd"/><path fill="#D3AE4D" fill-rule="evenodd" d="M78.696 37.532s-.362.073-1.408.615-1.771.714-2.175 1.511-.435 1.43-.435 1.43.715-.31 1.13-.415c.434-.103.92-.072.869.104q-.076.182-.205.331s.82-.02.797.384-.155.85-.31 1.046c-.155.205-.797.508-.87.746-.175.487.073.507-.02.9-.073.384-.414 1.13-1.533 2.434-1.15 1.305-1.639 2.227-1.639 2.227s-.559-1.046-.849-1.947c-.204.103-1.304.714-1.304.714l-2.548-8.875.051-.59s.228-.28.28-.798c-.383-.124-.435-.228-.943-.714s-.921-1.077-1.77-1.481c-.124-.228-.28-.538-.9-.663-.622-.125-.995-.227-.995-.227s.331-.125.487-.384c-.384.052-.694.176-1.533.156-.849-.021-.942-.052-1.408.02-.466.073-1.024.28-1.232-.435-.228-.176-.715-.02-1.13.59s-.559 1.098-1.356 1.336c-.056.352-.179.69-.362.994-.228.384-.59.767-1.078 1.336-.766.901-.642 2.382-1.864 3.511-1.232 1.129.205-3.128.205-3.128l1.967-4.71 5.603-5.479 8.7-.59.848 4.506 4.247 1.46 2.682 4.09z" clip-rule="evenodd"/><path fill="#CAA13E" fill-rule="evenodd" d="m80.073 38.524-3.656-5.271-2.558-1.968s-1.823-3.355-1.947-3.459c-.104-.072-1.823-.259-2.92-.33l.204.506c.24.078.453.222.615.415.486.559.797 1.615-.31 2.744.434.155.614.205.993.155-.383.456-1.253 1.43-1.305 2.279-.051.693.384.9.384.9s-.663.767-.694 2.048a8.3 8.3 0 0 1 1.024-.973c.766-.615 1.823-1.306 2.537-1.74-.01.182.015.365.073.538 0 0 1.335-1.098 2.457-.61.508.227.28.942.28.942s.694-.259 1.18.228c.487.487 1.18 1.74 1.533 2.227.155.228.56.663.973 1.335a17 17 0 0 1 1.409 2.972c.02-.414.104-.994.82-.994l-1.088-1.947z" clip-rule="evenodd"/><path fill="#F4EFC8" fill-rule="evenodd" d="M25.27 53.501s-.259-.642 0-1.895.663-1.843.797-3.687c.135-1.843 1.336-4.142 1.336-4.142l3.324-1.511 2.351.641.694 3.149-2.973 1.638s-.155.694-.994 1.253-1.998.994-2.278 1.564a4.6 4.6 0 0 0-.362 1.098s-.85-.177-1.357.383c-.538.57-.518 1.077-.538 1.512z" clip-rule="evenodd"/><path fill="#EBCC73" fill-rule="evenodd" d="M31.98 52.658s-.28.176-.487.615c-.205-.331-.694-2.3-.715-4.07-.02-1.771-.126-2.21.283-2.82.41-.61 2.016-1.254 1.788-2.353-.228-1.046-1.18-1.48-2.35-1.18-.82.205-1.43 1.947-2.279 2.816-.642.663-1.408.56-1.615.922-.28.487-.021.974-.104 1.284-.02.104-.28.663-.746 1.336-.942 1.357-2.537 3.273-2.744 4.992.072-.974.02-.994.28-2.071l-.156-.26 1.024-3.355.663-2.764 1.481-4.63 2.61-4.732 2.537-2.838 2.64.176.311 3.966 1.512 7.447 3.18 3.914-5.096 3.43-2.02.175z" clip-rule="evenodd"/><path fill="#E5C66B" fill-rule="evenodd" d="M33.563 54.069s-.434.104-.59.021-.31-.176-.259-.28.331-.279.331-.362a.29.29 0 0 0-.259-.31c-.238-.032-.31.123-.31.123s-.228-.175-.414-.204q.165-.02.331-.022a3.2 3.2 0 0 0-.9-.258c.258-.155.766-.611 1.097-.611s.538-.051.487-.228c-.052-.176-.311-.434-.59-.538.103-.124.176-.31-.073-.82-.259-.507-.155-.849-.072-.972.072-.156.331-.435.455-.611.125-.176.229-.415.435-.539.104-.072.435-.205.767-.331.362-.124.663-.28.87-.124.228.155.124.362.124.362s.715-.26 1.356.073c.643.31 2.207.507 2.207.507l.56 1.129-3.707 3.18-1.533.766-.31.051z" clip-rule="evenodd"/><path fill="#E6BD62" fill-rule="evenodd" d="M38.71 48.87s-1.149.767-1.408 1.046c.155.02.414.125.31.28-.124.155-.87.693-1.284 1.201-.435.507-.85 1.15-.994 1.46-.155.28-1.336 1.098-1.74 1.201.85 0 2.559-1.046 3.2-1.046-.02.311.177.663.539.694s1.408.228 2.817-.642c1.408-.849.943-1.481 1.532-1.895 1.13-.746 1.585-1.409 2.206-1.823s.943-.507.943-.507.02-.311.204-.28a.28.28 0 0 1 .229.176s1.077-.766 2.457-.973a.14.14 0 0 1-.072-.072s.103-.052.124-.104c0 0 .072-.104.124-.052s.125.435.228.59c.228-.103.663-1.077.663-1.077l1.047-2.993V41.32l-.82.156-6.144 2.61-3.728 3.862-.435.922z" clip-rule="evenodd"/><path fill="#B6933F" fill-rule="evenodd" d="M56.399 35.46c.332-.081.65-.21.945-.384-.124.331-.124.694-.663 1.481-.538.787-.559.901-.994 1.719-.435.85-.487 2.071-.901 2.61q.28-.137.59-.176s-.414.362-.59.745-.487 1.18-1.253 1.668c-.766.487-1.74.797-2.786 1.947-1.046 1.128-2.123 2.558-2.662 3.072.28-.487.663-1.46.767-2.102s-.022-1.41.155-2.258c.176-.848.176-1.46 1.024-2.941.847-1.482 2.299-6.628 2.299-6.628l3.127-.994.943 2.237z" clip-rule="evenodd"/><path fill="#C49937" fill-rule="evenodd" d="M54.14 33.564s-.941 1.356-1.2 2.558-.021 1.097-.176 1.688c-.093.36-.093.738 0 1.098a3.9 3.9 0 0 1 1.303-1.285c.89-.538 1.616-.922 2.048-1.377.435-.487.797-1.284 1.74-1.895-.383-.052-.922-.228-1.024-.205.383-.435 1.532-1.098 2.692-1.895 1.15-.82 1.077-1.15 2.941-1.967-.61.103-.9-.052-1.408 0 .204-.435.921-.643 1.638-1.357s-.455-1.77-.455-1.77l-5.462 3.303-2.64 3.106z" clip-rule="evenodd"/><path fill="#DFC068" fill-rule="evenodd" d="m39.322 31.1.124-.994L41.01 27.6l1.636-4.402v-6.017l-.124-3.48.259-2.278.197-.724.207-.28 1.335.694 1.844 2.506.176 4.836-1.792 7.633-5.116 5.582z" clip-rule="evenodd"/><path fill="#A88F33" fill-rule="evenodd" d="M43.392 10.138s-.82.021-.994 3.428-.26 5.199-.384 6.887-.414 2.713-.559 3.708c-.145.994-.228 2.35-.694 3.179-.204.383-.642 1.584-1.667 2.485-1.15.994-2.867 1.689-3.127 1.74-.457.104-2.766.332-3.708.85-.331.176-.901.383-1.533.973-1.253 1.129-2.92 3.148-4.122 5.582-1.843 3.635-3.686 13.897-3.686 13.897l.414-.693s.052-.922.974-2.538c.901-1.615.642-3.427 1.895-6.524.487-1.18 1.098-2.713 1.843-4.018 1.181-2.123 2.61-3.946 4.05-4.94 2.35-1.615 4.94-1.967 4.94-1.967l2.785-1.843s.487-.943 1.13-2.02c.9-1.511 2.048-3.2 2.298-5.654.384-3.635-.538-6.017-.487-8.17.052-2.154.073-3.739.508-4.122.436-.384.124-.239.124-.239z" clip-rule="evenodd"/><path fill="#C99E3D" fill-rule="evenodd" d="M43.392 26.4s1.229-3.025 1.791-5.707c.104-.539.31-1.077.363-1.512.258-2.537.33-3.583 0-4.97-.259-1.025-1.253-1.948-1.771-2.663-.507-.746-.745-1.024-.642-1.181.104-.157.508-.414.9-.383a3.08 3.08 0 0 1 2.207 1.024c.797.922 1.429 4.05 1.429 4.05l.664 4.127 1.688 5.199-6.628 2.02z" clip-rule="evenodd"/><path fill="#B58634" fill-rule="evenodd" d="M54.938 23.249s-.228.103-.642 0a.92.92 0 0 1-.414.87c-.435-.177-4.506.176-4.506.176s-1.895-.332-2.485-2.838c-.414-1.668.31-3.966.072-5.478-.362-2.227-.87-2.663-.921-3.356s-.104-.87-.104-1.304c-.228-.052-.363-.125-.59-.125-.052-.204.051-.383-.176-.746.124.052.973.156 1.967 1.098.82.767.82 1.046.943 1.202.155.154 1.408 1.228 1.947 2.299s1.584 4.483 1.823 5.043c.072.228.228.456.614.973.6.746 1.48 1.98 2.475 2.185z" clip-rule="evenodd"/><path fill="#A88F33" fill-rule="evenodd" d="M48.228 12.8a29 29 0 0 1 1.688 3.148c.61 1.377.973 2.506 1.74 3.428-.415-1.2-1.15-3.562-1.585-4.401-.486-.888-1.48-1.843-1.843-2.174z" clip-rule="evenodd"/><path fill="#E6C367" fill-rule="evenodd" d="M41.185 29.826s-1.046.259-2.993 1.284a32 32 0 0 1-1.843.87c-1.534.693-3.179 1.334-4.484 1.688.104.124.155.175.155.175s0 .508.28.798c-.155.155-2.227 1.564-1.616 6.276.414-.156.9-.363.973-.363.125.021.156.362.31.362.156 0 .664-.204 1.202-.9-.02.28-.33 3.096 1.336 4.991.31-.362 1.098-1.564 1.098-1.564l.02-.383s.073-1.336.508-2.558c.436-1.222 1.285-2.123 1.285-2.123l4.43-6.328z" clip-rule="evenodd"/><path fill="#DCBA5A" fill-rule="evenodd" d="M37.044 39.116a2.5 2.5 0 0 1-.663.331c-.073-.259-.176-1.15.435-2.02.714-1.046 2.278-2.402 2.712-3.48.28-.695.156-2.435 2.642-4.661 2.485-2.227 3.458-2.993 3.458-2.993l4.018-2.02 4.94 1.947-2.454 9.62-1.905 4.505-7.578-1.429z" clip-rule="evenodd"/><path fill="#E9CE77" fill-rule="evenodd" d="m39.936 36.504.943-1.18v-.84s1.046-.28 2.174-1.43c1.129-1.149 2.693-3.355 4.07-3.22 1.378.156 1.512 2.993 1.564 3.79.052.799.228 2.61.507 3.584.311.974-3.355 4.66-3.355 4.66l-2.49 1.895z" clip-rule="evenodd"/><path fill="#CDAE50" fill-rule="evenodd" d="M42.853 46.333s.767-1.202.205-1.46c.33-.746.942-1.533.942-1.533s.435-1.077 1.843-2.402 2.279-2.207 2.507-3.097c.14-.58.217-1.174.228-1.77q.229.187.487.33c.228.104 1.304.994 1.15 2.786-.156 1.792-.82 2.538-.82 2.538s-.642.642-1.097.973c-.487.331-.663.714-1.481.746a1 1 0 0 1 .28-.156s-.85-.103-1.306.31c-.456.415-1.425 1.689-1.912 2.073-.487.31-1.024.663-1.024.663z" clip-rule="evenodd"/><path fill="#D2A83E" fill-rule="evenodd" d="M77.286 26.19a12.5 12.5 0 0 0-3.81-.746c-2.175-.073-5.354.052-8.472.072-3.355.02-6.4-1.15-10.625-1.356-.693-.415-2.457-2.227-7.963 1.615.33-.02 3.997-.85 5.27.746 1.285 1.584.922 4.277.747 4.918-.332 1.43-1.41 3.511-1.844 4.972-.434 1.46-.331 2.227-.642 3.251-.31 1.024-.994 1.533-.59 2.713.538-.331.819-.331 1.718-2.35.9-2.02.715-3.46 2.207-5.168 1.46-1.719 3.891-4.07 4.815-4.66.925-.591 8.264-4.402 15.949-.767 1.853-.196 3.241-3.242 3.241-3.242z" clip-rule="evenodd"/><path fill="#C29637" fill-rule="evenodd" d="M49.512 24.78a1 1 0 0 0-.052-.227 1.7 1.7 0 0 0-.28-.415s-1.822-.33-2.744-.228c-1.616.177-3.076 2.175-3.76 3.2s-1.532 2.61-2.454 3.428a.34.34 0 0 0-.051-.227s.051.072-.052.176c-.103.103-.103.155-.051.204l.155.155c.051 0 1.48-.642 3.428-2.457 2.071-1.895 3.656-2.867 4.484-3.2a6.3 6.3 0 0 1 1.377-.408" clip-rule="evenodd"/><path fill="#AC8132" fill-rule="evenodd" d="M84.867 16.997s-.332.414-.746.87c-.922.973-2.123 2.07-3.149 3.2-.972 1.077-2.07 1.916-3.303 3.324s-2.662 2.972-3.024 3.428c-.331.456-.59 1.201-.59 1.584a15 15 0 0 0-.383-.259q.131.245.31.457c.26.362.663.819.87 1.097.255.355.438.756.538 1.18.124.021.922.177 1.916-1.46.995-1.636 2.299-3.427 2.299-3.427l2.071-3.076 1.305-2.61 1.639-2.92.249-1.388z" clip-rule="evenodd"/><path fill="#A88F33" fill-rule="evenodd" d="M86.99 14.903s-1.253 1.024-1.74 1.639c-.486.614-1.638 2.227-1.638 2.227l.415-.052 2.102-1.864.82-1.46.041-.487z" clip-rule="evenodd"/><path fill="#A67A2E" fill-rule="evenodd" d="M86.607 97.2s-.02-.849.456-1.356c.487-.508 1.719-1.253 2.92-4.05 1.202-2.795 1.336-3.427 1.336-3.427s-2.154 1.843-3.482 2.278c.31-.642.487-1.098.643-1.43-.177-.154-.922-.33-.994-.413.413-.415.641-1.43 1.48-2.103 1.078-.819 3.045-2.227 4.574-3.481 1.53-1.255 4.536-4.174 4.92-5.023.228.331.279.538.279.538s-1.512 1.968-2.299 3.221c-.694 1.077-.642 1.688-.642 1.688l1.43-.614s.413 1.532-1.461 3.863c.82-.31 1.15-.124 1.615-.384-.766.488-1.823 1.15-2.816 2.973-.974 1.822-2.3 3.946-4.536 5.27-2.175 1.399-3.428 2.445-3.428 2.445z" clip-rule="evenodd"/><path fill="#8C6228" fill-rule="evenodd" d="M80.994 27.268s-.85 1.77-.973 3.147c-.02.332-.104.59-.104.974-.02 1.232.072 2.61-.205 3.251-.104-.258-.156-.434-.26-.538-.154.435-.434 1.792-.662 2.299-.103-.331-.331-1.48-.31-2.837s.051-1.616.051-1.895c-.051.413-.331.973-.435 1.304-.155-.279-.33-.642-.538-.942-.125.205-.28.507-.414.663a10 10 0 0 1-.104-.922c-.02-.538-.052-1.232-.02-1.377.05-.28.486-1.377 1.408-2.382 1.098-1.202 2.227-3.51 2.558-4.225a968 968 0 0 1 1.74-3.686h1.077l-1.564 3.562s-.942 1.947-1.43 2.662c-.486.716-1.511 2.766-1.967 3.563.33-.435.61-.663.942-1.077.321-.29 1.212-1.543 1.212-1.543z" clip-rule="evenodd"/><path fill="#CBA94C" fill-rule="evenodd" d="M87.01 14.766a4.5 4.5 0 0 1-.82 1.481c-.641.767-2.02 1.791-2.692 2.61-.614.797-1.843 2.971-1.284 5.55.204-.56.59-1.667 1.615-2.92 1.026-1.254 2.124-2.693 2.663-3.811.538-1.13.61-2.02.61-2.02l.205-.258-.124-.59-.176-.042z" clip-rule="evenodd"/><path fill="#A88F33" fill-rule="evenodd" d="M107.982 83.46s-.414-1.129-.538-2.154c-.124-1.026.205-1.23-.176-2.403-.228-.714-.642-.614-.746-.714s-.176-1.18-.155-1.771c.02-.59-.021-1.357-.125-1.688-.155-.125-.258-.228-.486-.994-.259-.767-.383-1.15-.508-1.377-.124-.228-.487-.435-.487-.663 0-.456.414-.694.414-.82-.02-.258-.331-.05-.414-.124-.103-.124.259-.87.125-.973-.052-.051-.414.384-.508.26-.104-.126-.228-1.358-.414-2.176-.176-.797-.363-1.377-.383-1.615-.021-.228-1.43-4.246-1.771-5.22a25 25 0 0 1-.694-2.506c-.104-.486-.176-1.481-.228-1.377-.052.103-.02.61-.104.59-.072-.02-.331-1.791-.413-2.07-.073-.28-.508-1.23-.615-1.916-.103-.695-.33-2.507-.486-3.74-.156-1.232-.228-1.739-.228-2.047a13 13 0 0 0-.125-2.258c-.204-1.305-.614-2.89-.973-3.81-.694-1.74-2.538-6.194-2.867-7.302 0-.28.362-.124.362-.124s.9 2.257 1.564 3.997c.642 1.74 1.253 3.273 1.409 3.428.124.155 1.097 1.864 1.532 4.66s.59 5.375.849 7.094c.125.819.228 1.688.487 2.558.279.943.714 1.916 1.284 3.407.487 1.253.849 2.3 1.046 3.2.228 1.15.228 2.02.362 2.59.125.486.311 1.46.747 2.867a77 77 0 0 0 1.511 4.35c.85 2.257 1.229 4.141 1.357 5.146.114 1.036.497 4.62.393 5.696z" clip-rule="evenodd"/><path fill="#BE9C44" fill-rule="evenodd" d="m87.063 14.642-.052.124s.155.052.124.26q.004.425-.051.848c-.052.363-.155.642-.176.87 0 .487.073 1.046-.614 2.434-.205.383-.331.714-.435.942-.259.559-.31.642-.539.901.363-.205 1.668-1.024 2.33-.901-.455.259-1.15.767-1.584 1.43.103.02.538.103 1.229 0 1.15-.177 2.433-.591 3.562-.509 1.233.073.746-1.48.746-1.48l-1.423-3.128-2.692-1.894z" clip-rule="evenodd"/><path fill="#A17C34" fill-rule="evenodd" d="M94.084 38.068s-1.201-1.201-1.688-5.325c-.487-4.142-.383-10.24-.383-10.24l-.974-2.382s-.204-1.584-.714-2.174-1.512-1.584-1.968-2.071-.973-1.15-1.284-1.253c.155-.26.85-1.72 3.51-1.74 2.662-.02 3.482 1.46 3.76 1.999s1.532 2.867 1.998 7.304c.435 4.432.456 4.764.384 6.297-.052.849-.332 2.816-.82 4.918-.445 1.782-.931 3.77-1.822 4.671z" clip-rule="evenodd"/><path fill="#8C6228" fill-rule="evenodd" d="M90.317 41.6c.4.03.8-.06 1.15-.259.383-.02 1.77.156 2.837-1.2.072.31.26 1.15-.228 1.895.26-.26.642-.363.694-.435.02.383.383 1.563-1.15 4.432.414-.456.9-.435 1.336-.487.02.539.31 2.35-.456 3.325-.507.662-1.336.455-1.336.455a2.6 2.6 0 0 0 0-.435c-.02-.28-.124-.56-.05-.745a3.7 3.7 0 0 1-1.078-.747c-.901-.849-2.071-2.298-2.154-3.375-.104-1.202.974-1.46.974-1.46a1.2 1.2 0 0 1-.228-.28c-.052-.176-.104-.456-.311-.683" clip-rule="evenodd"/><path fill="#92723A" fill-rule="evenodd" d="M82.33 28.572s-.052-.072-.331.26c.051-.332.103-.643.124-.944a3.3 3.3 0 0 1 .508-.766c-.156.31-.26.59-.26.59s.384-.715.943-1.15c.383-.31.87-.455 1.077-.745.228-.31.176-.362.228-.414 0 0 .507-.331 1.284-1.305.103-.125.26-.26.363-.383.175-.073.59-.26 1.076-.508.508-.28 1.078-.663 1.43-.82.694-.31 1.43-.279 1.77-.766.26-.073.539-.85.487-1.512.383.155 2.351 1.377 3.025 4.05.486 1.894-.384 4.815-.746 6.224-.363 1.409-.414 2.454-.922 3.096-.642.85-2.713 2.048-3.22 2.641-.436.487-1.74 1.719-1.69 2.61.053.662.87 1.023 1.047 1.149.177.125.176.28.508.205.331-.076.455-.229.59-.229.155.021.155.052.228.052a1 1 0 0 0 .155-.02s-.052.942-2.257 1.228c-.156.021-.311.072-.508.104.26-.125.414-.125.694-.507-.31-.052-1.202-.104-1.43-.177.073-.124.311-.456.508-.61.176-.155-.02-.205-.176-.125a8 8 0 0 0-.766.59c-.26.228-.487.539-.901.82-.125-.415-.104-1.202.383-1.772-.125.02-.363.383-.59.311a3.3 3.3 0 0 1 .072-1.13c.124-.465.797-1.283.797-1.283l3.252-5.81.694-4.401z" clip-rule="evenodd"/><path fill="#B18E3E" fill-rule="evenodd" d="M82.155 28.823s-.176.124.176.362c-.052.072-.176.331-.332.507-.175.205-.362.332-.435.508-.155.363-.279.611-.279.767 0 .155-.052 1.15-.487 1.791-.155.228-.331.611-.456.87-.258.455-.486.819-.538 1.024-.103.362-.176 1.356-.176 1.356s.228-.28.31-.383c-.124.259-.258.538-.455.746.124-.104.487-.363 1.098-.901.849-.715 2.175-1.916 3.79-2.868-.487.177-.9.177-1.232.228.259-.258 2.589-2.992 3.81-3.251a.5.5 0 0 0 .105-.332l-1.047-.103-2.123.455-.31-1.638-1.42.86z" clip-rule="evenodd"/><path fill="#543E26" fill-rule="evenodd" d="M85.531 38.141s-.28.28-.539.974q-.3-.314-.508-.695c-.382-.641-.972-1.46-2.35-.994-.02-.434-.052-.662 0-.973.228-.051.922-.61 1.615-1.429.488-.559.943-1.201 1.254-2.02a17 17 0 0 1 1.024-.714c.662-.455 1.46-1.077 1.584-1.77-.31.123-.973.434-1.968.383.384-.176.974-.363.901-1.13.156-.103.28-.175.28-.175a1 1 0 0 0-.362-.052c-.022-.073-.052-.176-.228-.124-.177.05-.205.051-.228.124-.073.021-.311 0-.487.125s-.663.538-.85.61c.073-.124.176-.31.176-.31s-.507.051-.87.205c-.663.228-1.429.642-2.206 1.046.073-.125.104-.205.155-.228s.177-.052.177-.073-.052-.204-.02-.279a9.5 9.5 0 0 1 .818-1.408c.363-.488.435-1.181.435-1.181l1.585-.798 4.453-1.024 2.89.177-.363 1.998-1.707 3.49-1.46 3.18-1.668 1.947z" clip-rule="evenodd"/><path fill="#806031" fill-rule="evenodd" d="M92.748 29.49s-1.74 2.154-2.227 2.486c.311-.663 2.227-4.609 2.92-5.706-.154-.125-.362-.125.125-2.048-.414.973-.56 1.48-.9 1.74-.342.258-.384.175-.615.175a.43.43 0 0 0 .051-.259s-1.46-.176-2.457-.176c-.998 0-2.972.539-4.07.974-.87.362-1.357.362-1.667.59-.31.258-.487.538-.643.61-.124.073-.714.26-.849.456-.124.205-.331.435-.331.487s-.052.125.104.072c.05-.02.435-.228.87-.487.59-.33 1.304-.714 1.822-.942 1.48-.59 1.947-.486 2.61-.61.693-.125 1.688-.415 2.35-.415.663-.02 1.916 0 2.206.052-.124.104-.228.228-.176.663 0 .124-.104.258-.205.559-.31.849-.9 2.257-1.229 2.972-.455.973-.972 1.791-1.228 2.299-.256.507-.82 1.843-1.377 2.558-.558.714-.85 1.15-1.024 1.305s-1.43 1.076-1.336 1.408c.228-.072 1.667-.614 2.713-1.791 1.045-1.177 1.253-1.895 2.07-2.538.819-.642 1.461-1.718 1.844-2.609.32-.829.248-1.087.652-1.823z" clip-rule="evenodd"/><path fill="#B6903C" fill-rule="evenodd" d="M55.25 45.565s-.228.942-.747 1.408c-.507.456-1.408.85-1.511 1.616-.124.766.901 1.15.901 1.15s-.56.921-.56 1.615c0 .715-.02.85.052 1.533a.7.7 0 0 0-.205.204s.051.663.56 1.077c.507.414.941.663 1.2.559q.06.127.104.26s.384-.974.642-1.823c.26-.87.487-.746.59-1.916s1.229-3.18 1.229-3.18l.768-1.717-1.253-.973z" clip-rule="evenodd"/><path fill="#685026" fill-rule="evenodd" d="M57.58 47.255a7.5 7.5 0 0 0-.714.85c-.33.455-.59.869-1.076 1.046-.487.176-.798.175-.767.662.03.488.487.694.746.943.28.258.508.693.383 1.18.155-.072.435-.155.694-.714.259-.56 2.068-3.966 2.068-3.966z" clip-rule="evenodd"/><path fill="#D4B968" fill-rule="evenodd" d="M64.717 39.392s.155-.414 0-.714c-.156-.31-1.098-.414-1.564-.767-.487-.362-1.077-.614-1.564-.455.072-.176.363-.56.124-.642-.228-.073-1.076.31-1.304.486-.228.177-.746.383-.85.508-.102.125-.28.363-.383.26-.104-.073-.155-.26-.331-.157s-1.024.798-1.18 1.202c-.157.404-.508 1.305-1.565 2.33s-1.512 1.688-1.201 2.071.456.104.508.435c.04.325.022.654-.052.973-.124.539-.331 1.046-.052 1.15.715.228 1.41-.205 1.564-.072.31.279-.176 1.284.56 1.48.745.205 1.48-.176 1.48-.176l2.714-1.46 2.61-1.377 1.335-2.641-.716-2.206-.137-.228z" clip-rule="evenodd"/><path fill="#CCA849" fill-rule="evenodd" d="M62.157 45.7s-.456-.693.103-1.305c.56-.612 1.357-.87 1.667-1.253a.5.5 0 0 0-.228-.155c.207-.369.521-.665.901-.85-.154-.155-.362-.279-.59-.279-.507 0-.819.31-1.284.31-.455 0-.507-.227-.507-.227s.766-.073.693-.415c-.072-.362-.204-.362-.204-.362s1.48-.614 1.739-.942.228-.715.28-.87c.175 0 1.2-.539 1.615-.31.414.227.124.849.124.849s1.254-.943 1.893-1.867c.56.051.82-.383 1.23-.383.507 0 1.304.693 1.46 2.174.103.85.258 1.336.103 2.838-.072.849-.052 2.662.205 3.562.175.715.59.642.59.642a1.16 1.16 0 0 1-.363.56c-.28.258-.31.942-.28 1.2q.062.285.156.56s-.331.383-.414.642c-.073.26-.414.435-.663.435s-.125-.02-.456 0c-.33.021-.434.073-.642 0-.208-.072-.362-.155-.28-.819.073-.663-2.557-2.206-2.557-2.206l-4.301-1.532z" clip-rule="evenodd"/><path fill="#585136" fill-rule="evenodd" d="M57.217 52.247s.942 1.253 4.816 1.253c1.843 0 2.485-.176 2.867-.28.414-.104 1.968-.714 3.531-2.558 1.409-1.667 1.098-2.35 1.098-2.35l-.819-.124-2.662.362-7.878 3.355-.956.342z" clip-rule="evenodd"/><path fill="#252211" fill-rule="evenodd" d="M60.106 52.557s-3.355.746-3.355-1.377c0-2.071 2.071-4.246 2.59-4.63.538-.383 1.822-.819 1.822-.819h3.097l.59 1.564-.26 3.376z" clip-rule="evenodd"/><path fill="#C3B378" fill-rule="evenodd" d="M63.203 46.364s-.642-.59-2.102.205-2.642 2.458-2.714 3.967c-.072 1.335 1.098 2.33 2.92 2.382 1.357.051 2.175-.104 2.59-.205-.104-.124-.643-.797-.643-.797z" clip-rule="evenodd"/><path fill="#E6D89C" fill-rule="evenodd" d="M62.571 46.695s-.155-.124-.614.124c-.383.205-.942.746-1.377 1.13-.28.227-.456.33-.615.507-.642.766-1.18 2.02-.87 2.641.312.621 1.337 1.336 3.947.85l-.478-5.251z" clip-rule="evenodd"/><path fill="#252211" fill-rule="evenodd" d="M61.722 47.98s-.415.642-.415 1.667c0 1.046.59 2.713 2.766 2.837 1.667.104 2.785-2.402 3.997-3.375.922-.746 1.48-.767 1.48-.767s-.941-1.024-3.458-2.35c-2.485-1.336-5.271-1.512-6.783.538.714-.052 3.024-.642 3.024-.642l1.129.362z" clip-rule="evenodd"/><path fill="#6F674D" fill-rule="evenodd" d="M64.974 49.336c-.073-.155-.125-.362.176-.414.3-.05.434-.02.538.205.104.226.205.415.052.508-.155.083-.56 0-.767-.3zm-.487-1.46s-.104.072-.052-.072c.02-.176.156-.487.487-.414s.26.435.204.538c-.054.104-.33.28-.538.205a.17.17 0 0 1-.13-.182.2.2 0 0 1 .026-.077z" clip-rule="evenodd"/><path fill="#AC924C" fill-rule="evenodd" d="M36.455 48.536s.819.614 1.77.59c.942-.021 2.154-.994 2.713-1.616.331-.362.615-.745.922-1.046.26-.258.435-.383.559-.559.176-.205.363-.59.456-.715-.228.177-.559.488-.901.695-.331.205-1.046.59-1.336.693-.28.104-3.18 1.639-3.18 1.639z" clip-rule="evenodd"/><path fill="#9F8E57" fill-rule="evenodd" d="M37.706 40.886s.455-.31 1.336-.508c.85-.205 2.558-.362 2.558-.362l1.408.614.56 2.123-1.025 2.206-1.304.82-1.481-2.382-2.049-2.507z" clip-rule="evenodd"/><path fill="#EAC970" fill-rule="evenodd" d="m35.863 42.78-.487.364s.125-.228.228-.922c.103-.693.642-2.382 1.43-3.355s.766-.922.766-.922a.52.52 0 0 0-.414.103c.103-.229.766-1.048 1.43-1.458.662-.41.92-.538 1.614-.205s.87.508 1.378.487c.508-.02.942-.559.942-.559s.104.331-.28 1.098c-.382.767-1.894 2.33-1.894 2.33l-3.149 2.154-1.564.887z" clip-rule="evenodd"/><path fill="#D7BC6B" fill-rule="evenodd" d="M38.192 40.628s2.278.31 2.972-.331c.02.072.104.072.104.124a.2.2 0 0 1-.052.103q.113-.018.228-.02.137.04.28.052.114-.004.228-.022a.4.4 0 0 1-.156.26c.104 0 .205.02.205.103s.02.332-.104.384a.47.47 0 0 1-.31-.022c.008.196.061.388.155.56.205.383.642.82 1.229.694 0 0 .31.745-.995 2.402-.175.228-.362.539-.59.797q-.135.295-.204.611s2.206-.849 2.838-2.786c.642-1.947.766-3.862.642-5.653-.021-.508-.104-.87-.228-1.13-.31-.642-1.181-.538-1.533-.176-.508.508-1.357 1.771-2.537 2.64-1.201.87-1.253 1.025-2.175 1.41z" clip-rule="evenodd"/><path fill="#585136" fill-rule="evenodd" d="M35.46 43.424s-.435.259-.663 1.229c-.228.994.205 2.206.456 2.589.25.383.819 1.43 1.998 1.481a2.2 2.2 0 0 0 .85-.176 5.4 5.4 0 0 0 1.15-.715c.507-.383.92-.714.869-.745-.124-.052-3.127-2.538-3.127-2.538l-1.13-1.26-.404.137z" clip-rule="evenodd"/><path fill="#453A25" fill-rule="evenodd" d="M38.298 47.547s.611-.051.974-.28c.362-.227-2.124-2.692-2.124-2.692l.177 2.663z" clip-rule="evenodd"/><path fill="#84754B" fill-rule="evenodd" d="M35.656 43.235s-.31.59-.31.746c-.053.508.103 2.102.227 2.61.124.538.798 1.356 1.668 1.356.538 0 1.284-.331 1.284-.414 0-.104-.767-.205-.973-.59-.125-.205-.176-.714-.205-1.229-.02-.331-.02-.694.104-.82.28-.31.33-1.2.33-1.2l.995-1.847h-1.308l-1.564.973z" clip-rule="evenodd"/><path fill="#252211" fill-rule="evenodd" d="M35.273 43.807s1.023-1.357 1.946-1.668 1.336-.124 1.336-.124l-.538 1.377-.767.85.052.434s-.125 1.15.642 1.947c.766.798 1.336.767 1.667.767.332 0 1.285-.28 1.771-1.43.435-1.076.798-2.457-.072-3.842-.85-1.377-2.351-1.43-2.641-1.43s-2.568.113-3.396 3.117z" clip-rule="evenodd"/><path fill="#F7F7E7" fill-rule="evenodd" d="M61.565 48.415c-.383-.176-.02-1.253.363-1.584s.87-.715 1.72-.767c.31-.02.61.176.559.384-.073.383-.611.921-1.098 1.304-.673.529-1.109.86-1.544.663" clip-rule="evenodd"/><path fill="#F8F6DE" fill-rule="evenodd" d="M40.854 42.545c.28-.02.643.205.715.508.072.331-.176.994-.715.994-.435 0-.663-.538-.663-.694a.8.8 0 0 1 .104-.362c.02-.031.072-.394.56-.446" clip-rule="evenodd"/><path fill="#D4C38B" fill-rule="evenodd" d="M36.815 42.781s-.715.331-1.046 1.024a2.7 2.7 0 0 0-.204 1.639c.052.258.31.9.486 1.128s.415.384.59.363c.177-.022.539-.487.539-.766 0-.28.021-1.46.362-2.103.3-.642-.725-1.284-.725-1.284z" clip-rule="evenodd"/><path fill="#E2D59D" fill-rule="evenodd" d="M36.92 42.73c-.125.073-.332.176-.28.31.051.125.486.206.642.509.176.31.176.642.124.797q.204-.097.363-.26c.227-.258.507-.61.745-.61.156 0 .31.073.456.073.228 0 .455-.072.487-.31.05-.311-.435-.591-.715-.54.052-.204.124-.507-.104-.714-.228-.208-.942.156-1.097.26-.156.103-.622.486-.622.486" clip-rule="evenodd"/><path fill="#CBAC5A" fill-rule="evenodd" d="m53.374 64.487 1.533-.453.435.31s.31.664.797.746c-.156.331-.56.615-.539.85s.228.414.228.414-1.377 2.278 1.336 4.574a43 43 0 0 0-1.895.819c.31.072.973.205 1.253.456s.28.331.539.487c.258.155.413.362.362.455-.176-.104-.766-.414-.87-.124s-2.557.176-2.557.176l-4.143.797s.155-.414-.28-.797c-.507-.455-1.128.02-1.791-.487-.87-.663-.901-1.43-1.18-1.719.279-.176.849-.435 2.205-.614-.052-.104-.228-.414-.124-.694.124-.362.642-.59.487-1.024.228-.052.33-.052.9-.766.54-.715.87-.87 1.285-.922s.663 0 1.43-.715c.537-.507.362-.942.362-.942s.352-.114.228-.829z" clip-rule="evenodd"/><path fill="#D6BC6F" fill-rule="evenodd" d="M48.85 64.718c.02-.104.104-.156.663-.104s4.1-.33 5.064-.383c.973-.072 4.401-.02 6.069.332s3.355.766 4.173.973c.82.228 1.077.31 1.046.414-.02.103-.205.204-.31.176-.104-.02-2.818-.85-3.656-1.024s-3.739-.642-5.325-.615c-1.48.022-2.07-.02-3.323.125-1.254.155-3.325.362-3.946.28-.615-.073-.488-.073-.456-.176z" clip-rule="evenodd"/><path fill="#DFC677" fill-rule="evenodd" d="M57.186 72.835s2.123 1.15 2.89 2.558c.558 1.045-.332 1.564-.332 1.564s1.202 0 1.046.662c-.072.414-2.071 1.532-3.407 2.123-1.357.59-1.305.56-1.968.663-.642.103-2.403-.205-2.765.31-.363.516-.205 1.047-.104 1.13.104.072.943.176.943.176s-.176.486-1.916.538-2.175.176-2.278.363c-.104.175.33.072 1.129.204.797.125 1.915.205 1.915.205s-.362.31-1.304.56c-1.077.279-2.766.538-3.273.849.259.176.642.434.82.455-.436.104-1.047.332-1.15.414.155.104.362.228.362.228s-.87 1.046-1.377 1.306c-.508.26-3.428 1.615-4.433 1.356-2.506-.663-2.817-3.407-3.428-3.614-.921-.31-1.356.31-2.175-.125.363-.259.56-.414.943-.59-.414-.204-2.558-1.564-2.558-1.564a16 16 0 0 0-.745-1.428c-.415-.715-1.024-1.668-1.482-2.507-.994-1.844-1.046-2.693-1.947-3.739.156-.204.694-.176.694-.176l7.55 2.486 13.388.388 3.482-4.97z" clip-rule="evenodd"/><path fill="#C4A859" fill-rule="evenodd" d="M37.354 80.414q.121.136.28.228c.259.176.642.383.9.694.104-.156.363-.435.82 0 .456.434 1.023.124 1.377.228.362.124.383.176.383.176s.204-.176.662-.363c.28-.104.611-.176.974-.28.33-.072.693-.175.943-.175.228.155 1.045 1.024 4.328-.259 3.097-1.201 3.811-1.336 4.33-1.15.051-.125.103-.363.9-.331 0-.331-.663-1.46-.663-1.46l-3.655-1.253h-2l-5.996 1.098-3.322 1.895-.259.956z" clip-rule="evenodd"/><path fill="#927D49" fill-rule="evenodd" d="M35.356 78.311s.072.56.9 1.15c.82.59 1.077.942 1.077.942s.156-.205.28-.414c.124-.228.228-.486.435-.559.414-.176 1.356.155 1.564.103.176-.05.124-.413.31-.413.435-.022.715.279.87.279s.538-.02.59-.103.072-.943.663-1.357c.642-.456 1.43-.26 1.638-.155 0 .155.02.538.435.559.415.02.456-.052.82.072s.797-.02.993.59c.177-.051.59-.103.487-.694.205-.155.384-.258.82-.87.103-.154.279-.33.414-.558.362 0 .797-.073 1.377.434-.177.125-.28.205-.332.332q.228.226.414.486c.156.205.26.456.456.508.435.124 1.15-.052 1.947 0 .767.052 1.408.331 1.688.507.104-.05.104-.072.363-.02s.455.072.176-.259c.155.073.331.228.487.073s.279-.383.714-.435.59.02.767-.435c.227-.56-.56-.56-.56-.56s.363-.331.767-.766c.487-.455 1.046-1.046 1.18-1.77.228-1.337-1.076-1.512-1.076-1.512l-6.328 1.947-7.736-.384-6.596 3.283z" clip-rule="evenodd"/><path fill="#6E6342" fill-rule="evenodd" d="M29.67 60.033s-.204.259-.33.87c-.127.61-.073.538-.177.973-.103.435-1.378 4.764-.9 6.224s1.305 2 1.823 3.18c.104.258.205.414.259.642.176.766.02 1.356.228 2.123.072.259.259.559.538.87.614.641 1.616 1.252 2.048 1.687.61.643 1.48 1.948 2.589 2.071.59.073 1.43-.176 2.123-.59.614-.383.994-.921 1.638-1.228.456-.228.942-.31 1.377-.415.901-.176 1.72-.204 2.207-.103.745.155 2.506.694 3.481.694a9.5 9.5 0 0 0 2.258-.31c1.48-.436 3.272-1.182 4.453-1.513.693-.205 1.253-.259 1.823-.383.973-.228 1.79-.538 2.257-1.129-.31-.362-.694-.921-2.765-.901-2.35.052-5.064 1.356-6.4 1.564s-1.916.383-3.408-.156c-1.462-.544-1.51-.904-1.51-.904s-1.536-1.073-2.178-3.81 0-4.733 1.668-6.629c.435-.487.33-.922.33-.922s1.099-1.48.798-2.867c-.33-1.377-2.454-1.097-2.454-1.097l-11.775 2.06" clip-rule="evenodd"/><path fill="#39331F" fill-rule="evenodd" d="M31.44 64.64a1.1 1.1 0 0 0-.125.56c.02.279.104.641.942 1.46.715.714.56 1.511.56 1.511s.36.073 1.336-.384c.766-.363 1.023.28 1.023.28.224-.117.466-.194.715-.228.227-.02.446-.09.642-.205 0 0 .901.922 1.688 1.357.715.383 1.13.642 1.482.383.33-.228.33-.694.31-.9a2.7 2.7 0 0 0-.31-.54c-.228-.33-.59-.714-.615-1.023-.052-.715.539-1.564.414-1.771s-.59-.26-1.74.155c-1.19.394-6.327-.652-6.327-.652z" clip-rule="evenodd"/><path fill="#292311" fill-rule="evenodd" d="M34.154 69.273s-.59-.559-.384-3.273q.377-.005.746.073s.322 2.102-.362 3.2" clip-rule="evenodd"/><path fill="#252211" fill-rule="evenodd" d="M29.95 57.96q.125-.09.229-.204c-.205.383-1.15 1.916-.384 4.329.767 2.402 2.693 4.193 5.064 4.277 2.372.083 3.618-1.078 5.044-2.817.559-.694 1.201-1.564 1.77-2.154.85-.922 1.513-1.18 1.513-2.071 0-1.823-1.865-2.641-4.609-3.459s-5.22-.717-6.504-.157c-1.253.61-1.791 1.253-2.123 2.258z" clip-rule="evenodd"/><path fill="#3F3824" fill-rule="evenodd" d="m38.762 70.089.205-.104s.051-.819.383-.797c.331.052.487.487.455.642-.02.155-.103.415-.434.383-.435.01-.61-.124-.61-.124z" clip-rule="evenodd"/><path fill="#2D2815" fill-rule="evenodd" d="M37.842 66.611s.205-.072.456.176c.204 0 1.097-.103 1.377.073s.363.33.363.33-1.046.229-1.616 0c-.58-.196-.58-.579-.58-.579" clip-rule="evenodd"/><path fill="#82764F" fill-rule="evenodd" d="M42.45 66.765c0-.052-.56-.435-1.15-.56-.104-.02-.125.052-.205.052-.052-.02-.072-.176-.072-.176l-.336.177s-.052.072.124.205c.155.124.414.228.487.434.072.207.072.28.104.311.02.02.383 0 .559-.104.176-.103.508-.273.486-.341z" clip-rule="evenodd"/><path fill="#2D2816" fill-rule="evenodd" d="M37.219 68.87s.103-.714.797-.745c.714-.052.85.642.85.642l-.415.414c0-.01-.31-.445-1.229-.31z" clip-rule="evenodd"/><path fill="#574F35" fill-rule="evenodd" d="M41.725 65.789s-.383.414-1.232.538c-.072-.104-.228-.31 0-.642.228-.33.487-.434.745-.331a.61.61 0 0 1 .487.434" clip-rule="evenodd"/><path fill="#82764F" fill-rule="evenodd" d="M43.289 66.297c.02-.103-.052-.124 0-.176.05-.052.331-.155.383-.104.02.022 0 .104 0 .205s0 .205-.051.28c-.073.103-.28.155-.384.124-.103-.03-.124-.176-.124-.205.051-.02.176-.072.176-.124m1.768-1.118c0-.052.176-.156.28-.156.155 0 .155.125.176.156.051.02.051-.021.103.072.052.094.125.26.072.363-.052.104-.258.175-.31.155-.072-.052-.3-.518-.321-.59" clip-rule="evenodd"/><path fill="#6E6342" fill-rule="evenodd" d="M41.496 66.535s.228.051.539.31c-.104.073-.26.155-.26.155s-.02-.238-.279-.466" clip-rule="evenodd"/><path fill="#585136" fill-rule="evenodd" d="M40.989 64.26c-.052-.05.155-.175.279-.154s.176.104.31.124c.135.02.156-.052.205-.104.05-.052.228-.02.259 0q.029.034.052.073a.3.3 0 0 1 .103-.205.33.33 0 0 1 .28-.052c.02.072.124.331.104.383s-.332.125-.384.072c.052.125.28.384.31.435.031.051-.227.176-.33.156-.145-.01-1.036-.529-1.191-.725zm1.356-1.718a.24.24 0 0 0-.104-.125c-.072-.02-.31 0-.31.125 0 .124.205.819.435 1.18.259.363.434.663.61.746a.24.24 0 0 0 .311-.104c.02-.051.073-.434.052-1.336-.02-.9-.052-1.77-.104-1.822s-.258-.052-.33.052c-.073.103-.54 1.129-.56 1.284" clip-rule="evenodd"/><path fill="#574F35" fill-rule="evenodd" d="M41.424 67.842s-.362-.228-.715-.073c-.33.156-.31.767-.31.767a.49.49 0 0 0 .456-.052c.228-.155.517-.414.569-.642" clip-rule="evenodd"/><path fill="#82764F" fill-rule="evenodd" d="M42.108 68.661c-.02-.204-.205-.204-.205-.31a.23.23 0 0 1 .228-.176c.103 0 .204.124.331.204.125.073.311.205.331.363s-.204.59-.455.59c-.25 0-.176-.466-.228-.673zm1.999-.28s-.414.125-.384 0c.031-.124.125-.154.26-.154a.4.4 0 0 1 .259-.125.23.23 0 0 1 .154.051s.28-.124.363-.051c.083.072.021.072.072.155a.7.7 0 0 1 .125.31c0 .084-.31.26-.56.229-.289-.062-.238-.363-.289-.415m2.413-.466s.124.073.02.156c-.072.072-.434.205-.745.228-.311 0-.59.051-.59-.052s.258-.31.413-.362a.33.33 0 0 1 .26-.125c.124 0 .61-.052.745-.072.125-.021.228.051.155.155-.03.072-.258.072-.258.072m.714-3.197s-.155.33-.33.33c-.177-.02-.177-.072-.177-.124 0-.072.176-.258.155-.31-.051 0-.176 0-.155-.124 0-.104.176-.228.331-.205a.7.7 0 0 1 .414-.155c.177 0 .332.051.332.155s-.205.33-.28.383c-.083.083-.187.137-.29.052zm-2.361 6.12s-.205.02-.205.124c0 .052.051.052.124.021a.6.6 0 0 0 .125-.021c.02.021.02.124.176.124a1 1 0 0 0 .362-.124c.125-.051.228-.104.228-.205q-.078-.262-.31-.26a.4.4 0 0 0-.228.053s-.052-.104-.228 0c-.177.103-.156.103-.104.155.093.083.062.137.062.137zm-1.17 1.077c0-.052.259-.156.33-.124.073.02.28.413.28.455 0 .052-.259.176-.362.176-.104 0-.28-.176-.28-.205 0-.02.125-.05.125-.072.03-.051-.093-.176-.093-.228zm-.82-1.512c.052-.02.052-.073.125-.124a.18.18 0 0 1 .155-.02.25.25 0 0 1 .177-.126c.124-.02.228 0 .204.052 0 .156.104.259.104.383s-.072.28-.33.384c-.26.072-.612.072-.664.052s-.104-.228-.052-.332.197-.217.28-.27z" clip-rule="evenodd"/><path fill="#6E6342" fill-rule="evenodd" d="M43.213 70.472s-.177.103-.177.155a.5.5 0 0 0-.02.155c0 .031.228-.02.259-.052.01-.02-.062-.204-.062-.258" clip-rule="evenodd"/><path fill="#585136" fill-rule="evenodd" d="M41.672 69.984c.103.021.28 0 .414.052.103.052.176.155.072.28-.104.124-.205.31-.435.279-.259-.02-.507-.155-.507-.259a.5.5 0 0 1 .124-.362c.104-.083.155-.031.331.01z" clip-rule="evenodd"/><path fill="#574F35" fill-rule="evenodd" d="M41.549 70.09s-.331.259-.415.383c-.104.125-.61.767-.766.9q.078-.135.176-.258a1.06 1.06 0 0 0-.435.56c-.124.383.694.59 1.232.746.538.155.746.204.746.204a6 6 0 0 1-.508-.942c-.205-.487-.31-.538-.176-.766.104-.228.26-.383.26-.56a3 3 0 0 0-.114-.267" clip-rule="evenodd"/><path fill="#252211" fill-rule="evenodd" d="M29.743 70.908a.6.6 0 0 0 .228 0c.155-.02 1.77-.614 3.459-.508 1.264.077 2.516.283 3.738.615 2.123.559 4.764 1.667 6.472 2.3.456.175.901.486 1.23.61 1.304.507 1.356.507 2.122.642.901.124 1.823-.176 2.786-.383 1.18-.26 3.2-.384 4.97-.643q.861-.119 1.689-.382s-1.408 1.408-4.785 1.915a15 15 0 0 1-4.121.052c-1.077-.104-1.791-.26-2.33-.415-.611-.176-1.864-.642-3.407-1.023-1.078-.28-2.28-.487-3.656-.746-3.397-.622-7.083-1.336-8.397-2.03z" clip-rule="evenodd"/><path fill="#CFB66C" fill-rule="evenodd" d="M25.931 64.508a59 59 0 0 1-2.537 1.998l-2.558 1.965c-.87.642-1.719 1.305-2.59 1.947s-1.739 1.253-2.661 1.843c.819-.693 1.688-1.335 2.557-1.967.87-.631 1.772-1.25 2.61-1.89l2.559-1.969c.88-.642 1.73-1.305 2.62-1.926zm-4.525 7.25s.921-.768 2.07-1.844c1.43-1.335 3.18-3.045 3.74-3.355z" clip-rule="evenodd"/><path fill="#CFB66C" fill-rule="evenodd" d="M21.406 71.754c.456-.456.943-.9 1.43-1.336l.745-.642c.228-.205.488-.435.715-.663.455-.455.901-.942 1.356-1.408q.34-.352.715-.663.188-.166.414-.28c.125-.072.26-.205.435-.228-.103.156-.228.228-.331.363-.125.103-.228.228-.331.33-.228.229-.487.436-.715.643-.487.414-.994.82-1.48 1.253-.488.433-.943.901-1.43 1.336-.528.446-1.015.88-1.523 1.297zM27.6 67.61s-3.375 3.304-4.07 3.843z" clip-rule="evenodd"/><path fill="#CFB66C" fill-rule="evenodd" d="M27.598 67.612q-.456.529-.974.994l-1.024.974c-.332.33-.643.663-.994.994-.363.31-.694.614-1.078.9l.994-.973c.332-.33.695-.61 1.047-.942l.994-.973c.341-.341.673-.673 1.035-.974m.155 1.792a22 22 0 0 1-1.097 2.537c-.87 1.74-2.175 3.915-2.745 5.023z" clip-rule="evenodd"/><path fill="#CFB66C" fill-rule="evenodd" d="M27.754 69.406c0 .383-.104.715-.228 1.046q-.182.498-.414.974c-.156.31-.332.642-.508.942s-.383.61-.539.922l-1.045 1.843c-.363.615-.715 1.232-1.098 1.823.259-.663.61-1.284.943-1.895.362-.615.693-1.229 1.024-1.865q.242-.475.434-.972c.155-.332.31-.643.435-.943.155-.331.28-.643.435-.942.176-.322.321-.632.56-.933" clip-rule="evenodd"/><path fill="#DEC270" fill-rule="evenodd" d="M31.44 77.898s-1.024 1.357-.921 3.076c.28-.9.631-2.278.922-3.076m.974 1.36s-.363 3.687-.663 5.5c.425-2.096.507-1.92.663-5.5m6.783 5.717s-1.533 4.506-1.564 5.758c.332-1.288.973-3.918 1.564-5.761z" clip-rule="evenodd"/><path fill="#CBAF59" fill-rule="evenodd" d="M42.781 77.622s2.486 4.1 4.35 7.6c-.504-1.76-1.665-4.99-4.35-7.6" clip-rule="evenodd"/><path fill="#E3C677" fill-rule="evenodd" d="M49.46 83.656a75 75 0 0 1 3.687 7.446c-.207-1.76-.767-4.774-3.687-7.446" clip-rule="evenodd"/><path fill="#ECD592" fill-rule="evenodd" d="M69.095 89.705c.413-.26 1.232-1.668 1.947-2.02.714-.362 1.252-.435 1.895-1.15.641-.746.819-1.2 2.226-1.79 1.968-.85.614-1.948.614-1.948q.326-.32.694-.59c.508-.383 1.098-.85 1.046-1.668-.072-1.377-.33-3.376-1.46-4.536 1.098-.228 3.2-.383 4.506-.714 1.511-.383 2.205-.922 2.205-.922s-.87-1.48.54-2.972c1.407-1.49 2.557-2.381 3.406-4.05-.973-.123-2.457-.64-6.245.798q.308.145.59.331s-2.33.643-3.178 1.357c-1.482 1.253-1.668 2.278-3.273 3.045s-3.221.56-4.556 1.18c-1.336.622-1.533 1.15-2.02 1.378.103.124-.02.331.176.507-.124.176-.85 1.357-1.585 1.357.073.28.694.486.694.486s-.455.332-1.615.415c.59.614 1.15 1.284 2.692 2.257-.124.26-.642.643-.435 1.13.228.486.82 1.15 3.18 1.688-1.202.051-2.61.33-4.506.072-1.895-.228-2.206-.362-3.376-.072.124.124.456.124.746.455-.311.02-2.258-.228-2.92.642-.694.901-.995 2.382-.943 3.376-.362.176-.715.487-.538 1.13s1.097.849 1.688 1.252c.59.435.641.59 1.201.487.59-.124 1.46-.714 1.968-.714.507 0 .87.383.87.383s1.377-.663 1.512-.539c.124.124.02.922.154 1.046.137.093 1.689-.828 2.103-1.088z" clip-rule="evenodd"/><path fill="#fff" fill-opacity=".8" fill-rule="evenodd" d="M99.2 48.261c-6.472-16.714-22.472-19.81-22.472-19.81h-45.65l.177 17.024h9.091v38.017h-9.268v16.995h44.386c10.698 0 19.273-10.75 19.273-10.75C108.469 70.247 99.2 48.26 99.2 48.26M75.704 78.283s-3.482 5.023-7.27 5.023h-7.578l-.18-37.79H70.4s4.506.943 7.654 9.86c0 0 4.173 12.765-2.351 22.907" clip-rule="evenodd"/></g><defs><clipPath id="a"><path fill="#fff" d="M0 0h128v128H0z"/></clipPath></defs></svg>