<svg xmlns="http://www.w3.org/2000/svg" width="128" height="128" fill="none"><g clip-path="url(#a)"><path fill="#fff" fill-rule="evenodd" d="M126.084 79.492c-8.549 34.289-43.278 55.158-77.572 46.607C14.232 117.55-6.636 82.818 1.917 48.53 10.462 14.237 45.192-6.634 79.475 1.915c34.292 8.55 55.158 43.285 46.609 77.577" clip-rule="evenodd"/><path fill="#000" d="M85.818 28.3c2.93 0 5.311-2.42 5.311-5.392s-2.381-5.389-5.312-5.389c-2.93.016-5.311 2.432-5.311 5.405 0 2.972 2.381 5.377 5.311 5.377m1.567 14.012a4.53 4.53 0 0 0 4.497-4.567c0-2.511-2.013-4.566-4.498-4.566-2.484 0-4.497 2.04-4.497 4.566 0 2.528 2.009 4.567 4.498 4.567m12.348 1.786c2.473 0 4.486-2.04 4.486-4.556s-2.013-4.555-4.486-4.555c-2.474 0-4.486 2.04-4.486 4.555 0 2.516 2.016 4.556 4.486 4.556M98.25 56.085c2.12 0 3.837-1.744 3.837-3.891s-1.717-3.89-3.837-3.89-3.837 1.743-3.837 3.89 1.717 3.89 3.837 3.89m9.886 3.886c2.136 0 3.864-1.755 3.864-3.917s-1.728-3.918-3.864-3.918a3.89 3.89 0 0 0-3.864 3.918c0 2.162 1.733 3.917 3.864 3.917m-22.31-5.507a3.955 3.955 0 0 0 3.932-3.98v-.007c0-2.2-1.755-3.987-3.933-3.987s-3.933 1.783-3.933 3.987c0 2.19 1.76 3.987 3.933 3.987M82.26 64c1.824 0 3.295-1.498 3.295-3.338a3.31 3.31 0 0 0-3.283-3.338h-.012c-1.824 0-3.295 1.498-3.295 3.338S80.436 64 82.26 64m12.367 1.686a3.29 3.29 0 0 0 3.269-3.314v-.008c0-1.836-1.46-3.323-3.269-3.323s-3.268 1.487-3.268 3.323a3.28 3.28 0 0 0 3.237 3.322zm9.859 3.871c1.825 0 3.296-1.498 3.296-3.349s-1.471-3.35-3.296-3.35-3.295 1.499-3.295 3.35a3.316 3.316 0 0 0 3.28 3.35zm-4.87 7.236c1.541 0 2.785-1.271 2.785-2.823s-1.244-2.823-2.785-2.823c-1.54 0-2.784 1.272-2.784 2.823 0 1.552 1.244 2.823 2.784 2.823m-9.905-3.81c1.567 0 2.85-1.298 2.85-2.892S91.29 67.2 89.712 67.2s-2.85 1.298-2.85 2.892 1.283 2.892 2.85 2.892M77.36 71.217a2.866 2.866 0 0 0 .004-5.73h-.004a2.866 2.866 0 0 0-.004 5.73zm6.867 6.799c1.364 0 2.459-1.122 2.459-2.486a2.46 2.46 0 0 0-2.439-2.484h-.02c-1.363 0-2.458 1.121-2.458 2.484a2.46 2.46 0 0 0 2.431 2.486zm9.902 3.875c1.363 0 2.485-1.122 2.485-2.512a2.492 2.492 0 0 0-4.261-1.776 2.512 2.512 0 0 0 1.776 4.288m-5.577 2.907c1.08 0 1.959-.89 1.959-1.985a1.974 1.974 0 0 0-1.959-1.986c-1.08 0-1.959.891-1.959 1.986a1.98 1.98 0 0 0 1.96 1.985m-5.285 1.56a1.78 1.78 0 0 0 1.77-1.793v-.005c0-.999-.798-1.797-1.77-1.797a1.78 1.78 0 0 0-1.77 1.792v.005a1.767 1.767 0 0 0 1.735 1.797zm-4.628-5.17c1.164 0 2.109-.96 2.109-2.136 0-1.175-.945-2.135-2.109-2.135s-2.108.96-2.108 2.135a2.13 2.13 0 0 0 2.108 2.136m-6.79-4.897c1.352 0 2.458-1.106 2.458-2.485a2.464 2.464 0 0 0-2.458-2.485c-1.352 0-2.459 1.106-2.459 2.485a2.48 2.48 0 0 0 2.459 2.485m20.137 31.133c2.919 0 5.285-2.404 5.285-5.365s-2.366-5.366-5.285-5.366-5.285 2.404-5.285 5.366 2.366 5.365 5.285 5.365m-13.424-6.79c2.432 0 4.406-2.001 4.406-4.47 0-2.47-1.975-4.472-4.406-4.472s-4.405 2.002-4.405 4.471 1.97 4.471 4.405 4.471m-7.67 9.828c2.458 0 4.444-2.012 4.444-4.513 0-2.485-1.986-4.513-4.444-4.513s-4.443 2.013-4.443 4.513a4.48 4.48 0 0 0 4.443 4.513m-2.308-18.109a3.88 3.88 0 0 0 3.852-3.906 3.88 3.88 0 0 0-3.852-3.906 3.88 3.88 0 0 0-3.852 3.906c.004 2.15 1.732 3.906 3.852 3.906m-7.65 9.963c2.12 0 3.836-1.744 3.836-3.89 0-2.148-1.717-3.891-3.837-3.891s-3.837 1.743-3.837 3.89a3.85 3.85 0 0 0 3.814 3.891zm-8.247 6.76c2.12 0 3.825-1.744 3.825-3.879 0-2.147-1.716-3.88-3.825-3.88-2.12 0-3.825 1.744-3.825 3.88 0 2.135 1.716 3.879 3.825 3.879m-6.863-8.799a3.3 3.3 0 0 0 3.268-3.311c0-1.825-1.46-3.31-3.268-3.31a3.311 3.311 0 0 0 0 6.621m8.261-6.79a3.29 3.29 0 0 0 3.268-3.312c0-1.835-1.459-3.31-3.268-3.31a3.31 3.31 0 0 0-.011 6.621zm7.709-9.96a3.29 3.29 0 0 0 3.268-3.314v-.008c0-1.836-1.46-3.322-3.268-3.322a3.293 3.293 0 0 0-3.269 3.314v.008c0 1.836 1.46 3.322 3.269 3.322m-11.792 1.371c1.567 0 2.839-1.283 2.839-2.877s-1.272-2.876-2.839-2.876-2.838 1.282-2.838 2.876 1.271 2.877 2.838 2.877m-8.219 6.764a2.827 2.827 0 0 0 2.811-2.842v-.008a2.823 2.823 0 0 0-2.795-2.85h-.016a2.825 2.825 0 0 0-2.811 2.842v.008a2.83 2.83 0 0 0 2.811 2.85m-1.89-7.928a2.45 2.45 0 0 0 2.432-2.458c0-1.363-1.095-2.458-2.432-2.458s-2.43 1.106-2.43 2.458c0 1.364 1.094 2.458 2.43 2.458m-.069-6.955a2.1 2.1 0 0 0 2.082-2.12c0-1.164-.933-2.12-2.082-2.12s-2.081.944-2.081 2.12c0 1.175.933 2.12 2.081 2.12m1.145-5.784c.987 0 1.77-.81 1.77-1.798 0-.987-.798-1.797-1.77-1.797-.987 0-1.77.81-1.77 1.797s.783 1.797 1.77 1.797m7.086-.968c1.164 0 2.109-.96 2.109-2.136 0-1.175-.945-2.135-2.109-2.135s-2.108.96-2.108 2.135a2.13 2.13 0 0 0 2.108 2.136m7.778-3.03c1.352 0 2.458-1.122 2.458-2.486a2.46 2.46 0 0 0-2.439-2.485h-.02c-1.351 0-2.458 1.122-2.458 2.485a2.47 2.47 0 0 0 2.447 2.485zm1.85 7.888a2.79 2.79 0 1 0-.01 0zm-9.528 2.101c1.352 0 2.431-1.106 2.431-2.473 0-1.368-1.094-2.474-2.431-2.474a2.447 2.447 0 0 0-2.431 2.462v.012a2.44 2.44 0 0 0 2.403 2.473zM21.27 73.318c2.903 0 5.27-2.393 5.27-5.338s-2.367-5.34-5.27-5.34c-2.904 0-5.27 2.397-5.27 5.343s2.366 5.335 5.27 5.335m11.96-9.533c2.5 0 4.513-2.054 4.513-4.582s-2.028-4.582-4.513-4.582a4.543 4.543 0 0 0-4.513 4.574v.008c0 2.543 2.028 4.582 4.513 4.582m-4.667-11.752c2.485 0 4.486-2.04 4.486-4.556s-2.012-4.555-4.486-4.555a4.515 4.515 0 0 0-4.486 4.547v.008a4.51 4.51 0 0 0 4.463 4.556zm11.53-5.57c2.12 0 3.852-1.743 3.852-3.906 0-2.162-1.728-3.906-3.852-3.906s-3.852 1.744-3.852 3.906 1.732 3.907 3.852 3.907m4.713 11.726c2.135 0 3.864-1.755 3.864-3.917s-1.729-3.918-3.864-3.918c-2.136 0-3.864 1.755-3.864 3.918 0 2.162 1.728 3.917 3.864 3.917m10.493-2.435a3.31 3.31 0 0 0 3.284-3.337 3.285 3.285 0 0 0-6.568-.1v.1a3.3 3.3 0 0 0 3.26 3.338zm9.064.031c1.567 0 2.838-1.283 2.838-2.865s-1.271-2.865-2.838-2.865a2.865 2.865 0 1 0 0 5.73m7.49 1.725c1.31 0 2.392-1.08 2.392-2.42s-1.068-2.42-2.392-2.42a2.41 2.41 0 0 0-2.393 2.42c.015 1.325 1.079 2.42 2.393 2.42m.975-8.826a2.096 2.096 0 0 0 2.082-2.11c0-1.163-.934-2.108-2.082-2.108s-2.082.945-2.082 2.109a2.096 2.096 0 0 0 2.082 2.108m-5.761-2.889a2.4 2.4 0 1 0-.012 0zm-7.401-1.751a2.834 2.834 0 0 0 2.811-2.85c0-1.582-1.256-2.85-2.811-2.85-1.556 0-2.812 1.283-2.812 2.85a2.825 2.825 0 0 0 2.804 2.85zm-9.05.011c1.825 0 3.296-1.498 3.296-3.337s-1.47-3.338-3.295-3.338-3.295 1.498-3.295 3.338a3.326 3.326 0 0 0 3.295 3.337M38.43 35.71c2.066 0 3.73-1.69 3.73-3.783s-1.675-3.783-3.73-3.783c-2.066 0-3.73 1.69-3.73 3.783s1.675 3.783 3.73 3.783m10.49-2.293c1.824 0 3.295-1.497 3.295-3.337s-1.471-3.338-3.296-3.338-3.295 1.498-3.295 3.338 1.47 3.337 3.295 3.337m9.06.043c1.567 0 2.838-1.283 2.838-2.877s-1.271-2.877-2.838-2.877a2.857 2.857 0 0 0-2.839 2.87v.007a2.865 2.865 0 0 0 2.839 2.877m7.435 1.713a2.4 2.4 0 0 0 2.393-2.42 2.401 2.401 0 0 0-4.104-1.711 2.42 2.42 0 0 0 1.711 4.13m5.711 2.965a2.15 2.15 0 0 0 2.136-2.163c0-1.202-.96-2.162-2.136-2.162-1.175 0-2.135.972-2.135 2.162 0 1.191.96 2.163 2.135 2.163m4.19 3.403a1.767 1.767 0 0 0 1.756-1.779v-.003a1.77 1.77 0 0 0-1.751-1.783h-.004a1.77 1.77 0 0 0-1.755 1.779v.004a1.753 1.753 0 0 0 1.728 1.781h.028z"/></g><defs><clipPath id="a"><path fill="#fff" d="M0 0h128v128H0z"/></clipPath></defs></svg>