<svg xmlns="http://www.w3.org/2000/svg" width="128" height="128" fill="none"><g clip-path="url(#a)"><path fill="#fff" fill-rule="evenodd" d="M126.084 79.492c-8.549 34.289-43.278 55.158-77.572 46.607C14.232 117.55-6.636 82.818 1.917 48.53 10.462 14.237 45.192-6.634 79.475 1.915c34.292 8.55 55.158 43.285 46.609 77.577" clip-rule="evenodd"/><path fill="url(#b)" d="M88.67 40c-5.352 0-11.211 2.91-17.392 8.65-2.916 2.696-5.485 5.633-7.358 7.955 0 0 2.997 3.444 6.288 7.155 1.793-2.243 4.335-5.286 7.304-8.036 5.485-5.126 9.07-6.167 11.13-6.167 7.707 0 13.967 6.46 13.967 14.443 0 7.902-6.26 14.363-13.966 14.443-.375 0-.803-.054-1.338-.16 2.247 1.04 4.682 1.788 6.956 1.788 14.128 0 16.91-9.744 17.071-10.438.401-1.789.642-3.657.642-5.58C111.947 50.785 101.512 40 88.67 40"/><path fill="url(#c)" d="M39.304 88c5.352 0 11.211-2.909 17.392-8.649 2.916-2.696 5.485-5.633 7.358-7.955 0 0-2.997-3.444-6.288-7.155-1.793 2.243-4.335 5.286-7.304 8.036-5.485 5.072-9.098 6.167-11.13 6.167-7.707 0-13.968-6.46-13.968-14.443 0-7.902 6.261-14.363 13.967-14.443.375 0 .803.054 1.338.16-2.248-1.04-4.682-1.788-6.957-1.788-14.127-.027-16.91 9.717-17.07 10.438a25.5 25.5 0 0 0-.642 5.58C16 77.215 26.435 88 39.304 88"/><path fill="#29ABE2" fill-rule="evenodd" d="M50.06 55.938c-1.551-1.495-9.096-7.609-16.32-7.822-12.897-.32-16.67 9.023-17.017 10.224C19.21 47.875 28.415 40.053 39.33 40c8.91 0 17.927 8.73 24.589 16.605l.027-.027s2.996 3.444 6.287 7.155c0 0 3.746 4.405 7.706 8.276 1.552 1.495 9.07 7.528 16.294 7.742 13.245.374 16.91-9.504 17.097-10.252-2.434 10.546-11.665 18.394-22.635 18.448-8.91 0-17.927-8.73-24.615-16.606 0 .027-.027.027-.027.054 0 0-2.997-3.444-6.288-7.155.027 0-3.719-4.431-7.706-8.302" clip-rule="evenodd"/></g><defs><linearGradient id="b" x1="76.144" x2="109.055" y1="43.803" y2="77.059" gradientUnits="userSpaceOnUse"><stop offset=".21" stop-color="#F15A24"/><stop offset=".684" stop-color="#FBB03B"/></linearGradient><linearGradient id="c" x1="51.838" x2="18.928" y1="84.203" y2="50.947" gradientUnits="userSpaceOnUse"><stop offset=".21" stop-color="#ED1E79"/><stop offset=".893" stop-color="#522785"/></linearGradient><clipPath id="a"><path fill="#fff" d="M0 0h128v128H0z"/></clipPath></defs></svg>