<svg xmlns="http://www.w3.org/2000/svg" width="128" height="128" fill="none"><g clip-path="url(#a)"><path fill="#0AC18E" fill-rule="evenodd" d="M126.084 79.492c-8.549 34.289-43.278 55.158-77.572 46.607C14.232 117.55-6.636 82.818 1.917 48.53 10.462 14.237 45.192-6.634 79.475 1.915c34.292 8.55 55.158 43.285 46.609 77.577" clip-rule="evenodd"/><path fill="#fff" d="M83.964 42.509c-3.216-7.294-10.607-8.853-19.655-7.342l-2.907-11.273-6.855 1.77 2.859 11.24c-1.803.455-3.655.845-5.49 1.365l-2.86-11.175-6.854 1.77 2.907 11.273c-1.478.422-13.84 3.59-13.84 3.59l1.885 7.342s5.035-1.413 4.987-1.3c2.794-.73 4.11.667 4.727 1.982l7.991 30.896c.098.893-.065 2.42-1.981 2.94.113.065-4.987 1.283-4.987 1.283l.747 8.56s12.248-3.134 13.856-3.54l2.94 11.403 6.855-1.771-2.94-11.484q2.827-.659 5.506-1.365l2.924 11.42 6.855-1.771-2.94-11.387C88.252 84.37 95.708 77.71 94.18 67.524c-.974-6.14-7.683-11.176-13.255-11.744 3.428-3.038 5.166-7.472 3.038-13.271m-3.297 26.883c1.364 10.087-12.654 11.322-17.284 12.54l-4.028-15.09c4.646-1.218 19.005-6.335 21.312 2.55M72.22 48.844C73.665 57.81 61.678 58.85 57.812 59.84L54.14 46.147c3.882-.958 15.139-5.604 18.079 2.697"/></g><defs><clipPath id="a"><path fill="#fff" d="M0 0h128v128H0z"/></clipPath></defs></svg>