<svg xmlns="http://www.w3.org/2000/svg" width="128" height="128" fill="none"><g clip-path="url(#a)"><path fill="#FAFAFA" fill-rule="evenodd" d="M126.084 79.492c-8.549 34.289-43.278 55.158-77.572 46.607C14.232 117.55-6.636 82.818 1.917 48.53 10.462 14.237 45.192-6.634 79.475 1.915c34.292 8.55 55.158 43.285 46.609 77.577" clip-rule="evenodd"/><path fill="#008CFF" d="M89.081 73.316c-2.967-1.72-6.314-2.214-9.627-2.325-2.782-.094-6.925-1.875-6.925-6.972a7.04 7.04 0 0 1 2.043-4.896 7.04 7.04 0 0 1 4.882-2.077c3.317-.114 6.66-.611 9.627-2.325a17.544 17.544 0 0 0-.024-30.379A17.6 17.6 0 0 0 80.292 22 17.55 17.55 0 0 0 65.1 30.763a17.57 17.57 0 0 0-2.356 8.767c0 3.4 1.207 6.529 2.759 9.435 1.294 2.44 1.952 6.972-2.5 9.536a7.04 7.04 0 0 1-9.502-2.604c-1.741-2.789-3.871-5.42-6.795-7.103a17.55 17.55 0 0 0-8.77-2.349c-3.077 0-6.102.813-8.77 2.352a17.54 17.54 0 0 0-6.418 23.961 17.53 17.53 0 0 0 15.188 8.773c3.078 0 6.106-.81 8.77-2.345 2.944-1.704 5.05-4.314 6.795-7.103 1.434-2.325 5.003-5.205 9.502-2.604a7.05 7.05 0 0 1 3.195 4.26 7.04 7.04 0 0 1-.698 5.276c-1.55 2.906-2.749 6.035-2.749 9.435 0 3.081.813 6.109 2.352 8.773a17.6 17.6 0 0 0 6.421 6.425A17.57 17.57 0 0 0 80.298 106c3.08 0 6.108-.81 8.776-2.349a17.56 17.56 0 0 0 8.78-15.194c0-3.082-.81-6.106-2.348-8.777a17.5 17.5 0 0 0-6.422-6.425z"/></g><defs><clipPath id="a"><path fill="#fff" d="M0 0h128v128H0z"/></clipPath></defs></svg>