<svg xmlns="http://www.w3.org/2000/svg" width="128" height="128" fill="none"><g clip-path="url(#a)"><path fill="#000" fill-rule="evenodd" d="M126.084 79.492c-8.549 34.289-43.278 55.158-77.572 46.607C14.232 117.55-6.636 82.818 1.917 48.53 10.462 14.237 45.192-6.634 79.475 1.915c34.292 8.55 55.158 43.285 46.609 77.577" clip-rule="evenodd"/><g clip-path="url(#b)"><path fill="url(#c)" d="M95.67 80.152 85.106 91.237c-.23.241-.507.433-.816.564a2.5 2.5 0 0 1-.979.199H33.227a1.24 1.24 0 0 1-.673-.197c-.2-.128-.357-.31-.452-.525a1.18 1.18 0 0 1 .228-1.297l10.573-11.085a2.45 2.45 0 0 1 .814-.563 2.5 2.5 0 0 1 .975-.2h50.082c.238 0 .472.069.672.197s.357.31.453.525a1.18 1.18 0 0 1-.228 1.297M85.106 57.829a2.5 2.5 0 0 0-.816-.564 2.5 2.5 0 0 0-.979-.198H33.227c-.24 0-.473.068-.673.196s-.357.31-.452.525a1.18 1.18 0 0 0 .228 1.297l10.573 11.086a2.47 2.47 0 0 0 1.789.763h50.082c.238 0 .472-.069.672-.197s.357-.31.453-.525a1.18 1.18 0 0 0-.228-1.297zm-51.878-7.962H83.31c.337 0 .67-.068.979-.199s.587-.323.816-.564l10.566-11.085a1.18 1.18 0 0 0 .228-1.297 1.2 1.2 0 0 0-.453-.526 1.25 1.25 0 0 0-.672-.196H44.692a2.5 2.5 0 0 0-.975.2 2.5 2.5 0 0 0-.814.563l-10.57 11.085a1.18 1.18 0 0 0-.229 1.296c.095.214.252.397.451.525.2.128.433.197.672.198"/></g></g><defs><clipPath id="a"><path fill="#fff" d="M0 0h128v128H0z"/></clipPath><clipPath id="b"><path fill="#fff" d="M32 36h64v56H32z"/></clipPath><linearGradient id="c" x1="37.402" x2="88.64" y1="93.335" y2="34.296" gradientUnits="userSpaceOnUse"><stop offset=".08" stop-color="#9945FF"/><stop offset=".3" stop-color="#8752F3"/><stop offset=".5" stop-color="#5497D5"/><stop offset=".6" stop-color="#43B4CA"/><stop offset=".72" stop-color="#28E0B9"/><stop offset=".97" stop-color="#19FB9B"/></linearGradient></defs></svg>