<svg xmlns="http://www.w3.org/2000/svg" width="128" height="128" fill="none"><g clip-path="url(#a)"><path fill="#fff" fill-rule="evenodd" d="M126.084 79.492c-8.549 34.289-43.278 55.158-77.572 46.607C14.232 117.55-6.636 82.818 1.917 48.53 10.462 14.237 45.192-6.634 79.475 1.915c34.292 8.55 55.158 43.285 46.609 77.577" clip-rule="evenodd"/><g fill="#000" clip-path="url(#b)"><path d="m94.52 37.416-10.246 5.22-49.474 25.2a30 30 0 0 1-.252-3.848 29.473 29.473 0 0 1 43.844-25.693l5.864-2.988.875-.447A36 36 0 0 0 28.09 66.74a6.55 6.55 0 0 1-3.557 6.328l-3.092 1.577V82l9.104-4.64 2.949-1.505 2.905-1.48L88.555 47.8l5.86-2.985 12.115-6.174v-7.35zM106.53 46 39.36 80.2l-5.86 2.992-12.06 6.145v7.347l11.977-6.102 10.246-5.22 49.525-25.236q.25 1.93.252 3.874a29.472 29.472 0 0 1-43.888 25.69l-.36.19-6.357 3.24A36.001 36.001 0 0 0 99.88 61.235a6.55 6.55 0 0 1 3.554-6.329l3.096-1.576z"/></g></g><defs><clipPath id="a"><path fill="#fff" d="M0 0h128v128H0z"/></clipPath><clipPath id="b"><path fill="#fff" d="M21.44 28h85.09v72H21.44z"/></clipPath></defs></svg>