<svg xmlns="http://www.w3.org/2000/svg" width="128" height="128" fill="none"><g clip-path="url(#a)"><path fill="#2E3148" fill-rule="evenodd" d="M126.084 79.492c-8.549 34.289-43.278 55.158-77.572 46.607C14.232 117.55-6.636 82.818 1.917 48.53 10.462 14.237 45.192-6.634 79.475 1.915c34.292 8.55 55.158 43.285 46.609 77.577" clip-rule="evenodd"/><path fill="#1B1E36" d="M64 101.134c20.509 0 37.135-16.626 37.135-37.136S84.509 26.862 63.999 26.862 26.863 43.49 26.863 63.998 43.49 101.134 64 101.134"/><path fill="#6F7390" d="M64.131 8.164c-6.908 0-12.51 25.057-12.51 55.967s5.602 55.968 12.51 55.968c6.909 0 12.51-25.058 12.51-55.968S71.04 8.164 64.131 8.164m.864 108.776c-.79 1.054-1.58.263-1.58.263-3.182-3.686-4.772-10.535-4.772-10.535-5.565-17.909-4.24-56.362-4.24-56.362 2.615-30.527 7.372-37.739 8.991-39.34a.99.99 0 0 1 1.267-.102c2.349 1.664 4.319 8.625 4.319 8.625 5.818 21.597 5.291 41.877 5.291 41.877.527 17.646-2.915 37.399-2.915 37.399-2.65 15.012-6.361 18.175-6.361 18.175"/><path fill="#6F7390" d="M112.677 36.28c-3.44-5.995-27.96 1.616-54.784 16.998C31.069 68.659 12.147 85.989 15.584 91.98s27.96-1.617 54.784-16.998 45.746-32.711 42.309-38.704m-93.92 54.879c-1.316-.166-1.019-1.249-1.019-1.249 1.616-4.593 6.756-9.38 6.756-9.38C37.264 66.79 71.28 48.802 71.28 48.802c27.778-12.924 36.406-12.379 38.595-11.776a.985.985 0 0 1 .717 1.054c-.263 2.867-5.334 8.038-5.334 8.038-15.826 15.8-33.68 25.437-33.68 25.437-15.045 9.241-33.891 16.081-33.891 16.081-14.34 5.168-18.929 3.522-18.929 3.522"/><path fill="#6F7390" d="M112.556 92.18c3.466-5.98-15.408-23.388-42.138-38.885-26.73-15.498-51.247-23.203-54.71-17.214-3.463 5.988 15.408 23.387 42.153 38.885s51.232 23.203 54.695 17.213M18.005 38.39c-.512-1.213.569-1.505.569-1.505 4.785-.904 11.506 1.155 11.506 1.155 18.288 4.164 50.894 24.59 50.894 24.59 25.105 17.567 28.955 25.305 29.532 27.501a.99.99 0 0 1-.547 1.149c-2.618 1.198-9.63-.587-9.63-.587-21.61-5.795-38.892-16.411-38.892-16.411C45.908 65.907 30.554 53.02 30.554 53.02 18.886 43.196 18.01 38.405 18.01 38.405z"/><path fill="#B7B9C8" d="M64 70.583a6.584 6.584 0 1 0 0-13.169 6.584 6.584 0 0 0 0 13.169m26.995-27.916c2.109 0 3.819-1.769 3.819-3.95 0-2.183-1.71-3.951-3.82-3.951-2.108 0-3.818 1.768-3.818 3.95s1.71 3.95 3.819 3.95M28.313 56.101c2.109 0 3.819-1.768 3.819-3.95s-1.71-3.95-3.82-3.95-3.818 1.768-3.818 3.95 1.71 3.95 3.819 3.95m27.919 48.459c2.109 0 3.819-1.768 3.819-3.95s-1.71-3.95-3.82-3.95-3.818 1.768-3.818 3.95 1.71 3.95 3.819 3.95"/></g><defs><clipPath id="a"><path fill="#fff" d="M0 0h128v128H0z"/></clipPath></defs></svg>