<svg xmlns="http://www.w3.org/2000/svg" width="128" height="128" fill="none"><g clip-path="url(#a)"><path fill="#F35B5B" d="M64 128c35.346 0 64-28.654 64-64S99.346 0 64 0 0 28.654 0 64s28.654 64 64 64"/><path fill="#fff" fill-rule="evenodd" d="M56.133 98.557a2.79 2.79 0 0 0 2.135 1.941c.392.089.557.089 1.1-.029a2.78 2.78 0 0 0 1.538-.937l.016-.018 33.17-41.431a2.77 2.77 0 0 0 .865-2.437 2.7 2.7 0 0 0-1.09-1.789l-10.82-10.57c-.433-.476-.966-.687-1.442-.782l-44.817-7.826s-.748-.137-1.438-.137c-.686.055-1.281.447-1.723 1.008q-.212.271-.35.578a2.73 2.73 0 0 0-.031 2.274zm1.39-11.833 3.515-25.315-19.002-15.462zm-11.879-44.93L63.92 56.666l11.118-9.741zM85.62 59.823l-19.162 2.834-3.564 25.541zM81.07 49l-8.118 7.118 13.36-1.977z" clip-rule="evenodd"/></g><defs><clipPath id="a"><path fill="#fff" d="M0 0h128v128H0z"/></clipPath></defs></svg>