<svg width="40" height="40" viewBox="0 0 40 40" fill="none" xmlns="http://www.w3.org/2000/svg">
<path d="M8.37891 18.9141V17.3027C8.37891 16.8079 8.52539 16.4108 8.81836 16.1113C9.11133 15.8053 9.51172 15.6523 10.0195 15.6523H29.9707C30.4785 15.6523 30.8789 15.8053 31.1719 16.1113C31.4714 16.4108 31.6211 16.8079 31.6211 17.3027V18.9141C31.6211 19.4154 31.4714 19.8158 31.1719 20.1152C30.8789 20.4082 30.4785 20.5547 29.9707 20.5547H10.0195C9.51823 20.5547 9.11784 20.4082 8.81836 20.1152C8.52539 19.8158 8.37891 19.4154 8.37891 18.9141ZM10.4883 17.4883C10.2995 17.4883 10.2051 17.5859 10.2051 17.7812V18.4258C10.2051 18.6276 10.2995 18.7285 10.4883 18.7285H29.502C29.7038 18.7285 29.8047 18.6276 29.8047 18.4258V17.7812C29.8047 17.5859 29.7038 17.4883 29.502 17.4883H10.4883ZM14.7949 30.3398C14.0007 30.3398 13.3691 30.1999 12.9004 29.9199C12.4382 29.6465 12.0931 29.2884 11.8652 28.8457C11.6374 28.403 11.4714 27.9408 11.3672 27.459L9.80469 19.9688L11.6016 19.6367L13.0762 26.7852C13.1673 27.2018 13.278 27.5339 13.4082 27.7812C13.5449 28.0352 13.7402 28.2174 13.9941 28.3281C14.2546 28.4388 14.6191 28.4941 15.0879 28.4941H24.9121C25.3809 28.4941 25.7454 28.4388 26.0059 28.3281C26.2663 28.2174 26.4616 28.0352 26.5918 27.7812C26.722 27.5339 26.8327 27.2018 26.9238 26.7852L28.3984 19.6367L30.1953 19.9688L28.6328 27.459C28.5286 27.9408 28.3626 28.403 28.1348 28.8457C27.9069 29.2884 27.5618 29.6465 27.0996 29.9199C26.6374 30.1999 26.0059 30.3398 25.2051 30.3398H14.7949ZM15.8301 27.5469C15.6348 27.5794 15.4688 27.5501 15.332 27.459C15.1953 27.3678 15.1107 27.2311 15.0781 27.0488L14.2773 22.1074C14.2448 21.9316 14.2806 21.7786 14.3848 21.6484C14.4889 21.5182 14.6419 21.4368 14.8438 21.4043C15.0326 21.3783 15.1986 21.4108 15.3418 21.502C15.485 21.5931 15.5697 21.7266 15.5957 21.9023L16.3965 26.8438C16.429 27.013 16.3932 27.1628 16.2891 27.293C16.1849 27.4297 16.0319 27.5143 15.8301 27.5469ZM18.6328 27.4785C18.444 27.4915 18.2845 27.4427 18.1543 27.332C18.0241 27.2279 17.9525 27.0846 17.9395 26.9023L17.6367 22.0391C17.6237 21.8503 17.6758 21.6973 17.793 21.5801C17.9102 21.4564 18.0664 21.388 18.2617 21.375C18.4635 21.362 18.6263 21.4108 18.75 21.5215C18.8802 21.6322 18.9518 21.7786 18.9648 21.9609L19.2676 26.8438C19.2741 27.0195 19.2188 27.166 19.1016 27.2832C18.9844 27.4069 18.8281 27.472 18.6328 27.4785ZM21.377 27.4785C21.1816 27.472 21.0254 27.4069 20.9082 27.2832C20.7975 27.166 20.7454 27.0195 20.752 26.8438L21.0547 21.9609C21.0677 21.7786 21.1361 21.6322 21.2598 21.5215C21.39 21.4108 21.5527 21.362 21.748 21.375C21.9434 21.388 22.0996 21.4564 22.2168 21.5801C22.334 21.6973 22.3861 21.8503 22.373 22.0391L22.0801 26.9023C22.0671 27.0846 21.9954 27.2279 21.8652 27.332C21.735 27.4427 21.5723 27.4915 21.377 27.4785ZM24.1699 27.5469C23.9681 27.5143 23.8151 27.4297 23.7109 27.293C23.6133 27.1628 23.5775 27.013 23.6035 26.8438L24.4043 21.9023C24.4434 21.7266 24.5312 21.5931 24.668 21.502C24.8047 21.4108 24.9707 21.3783 25.166 21.4043C25.3613 21.4368 25.5111 21.5182 25.6152 21.6484C25.7259 21.7786 25.765 21.9316 25.7324 22.1074L24.9219 27.0488C24.8958 27.2311 24.8112 27.3678 24.668 27.459C24.5247 27.5501 24.3587 27.5794 24.1699 27.5469ZM11.543 16.1699L15.5664 9.37305C15.7161 9.11263 15.9115 8.96289 16.1523 8.92383C16.3997 8.87826 16.6309 8.91406 16.8457 9.03125C17.0605 9.14844 17.2135 9.32422 17.3047 9.55859C17.3958 9.78646 17.3665 10.0339 17.2168 10.3008L13.8379 16.1699H11.543ZM26.1621 16.1699L22.793 10.3008C22.6432 10.0339 22.6107 9.78646 22.6953 9.55859C22.7865 9.32422 22.9427 9.14844 23.1641 9.03125C23.3789 8.92057 23.6068 8.88802 23.8477 8.93359C24.0951 8.97266 24.2904 9.11914 24.4336 9.37305L28.457 16.1699H26.1621Z" fill="white"/>
</svg>
