<svg width="512" height="604" fill="none" xmlns="http://www.w3.org/2000/svg"><path opacity=".55" d="M485.997 143.2a331.998 331.998 0 0 0-591.369-40.865A332.003 332.003 0 0 0-17.2 539.087 332 332 0 0 0 512 272a329.848 329.848 0 0 0-26.003-128.8Zm-28.115 263.791-14.724-38.734 36.231-19.394a305.45 305.45 0 0 1-21.507 58.168v-.04Zm-574.889-57.576 35.787 19.165-14.522 38.249a305.19 305.19 0 0 1-21.265-57.414ZM-126.858 272c0-10.04.475-19.959 1.426-29.757l27.416 30.403-27.308 30.309A320.654 320.654 0 0 1-126.858 272Zm30.86-134.331 14.805 39.138-36.338 19.434a306.349 306.349 0 0 1 21.534-58.572Zm575.616 58.383-36.54-19.609 14.925-39.299a306.113 306.113 0 0 1 21.615 58.908ZM300.483 480.26l-28.802-19.488a206.021 206.021 0 0 0 26.258-15.155l2.544 34.643Zm-77.832 27.389-19.461-27.483a208.902 208.902 0 0 0 28.869-5.074l-9.408 32.557Zm-82.933.996-9.69-33.513a208.82 208.82 0 0 0 30.847 5.249l-21.157 28.264Zm-18.707 17.725-43.23 26.594-15.1-46.379 43.983-29.757 14.347 49.542Zm-59.488-46.648 2.504-34.051a206.396 206.396 0 0 0 25.827 14.886l-28.33 19.165Zm0-414.892 27.712 18.842a209.76 209.76 0 0 0-25.208 14.71L61.523 64.83Zm78.182-29.098 20.74 27.9a209.961 209.961 0 0 0-30.215 5.141l9.475-33.04Zm82.919.996 9.219 32.113a209.185 209.185 0 0 0-28.263-4.98l19.044-27.133Zm18.263-19.353L284.13-9.408l15.128 46.823-43.983 30.013-14.388-50.053Zm59.488 46.957-2.49 33.956a207.86 207.86 0 0 0-25.571-14.804l28.061-19.152ZM180.969 458.444C78.172 458.444-5.474 374.798-5.474 272A186.079 186.079 0 0 1 59.49 130.684c.721-.379 1.402-.83 2.032-1.346a10.89 10.89 0 0 0 1.683-1.75 186.636 186.636 0 0 1 52.058-30.053c.66-.11 1.309-.281 1.938-.512a10.346 10.346 0 0 0 1.79-.848 186.174 186.174 0 0 1 180.75 32.301 9.735 9.735 0 0 0 1.319 1.117A186.086 186.086 0 0 1 367.413 272c0 102.798-83.633 186.444-186.444 186.444Zm-208.61-169.701-33.431-16.03 33.256-15.975A210.41 210.41 0 0 0-28.368 272c0 5.626.22 11.207.66 16.743h.067Zm417.449-32.301 33.27 15.975-33.351 15.989c.413-5.383.624-10.852.633-16.406-.054-5.222-.242-10.431-.633-15.585l.081.027Zm-17.335-69.232 32.934 2.907-23.163 24.011a206.083 206.083 0 0 0-9.771-26.918Zm-41.305-60.954 33.553-8.399-13.755 31.911a211.431 211.431 0 0 0-19.798-23.566v.054ZM182.181 54.521l-31.763-42.718 29.609-39.286 32.045 39.407-29.891 42.597Zm-75.504 13.458L62.681 37.9l15.1-46.796 43.257 26.77-14.361 50.106Zm-95.785 82.018-13.674-31.763 33.31 8.331a211.364 211.364 0 0 0-19.636 23.324v.108Zm-31.265 64.494-23.095-24.105 32.799-2.907a208.102 208.102 0 0 0-9.704 26.904v.108Zm-49.003-17.9 36.083 37.482-48.035 22.947-32.879-36.527 44.83-23.902Zm-11.951 91.775 47.98 23.055-36.07 37.482-44.884-24.01 32.974-36.527Zm61.29 42.247a206.782 206.782 0 0 0 10.04 27.361L-43.534 355l23.498-24.387ZM31.591 418.7l-34.454 8.614 14.078-32.705A213.94 213.94 0 0 0 31.591 418.7Zm150.59 71.493 29.891 42.152-32.058 39.152-29.609-39.031 31.776-42.273Zm73.08-12.826 43.97 29.757-15.06 46.392-43.243-26.595 14.333-49.554Zm95.557-82.879 13.984 32.516-34.199-8.56a212.427 212.427 0 0 0 20.215-23.97v.014Zm31.278-64.064 23.391 24.32-33.377 2.948a207.08 207.08 0 0 0 9.986-27.322v.054Zm49.353 18.156-36.069-37.482 47.98-23.042 32.934 36.514-44.845 24.01Zm11.831-91.883-48.035-23.054 36.07-37.469 44.844 23.997-32.879 36.526Zm-21.669-88.194-51.816-4.576 21.049-48.896 48.829 5.922-18.062 47.55Zm-50.726-75.827L320.428 105.3l3.89-53.08 48.007-10.364-1.44 50.82ZM229.771-2.652l-26.46-32.53a306.019 306.019 0 0 1 61.587 10.767L229.771-2.652Zm-97.563.511L96.597-24.186a305.343 305.343 0 0 1 60.402-10.861L132.208-2.141Zm-90.63 107.764L-8.88 92.999l-1.508-50.833 48.075 10.376 3.89 53.081Zm-70.416 9.731 21.049 48.882-51.816 4.59-18.129-47.564 48.895-5.908Zm-30.956 261.207 51.816 4.589-21.009 48.882-48.828-5.949 18.021-47.522Zm50.834 75.786 50.457-12.638-3.89 53.095-48.074 10.376 1.507-50.833Zm141.182 93.982 24.764 32.664a306.394 306.394 0 0 1-60.282-10.767l35.518-21.897Zm97.549.511 34.992 21.534a305.85 305.85 0 0 1-61.479 10.767l26.487-32.301Zm90.671-107.441 50.443 12.679 1.494 50.847-48.074-10.391-3.863-53.135Zm70.497-9.73-21.05-48.896 51.816-4.589 18.048 47.563-48.814 5.922Zm69.029-157.4 27.645-30.659a313.929 313.929 0 0 1 1.48 30.336c0 10.435-.511 20.753-1.534 30.955l-27.591-30.632Zm-25.356-174.99-40.847-4.966 1.238-41.722a309.261 309.261 0 0 1 39.609 46.688Zm-75.005-76.136-38.829 8.398-12.234-37.9a307.366 307.366 0 0 1 51.063 29.502ZM53.529-8.29 41.214 29.864 2.184 21.44A308.396 308.396 0 0 1 53.529-8.29Zm-86.567 59.15 1.239 41.723-40.794 4.953A310.426 310.426 0 0 1-33.038 50.86ZM-71.53 447.893l39.65 4.805-1.198 40.376a310.286 310.286 0 0 1-38.451-45.127v-.054Zm75.221 75.786 37.82-8.17 11.95 36.824a308.874 308.874 0 0 1-49.77-28.654ZM308.612 552.4l12.113-37.16 38.047 8.17a307.687 307.687 0 0 1-50.16 28.923v.067Zm86.499-59.044-1.211-40.928 40.201-4.872a309.882 309.882 0 0 1-38.99 45.8Z" fill="url(#a)"/><defs><linearGradient id="a" x1="180" y1="-60" x2="437.558" y2="406.927" gradientUnits="userSpaceOnUse"><stop stop-color="#1F2A3F"/><stop offset="1" stop-color="#1F2A3F" stop-opacity="0"/></linearGradient></defs></svg>