<svg width="855" height="668" fill="none" xmlns="http://www.w3.org/2000/svg"><path opacity=".55" d="M815.84-25.976a500.002 500.002 0 0 0-608.029-283.868A500 500 0 1 0 855 168a496.762 496.762 0 0 0-39.16-193.976ZM773.497 371.3l-22.174-58.335 54.564-29.208a460.022 460.022 0 0 1-32.39 87.603v-.06Zm-865.796-86.712 53.896 28.863-21.87 57.605A459.544 459.544 0 0 1-92.3 284.588ZM-107.136 168c0-15.121.716-30.059 2.149-44.815l41.288 45.788-41.126 45.646A482.736 482.736 0 0 1-107.136 168Zm46.477-202.306 22.296 58.942-54.727 29.269a461.389 461.389 0 0 1 32.431-88.211ZM806.232 53.62l-55.031-29.53 22.479-59.186a461.02 461.02 0 0 1 32.552 88.718ZM536.45 481.645l-43.376-29.35a310.51 310.51 0 0 0 39.545-22.823l3.831 52.173Zm-117.217 41.248-29.309-41.39a314.424 314.424 0 0 0 43.477-7.642l-14.168 49.032Zm-124.898 1.499-14.594-50.47a314.461 314.461 0 0 0 46.457 7.905l-31.863 42.565Zm-28.174 26.695-65.105 40.052-22.742-69.848 66.24-44.815 21.607 74.611Zm-89.59-70.253 3.77-51.281a310.829 310.829 0 0 0 38.897 22.418l-42.667 28.863Zm0-624.837 41.734 28.377a315.952 315.952 0 0 0-37.964 22.154l-3.77-50.531Zm117.744-43.822 31.234 42.018a316.226 316.226 0 0 0-45.504 7.743l14.27-49.761Zm124.878 1.5 13.884 48.362a315.018 315.018 0 0 0-42.565-7.499l28.681-40.863Zm27.505-29.147 65.125-40.336 22.782 70.517-66.239 45.2-21.668-75.381Zm89.59 70.719-3.75 51.14a313.043 313.043 0 0 0-38.512-22.297l42.262-28.843ZM356.46 448.789C201.644 448.789 75.671 322.816 75.671 168a280.232 280.232 0 0 1 97.84-212.826 18.031 18.031 0 0 0 3.06-2.027 16.36 16.36 0 0 0 2.534-2.635 281.075 281.075 0 0 1 78.401-45.26 16.217 16.217 0 0 0 2.919-.771 15.52 15.52 0 0 0 2.695-1.277A280.382 280.382 0 0 1 535.335-48.15a15.068 15.068 0 0 0 1.986 1.682A280.234 280.234 0 0 1 637.248 168c0 154.816-125.952 280.789-280.788 280.789ZM42.288 193.215-8.06 169.074l50.085-24.059A316.928 316.928 0 0 0 41.194 168c0 8.473.33 16.877.993 25.215h.101Zm628.688-48.646 50.105 24.059-50.227 24.08c.622-8.108.94-16.344.953-24.708-.081-7.864-.365-15.709-.953-23.472l.122.041ZM644.869 40.304l49.599 4.379-34.883 36.16a310.363 310.363 0 0 0-14.716-40.539Zm-62.206-91.799 50.531-12.648-20.715 48.059a318.402 318.402 0 0 0-29.816-35.492v.081ZM358.284-159.529l-47.835-64.334 44.592-59.166 48.261 59.348-45.018 64.152Zm-113.71 20.269-66.26-45.302 22.742-70.475 65.145 40.315-21.627 75.462ZM100.319-15.74 79.725-63.575l50.166 12.547a318.298 318.298 0 0 0-29.572 35.126v.162ZM53.233 81.39l-34.78-36.302 49.395-4.378a313.384 313.384 0 0 0-14.613 40.518v.162Zm-73.8-26.958 54.342 56.45-72.34 34.558-49.518-55.01 67.516-35.998Zm-17.998 138.215 72.259 34.721-54.321 56.45-67.598-36.16 49.66-55.011Zm92.305 63.625a311.437 311.437 0 0 0 15.121 41.207L18.351 293l35.39-36.728Zm77.753 132.662-51.89 12.972 21.202-49.254a322.383 322.383 0 0 0 30.688 36.282Zm226.791 107.669 45.018 63.483-48.281 58.963-44.592-58.78 47.855-63.666Zm110.061-19.316 66.22 44.815-22.681 69.868-65.125-40.052 21.586-74.631ZM612.256 352.47l21.06 48.97-51.504-12.891a320.166 320.166 0 0 0 30.444-36.1v.021Zm47.106-96.482 35.228 36.627-50.268 4.439a311.886 311.886 0 0 0 15.04-41.147v.081Zm74.327 27.343-54.321-56.449 72.259-34.701 49.599 54.99-67.537 36.16Zm17.816-138.377-72.34-34.721 54.321-56.43 67.537 36.14-49.518 55.011ZM718.872 12.13l-78.036-6.89 31.701-73.64 73.536 8.918-27.201 71.611Zm-76.394-114.196-75.989 19.012 5.857-79.941 72.3-15.607-2.168 76.536ZM429.956-245.632l-39.849-48.991a460.875 460.875 0 0 1 92.751 16.215l-52.902 32.776Zm-146.931.77-53.632-33.201a459.77 459.77 0 0 1 90.968-16.357l-37.336 49.558ZM146.532-82.567 70.543-101.58l-2.27-76.556 72.402 15.627 5.857 79.942ZM40.484-67.913 72.185 5.705-5.85 12.617l-27.303-71.631 73.638-8.899ZM-6.135 325.471l78.036 6.912L40.261 406l-73.536-8.959 27.14-71.57Zm76.557 114.136 75.989-19.033-5.858 79.962-72.401 15.627 2.27-76.556Zm212.623 141.539 37.295 49.193a461.45 461.45 0 0 1-90.785-16.215l53.49-32.978Zm146.911.77 52.699 32.431a460.664 460.664 0 0 1-92.589 16.215l39.89-48.646Zm136.553-161.808 75.969 19.093 2.249 76.577-72.401-15.648-5.817-80.022Zm106.17-14.655-31.701-73.638 78.036-6.911 27.181 71.631-73.516 8.918Zm103.96-237.048 41.633-46.173a472.873 472.873 0 0 1 2.23 45.687 467.16 467.16 0 0 1-2.311 46.619l-41.552-46.133ZM738.452-95.134l-61.517-7.479 1.865-62.835a465.851 465.851 0 0 1 59.652 70.314Zm-112.96-114.663-58.476 12.648-18.425-57.078a462.897 462.897 0 0 1 76.901 44.43Zm-460.961-44.328-18.546 57.463-58.78-12.689a464.49 464.49 0 0 1 77.326-44.774Zm-130.37 89.083 1.864 62.834-61.436 7.46a467.508 467.508 0 0 1 59.571-70.294Zm-57.97 597.94 59.712 7.236-1.804 60.807a467.237 467.237 0 0 1-57.908-67.962v-.081ZM89.475 547.033l56.956-12.303 17.999 55.456a465.048 465.048 0 0 1-74.955-43.153Zm459.217 43.254 18.243-55.963 57.3 12.304a463.256 463.256 0 0 1-75.543 43.558v.101Zm130.27-88.92-1.824-61.639 60.544-7.337a466.834 466.834 0 0 1-58.72 68.976Z" fill="url(#a)"/><defs><linearGradient id="a" x1="355" y1="-332" x2="742.888" y2="371.203" gradientUnits="userSpaceOnUse"><stop stop-color="#1F2A3F"/><stop offset="1" stop-color="#1F2A3F" stop-opacity="0"/></linearGradient></defs></svg>