<svg width="64" height="64" xmlns="http://www.w3.org/2000/svg"><path d="M63.275 53.789 41.408 31.85l21.917-21.655c.9-.9.9-2.366 0-3.265L57.092.666A2.294 2.294 0 0 0 55.458 0c-.616 0-1.2.25-1.633.666l-21.817 21.59L10.158.682A2.294 2.294 0 0 0 8.525.017c-.617 0-1.2.25-1.633.666L.675 6.946c-.9.9-.9 2.366 0 3.265l21.917 21.656L.742 53.789a2.307 2.307 0 0 0-.684 1.632c0 .616.234 1.2.684 1.633l6.233 6.263a2.298 2.298 0 0 0 3.267 0l21.766-21.855L53.792 63.3a2.298 2.298 0 0 0 3.266 0l6.234-6.263a2.307 2.307 0 0 0 .683-1.633 2.388 2.388 0 0 0-.7-1.615Z" fill="#fff"/></svg>