<svg xmlns="http://www.w3.org/2000/svg" width="600" height="600" fill="none"><g clip-path="url(#a)"><mask id="b" width="600" height="600" x="0" y="0" maskUnits="userSpaceOnUse" style="mask-type:luminance"><path fill="#fff" d="M600 0H0v600h600z"/></mask><g mask="url(#b)"><path stroke="#51C2FD" stroke-linecap="round" stroke-linejoin="round" stroke-width="2.344" d="M303.127 528.484 79.504 253.235l125.903 48.304z"/><path fill="#51C2FD" d="M303.127 528.484 79.504 253.235l125.903 48.304z"/><path stroke="#33A9FB" stroke-linecap="round" stroke-linejoin="round" stroke-width="2.344" d="m303.126 528.484 100.805-227.715 123.413-47.864z"/><path fill="#33A9FB" d="m303.126 528.484 100.805-227.715 123.413-47.864z"/><path stroke="#77D8FE" stroke-linecap="round" stroke-linejoin="round" stroke-width="2.344" d="m303.127 528.484-97.756-226.945 198.56-.807z"/><path fill="#77D8FE" d="m303.127 528.484-97.756-226.945 198.56-.807z"/><path stroke="#79D0FE" stroke-linecap="round" stroke-linejoin="round" stroke-width="2.344" d="m171.486 186.112-91.985 67.117 125.916 48.303z"/><path fill="#79D0FE" d="m171.486 186.112-91.985 67.117 125.916 48.303z"/><path stroke="#51AEF4" stroke-linecap="round" stroke-linejoin="round" stroke-width="2.344" d="m304.724 205.16-99.307 96.372 198.48-.78z"/><path fill="#51AEF4" d="m304.724 205.16-99.307 96.372 198.48-.78z"/><path stroke="#79C6FE" stroke-linecap="round" stroke-linejoin="round" stroke-width="2.344" d="m436.675 185.422-32.767 115.337 123.451-47.831z"/><path fill="#79C6FE" d="m436.675 185.422-32.767 115.337 123.451-47.831z"/><path fill="#65B1EE" d="m527.359 252.928-90.684-67.506 32.331-44.34z"/><path fill="#6BBCF9" d="m403.908 300.759-99.184-95.593 131.951-19.744z"/><path fill="#66B9EF" d="m79.501 253.229 58.041-111.76 33.944 44.643z"/><path fill="#C5EAFF" d="m205.417 301.532-33.931-115.42 133.238 19.048z"/><path fill="#C7E9FF" d="m469.006 141.082-93.11-35.304-146.275.171-92.033 35.531 33.923 44.616 133.213 19.07 131.951-19.743z"/><path stroke="#C7EAFF" stroke-linecap="round" stroke-linejoin="round" stroke-width="2.098" d="m469.006 141.082-93.11-35.304-146.275.171-92.033 35.531 33.923 44.616 133.213 19.07 131.951-19.743z"/><path stroke="#fff" stroke-linecap="round" stroke-linejoin="round" stroke-width=".484" d="m145.632 152.059 18.708 24.606"/><mask id="c" width="600" height="600" x="0" y="0" maskUnits="userSpaceOnUse" style="mask-type:luminance"><path fill="#fff" d="M0 0h600v600H0z"/></mask><g mask="url(#c)"><path fill="#0068FF" d="m499.082 288.18 28.491-35.668-28.455-53.503-.015.004-30.123-59.147-39.405-14.502-50.976-19.886-69.435.476-79.98-.293-90.454 35.156-26.441 50.318-32.373 61.56 223.463 276.233 195.652-240.803zm-28.983-2.035-.062-.062L303.751 490.78 113.808 255.952l27.517-52.295 22.475-42.77 76.886-29.883 67.982.248 59.02-.436 43.33 16.934 33.493 12.327 25.588 50.303.062-.062 24.155 45.508z" opacity=".38"/></g><mask id="d" width="600" height="600" x="0" y="0" maskUnits="userSpaceOnUse" style="mask-type:luminance"><path fill="#fff" d="M0 0h600v600H0z"/></mask><g mask="url(#d)"><path stroke="#0058AF" stroke-linecap="round" stroke-linejoin="round" stroke-width="9.375" d="m499.005 288.184 28.492-35.668-28.455-53.503-.016.003-30.123-59.147-39.404-14.502-50.977-19.885-69.434.475-79.981-.293-90.453 35.157-26.441 50.318-32.373 61.559 223.462 276.234 195.653-240.803z"/></g><mask id="e" width="600" height="600" x="0" y="0" maskUnits="userSpaceOnUse" style="mask-type:luminance"><path fill="#fff" d="M0 0h600v600H0z"/></mask><g mask="url(#e)"><path fill="#fff" d="m125.391 271.875 78.515 34.293 200.424.431 70.809-31.681-72.114 23.078-197.074.13z" opacity=".6"/></g></g></g><defs><clipPath id="a"><path fill="#fff" d="M0 0h600v600H0z"/></clipPath></defs></svg>