<svg xmlns="http://www.w3.org/2000/svg" width="560" height="560" fill="none"><g clip-path="url(#a)"><path fill="url(#b)" d="M0 256c0-89.608 0-134.413 17.439-168.638a160 160 0 0 1 69.923-69.923C121.587 0 166.392 0 256 0h48c89.608 0 134.413 0 168.638 17.439a160 160 0 0 1 69.923 69.923C560 121.587 560 166.392 560 256v48c0 89.608 0 134.413-17.439 168.638a160 160 0 0 1-69.923 69.923C438.413 560 393.608 560 304 560h-48c-89.608 0-134.413 0-168.638-17.439a160 160 0 0 1-69.923-69.923C0 438.413 0 393.608 0 304z"/><circle cx="280.002" cy="280" r="240" fill="url(#c)"/><path fill="url(#d)" d="M482.771 194.651A220 220 0 1 0 500.002 280a218.6 218.6 0 0 0-17.231-85.349m-18.63 174.801-9.757-25.667 24.008-12.852a202.4 202.4 0 0 1-14.251 38.546zm-380.95-38.153 23.713 12.7-9.623 25.346a202.2 202.2 0 0 1-14.09-38.046M76.661 280q0-9.98.945-19.719l18.167 20.147-18.095 20.084A213 213 0 0 1 76.662 280m20.45-89.015 9.81 25.935-24.08 12.878a203 203 0 0 1 14.27-38.813m381.432 38.688-24.213-12.994 9.89-26.042a203 203 0 0 1 14.323 39.036M359.84 418.004l-19.086-12.914a136.6 136.6 0 0 0 17.4-10.042zm-51.575 18.149-12.896-18.212a138 138 0 0 0 19.13-3.362zm-54.956.66-6.421-22.207a138.4 138.4 0 0 0 20.441 3.478zm-12.396 11.745-28.646 17.623-10.007-30.733 29.146-19.719zm-39.42-30.911 1.659-22.564a137 137 0 0 0 17.115 9.864zm0-274.928 18.363 12.485a139 139 0 0 0-16.704 9.748zm51.807-19.282 13.744 18.488a139 139 0 0 0-20.022 3.407zm54.947.66 6.109 21.279a138.5 138.5 0 0 0-18.729-3.299zm12.102-12.825 28.655-17.747 10.024 31.027-29.145 19.888zm39.419 31.117-1.649 22.501a138 138 0 0 0-16.945-9.81zm-79.124 261.158c-68.119 0-123.547-55.428-123.547-123.547a123.31 123.31 0 0 1 43.05-93.643q.719-.378 1.346-.892a7.2 7.2 0 0 0 1.115-1.16 123.7 123.7 0 0 1 34.497-19.915 7.1 7.1 0 0 0 2.47-.9 123.37 123.37 0 0 1 119.774 21.404 7 7 0 0 0 .874.74 123.3 123.3 0 0 1 32.432 42.315A123.3 123.3 0 0 1 404.191 280c0 68.119-55.419 123.547-123.547 123.547M142.409 291.095l-22.154-10.622 22.038-10.586a140 140 0 0 0 .071 21.208zm276.622-21.405 22.047 10.586-22.1 10.596q.41-5.352.419-10.872c-.036-3.46-.16-6.912-.419-10.328zm-11.487-45.876 21.824 1.926-15.349 15.911a136 136 0 0 0-6.475-17.837m-27.37-40.392 22.234-5.565-9.115 21.146a140 140 0 0 0-13.119-15.616zm-98.727-47.535-21.048-28.307 19.621-26.033 21.235 26.113zm-50.032 8.919-29.155-19.933 10.007-31.01 28.664 17.739zm-63.473 54.348-9.061-21.047 22.073 5.521a140 140 0 0 0-13.012 15.455zm-20.717 42.738-15.304-15.973 21.734-1.927a138 138 0 0 0-6.43 17.828zm-32.472-11.862 23.91 24.838-31.83 15.206-21.788-24.205zm-7.92 60.815 31.794 15.277-23.901 24.838-29.743-15.911zm40.615 27.995a137 137 0 0 0 6.653 18.131L131.876 335zm34.211 58.371-22.831 5.708 9.328-21.672a142 142 0 0 0 13.503 15.964m99.788 47.374 19.808 27.933-21.244 25.944-19.62-25.864zm48.427-8.499 29.136 19.719-9.979 30.742-28.655-17.623zm63.321-54.919 9.266 21.547-22.662-5.673a141 141 0 0 0 13.396-15.883zm20.726-42.452 15.5 16.116-22.117 1.953a137 137 0 0 0 6.617-18.105zm32.704 12.031-23.901-24.838 31.794-15.268 21.823 24.195zm7.839-60.886-31.83-15.277 23.902-24.829 29.716 15.901zm-14.358-58.443-34.336-3.032 13.948-32.401 32.356 3.925zm-33.614-50.246-33.435 8.365 2.577-35.174 31.812-6.867zm-93.51-63.17-17.533-21.555a202.8 202.8 0 0 1 40.811 7.135zm-64.649.34-23.598-14.609a202.3 202.3 0 0 1 40.026-7.197zm-60.057 71.409-33.435-8.365-.999-33.685 31.857 6.876zm-46.661 6.448 13.948 32.392-34.336 3.041-12.013-31.517zm-20.512 173.089 34.336 3.041-13.922 32.392-32.356-3.942zm33.684 50.22 33.436-8.375-2.578 35.184-31.856 6.876zm93.555 62.277 16.41 21.645a203 203 0 0 1-39.946-7.134zm64.64.339 23.188 14.27a202.7 202.7 0 0 1-40.739 7.134zm60.084-71.196 33.426 8.402.99 33.693-31.857-6.885zm46.715-6.448-13.949-32.4 34.336-3.041 11.96 31.517zm45.742-104.301 18.319-20.316a208 208 0 0 1 .981 20.102q0 10.373-1.017 20.513zm-16.802-115.957-27.068-3.291.821-27.647a205 205 0 0 1 26.247 30.938m-49.703-50.452-25.729 5.566-8.107-25.115a203.7 203.7 0 0 1 33.836 19.549M196.196 94.265l-8.161 25.284-25.863-5.583a204.4 204.4 0 0 1 34.024-19.701m-57.364 39.196.821 27.647-27.032 3.282a206 206 0 0 1 26.211-30.929m-25.506 263.094 26.273 3.184-.793 26.755a205.6 205.6 0 0 1-25.48-29.903zm49.845 50.22 25.061-5.414 7.919 24.401a204.7 204.7 0 0 1-32.98-18.987m202.056 19.031 8.026-24.623 25.213 5.413a204 204 0 0 1-33.239 19.166zm57.318-39.125-.802-27.121 26.639-3.228a205.3 205.3 0 0 1-25.837 30.349"/><path fill="url(#e)" fill-rule="evenodd" d="M304 12h-48c-45.002 0-78.032.01-104.111 2.14-25.938 2.12-43.94 6.277-59.08 13.991a148 148 0 0 0-64.678 64.678c-7.714 15.14-11.872 33.142-13.991 59.08C12.01 177.968 12 210.998 12 256v48c0 45.002.01 78.032 2.14 104.111 2.12 25.938 6.277 43.94 13.991 59.08a148 148 0 0 0 64.678 64.678c15.14 7.714 33.142 11.872 59.08 13.991C177.968 547.991 210.998 548 256 548h48c45.002 0 78.032-.009 104.111-2.14 25.938-2.119 43.94-6.277 59.08-13.991a148 148 0 0 0 64.678-64.678c7.714-15.14 11.872-33.142 13.991-59.08C547.991 382.032 548 349.002 548 304v-48c0-45.002-.009-78.032-2.14-104.111-2.119-25.938-6.277-43.94-13.991-59.08a148 148 0 0 0-64.678-64.678c-15.14-7.714-33.142-11.872-59.08-13.991C382.032 12.01 349.002 12 304 12M17.439 87.362C0 121.587 0 166.392 0 256v48c0 89.608 0 134.413 17.439 168.638a160 160 0 0 0 69.923 69.923C121.587 560 166.392 560 256 560h48c89.608 0 134.413 0 168.638-17.439a160 160 0 0 0 69.923-69.923C560 438.413 560 393.608 560 304v-48c0-89.608 0-134.413-17.439-168.638a160 160 0 0 0-69.923-69.923C438.413 0 393.608 0 304 0h-48C166.392 0 121.587 0 87.362 17.439a160 160 0 0 0-69.923 69.923" clip-rule="evenodd"/></g><defs><linearGradient id="b" x1="280" x2="280" y1="0" y2="560" gradientUnits="userSpaceOnUse"><stop stop-color="#fff"/><stop offset="1" stop-color="#EAEFF3"/></linearGradient><linearGradient id="c" x1="280.002" x2="280.002" y1="40" y2="520" gradientUnits="userSpaceOnUse"><stop stop-color="#629CE6"/><stop offset=".5" stop-color="#3F79CF"/><stop offset="1" stop-color="#2E74B5"/></linearGradient><linearGradient id="d" x1="280.002" x2="280.002" y1="0" y2="560" gradientUnits="userSpaceOnUse"><stop stop-color="#fff"/><stop offset="1" stop-color="#E6EFF6"/></linearGradient><linearGradient id="e" x1="280" x2="280" y1="0" y2="560" gradientUnits="userSpaceOnUse"><stop stop-color="#E5E9ED"/><stop offset="1" stop-color="#CFD3D9"/></linearGradient><clipPath id="a"><path fill="#fff" d="M0 0h560v560H0z"/></clipPath></defs></svg>