<svg width="161" height="160" fill="none" xmlns="http://www.w3.org/2000/svg"><g clip-path="url(#a)"><path fill="url(#b)" d="M.5 73.14c0-25.6 0-38.4 4.98-48.18A45.71 45.71 0 0 1 25.46 4.98C35.24 0 48.04 0 73.64 0h13.72c25.6 0 38.4 0 48.18 4.98a45.71 45.71 0 0 1 19.98 19.98c4.98 9.78 4.98 22.58 4.98 48.18v13.72c0 25.6 0 38.4-4.98 48.18a45.7 45.7 0 0 1-19.98 19.98C125.76 160 112.96 160 87.36 160H73.64c-25.6 0-38.4 0-48.18-4.98a45.71 45.71 0 0 1-19.98-19.98C.5 125.26.5 112.46.5 86.86V73.14Z"/><circle cx="80.5" cy="80" r="68.57" fill="url(#c)"/><path fill="url(#d)" d="M138.44 55.61A62.86 62.86 0 1 0 22.56 104.4a62.86 62.86 0 0 0 115.88-48.78Zm-5.33 49.95-2.79-7.34 6.86-3.67a57.9 57.9 0 0 1-4.07 11.02v-.01ZM24.27 94.66l6.77 3.63-2.75 7.24a57.77 57.77 0 0 1-4.02-10.87ZM22.4 80c0-1.9.1-3.78.27-5.63l5.2 5.75-5.18 5.74A60.7 60.7 0 0 1 22.4 80Zm5.85-25.43 2.8 7.4-6.88 3.69a58 58 0 0 1 4.08-11.1Zm108.98 11.05-6.92-3.71 2.82-7.44a58.03 58.03 0 0 1 4.1 11.15Zm-33.92 53.81-5.45-3.69c1.72-.83 3.39-1.8 4.97-2.87l.48 6.56Zm-14.73 5.18-3.69-5.2c1.84-.19 3.67-.51 5.47-.96l-1.78 6.16Zm-15.7.2-1.84-6.35c1.92.48 3.87.8 5.84 1l-4 5.34Zm-3.55 3.35-8.18 5.03-2.86-8.78 8.33-5.63 2.71 9.38Zm-11.26-8.83.47-6.45c1.56 1.06 3.2 2 4.9 2.82l-5.37 3.63Zm0-78.55 5.25 3.56a39.73 39.73 0 0 0-4.78 2.79l-.47-6.35Zm14.8-5.51 3.93 5.28a39.5 39.5 0 0 0-5.72.97l1.8-6.25Zm15.7.19 1.75 6.08a39.6 39.6 0 0 0-5.36-.95l3.61-5.13Zm3.46-3.67 8.19-5.07 2.86 8.87-8.33 5.68-2.72-9.48Zm11.26 8.9-.47 6.42a39.4 39.4 0 0 0-4.84-2.8l5.31-3.63Zm-22.6 74.6a35.34 35.34 0 0 1-32.09-50 35.23 35.23 0 0 1 9.07-12.04 2.27 2.27 0 0 0 .7-.58 35.34 35.34 0 0 1 9.86-5.7 2.04 2.04 0 0 0 .71-.25 35.25 35.25 0 0 1 34.47 6.33A35.23 35.23 0 0 1 115.98 80a35.34 35.34 0 0 1-35.3 35.3Zm-39.5-32.12-6.33-3.03 6.3-3.03a39.87 39.87 0 0 0 .02 6.06Zm79.03-6.12 6.3 3.03-6.31 3.03a41.74 41.74 0 0 0 0-6.06h.01Zm-3.28-13.1 6.24.55-4.39 4.54a39.07 39.07 0 0 0-1.85-5.1Zm-7.82-11.54 6.35-1.6-2.6 6.05a40 40 0 0 0-3.75-4.46Zm-28.2-13.59-6.02-8.08 5.6-7.44 6.07 7.46-5.66 8.06Zm-14.3 2.55-8.33-5.7 2.86-8.85 8.19 5.07-2.72 9.48ZM48.48 56.9l-2.58-6 6.31 1.58a40 40 0 0 0-3.72 4.41v.02Zm-5.92 12.21-4.37-4.56L44.4 64a39.4 39.4 0 0 0-1.84 5.1v.01Zm-9.27-3.39 6.83 7.1-9.1 4.34-6.22-6.91 8.49-4.53ZM31.02 83.1l9.09 4.36-6.83 7.1-8.5-4.55 6.24-6.91Zm11.6 8c.52 1.77 1.15 3.5 1.9 5.18l-6.34-.57 4.45-4.61Zm9.78 16.68-6.52 1.63 2.66-6.2a40.51 40.51 0 0 0 3.86 4.57Zm28.51 13.53 5.66 7.98-6.07 7.41-5.6-7.39 6.01-8Zm13.84-2.43 8.32 5.64-2.85 8.78-8.18-5.04 2.71-9.38Zm18.1-15.69 2.64 6.16-6.48-1.62a40.13 40.13 0 0 0 3.83-4.54Zm5.91-12.13 4.43 4.6-6.32.56c.75-1.67 1.38-3.4 1.9-5.17v.01Zm9.35 3.44-6.83-7.1 9.08-4.36 6.24 6.91-8.5 4.55Zm2.24-17.4-9.1-4.36 6.83-7.1 8.5 4.55-6.23 6.91Zm-4.1-16.7-9.82-.86 3.99-9.26 9.24 1.12-3.42 9Zm-9.6-14.35-9.56 2.39.73-10.05 9.1-1.96-.28 9.62ZM89.91 28l-5-6.16c3.94.28 7.85.96 11.65 2.04L89.92 28Zm-18.47.1-6.74-4.18a57.8 57.8 0 0 1 11.44-2.05l-4.7 6.23ZM54.3 48.5l-9.55-2.39-.29-9.62 9.1 1.96.74 10.05Zm-13.33 1.84 3.99 9.26-9.81.87-3.44-9 9.26-1.13ZM35.1 99.8l9.81.87-3.98 9.25-9.24-1.13 3.41-9Zm9.63 14.34 9.55-2.39-.74 10.05-9.1 1.97.29-9.63Zm26.72 17.8 4.7 6.18c-3.87-.3-7.7-.98-11.42-2.04l6.72-4.14Zm18.47.1 6.63 4.07a57.9 57.9 0 0 1-11.64 2.04l5.01-6.12Zm17.17-20.35 9.55 2.4.28 9.63-9.1-1.97-.73-10.06Zm13.35-1.84-3.99-9.26 9.81-.87 3.42 9.01-9.24 1.12Zm13.07-29.8 5.23-5.8a59.26 59.26 0 0 1-.01 11.6l-5.22-5.8Zm-4.8-33.13-7.74-.94.24-7.9c2.78 2.7 5.3 5.65 7.5 8.84Zm-14.2-14.41-7.36 1.59-2.31-7.18a58.18 58.18 0 0 1 9.66 5.59Zm-57.95-5.58-2.34 7.23-7.39-1.6a58.4 58.4 0 0 1 9.73-5.63Zm-16.4 11.2.24 7.9-7.72.94a58 58 0 0 1 7.49-8.84Zm-7.28 75.17 7.5.91-.22 7.65a58.77 58.77 0 0 1-7.28-8.55Zm14.24 14.35 7.16-1.55 2.26 6.97a58.5 58.5 0 0 1-9.42-5.42Zm57.73 5.44 2.3-7.04 7.2 1.55a58.23 58.23 0 0 1-9.5 5.47v.02Zm16.38-11.18-.23-7.75 7.6-.92a58.68 58.68 0 0 1-7.37 8.67Z"/><path fill="url(#e)" fill-rule="evenodd" d="M87.36 3.43H73.64c-12.85 0-22.3 0-29.74.61-7.41.6-12.56 1.8-16.88 4A42.29 42.29 0 0 0 8.54 26.52c-2.2 4.32-3.4 9.47-4 16.88-.6 7.45-.61 16.89-.61 29.74v13.72c0 12.85 0 22.3.61 29.74.6 7.41 1.8 12.56 4 16.88a42.29 42.29 0 0 0 18.48 18.48c4.32 2.2 9.47 3.4 16.88 4 7.45.6 16.89.61 29.74.61h13.72c12.86 0 22.3 0 29.74-.61 7.41-.6 12.56-1.8 16.88-4a42.3 42.3 0 0 0 18.48-18.48c2.2-4.32 3.4-9.47 4-16.88.6-7.45.61-16.89.61-29.74V73.14c0-12.85 0-22.3-.61-29.74-.6-7.41-1.8-12.56-4-16.88a42.29 42.29 0 0 0-18.48-18.48c-4.32-2.2-9.47-3.4-16.88-4-7.45-.6-16.88-.61-29.74-.61ZM5.48 24.96C.5 34.74.5 47.54.5 73.14v13.72c0 25.6 0 38.4 4.98 48.18a45.71 45.71 0 0 0 19.98 19.98C35.24 160 48.04 160 73.64 160h13.72c25.6 0 38.4 0 48.18-4.98a45.7 45.7 0 0 0 19.98-19.98c4.98-9.78 4.98-22.58 4.98-48.18V73.14c0-25.6 0-38.4-4.98-48.18a45.71 45.71 0 0 0-19.98-19.98C125.76 0 112.96 0 87.36 0H73.64c-25.6 0-38.4 0-48.18 4.98A45.71 45.71 0 0 0 5.48 24.96Z" clip-rule="evenodd"/></g><defs><linearGradient id="b" x1="80.5" x2="80.5" y1="0" y2="160" gradientUnits="userSpaceOnUse"><stop stop-color="#253344"/><stop offset="1" stop-color="#1E2732"/></linearGradient><linearGradient id="c" x1="80.5" x2="80.5" y1="11.43" y2="148.57" gradientUnits="userSpaceOnUse"><stop stop-color="#629CE6"/><stop offset=".5" stop-color="#3F79CF"/><stop offset="1" stop-color="#2E74B5"/></linearGradient><linearGradient id="d" x1="80.5" x2="80.5" y1="0" y2="160" gradientUnits="userSpaceOnUse"><stop stop-color="#fff"/><stop offset="1" stop-color="#E6EFF6"/></linearGradient><linearGradient id="e" x1="80.5" x2="80.5" y1="0" y2="160" gradientUnits="userSpaceOnUse"><stop stop-color="#303F52"/><stop offset="1" stop-color="#2B3746"/></linearGradient><clipPath id="a"><path fill="#fff" d="M.5 0h160v160H.5z"/></clipPath></defs></svg>