<svg width="200" height="200" fill="none" xmlns="http://www.w3.org/2000/svg"><g clip-path="url(#a)"><path d="M192.168 61.205A99.999 99.999 0 1 0 200 100a99.345 99.345 0 0 0-7.832-38.795ZM183.7 140.66l-4.435-11.667 10.913-5.842a92.052 92.052 0 0 1-6.478 17.521v-.012ZM10.54 123.318l10.78 5.772-4.375 11.521a91.922 91.922 0 0 1-6.405-17.293ZM7.573 100c0-3.024.143-6.012.43-8.963l8.257 9.158-8.225 9.129A96.606 96.606 0 0 1 7.573 100Zm9.295-40.461 4.46 11.788-10.946 5.854a92.277 92.277 0 0 1 6.486-17.642Zm173.378 17.585-11.006-5.906 4.496-11.837a92.173 92.173 0 0 1 6.51 17.743ZM136.29 162.73l-8.675-5.87a62.01 62.01 0 0 0 7.909-4.565l.766 10.435Zm-23.443 8.25-5.862-8.278a62.935 62.935 0 0 0 8.695-1.529l-2.833 9.807Zm-24.98.299-2.919-10.094a62.866 62.866 0 0 0 9.292 1.581l-6.373 8.513Zm-5.635 5.339-13.02 8.011-4.55-13.97 13.249-8.963 4.321 14.922Zm-17.918-14.05.754-10.256a62.16 62.16 0 0 0 7.78 4.483l-8.534 5.773Zm0-124.968 8.347 5.676a63.175 63.175 0 0 0-7.593 4.43L64.314 37.6Zm23.549-8.764 6.247 8.404a63.243 63.243 0 0 0-9.1 1.548l2.853-9.952Zm24.976.3 2.776 9.672a62.993 62.993 0 0 0-8.513-1.5l5.737-8.172Zm5.501-5.83 13.025-8.066 4.556 14.103-13.248 9.04-4.333-15.076Zm17.918 14.144-.75 10.228a62.663 62.663 0 0 0-7.703-4.459l8.453-5.769Zm-35.966 118.709c-30.963 0-56.158-25.195-56.158-56.158a56.047 56.047 0 0 1 19.568-42.565 3.61 3.61 0 0 0 .612-.406c.188-.156.358-.333.507-.527a56.22 56.22 0 0 1 15.68-9.052 3.24 3.24 0 0 0 1.123-.41 56.076 56.076 0 0 1 54.443 9.73 3.032 3.032 0 0 0 .397.336A56.053 56.053 0 0 1 156.45 100c0 30.963-25.191 56.158-56.158 56.158Zm-62.834-51.115-10.07-4.828 10.017-4.812a63.623 63.623 0 0 0 .032 9.64h.02Zm125.737-9.73 10.021 4.813-10.045 4.816a65.84 65.84 0 0 0 .19-4.942 72.337 72.337 0 0 0-.19-4.694l.024.008Zm-5.221-20.852 9.92.876-6.977 7.232a62.065 62.065 0 0 0-2.943-8.108ZM145.533 56.1l10.106-2.53-4.143 9.612a63.792 63.792 0 0 0-5.963-7.098v.016Zm-44.876-21.607L91.09 21.627l8.918-11.833 9.652 11.87-9.003 12.83Zm-22.742 4.054-13.252-9.06 4.548-14.095 13.03 8.063-4.326 15.092ZM49.064 63.252l-4.119-9.567 10.033 2.51a63.654 63.654 0 0 0-5.914 7.025v.032Zm-9.417 19.426-6.957-7.26 9.88-.876a62.67 62.67 0 0 0-2.923 8.104v.032Zm-14.76-5.392 10.868 11.29-14.468 6.912-9.904-11.002 13.504-7.2Zm-3.6 27.643 14.452 6.945-10.864 11.29-13.52-7.232 9.932-11.003Zm18.461 12.725a62.303 62.303 0 0 0 3.024 8.242L32.67 125l7.078-7.346Zm15.55 26.533-10.377 2.594 4.24-9.851a64.471 64.471 0 0 0 6.137 7.257Zm45.359 21.534 9.003 12.696-9.656 11.793-8.918-11.756 9.571-12.733Zm22.012-3.864 13.244 8.963-4.536 13.974-13.025-8.01 4.317-14.927Zm28.782-24.963 4.212 9.794-10.301-2.578a64.046 64.046 0 0 0 6.089-7.22v.004Zm9.421-19.296 7.046 7.325-10.054.888a62.163 62.163 0 0 0 3.008-8.23v.017Zm14.866 5.468-10.864-11.29 14.451-6.94 9.92 10.998-13.507 7.232Zm3.563-27.675-14.468-6.944 10.864-11.286 13.508 7.228-9.904 11.002Zm-6.527-26.565-15.607-1.378 6.34-14.728 14.708 1.784-5.441 14.322Zm-15.278-22.84-15.198 3.803 1.171-15.988 14.46-3.122-.433 15.308Zm-42.505-28.712-7.97-9.799a92.183 92.183 0 0 1 18.551 3.244l-10.581 6.554Zm-29.386.154-10.727-6.64a91.975 91.975 0 0 1 18.194-3.272l-7.467 9.912ZM58.306 49.887 43.11 46.084l-.454-15.311 14.48 3.125 1.172 15.989Zm-21.21 2.93 6.341 14.724-15.607 1.382-5.46-14.326 14.727-1.78Zm-9.323 78.677 15.607 1.383-6.328 14.723-14.707-1.792 5.428-14.314Zm15.311 22.827 15.198-3.806-1.171 15.992-14.48 3.126.453-15.312Zm42.525 28.308 7.46 9.839a92.335 92.335 0 0 1-18.158-3.243l10.698-6.596Zm29.382.154 10.54 6.486a92.053 92.053 0 0 1-18.518 3.243l7.978-9.729Zm27.311-32.361 15.194 3.818.45 15.316-14.481-3.13-1.163-16.004Zm21.234-2.931-6.34-14.728 15.607-1.382 5.436 14.326-14.703 1.784Zm20.792-47.41 8.326-9.234a94.189 94.189 0 0 1-.016 18.461l-8.31-9.227Zm-7.638-52.708-12.303-1.496.373-12.567a93.11 93.11 0 0 1 11.93 14.063Zm-22.592-22.932-11.695 2.53-3.685-11.416a92.563 92.563 0 0 1 15.38 8.886Zm-92.192-8.866-3.709 11.493-11.756-2.538a92.89 92.89 0 0 1 15.465-8.955ZM35.832 33.392l.373 12.566-12.287 1.492a93.495 93.495 0 0 1 11.914-14.058ZM24.238 152.979l11.943 1.448-.361 12.161a93.462 93.462 0 0 1-11.582-13.592v-.017Zm22.657 22.828 11.391-2.461 3.6 11.091a93.029 93.029 0 0 1-14.991-8.63Zm91.844 8.65 3.648-11.192 11.46 2.461a92.685 92.685 0 0 1-15.108 8.711v.02Zm26.053-17.784-.364-12.327 12.108-1.468a93.298 93.298 0 0 1-11.744 13.795Z" fill="url(#b)"/></g><defs><linearGradient id="b" x1="19.5" y1="13" x2="228.506" y2="78.237" gradientUnits="userSpaceOnUse"><stop stop-color="#71AAEF"/><stop offset=".339" stop-color="#3F79CF"/><stop offset=".708" stop-color="#2E74B5"/><stop offset="1" stop-color="#2160A2"/></linearGradient><clipPath id="a"><path fill="#fff" d="M0 0h200v200H0z"/></clipPath></defs></svg>