<svg xmlns="http://www.w3.org/2000/svg" width="30" height="18" fill="none"><mask id="a" width="30" height="18" x="0" y="0" maskUnits="userSpaceOnUse" style="mask-type:alpha"><path fill="#D9D9D9" d="M30 9a9 9 0 0 1-14.209 7.34A9.97 9.97 0 0 0 19 9a9.97 9.97 0 0 0-3.209-7.34A9 9 0 0 1 30 9"/><path fill="#D9D9D9" d="M18 9A9 9 0 1 1 0 9a9 9 0 0 1 18 0"/></mask><g mask="url(#a)"><rect width="18" height="18" x="12" fill="#F35B5B" rx="9"/><path fill="#fff" fill-rule="evenodd" d="M19.893 13.86c.04.135.153.244.3.273a.3.3 0 0 0 .155-.004.4.4 0 0 0 .216-.132l.003-.003 4.664-5.826a.39.39 0 0 0 .122-.343.38.38 0 0 0-.154-.251l-1.52-1.487a.36.36 0 0 0-.204-.11l-6.302-1.1s-.105-.02-.202-.02a.35.35 0 0 0-.243.142.4.4 0 0 0-.053.401zm.196-1.664.494-3.56-2.672-2.175zm-1.67-6.319 2.57 2.092 1.563-1.37zm5.62 2.536-2.694.398-.501 3.592zM23.4 6.89l-1.141 1 1.878-.277z" clip-rule="evenodd"/><rect width="18" height="18" fill="#08C" rx="9"/><path fill="#fff" fill-rule="evenodd" d="M6.064 5.188h5.918c.21 0 .419.03.637.132.262.122.401.315.499.457l.021.035q.173.305.174.66c0 .225-.054.47-.174.684l-.003.006-3.74 6.423a.46.46 0 0 1-.794-.003l-3.67-6.41-.004-.005c-.084-.138-.214-.352-.236-.628a1.25 1.25 0 0 1 .714-1.235c.248-.116.5-.116.658-.116m2.477.917H6.064c-.163 0-.225.01-.27.03a.33.33 0 0 0-.188.328c.003.04.02.084.113.239l.006.01 2.816 4.917zm.918 0v5.549l2.881-4.95a.5.5 0 0 0 .055-.232.4.4 0 0 0-.047-.195 1 1 0 0 0-.073-.094.1.1 0 0 0-.043-.031.55.55 0 0 0-.25-.047z" clip-rule="evenodd"/></g></svg>