<svg xmlns="http://www.w3.org/2000/svg" width="28" height="30" fill="none"><g clip-path="url(#a)"><path fill="#F35B5B" d="M0 25.864V0h28v25.864c0 1.358 0 2.037-.285 2.431a1.5 1.5 0 0 1-1.054.611c-.483.053-1.073-.284-2.252-.958l-8.027-4.587c-.869-.496-1.303-.744-1.764-.841a3 3 0 0 0-1.236 0c-.461.097-.895.345-1.764.84l-8.027 4.588c-1.18.674-1.769 1.01-2.252.959a1.5 1.5 0 0 1-1.054-.612C0 27.901 0 27.222 0 25.865"/><path fill="#fff" d="M6.322 15.088a4.4 4.4 0 0 1-.688-.056q-.343-.048-.664-.144a2.7 2.7 0 0 1-.56-.24.557.557 0 0 1-.184-.848.44.44 0 0 1 .256-.16.5.5 0 0 1 .352.056q.328.184.712.272.393.088.776.088.585 0 .832-.176.248-.185.248-.456a.44.44 0 0 0-.176-.368q-.175-.135-.616-.232l-.904-.192q-.768-.16-1.144-.544-.368-.392-.368-1.024 0-.4.168-.728t.472-.568q.305-.24.72-.368a3.5 3.5 0 0 1 1.808-.016 2.5 2.5 0 0 1 .76.312.48.48 0 0 1 .216.248.5.5 0 0 1 .04.296.44.44 0 0 1-.12.256.43.43 0 0 1-.248.144q-.152.032-.368-.072a2.3 2.3 0 0 0-.56-.2 3 3 0 0 0-.608-.064q-.336 0-.576.088a.8.8 0 0 0-.36.248.6.6 0 0 0-.12.368q0 .232.168.376t.584.232l.904.192q.784.168 1.168.544.384.367.384.976 0 .4-.16.728a1.6 1.6 0 0 1-.464.552 2.3 2.3 0 0 1-.728.36q-.423.12-.952.12m3.215-.016a.6.6 0 0 1-.368-.104.47.47 0 0 1-.176-.28.64.64 0 0 1 .072-.392l2.048-4.488a.95.95 0 0 1 .304-.392.68.68 0 0 1 .408-.128q.231 0 .408.128.176.12.296.392l2.064 4.488q.104.216.072.4a.4.4 0 0 1-.16.28.6.6 0 0 1-.352.096q-.273 0-.424-.128a1.1 1.1 0 0 1-.256-.4l-.48-1.112.496.344h-3.336l.496-.344-.472 1.112q-.12.28-.256.408-.129.12-.384.12m2.272-4.392-1.024 2.44-.216-.312h2.504l-.216.312-1.032-2.44zM16.032 15q-.304 0-.472-.168-.16-.168-.16-.464V9.976q0-.312.16-.472t.464-.16q.296 0 .456.16t.16.472v3.976h2.144q.255 0 .392.136.144.136.144.384 0 .255-.144.392-.135.136-.392.136zm4.602 0q-.312 0-.48-.168t-.168-.48v-4.344q0-.312.168-.48t.48-.168h2.792q.24 0 .36.128.128.12.128.352 0 .24-.128.368-.12.12-.36.12H21.17v1.32h2.072q.248 0 .368.128.128.12.128.36t-.128.368q-.12.12-.368.12H21.17v1.408h2.256q.24 0 .36.128.128.12.128.352 0 .24-.128.368-.12.12-.36.12z"/></g><defs><clipPath id="a"><path fill="#fff" d="M0 0h28v30H0z"/></clipPath></defs></svg>