<svg xmlns="http://www.w3.org/2000/svg" width="37" height="15" fill="none"><rect width="35.8" height="13.094" x=".6" y=".6" stroke="#F35B5B" stroke-width="1.2" rx="2.4"/><path fill="#F35B5B" d="M8.006 10.508c-.259 0-.524-.022-.795-.065a5.14 5.14 0 0 1-.768-.167A3.103 3.103 0 0 1 5.795 10a.644.644 0 0 1-.212-.98.508.508 0 0 1 .296-.185.584.584 0 0 1 .407.064c.252.142.527.247.823.315.302.068.601.102.897.102.45 0 .77-.068.962-.204.191-.142.287-.318.287-.527a.51.51 0 0 0-.204-.426c-.135-.104-.373-.194-.712-.268l-1.045-.222c-.592-.123-1.033-.333-1.323-.629-.284-.302-.425-.696-.425-1.184 0-.308.064-.588.194-.841s.311-.472.546-.657c.234-.185.511-.327.832-.425a4.038 4.038 0 0 1 2.09-.018c.334.08.626.2.88.36.123.074.206.17.249.287.05.11.065.225.046.342a.508.508 0 0 1-.138.296.502.502 0 0 1-.287.166c-.117.025-.26-.003-.426-.083a2.613 2.613 0 0 0-.647-.231 3.318 3.318 0 0 0-.703-.074 1.94 1.94 0 0 0-.666.102.949.949 0 0 0-.416.286.69.69 0 0 0-.14.426c0 .178.066.323.195.434.13.111.355.2.675.269l1.046.222c.604.13 1.054.339 1.35.628.296.284.444.66.444 1.129 0 .308-.062.589-.185.842a1.83 1.83 0 0 1-.536.638 2.623 2.623 0 0 1-.842.416 4.041 4.041 0 0 1-1.101.139Zm6.758 0c-.703 0-1.304-.14-1.803-.417a2.882 2.882 0 0 1-1.157-1.165c-.265-.506-.397-1.1-.397-1.785 0-.512.074-.971.222-1.378a2.933 2.933 0 0 1 1.72-1.739c.42-.16.891-.24 1.415-.24.309 0 .62.04.935.12.32.074.598.182.832.324a.69.69 0 0 1 .315.323c.055.13.07.26.046.389a.6.6 0 0 1-.157.333.53.53 0 0 1-.306.175c-.123.025-.262-.003-.416-.083a2.08 2.08 0 0 0-.583-.24 2.621 2.621 0 0 0-.62-.074c-.413 0-.761.083-1.045.25-.277.16-.487.394-.629.702-.141.309-.212.688-.212 1.138 0 .444.07.823.212 1.138.142.314.352.555.63.721.283.16.631.24 1.045.24a2.546 2.546 0 0 0 1.202-.305c.16-.08.302-.108.426-.083.13.019.234.074.314.167a.548.548 0 0 1 .157.314.639.639 0 0 1-.037.37.672.672 0 0 1-.277.314 2.705 2.705 0 0 1-.842.361c-.333.086-.663.13-.99.13Zm3.228-.018a.71.71 0 0 1-.426-.121.547.547 0 0 1-.203-.324.74.74 0 0 1 .083-.453l2.368-5.189c.099-.21.216-.36.351-.453a.781.781 0 0 1 .472-.148c.179 0 .336.05.472.148.136.093.25.244.342.453l2.387 5.189a.76.76 0 0 1 .083.462.471.471 0 0 1-.185.324.69.69 0 0 1-.407.111c-.21 0-.373-.05-.49-.148-.111-.098-.21-.253-.296-.462l-.555-1.286.573.398h-3.857l.573-.398-.545 1.286c-.093.216-.191.373-.296.471-.099.093-.247.14-.444.14Zm2.627-5.079-1.184 2.821-.25-.36h2.895l-.25.36-1.193-2.82h-.018Zm4.818 5.079c-.21 0-.37-.06-.48-.177-.112-.117-.167-.28-.167-.49V4.468c0-.21.058-.373.175-.49.124-.117.29-.176.5-.176.185 0 .33.037.435.111.11.068.213.188.305.36l2.137 3.904h-.315l2.137-3.903c.092-.173.191-.293.296-.36a.77.77 0 0 1 .435-.112c.21 0 .37.059.48.176.118.117.177.28.177.49v5.355c0 .21-.056.373-.167.49-.111.117-.271.176-.481.176-.21 0-.373-.059-.49-.176-.111-.117-.167-.28-.167-.49V6.077h.204l-1.72 3.08a.94.94 0 0 1-.241.268.56.56 0 0 1-.324.084.56.56 0 0 1-.333-.093.869.869 0 0 1-.231-.259l-1.74-3.089h.223v3.755c0 .21-.056.373-.167.49-.105.117-.265.176-.48.176Z"/></svg>