<svg width="22" height="22" viewBox="0 0 22 22" fill="none" xmlns="http://www.w3.org/2000/svg">
<path d="M11 0C17.0751 0 22 4.92487 22 11C22 17.0751 17.0751 22 11 22C4.92487 22 0 17.0751 0 11C0 4.92487 4.92487 0 11 0ZM16.1855 10.6641C15.9349 10.6641 15.7217 10.752 15.5459 10.9277C15.3734 11.1035 15.2871 11.3167 15.2871 11.5674V11.8701C15.2871 12.3063 15.1504 12.6465 14.877 12.8906C14.6068 13.1348 14.2308 13.2568 13.749 13.2568H10.126V12.2119C10.126 12.0068 10.0674 11.8457 9.9502 11.7285C9.83626 11.6081 9.68001 11.5479 9.48145 11.5479C9.38704 11.5479 9.30241 11.5625 9.22754 11.5918C9.15592 11.6211 9.09245 11.6602 9.03711 11.709L6.80078 13.6182C6.6543 13.7451 6.58105 13.8997 6.58105 14.082C6.58431 14.2611 6.65755 14.4108 6.80078 14.5312L9.03711 16.4355C9.09245 16.4844 9.15592 16.5234 9.22754 16.5527C9.30241 16.582 9.38704 16.5967 9.48145 16.5967C9.68001 16.5967 9.83626 16.5365 9.9502 16.416C10.0674 16.2988 10.126 16.1393 10.126 15.9375V15.0146H13.6807C14.3903 15.0146 14.999 14.9007 15.5068 14.6729C16.0146 14.4417 16.4036 14.1113 16.6738 13.6816C16.9473 13.252 17.084 12.7393 17.084 12.1436V11.5674C17.084 11.3167 16.9961 11.1035 16.8203 10.9277C16.6445 10.752 16.4329 10.6641 16.1855 10.6641ZM12.5186 5.71777C12.32 5.71777 12.1621 5.77799 12.0449 5.89844C11.931 6.01562 11.874 6.17676 11.874 6.38184V7.31934H8.31934C7.6097 7.31934 7.00098 7.4349 6.49316 7.66602C5.98535 7.89388 5.59473 8.22266 5.32129 8.65234C5.05111 9.08203 4.91602 9.59473 4.91602 10.1904V10.7666C4.91602 11.014 5.00391 11.2272 5.17969 11.4062C5.35547 11.582 5.56869 11.6699 5.81934 11.6699C6.06673 11.6699 6.27669 11.582 6.44922 11.4062C6.625 11.2272 6.71289 11.014 6.71289 10.7666V10.4639C6.71289 10.0277 6.84798 9.6875 7.11816 9.44336C7.3916 9.19596 7.76921 9.07227 8.25098 9.07227H11.874V10.1074C11.874 10.3092 11.931 10.4704 12.0449 10.5908C12.1621 10.708 12.32 10.7666 12.5186 10.7666C12.6162 10.7666 12.7008 10.752 12.7725 10.7227C12.8441 10.6934 12.9092 10.6543 12.9678 10.6055L15.1992 8.69629C15.3457 8.57259 15.4189 8.42122 15.4189 8.24219C15.4189 8.0599 15.3457 7.9069 15.1992 7.7832L12.9678 5.87891C12.9092 5.83333 12.8441 5.7959 12.7725 5.7666C12.7008 5.73405 12.6162 5.71777 12.5186 5.71777Z" fill="#007AFF"/>
</svg>
