<svg width="28" height="28" fill="none" xmlns="http://www.w3.org/2000/svg"><rect width="28" height="28" rx="8" fill="#F90"/><path d="M14 18.084a.79.79 0 0 0 .582-.235.79.79 0 0 0 .235-.582V13.98a.757.757 0 0 0-.235-.571.81.81 0 0 0-.582-.225.79.79 0 0 0-.581.234.79.79 0 0 0-.236.583v3.287c0 .231.079.422.236.571.156.15.35.225.581.225Zm0-6.533a.79.79 0 0 0 .582-.236.79.79 0 0 0 .235-.581.792.792 0 0 0-.235-.582.792.792 0 0 0-.582-.235.79.79 0 0 0-.581.235.79.79 0 0 0-.236.582c0 .231.079.425.236.582a.79.79 0 0 0 .581.235Zm0 10.616a7.948 7.948 0 0 1-3.185-.643 8.242 8.242 0 0 1-2.593-1.745 8.242 8.242 0 0 1-1.745-2.593A7.948 7.948 0 0 1 5.833 14c0-1.13.215-2.192.644-3.185a8.241 8.241 0 0 1 1.745-2.593 8.253 8.253 0 0 1 2.593-1.746A7.957 7.957 0 0 1 14 5.834c1.13 0 2.192.214 3.185.643a8.253 8.253 0 0 1 2.593 1.746 8.241 8.241 0 0 1 1.745 2.593c.43.993.644 2.055.644 3.185s-.215 2.191-.644 3.185a8.242 8.242 0 0 1-1.745 2.593 8.242 8.242 0 0 1-2.593 1.745 7.948 7.948 0 0 1-3.185.643Z" fill="#fff"/></svg>