<svg width="28" height="28" fill="none" xmlns="http://www.w3.org/2000/svg"><rect width="28" height="28" rx="8" fill="#08C"/><path fill-rule="evenodd" clip-rule="evenodd" d="M10.023 15.205a2.77 2.77 0 0 1 2.77 2.77c0 1.53-.814 2.82-2.77 3.414-1.304.396-2.795-.034-4.472-1.292 1.072-.25 1.638-.895 1.697-1.934l.006-.188a2.77 2.77 0 0 1 2.77-2.77Zm2.76-2.899 5.8-5.8c.66-.66 1.761-.63 2.459.067.659.658.722 1.677.17 2.345l-.103.114-5.8 5.8c-.661.66-1.309 1.084-2.46-.067-1.106-1.106-.758-1.748-.142-2.383l5.876-5.876-5.8 5.8Z" fill="#fff"/></svg>