<svg width="28" height="28" fill="none" xmlns="http://www.w3.org/2000/svg"><rect width="28" height="28" rx="8" fill="#1EC160"/><path fill-rule="evenodd" clip-rule="evenodd" d="m21.241 17.017-.001 2.207c-1.381.912-4.105 1.533-7.24 1.533-3.009 0-5.64-.572-7.067-1.425l-.172-.108-.002-2.207c1.76.844 4.392 1.326 7.241 1.326 2.85 0 5.482-.482 7.241-1.326ZM6.76 12.684c1.567 1.164 4.249 1.797 7.241 1.797s5.674-.633 7.241-1.796v2.677c-1.381.912-4.106 1.533-7.24 1.533-3.01 0-5.641-.572-7.07-1.425l-.171-.108-.001-2.678Zm7.243-5.444c4 0 7.242 1.297 7.242 2.897 0 1.6-3.242 2.896-7.242 2.896s-7.241-1.296-7.241-2.896c0-1.6 3.242-2.897 7.241-2.897Z" fill="#fff"/></svg>