<svg width="28" height="28" fill="none" xmlns="http://www.w3.org/2000/svg"><rect width="28" height="28" rx="8" fill="#F35B5B"/><path d="M7.583 14c0 .217.085.425.235.578.15.153.355.24.568.24h6.087l-1.845 1.87a.817.817 0 0 0-.237.58.828.828 0 0 0 .498.758.791.791 0 0 0 .879-.18l3.208-3.266a.819.819 0 0 0 .168-.27.83.83 0 0 0 0-.62.817.817 0 0 0-.168-.27l-3.208-3.266a.804.804 0 0 0-.57-.24.793.793 0 0 0-.57.24.82.82 0 0 0-.235.58.834.834 0 0 0 .236.58l1.844 1.87H8.385a.795.795 0 0 0-.567.239.824.824 0 0 0-.235.578Zm10.428-8.166H9.99c-.639 0-1.25.258-1.702.718a2.473 2.473 0 0 0-.705 1.732v2.45c0 .216.085.424.235.577a.795.795 0 0 0 1.135 0 .824.824 0 0 0 .235-.577v-2.45c0-.217.084-.424.235-.578a.795.795 0 0 1 .567-.239h8.02c.213 0 .417.086.568.24.15.153.235.36.235.577v11.433a.824.824 0 0 1-.235.578.795.795 0 0 1-.567.239H9.99a.795.795 0 0 1-.567-.24.824.824 0 0 1-.235-.577v-2.45a.824.824 0 0 0-.235-.577.795.795 0 0 0-1.135 0 .824.824 0 0 0-.235.577v2.45c0 .65.254 1.273.705 1.732.451.46 1.063.718 1.702.718h8.02c.639 0 1.25-.258 1.702-.718.451-.46.705-1.082.705-1.732V8.284c0-.65-.254-1.273-.705-1.732a2.385 2.385 0 0 0-1.701-.718Z" fill="#fff"/></svg>