<svg width="28" height="28" fill="none" xmlns="http://www.w3.org/2000/svg"><rect width="28" height="28" rx="8" fill="#586FEB"/><path d="M14 22.167a7.898 7.898 0 0 1-3.165-.643 8.271 8.271 0 0 1-2.602-1.756 8.27 8.27 0 0 1-1.756-2.603 7.897 7.897 0 0 1-.644-3.164c0-1.13.215-2.188.644-3.175a8.3 8.3 0 0 1 1.756-2.593 8.28 8.28 0 0 1 2.602-1.756A7.906 7.906 0 0 1 14 5.834c1.13 0 2.188.214 3.174.643a8.3 8.3 0 0 1 4.349 4.35c.43.986.644 2.044.644 3.174 0 1.116-.215 2.17-.644 3.164a8.27 8.27 0 0 1-1.756 2.603 8.303 8.303 0 0 1-2.593 1.756 7.873 7.873 0 0 1-3.174.643Zm0-1.674c.354-.49.66-1 .919-1.531.258-.53.47-1.096.633-1.695h-3.104a9.745 9.745 0 0 0 1.553 3.226Zm-2.123-.326a11.23 11.23 0 0 1-.643-1.4 11.915 11.915 0 0 1-.46-1.5H8.365a6.78 6.78 0 0 0 1.48 1.777 5.88 5.88 0 0 0 2.032 1.122Zm4.246 0a5.872 5.872 0 0 0 2.031-1.123 6.773 6.773 0 0 0 1.481-1.777h-2.41a12.013 12.013 0 0 1-.458 1.5c-.184.484-.399.95-.644 1.4Zm-8.452-4.533h2.777a11.47 11.47 0 0 1-.093-.807 10.937 10.937 0 0 1 .093-2.46H7.67A6.543 6.543 0 0 0 7.467 14a6.542 6.542 0 0 0 .204 1.634Zm4.41 0h3.838a10.885 10.885 0 0 0 .092-2.46c-.02-.265-.05-.534-.092-.807h-3.838a11.14 11.14 0 0 0-.123 1.634 10.672 10.672 0 0 0 .123 1.633Zm5.472 0h2.776a6.552 6.552 0 0 0 .204-1.633 6.552 6.552 0 0 0-.204-1.634h-2.776a11.084 11.084 0 0 1 .122 1.634 10.622 10.622 0 0 1-.122 1.633Zm-.327-4.9h2.41a6.773 6.773 0 0 0-1.482-1.776 5.872 5.872 0 0 0-2.03-1.123 11.499 11.499 0 0 1 1.102 2.899Zm-4.778 0h3.104a9.664 9.664 0 0 0-.633-1.695A10.366 10.366 0 0 0 14 7.51c-.354.49-.66 1-.919 1.53a9.672 9.672 0 0 0-.633 1.695Zm-4.083 0h2.41c.122-.517.275-1.018.459-1.501.184-.483.398-.949.643-1.398a5.88 5.88 0 0 0-2.032 1.123 6.78 6.78 0 0 0-1.48 1.776Z" fill="#fff"/></svg>