<svg width="28" height="28" fill="none" xmlns="http://www.w3.org/2000/svg"><rect width="28" height="28" rx="8" fill="#1EC160"/><path d="M10.664 20.667v-.834H7.328c-.459 0-.851-.163-1.178-.489a1.607 1.607 0 0 1-.49-1.177v-10c0-.459.163-.85.49-1.177a1.61 1.61 0 0 1 1.178-.49h5.838c.236 0 .434.08.595.24.16.16.24.358.239.593 0 .236-.08.434-.24.595a.798.798 0 0 1-.594.239H7.328v10h13.344V16.5c0-.236.08-.434.24-.593a.81.81 0 0 1 .594-.24c.236 0 .434.08.595.24a.8.8 0 0 1 .239.593v1.667c0 .458-.163.85-.49 1.177-.326.327-.719.49-1.178.49h-3.336v.833c0 .236-.08.434-.24.594a.804.804 0 0 1-.594.239h-5.004a.805.805 0 0 1-.594-.24.81.81 0 0 1-.24-.593Zm6.672-8.188V7.333c0-.236.08-.434.24-.593.16-.16.358-.24.594-.24s.434.08.595.24a.8.8 0 0 1 .239.593v5.146l1.585-1.562a.817.817 0 0 1 .573-.24.771.771 0 0 1 .594.24.79.79 0 0 1 .23.583.79.79 0 0 1-.23.583l-3.002 3a.8.8 0 0 1-.584.25.8.8 0 0 1-.584-.25l-3.002-3a.811.811 0 0 1-.24-.572.78.78 0 0 1 .24-.594.791.791 0 0 1 .584-.23c.236 0 .43.077.583.23l1.585 1.562Z" fill="#fff"/></svg>