<svg xmlns="http://www.w3.org/2000/svg" width="28" height="28" fill="none"><rect width="28" height="28" fill="#08C" rx="8"/><path fill="#fff" d="M14.5 20.792V8.542c0-.11.028-.217.09-.307 1.547-2.283 6.129-2.313 7.757-.09a.853.853 0 0 1 .153.507v12.14c0 .304-.472.463-.706.268-1.7-1.413-4.888-1.413-6.588 0-.234.195-.706.036-.706-.268ZM5.5 20.792V8.652c0-.181.046-.361.153-.508 1.628-2.222 6.21-2.192 7.758.09.06.09.089.198.089.307v12.251c0 .304-.472.463-.706.268-1.7-1.413-4.888-1.413-6.588 0-.234.195-.706.036-.706-.268Z"/></svg>
