<svg xmlns="http://www.w3.org/2000/svg" width="28" height="28" fill="none"><rect width="28" height="28" fill="#1EC160" rx="8"/><path fill="#fff" fill-rule="evenodd" d="M14 22.167c4.013-.936 7-4.789 7-8.91V8.804l-7-2.97-7 2.97v4.455c0 4.12 2.987 7.974 7 8.909Zm-.119-4.834c-.172.267-.426.417-.721.417-.303 0-.541-.125-.762-.417l-1.935-2.403a.88.88 0 0 1-.213-.559c0-.417.312-.742.713-.742.246 0 .443.091.64.35l1.524 1.977 3.238-5.289c.172-.284.393-.417.64-.417.384 0 .745.275.745.684 0 .192-.098.392-.205.567z" clip-rule="evenodd"/></svg>