<svg xmlns="http://www.w3.org/2000/svg" width="28" height="28" fill="none"><rect width="28" height="28" fill="#1EC160" rx="8"/><path fill="#fff" fill-rule="evenodd" d="M14 5.55a.95.95 0 0 1 .95.95v7.6l2.503-2.501a.95.95 0 1 1 1.343 1.344l-4.125 4.12a.95.95 0 0 1-1.343 0l-4.124-4.12a.95.95 0 1 1 1.342-1.344l2.504 2.5V6.5a.95.95 0 0 1 .95-.95M7.4 17.253a.95.95 0 0 1 .95.95v1.649a.7.7 0 0 0 .7.698h9.9a.7.7 0 0 0 .7-.698v-1.649a.95.95 0 0 1 1.9 0v1.649a2.6 2.6 0 0 1-2.6 2.598h-9.9a2.6 2.6 0 0 1-2.6-2.598v-1.649a.95.95 0 0 1 .95-.95" clip-rule="evenodd"/></svg>