<svg xmlns="http://www.w3.org/2000/svg" width="28" height="28" fill="none"><rect width="28" height="28" fill="#8399AE" rx="8"/><path fill="#fff" fill-rule="evenodd" d="M18.063 12.4V10c0-2.206-1.823-4-4.063-4s-4.062 1.794-4.062 4v2.4A1.84 1.84 0 0 0 8.1 14.335l.162 3.115c.083 1.6.125 2.4.463 3.008a3 3 0 0 0 1.302 1.236c.624.306 1.426.306 3.028.306h1.888c1.602 0 2.404 0 3.028-.306a3 3 0 0 0 1.302-1.236c.338-.607.38-1.408.463-3.008l.162-3.115a1.84 1.84 0 0 0-1.837-1.935M14 7.6c-1.344 0-2.437 1.077-2.437 2.4v2.4h4.874V10c0-1.323-1.093-2.4-2.437-2.4" clip-rule="evenodd"/></svg>