<svg xmlns="http://www.w3.org/2000/svg" width="28" height="28" fill="none"><rect width="28" height="28" fill="#08C" rx="8"/><path fill="#fff" d="M10.664 20.667v-.834H7.328q-.688 0-1.178-.489a1.6 1.6 0 0 1-.49-1.177v-10q0-.687.49-1.177a1.6 1.6 0 0 1 1.178-.49h5.838a.8.8 0 0 1 .595.24q.24.24.239.593a.8.8 0 0 1-.24.595.8.8 0 0 1-.594.239H7.328v10h13.344V16.5q0-.354.24-.593a.8.8 0 0 1 .594-.24.8.8 0 0 1 .595.24.8.8 0 0 1 .239.593v1.667q0 .687-.49 1.177t-1.178.49h-3.336v.833q0 .354-.24.594a.8.8 0 0 1-.594.239h-5.004a.8.8 0 0 1-.594-.24.8.8 0 0 1-.24-.593m6.672-8.188V7.333q0-.354.24-.593.24-.24.594-.24c.354 0 .434.08.595.24a.8.8 0 0 1 .239.593v5.146l1.585-1.562a.82.82 0 0 1 .573-.24.77.77 0 0 1 .594.24.8.8 0 0 1 .23.583.8.8 0 0 1-.23.583l-3.002 3a.8.8 0 0 1-.584.25.8.8 0 0 1-.584-.25l-3.002-3a.8.8 0 0 1-.24-.572.78.78 0 0 1 .24-.594.8.8 0 0 1 .584-.23.8.8 0 0 1 .583.23z"/></svg>
