<svg xmlns="http://www.w3.org/2000/svg" width="28" height="28" fill="none"><rect width="28" height="28" fill="#1EC160" rx="8"/><path fill="#fff" fill-rule="evenodd" d="M15.234 19.562c.804.624 1.808.938 2.99.938q.393 0 .784-.044a.56.56 0 0 0 .37-.19.5.5 0 0 0 .119-.385.53.53 0 0 0-.209-.352.57.57 0 0 0-.406-.108c-1.213.13-2.198-.093-2.935-.657-1.217-.936-1.398-2.545-1.41-2.646v-.004a.53.53 0 0 0-.193-.364.57.57 0 0 0-.783.059.52.52 0 0 0-.131.387v.002c.01.104.197 2.123 1.804 3.364M13.988 5.5c3.074 0 4.709.856 5.17 1.143.1.04.186.106.246.192.06.085.093.187.093.29a.5.5 0 0 1-.166.37.55.55 0 0 1-.39.15.57.57 0 0 1-.335-.105l-.007-.004c-.107-.07-1.535-.994-4.61-.994-3.183 0-4.594.994-4.61 1.005a.6.6 0 0 1-.322.097.57.57 0 0 1-.39-.148.53.53 0 0 1-.167-.37.5.5 0 0 1 .193-.392.4.4 0 0 1 .067-.048c.363-.24 2.001-1.186 5.228-1.186m-7.215 6.923q.13.077.278.077a.5.5 0 0 0 .274-.076.56.56 0 0 0 .201-.215c.596-1.069 2.427-3.563 6.475-3.563 4.147 0 5.914 2.71 6.493 3.6a.56.56 0 0 0 .354.244.53.53 0 0 0 .412-.09.6.6 0 0 0 .15-.158.6.6 0 0 0 .078-.435.6.6 0 0 0-.084-.207c-.32-.495-.992-1.524-2.191-2.432C17.755 8.061 16 7.5 14 7.5c-4.616 0-6.732 2.894-7.427 4.134a.6.6 0 0 0 .199.789m9.226 10.062a.5.5 0 0 0 .442-.095.54.54 0 0 0 .186-.286.55.55 0 0 0-.058-.401.52.52 0 0 0-.313-.24c-2.508-.649-3.555-3.335-3.635-3.547a5.6 5.6 0 0 1-.172-1.052c-.037-.511-.011-1.215.318-1.666.242-.33.63-.488 1.183-.488 1.006 0 1.175.515 1.438 1.582.256 1.041.607 2.469 2.562 2.571.75.038 1.428-.31 1.903-.977.714-1 .85-2.529.344-3.892-.397-1.067-1.156-2.135-2.086-2.93-1.2-1.023-2.639-1.564-4.161-1.564-3.295 0-5.484 2.332-6.193 4.646-.652 2.134.138 5.23.172 5.364a.54.54 0 0 0 .243.323.5.5 0 0 0 .39.052.5.5 0 0 0 .314-.241.54.54 0 0 0 .053-.404c-.007-.026-.746-2.93-.183-4.778a5.83 5.83 0 0 1 1.733-2.641c.962-.826 2.163-1.265 3.47-1.265 3.06 0 4.797 2.494 5.286 3.817.38 1.024.293 2.185-.212 2.897-.187.261-.517.568-1.018.541-1.141-.06-1.34-.65-1.614-1.775l-.001-.004c-.13-.539-.266-1.098-.603-1.551-.41-.556-1.007-.825-1.834-.825-.89 0-1.563.308-2.005.908-.956 1.303-.351 3.515-.313 3.658l.001.004.008.03c.047.136 1.219 3.416 4.355 4.229m-3.843.015a.5.5 0 0 1-.205-.044.5.5 0 0 1-.172-.127c-1.258-1.413-1.969-2.993-2.237-4.969v-.01c-.15-1.308.07-3.16 1.148-4.433.795-.94 1.914-1.417 3.318-1.417 1.66 0 2.966.827 3.78 2.387a7 7 0 0 1 .71 2.31.58.58 0 0 1-.116.4.5.5 0 0 1-.346.194.5.5 0 0 1-.376-.116.56.56 0 0 1-.192-.365 5.9 5.9 0 0 0-.605-1.931c-.63-1.192-1.59-1.797-2.859-1.797-1.096 0-1.954.353-2.544 1.05-.85 1.006-1.015 2.555-.899 3.58.235 1.746.862 3.136 1.97 4.378a.566.566 0 0 1-.026.765.5.5 0 0 1-.349.145" clip-rule="evenodd"/></svg>