<svg xmlns="http://www.w3.org/2000/svg" width="28" height="28" fill="none"><rect width="28" height="28" fill="#F35B5B" rx="8"/><path fill="#fff" fill-rule="evenodd" d="m19.653 12.772.144 2.746a2 2 0 0 0 .696 1.414l.705.604c.704.604.277 1.759-.651 1.759H7.453c-.928 0-1.355-1.155-.65-1.76l.704-.603a2 2 0 0 0 .696-1.414l.25-4.748a3.85 3.85 0 0 1 3.843-3.646 1.704 1.704 0 0 1 3.291-.621 4.021 4.021 0 0 0 4.065 6.27" clip-rule="evenodd"/><path fill="#fff" d="M21.79 8.828a2.921 2.921 0 1 1-5.842 0 2.921 2.921 0 0 1 5.842 0m-5.6 11.562a2.19 2.19 0 1 1-4.38 0z"/></svg>