<svg xmlns="http://www.w3.org/2000/svg" width="28" height="28" fill="none"><rect width="28" height="28" fill="#1EC160" rx="8"/><path fill="#fff" d="M7 17.2v-6.4c0-1.68 0-2.52.327-3.162a3 3 0 0 1 1.311-1.311C9.28 6 10.12 6 11.8 6h4.4c1.68 0 2.52 0 3.162.327a3 3 0 0 1 1.311 1.311C21 8.28 21 9.12 21 10.8v6.4c0 1.68 0 2.52-.327 3.162a3 3 0 0 1-1.311 1.311C18.72 22 17.88 22 16.2 22h-4.4c-1.68 0-2.52 0-3.162-.327a3 3 0 0 1-1.311-1.311C7 19.72 7 18.88 7 17.2"/><path stroke="#1EC160" stroke-linecap="round" stroke-width="1.8" d="M11 14h4.5M11 10h6m-6 8h3"/></svg>