<svg xmlns="http://www.w3.org/2000/svg" width="28" height="28" fill="none"><rect width="28" height="28" fill="#F90" rx="8"/><path fill="#fff" d="M14 18.084a.8.8 0 0 0 .582-.235.8.8 0 0 0 .235-.582V13.98a.76.76 0 0 0-.235-.571.8.8 0 0 0-.582-.225.8.8 0 0 0-.581.234.8.8 0 0 0-.236.583v3.287q0 .347.236.571.234.225.581.225m0-6.533a.8.8 0 0 0 .582-.236.8.8 0 0 0 .235-.581.8.8 0 0 0-.235-.582.8.8 0 0 0-.582-.235.8.8 0 0 0-.581.235.8.8 0 0 0-.236.582q0 .347.236.582a.8.8 0 0 0 .581.235m0 10.616a7.95 7.95 0 0 1-3.185-.643 8.2 8.2 0 0 1-2.593-1.745 8.2 8.2 0 0 1-1.745-2.593A7.95 7.95 0 0 1 5.833 14q0-1.695.644-3.185a8.2 8.2 0 0 1 1.745-2.593 8.3 8.3 0 0 1 2.593-1.746A8 8 0 0 1 14 5.834q1.695 0 3.185.643a8.3 8.3 0 0 1 2.593 1.746 8.2 8.2 0 0 1 1.745 2.593q.644 1.49.644 3.185c0 1.695-.215 2.191-.644 3.185a8.2 8.2 0 0 1-1.745 2.593 8.2 8.2 0 0 1-2.593 1.745 7.95 7.95 0 0 1-3.185.643"/></svg>