<svg xmlns="http://www.w3.org/2000/svg" width="28" height="28" fill="none"><rect width="28" height="28" fill="#08C" rx="8"/><path fill="#fff" fill-rule="evenodd" d="M10.023 15.205a2.77 2.77 0 0 1 2.77 2.77c0 1.53-.814 2.82-2.77 3.414q-1.956.595-4.472-1.292 1.608-.375 1.697-1.934l.006-.188a2.77 2.77 0 0 1 2.77-2.77Zm2.76-2.899 5.8-5.8c.66-.66 1.761-.63 2.459.067.659.658.722 1.677.17 2.345l-.103.114-5.8 5.8c-.661.66-1.309 1.084-2.46-.067-1.106-1.106-.758-1.748-.142-2.383l5.876-5.876z" clip-rule="evenodd"/></svg>