<svg xmlns="http://www.w3.org/2000/svg" width="28" height="28" fill="none"><rect width="28" height="28" fill="#586FEB" rx="8"/><path fill="#fff" d="M14 22.167a7.9 7.9 0 0 1-3.165-.643 8.3 8.3 0 0 1-2.602-1.756 8.3 8.3 0 0 1-1.756-2.603 7.9 7.9 0 0 1-.644-3.164q0-1.695.644-3.175a8.3 8.3 0 0 1 1.756-2.593 8.3 8.3 0 0 1 2.602-1.756A7.9 7.9 0 0 1 14 5.834q1.695 0 3.174.643a8.3 8.3 0 0 1 4.349 4.35q.644 1.479.644 3.174 0 1.674-.644 3.164a8.3 8.3 0 0 1-1.756 2.603 8.3 8.3 0 0 1-2.593 1.756 7.9 7.9 0 0 1-3.174.643m0-1.674q.53-.735.919-1.531.388-.796.633-1.695h-3.104a9.7 9.7 0 0 0 1.553 3.226Zm-2.123-.326a11 11 0 0 1-.643-1.4 12 12 0 0 1-.46-1.5H8.365a6.8 6.8 0 0 0 1.48 1.777 5.9 5.9 0 0 0 2.032 1.122Zm4.246 0a5.9 5.9 0 0 0 2.031-1.123 6.8 6.8 0 0 0 1.481-1.777h-2.41a12 12 0 0 1-.458 1.5q-.276.725-.644 1.4m-8.452-4.533h2.777a12 12 0 0 1-.093-.807 11 11 0 0 1 .093-2.46H7.67A6.5 6.5 0 0 0 7.467 14a6.5 6.5 0 0 0 .204 1.634m4.41 0h3.838a11 11 0 0 0 .092-2.46q-.03-.398-.092-.807h-3.838a11 11 0 0 0-.123 1.634 11 11 0 0 0 .123 1.633m5.472 0h2.776a6.6 6.6 0 0 0 .204-1.633 6.6 6.6 0 0 0-.204-1.634h-2.776a11 11 0 0 1 .122 1.634 10.6 10.6 0 0 1-.122 1.633m-.327-4.9h2.41a6.8 6.8 0 0 0-1.482-1.776 5.9 5.9 0 0 0-2.03-1.123 11.5 11.5 0 0 1 1.102 2.899m-4.778 0h3.104a9.7 9.7 0 0 0-.633-1.695A10.4 10.4 0 0 0 14 7.51q-.53.735-.919 1.53a9.7 9.7 0 0 0-.633 1.695Zm-4.083 0h2.41q.183-.776.459-1.501t.643-1.398a5.9 5.9 0 0 0-2.032 1.123 6.8 6.8 0 0 0-1.48 1.776"/></svg>