<svg xmlns="http://www.w3.org/2000/svg" width="28" height="28" fill="none"><rect width="28" height="28" fill="#08C" rx="8"/><path fill="#fff" fill-rule="evenodd" d="M6.337 13.852q6.123-2.667 8.165-3.517c3.888-1.617 4.696-1.898 5.222-1.907.116-.002.375.026.543.163a.6.6 0 0 1 .199.379c.018.109.042.357.023.55-.21 2.215-1.122 7.587-1.586 10.066-.196 1.05-.583 1.401-.957 1.436-.813.074-1.43-.538-2.218-1.054-1.232-.808-1.928-1.31-3.124-2.099-1.382-.91-.486-1.411.302-2.23.206-.213 3.788-3.472 3.857-3.767.009-.037.017-.175-.065-.248-.082-.072-.203-.048-.29-.028q-.185.043-5.905 3.903-.838.575-1.518.561c-.5-.01-1.462-.282-2.176-.515-.877-.285-1.574-.436-1.513-.92q.046-.378 1.041-.773" clip-rule="evenodd"/></svg>