<svg xmlns="http://www.w3.org/2000/svg" width="28" height="28" fill="none"><rect width="28" height="28" fill="#08C" rx="8"/><path fill="#fff" d="M9.446 23q-.675 0-1.155-.48t-.48-1.156V6.636q0-.675.48-1.155T9.446 5h4.91q.347 0 .583.236a.8.8 0 0 1 .235.582v.005a.8.8 0 0 1-.236.583.8.8 0 0 1-.583.235H9.746a.3.3 0 0 0-.3.3V21.06a.3.3 0 0 0 .3.3h7.582a.3.3 0 0 0 .3-.3v-2.97a.8.8 0 0 1 .236-.582.8.8 0 0 1 .582-.235.8.8 0 0 1 .584.235.8.8 0 0 1 .235.583v3.273q0 .675-.48 1.156t-1.157.48zm8.182-10.473V7.455a.8.8 0 0 1 .236-.583.8.8 0 0 1 .582-.236.8.8 0 0 1 .584.236.8.8 0 0 1 .235.583v5.072l1.554-1.554a.78.78 0 0 1 .573-.225q.348 0 .573.225.225.224.225.572a.78.78 0 0 1-.225.573l-2.946 2.946a.8.8 0 0 1-.573.245.8.8 0 0 1-.572-.245l-2.946-2.946a.78.78 0 0 1-.225-.572q0-.348.225-.573a.78.78 0 0 1 .573-.225q.348 0 .573.225z"/></svg>
