<svg xmlns="http://www.w3.org/2000/svg" width="28" height="28" fill="none"><rect width="28" height="28" fill="#F35B5B" rx="8"/><path fill="#fff" d="M7.583 14c0 .217.085.425.235.578s.355.24.568.24h6.087l-1.845 1.87a.82.82 0 0 0-.237.58.83.83 0 0 0 .498.758.79.79 0 0 0 .879-.18l3.208-3.266a.8.8 0 0 0 .168-.27.83.83 0 0 0 0-.62.8.8 0 0 0-.168-.27l-3.208-3.266a.8.8 0 0 0-.57-.24.8.8 0 0 0-.57.24.82.82 0 0 0-.235.58.83.83 0 0 0 .236.58l1.844 1.87H8.385a.8.8 0 0 0-.567.239.82.82 0 0 0-.235.578Zm10.428-8.166H9.99c-.639 0-1.25.258-1.702.718a2.47 2.47 0 0 0-.705 1.732v2.45c0 .216.085.424.235.577a.795.795 0 0 0 1.135 0 .82.82 0 0 0 .235-.577v-2.45c0-.217.084-.424.235-.578a.8.8 0 0 1 .567-.239h8.02c.213 0 .417.086.568.24.15.153.235.36.235.577v11.433a.82.82 0 0 1-.235.578.8.8 0 0 1-.567.239H9.99a.8.8 0 0 1-.567-.24.82.82 0 0 1-.235-.577v-2.45a.82.82 0 0 0-.235-.577.795.795 0 0 0-1.135 0 .82.82 0 0 0-.235.577v2.45c0 .65.254 1.273.705 1.732s1.063.718 1.702.718h8.02c.639 0 1.25-.258 1.702-.718s.705-1.082.705-1.732V8.284c0-.65-.254-1.273-.705-1.732a2.38 2.38 0 0 0-1.701-.718"/></svg>