<svg xmlns="http://www.w3.org/2000/svg" width="28" height="28" fill="none"><g clip-path="url(#a)"><path fill="url(#b)" d="M0 12.8c0-4.48 0-6.72.872-8.432A8 8 0 0 1 4.368.872C6.08 0 8.32 0 12.8 0h2.4c4.48 0 6.72 0 8.432.872a8 8 0 0 1 3.496 3.496C28 6.08 28 8.32 28 12.8v2.4c0 4.48 0 6.72-.872 8.432a8 8 0 0 1-3.496 3.496C21.92 28 19.68 28 15.2 28h-2.4c-4.48 0-6.72 0-8.432-.872a8 8 0 0 1-3.496-3.496C0 21.92 0 19.68 0 15.2z"/><circle cx="14" cy="14" r="12" fill="url(#c)"/><path fill="url(#d)" d="M24.139 9.733A11 11 0 1 0 3.86 18.268a11 11 0 0 0 20.28-8.535m-.932 8.74-.488-1.284 1.2-.642a10 10 0 0 1-.712 1.927zM4.159 16.565l1.186.635-.481 1.267a10 10 0 0 1-.705-1.902M3.833 14q0-.499.047-.986l.909 1.007-.905 1.005q-.05-.507-.051-1.026m1.023-4.45.49 1.296-1.204.644c.171-.67.41-1.32.714-1.94m19.071 1.934-1.21-.65.494-1.302c.305.624.545 1.278.716 1.952M17.992 20.9l-.954-.645q.453-.22.87-.503zm-2.579.908-.645-.91q.484-.052.957-.169zm-2.748.033-.32-1.11q.504.124 1.021.173zm-.62.587-1.432.881-.5-1.537 1.457-.985zm-1.97-1.546.083-1.128q.41.278.855.493zm0-13.746.918.624q-.435.215-.835.488zm2.59-.964.687.924q-.507.05-1.001.17zm2.747.033.306 1.064a7 7 0 0 0-.937-.165zm.605-.641 1.433-.888.501 1.552-1.457.994zm1.971 1.555-.082 1.125a7 7 0 0 0-.847-.49zm-3.956 13.058A6.185 6.185 0 0 1 7.855 14a6.17 6.17 0 0 1 2.152-4.682.4.4 0 0 0 .123-.103 6.2 6.2 0 0 1 1.725-.995.4.4 0 0 0 .124-.046 6.17 6.17 0 0 1 6.032 1.108A6.17 6.17 0 0 1 20.21 14a6.184 6.184 0 0 1-6.177 6.177M7.12 14.555l-1.107-.531 1.102-.53a7 7 0 0 0 .003 1.06zm13.832-1.07 1.102.529-1.105.53q.02-.268.02-.544a8 8 0 0 0-.02-.516zm-.575-2.294 1.091.096-.767.795a7 7 0 0 0-.324-.891M19.01 9.17l1.111-.278-.456 1.057a7 7 0 0 0-.655-.78zm-4.937-2.377L13.02 5.38 14 4.077l1.063 1.306zm-2.501.446-1.458-.996.5-1.55 1.433.886zM8.397 9.958l-.453-1.053 1.104.276q-.354.363-.651.773zm-1.036 2.137-.765-.8 1.087-.095q-.192.434-.322.891zM5.738 11.5l1.195 1.242-1.591.76-1.09-1.21zm-.396 3.041 1.59.764-1.196 1.242-1.487-.795zm2.03 1.4q.134.465.333.907l-1.111-.099zm1.71 2.918-1.14.286.466-1.084q.307.425.675.798m4.99 2.37.99 1.396-1.061 1.297-.982-1.293zm2.422-.426 1.456.986-.499 1.537-1.432-.88zm3.166-2.746.463 1.078-1.133-.284a7 7 0 0 0 .67-.794m1.036-2.122.775.805-1.106.098q.198-.44.331-.905zm1.635.601-1.195-1.242 1.59-.763 1.091 1.21zm.392-3.044-1.591-.764 1.195-1.241 1.485.795zm-.718-2.922-1.717-.152.698-1.62 1.618.196zm-1.68-2.512-1.672.418.129-1.759 1.59-.343zM15.649 4.9l-.877-1.078c.69.05 1.375.169 2.04.357zm-3.232.017-1.18-.73a10 10 0 0 1 2-.36zm-3.003 3.57L7.742 8.07l-.05-1.684 1.593.344zM7.08 8.81l.697 1.62-1.717.152-.6-1.576zm-1.026 8.654 1.717.152-.696 1.62-1.618-.197zm1.684 2.511 1.672-.418-.129 1.759-1.593.344zm4.678 3.114.82 1.083a10 10 0 0 1-1.997-.357zm3.232.017 1.16.714c-.666.188-1.348.307-2.038.356zm3.004-3.56 1.672.42.049 1.685-1.593-.344zm2.336-.322-.698-1.62 1.717-.152.598 1.576zm2.287-5.215.916-1.016a10.4 10.4 0 0 1-.002 2.03zm-.84-5.798-1.353-.164.04-1.383c.488.471.928.99 1.313 1.547M19.95 5.688l-1.287.279-.405-1.256q.893.407 1.692.977M9.81 4.713l-.408 1.264-1.293-.279a10 10 0 0 1 1.7-.985m-2.868 1.96.04 1.382-1.351.165q.58-.839 1.31-1.547M5.666 19.828l1.314.159-.04 1.338a10.3 10.3 0 0 1-1.274-1.495zm2.492 2.51 1.253-.27.396 1.22a10 10 0 0 1-1.649-.95m10.103.952.402-1.23 1.26.27c-.522.37-1.079.692-1.662.958zm2.866-1.956-.04-1.356 1.332-.161q-.572.82-1.292 1.517"/><path fill="url(#e)" fill-rule="evenodd" d="M15.2.6h-2.4c-2.25 0-3.902 0-5.206.107-1.296.106-2.197.314-2.954.7A7.4 7.4 0 0 0 1.407 4.64c-.386.757-.594 1.658-.7 2.954C.6 8.898.6 10.55.6 12.8v2.4c0 2.25 0 3.902.107 5.206.106 1.296.314 2.197.7 2.954a7.4 7.4 0 0 0 3.233 3.233c.757.386 1.658.594 2.954.7 1.304.107 2.956.107 5.206.107h2.4c2.25 0 3.902 0 5.206-.107 1.296-.106 2.197-.314 2.954-.7a7.4 7.4 0 0 0 3.233-3.233c.386-.757.594-1.658.7-2.954.107-1.304.107-2.956.107-5.206v-2.4c0-2.25 0-3.902-.107-5.206-.106-1.296-.314-2.197-.7-2.954a7.4 7.4 0 0 0-3.233-3.233c-.757-.386-1.658-.594-2.954-.7C19.102.6 17.45.6 15.2.6M.872 4.368C0 6.08 0 8.32 0 12.8v2.4c0 4.48 0 6.72.872 8.432a8 8 0 0 0 3.496 3.496C6.08 28 8.32 28 12.8 28h2.4c4.48 0 6.72 0 8.432-.872a8 8 0 0 0 3.496-3.496C28 21.92 28 19.68 28 15.2v-2.4c0-4.48 0-6.72-.872-8.432A8 8 0 0 0 23.632.872C21.92 0 19.68 0 15.2 0h-2.4C8.32 0 6.08 0 4.368.872A8 8 0 0 0 .872 4.368" clip-rule="evenodd"/></g><defs><linearGradient id="b" x1="14" x2="14" y1="0" y2="28" gradientUnits="userSpaceOnUse"><stop stop-color="#fff"/><stop offset="1" stop-color="#E6EFF6"/></linearGradient><linearGradient id="c" x1="14" x2="14" y1="2" y2="26" gradientUnits="userSpaceOnUse"><stop stop-color="#629CE6"/><stop offset=".5" stop-color="#3F79CF"/><stop offset="1" stop-color="#2E74B5"/></linearGradient><linearGradient id="d" x1="14" x2="14" y1="0" y2="28" gradientUnits="userSpaceOnUse"><stop stop-color="#fff"/><stop offset="1" stop-color="#E6EFF6"/></linearGradient><linearGradient id="e" x1="14" x2="14" y1="0" y2="28" gradientUnits="userSpaceOnUse"><stop stop-color="#DFE7F0"/><stop offset="1" stop-color="#C7D1DD"/></linearGradient><clipPath id="a"><path fill="#fff" d="M0 0h28v28H0z"/></clipPath></defs></svg>