<svg xmlns="http://www.w3.org/2000/svg" width="28" height="28" fill="none"><rect width="28" height="28" fill="#1EC160" rx="8"/><path fill="#fff" d="M9.857 9.2c.473 0 .857.384.857.857v1.672a.857.857 0 1 1-1.714 0v-1.672c0-.473.384-.857.857-.857m8.286 0c.473 0 .857.384.857.857v1.672a.857.857 0 1 1-1.714 0v-1.672c0-.473.384-.857.857-.857M14 9.2c.473 0 .857.384.857.857v4.502a.857.857 0 0 1-.857.857h-1.175a.857.857 0 0 1 0-1.714h.318v-3.645c0-.473.384-.857.857-.857m-4.015 7.878a.857.857 0 0 1 1.211-.032 4.07 4.07 0 0 0 5.608 0 .857.857 0 1 1 1.18 1.243 5.785 5.785 0 0 1-7.968 0 .857.857 0 0 1-.031-1.212"/><path fill="#fff" fill-rule="evenodd" d="M20.642 5.534c-.412-.033-.944-.034-1.712-.034h-.18a.75.75 0 0 1 0-1.5h.212c.729 0 1.322 0 1.802.04.497.04.94.126 1.352.336a3.45 3.45 0 0 1 1.508 1.508c.21.412.296.855.337 1.352.039.48.039 1.073.039 1.802v.212a.75.75 0 0 1-1.5 0v-.18c0-.768 0-1.3-.034-1.712-.033-.404-.094-.628-.178-.793a1.95 1.95 0 0 0-.853-.852c-.165-.085-.389-.146-.793-.179m0 16.932c-.412.033-.944.034-1.712.034h-.18a.75.75 0 0 0 0 1.5h.212c.729 0 1.322 0 1.802-.04.497-.04.94-.126 1.352-.336a3.45 3.45 0 0 0 1.508-1.508c.21-.412.296-.855.337-1.352.039-.48.039-1.073.039-1.802v-.212a.75.75 0 0 0-1.5 0v.18c0 .768 0 1.3-.034 1.712-.033.404-.094.628-.178.793a1.95 1.95 0 0 1-.853.853c-.165.084-.389.145-.793.178M7.358 5.534c.412-.033.944-.034 1.712-.034h.18a.75.75 0 0 0 0-1.5h-.212c-.729 0-1.322 0-1.802.04-.497.04-.94.126-1.352.336a3.45 3.45 0 0 0-1.508 1.508c-.21.412-.296.855-.337 1.352C4 7.716 4 8.309 4 9.038v.212a.75.75 0 0 0 1.5 0v-.18c0-.768 0-1.3.034-1.712.033-.404.094-.628.179-.793a1.95 1.95 0 0 1 .852-.852c.165-.085.389-.146.793-.179m0 16.932c.412.033.944.034 1.712.034h.18a.75.75 0 0 1 0 1.5h-.212c-.729 0-1.322 0-1.802-.04-.497-.04-.94-.126-1.352-.336a3.45 3.45 0 0 1-1.508-1.508c-.21-.412-.296-.855-.337-1.352C4 20.284 4 19.691 4 18.962v-.212a.75.75 0 0 1 1.5 0v.18c0 .768 0 1.3.034 1.712.033.404.094.628.179.793.186.367.485.666.852.853.165.084.389.145.793.178" clip-rule="evenodd" opacity=".5"/></svg>