<svg xmlns="http://www.w3.org/2000/svg" width="28" height="28" fill="none"><rect width="28" height="28" fill="#F90" rx="8"/><path fill="#fff" fill-rule="evenodd" d="M19.269 6.758c1.6 0 2.896 1.297 2.896 2.896v7.724a.965.965 0 0 1-.965.966H6.717a.966.966 0 0 1-.965-.966V9.654c0-1.6 1.296-2.896 2.896-2.896zM4.828 19.363h18.197a.966.966 0 0 1 .112 1.925l-.113.006H4.828a.966.966 0 0 1-.112-1.924zM8.648 8.69h10.62c.534 0 .966.432.966.965v6.76H7.683v-6.76c0-.533.432-.965.965-.965" clip-rule="evenodd"/></svg>