<svg width="28" height="28" fill="none" xmlns="http://www.w3.org/2000/svg"><rect width="28" height="28" rx="8" fill="#1EC160"/><path d="M9.446 23c-.45 0-.835-.16-1.155-.48-.32-.32-.48-.706-.48-1.156V6.636c0-.45.16-.835.48-1.155.32-.32.706-.48 1.155-.481h4.91c.231 0 .426.079.583.236a.789.789 0 0 1 .235.582v.005a.793.793 0 0 1-.236.583.789.789 0 0 1-.583.235H9.746a.3.3 0 0 0-.3.3V21.06a.3.3 0 0 0 .3.3h7.582a.3.3 0 0 0 .3-.3v-2.97a.79.79 0 0 1 .236-.582.796.796 0 0 1 .582-.235.79.79 0 0 1 .584.235.786.786 0 0 1 .235.583v3.273c0 .45-.16.835-.48 1.156-.32.32-.706.48-1.157.48H9.446Zm8.182-10.473V7.455a.79.79 0 0 1 .236-.583.795.795 0 0 1 .582-.236.79.79 0 0 1 .584.236.786.786 0 0 1 .235.583v5.072l1.554-1.554a.776.776 0 0 1 .573-.225c.232 0 .423.075.573.225.15.15.225.34.225.572a.776.776 0 0 1-.225.573l-2.946 2.946a.785.785 0 0 1-.573.245.785.785 0 0 1-.572-.245l-2.946-2.946a.776.776 0 0 1-.225-.572c0-.232.075-.423.225-.573.15-.15.341-.225.573-.225.232 0 .423.075.573.225l1.554 1.554Z" fill="#fff"/></svg>