<svg width="28" height="28" fill="none" xmlns="http://www.w3.org/2000/svg"><rect width="28" height="28" rx="8" fill="#F90"/><path d="M14.67 18.76a.958.958 0 0 1 0 1.36l-.475.474a4.801 4.801 0 0 1-6.789-6.788l1.93-1.928a4.8 4.8 0 0 1 6.585-.198.964.964 0 0 1-1.28 1.44 2.88 2.88 0 0 0-3.949.117l-1.928 1.925a2.88 2.88 0 1 0 4.073 4.073l.476-.475a.96.96 0 0 1 1.358 0Zm5.926-11.356a4.807 4.807 0 0 0-6.79 0l-.474.475a.961.961 0 1 0 1.36 1.36l.475-.476a2.88 2.88 0 0 1 4.073 4.072l-1.929 1.93a2.88 2.88 0 0 1-3.95.114.963.963 0 0 0-1.28 1.439 4.8 4.8 0 0 0 6.584-.194l1.929-1.928a4.805 4.805 0 0 0 .002-6.79v-.002Z" fill="#fff"/></svg>