<svg width="40" height="40" viewBox="0 0 40 40" fill="none" xmlns="http://www.w3.org/2000/svg">
<path d="M28.2354 28.1357C27.8896 28.4814 27.4648 28.6543 26.9609 28.6543C26.4629 28.6543 26.0469 28.4814 25.7129 28.1357L13.0303 15.3564C12.6904 15.0107 12.5205 14.5918 12.5205 14.0996C12.5205 13.6016 12.6904 13.1768 13.0303 12.8252C13.376 12.4854 13.7979 12.3154 14.2959 12.3154C14.7998 12.3154 15.2217 12.4854 15.5615 12.8252L28.2354 25.6133C28.5811 25.959 28.7539 26.3779 28.7539 26.8701C28.7539 27.3682 28.5811 27.79 28.2354 28.1357ZM27.3037 27.1953C27.4209 27.0898 27.4766 26.958 27.4707 26.7998C27.4707 26.6475 27.415 26.5156 27.3037 26.4043L18.6992 17.7734L17.9258 18.582L26.5039 27.1953C26.6211 27.3066 26.7559 27.3623 26.9082 27.3623C27.0664 27.3623 27.1982 27.3066 27.3037 27.1953ZM24.7725 18.0195C24.6611 18.0195 24.5645 17.9844 24.4824 17.9141C24.4004 17.8379 24.3506 17.7441 24.333 17.6328C24.21 16.918 24.0752 16.3467 23.9287 15.9189C23.7881 15.4912 23.5947 15.1602 23.3486 14.9258C23.1084 14.6914 22.7803 14.5127 22.3643 14.3896C21.9482 14.2607 21.4033 14.1377 20.7295 14.0205C20.4541 13.9678 20.3164 13.8125 20.3164 13.5547C20.3164 13.2852 20.4541 13.1387 20.7295 13.1152C21.4326 13.0215 21.998 12.9102 22.4258 12.7812C22.8594 12.6523 23.1992 12.4648 23.4453 12.2188C23.6914 11.9727 23.8789 11.6357 24.0078 11.208C24.1367 10.7744 24.2451 10.209 24.333 9.51172C24.3623 9.23633 24.5088 9.09863 24.7725 9.09863C25.0186 9.09863 25.1709 9.23633 25.2295 9.51172C25.3467 10.2207 25.4756 10.7949 25.6162 11.2344C25.7568 11.668 25.9473 12.0078 26.1875 12.2539C26.4277 12.4941 26.7559 12.6758 27.1719 12.7988C27.5879 12.9219 28.1387 13.0273 28.8242 13.1152C29.1055 13.1387 29.2461 13.2852 29.2461 13.5547C29.2461 13.8242 29.1055 13.9795 28.8242 14.0205C28.1152 14.1084 27.5439 14.2168 27.1104 14.3457C26.6826 14.4688 26.3486 14.6533 26.1084 14.8994C25.8682 15.1455 25.6836 15.4883 25.5547 15.9277C25.4316 16.3613 25.3232 16.9297 25.2295 17.6328C25.2119 17.7441 25.1592 17.8379 25.0713 17.9141C24.9893 17.9844 24.8896 18.0195 24.7725 18.0195ZM12.626 25.3145C12.4268 25.3145 12.3066 25.2061 12.2656 24.9893C12.2129 24.5791 12.1602 24.2598 12.1074 24.0312C12.0605 23.7969 11.9756 23.6211 11.8525 23.5039C11.7354 23.3867 11.5508 23.2959 11.2988 23.2314C11.0527 23.167 10.71 23.0938 10.2705 23.0117C10.0654 22.9648 9.96289 22.8447 9.96289 22.6514C9.96289 22.4404 10.0771 22.3203 10.3057 22.291C10.7393 22.2207 11.0762 22.1533 11.3164 22.0889C11.5566 22.0244 11.7354 21.9336 11.8525 21.8164C11.9697 21.6992 12.0547 21.5234 12.1074 21.2891C12.1602 21.0547 12.2129 20.7295 12.2656 20.3135C12.3008 20.085 12.4209 19.9707 12.626 19.9707C12.8428 19.9707 12.9629 20.082 12.9863 20.3047C13.0449 20.7148 13.1006 21.0371 13.1533 21.2715C13.2061 21.5 13.291 21.6729 13.4082 21.79C13.5254 21.9072 13.707 22.001 13.9531 22.0713C14.1992 22.1357 14.542 22.209 14.9814 22.291C15.1982 22.3262 15.3066 22.4463 15.3066 22.6514C15.3066 22.8506 15.1982 22.9707 14.9814 23.0117C14.5479 23.0703 14.208 23.1289 13.9619 23.1875C13.7158 23.2402 13.5312 23.3281 13.4082 23.4512C13.291 23.5684 13.2031 23.7471 13.1445 23.9873C13.0918 24.2275 13.0391 24.5615 12.9863 24.9893C12.9629 25.2061 12.8428 25.3145 12.626 25.3145ZM15.7725 28.0918C15.6377 28.0918 15.5586 28.0186 15.5352 27.8721C15.4766 27.5439 15.4209 27.3096 15.3682 27.1689C15.3154 27.0283 15.2129 26.9287 15.0605 26.8701C14.9082 26.8115 14.6562 26.7441 14.3047 26.668C14.1699 26.6328 14.1025 26.5596 14.1025 26.4482C14.1025 26.3252 14.1758 26.2461 14.3223 26.2109C14.6738 26.1406 14.9229 26.0762 15.0693 26.0176C15.2158 25.959 15.3154 25.8564 15.3682 25.71C15.4209 25.5635 15.4766 25.3232 15.5352 24.9893C15.5586 24.8486 15.6377 24.7783 15.7725 24.7783C15.9014 24.7783 15.9775 24.8486 16.001 24.9893C16.0654 25.3232 16.124 25.5635 16.1768 25.71C16.2354 25.8564 16.3379 25.9561 16.4844 26.0088C16.6367 26.0674 16.8857 26.1348 17.2314 26.2109C17.3604 26.2344 17.4248 26.3135 17.4248 26.4482C17.4248 26.5596 17.3574 26.6328 17.2227 26.668C16.877 26.7441 16.6309 26.8115 16.4844 26.8701C16.3379 26.9287 16.2354 27.0283 16.1768 27.1689C16.124 27.3154 16.0654 27.5527 16.001 27.8809C15.9775 28.0215 15.9014 28.0918 15.7725 28.0918Z" fill="white"/>
</svg>
