<svg width="40" height="40" viewBox="0 0 40 40" fill="none" xmlns="http://www.w3.org/2000/svg">
<path d="M19.9883 31.46C19.8633 31.46 19.7305 31.4561 19.5898 31.4483C19.457 31.4405 19.3281 31.4327 19.2031 31.4249L18.5703 32.6085C18.4766 32.7725 18.3516 32.8936 18.1953 32.9717C18.0469 33.0577 17.8789 33.085 17.6914 33.0538C17.5039 33.0147 17.3516 32.9327 17.2344 32.8077C17.1172 32.6905 17.0469 32.5342 17.0234 32.3389L16.8359 31.0147C16.2969 30.8585 15.7969 30.6749 15.3359 30.4639L14.3398 31.3546C14.1992 31.4874 14.043 31.5655 13.8711 31.5889C13.6992 31.6124 13.5312 31.5733 13.3672 31.4717C13.2031 31.378 13.0859 31.2491 13.0156 31.085C12.9531 30.9288 12.9414 30.7569 12.9805 30.5694L13.25 29.2803C13.0469 29.1241 12.8398 28.96 12.6289 28.7881C12.4258 28.6163 12.2266 28.4327 12.0312 28.2374L10.8008 28.7413C10.418 28.8897 10.0977 28.8116 9.83984 28.5069C9.72266 28.3663 9.65625 28.21 9.64062 28.0381C9.63281 27.8663 9.67969 27.6983 9.78125 27.5342L10.4961 26.4092C10.3477 26.1905 10.207 25.9678 10.0742 25.7413C9.94141 25.5069 9.81641 25.2686 9.69922 25.0264L8.36328 25.0616C8.17578 25.0694 8.00781 25.0303 7.85938 24.9444C7.71875 24.8506 7.61328 24.7139 7.54297 24.5342C7.48828 24.3546 7.48047 24.1827 7.51953 24.0186C7.56641 23.8546 7.66797 23.71 7.82422 23.585L8.87891 22.7764C8.81641 22.5108 8.76172 22.2491 8.71484 21.9913C8.66797 21.7335 8.62891 21.4678 8.59766 21.1944L7.33203 20.7842C7.14453 20.7296 7 20.6319 6.89844 20.4913C6.79688 20.3506 6.74609 20.1866 6.74609 19.9991C6.74609 19.8038 6.79688 19.6397 6.89844 19.5069C7 19.3663 7.14453 19.2686 7.33203 19.2139L8.59766 18.8038C8.62891 18.5303 8.66797 18.2647 8.71484 18.0069C8.76172 17.7491 8.81641 17.4874 8.87891 17.2217L7.82422 16.4014C7.49609 16.1436 7.40625 15.8311 7.55469 15.4639C7.61719 15.2921 7.71875 15.1592 7.85938 15.0655C8.00781 14.9639 8.17969 14.9171 8.375 14.9249L9.69922 14.9717C9.81641 14.7296 9.94141 14.4952 10.0742 14.2686C10.207 14.0342 10.3477 13.8077 10.4961 13.5889L9.79297 12.4639C9.56641 12.1124 9.58203 11.7881 9.83984 11.4913C9.97266 11.3428 10.1211 11.2491 10.2852 11.21C10.4492 11.1631 10.6211 11.1749 10.8008 11.2452L12.0312 11.7491C12.2266 11.5694 12.4258 11.3936 12.6289 11.2217C12.832 11.0499 13.0391 10.8858 13.25 10.7296L12.9922 9.41705C12.9453 9.22955 12.9531 9.05768 13.0156 8.90143C13.0859 8.73737 13.2031 8.61237 13.3672 8.52643C13.5312 8.43268 13.6992 8.39362 13.8711 8.40924C14.0508 8.42487 14.2109 8.49908 14.3516 8.6319L15.3359 9.53424C15.5703 9.42487 15.8125 9.3233 16.0625 9.22955C16.3125 9.1358 16.5703 9.04987 16.8359 8.97174L17.0352 7.64752C17.0586 7.46002 17.125 7.30377 17.2344 7.17877C17.3516 7.05377 17.5078 6.97565 17.7031 6.9444C17.8828 6.91315 18.0508 6.93658 18.207 7.01471C18.3633 7.08502 18.4844 7.21002 18.5703 7.38971L19.2031 8.56158C19.3281 8.55377 19.457 8.54987 19.5898 8.54987C19.7305 8.54205 19.8633 8.53815 19.9883 8.53815C20.1289 8.53815 20.2656 8.54205 20.3984 8.54987C20.5312 8.54987 20.6641 8.55377 20.7969 8.56158L21.4297 7.37799C21.5234 7.21393 21.6445 7.09283 21.793 7.01471C21.9414 6.92877 22.1133 6.90533 22.3086 6.9444C22.4883 6.98346 22.6367 7.06549 22.7539 7.19049C22.8711 7.30768 22.9414 7.46002 22.9648 7.64752L23.1523 8.97174C23.4102 9.04987 23.6641 9.1358 23.9141 9.22955C24.1719 9.31549 24.418 9.41315 24.6523 9.52252L25.6484 8.64362C25.7969 8.5108 25.9531 8.43268 26.1172 8.40924C26.2891 8.3858 26.4609 8.42487 26.6328 8.52643C26.7969 8.62018 26.9102 8.74518 26.9727 8.90143C27.043 9.05768 27.0586 9.23346 27.0195 9.42877L26.7266 10.7178C26.9453 10.8741 27.1562 11.0381 27.3594 11.21C27.5625 11.3819 27.7617 11.5616 27.957 11.7491L29.1992 11.2569C29.582 11.1006 29.8984 11.1749 30.1484 11.4796C30.2734 11.628 30.3398 11.7881 30.3477 11.96C30.3555 12.1319 30.3086 12.2999 30.207 12.4639L29.5039 13.5772C29.6523 13.8038 29.793 14.0303 29.9258 14.2569C30.0586 14.4835 30.1836 14.7178 30.3008 14.96L31.625 14.9366C31.8203 14.9288 31.9883 14.9717 32.1289 15.0655C32.2773 15.1514 32.3828 15.2842 32.4453 15.4639C32.5078 15.6436 32.5156 15.8155 32.4688 15.9796C32.4297 16.1436 32.3281 16.2881 32.1641 16.4131L31.1094 17.2217C31.1797 17.4796 31.2344 17.7413 31.2734 18.0069C31.3203 18.2647 31.3594 18.5303 31.3906 18.8038L32.6562 19.2139C32.8438 19.2686 32.9883 19.3663 33.0898 19.5069C33.1992 19.6397 33.2539 19.8038 33.2539 19.9991C33.2539 20.1866 33.1992 20.3506 33.0898 20.4913C32.9883 20.6319 32.8438 20.7296 32.6562 20.7842L31.3906 21.1944C31.3594 21.4678 31.3203 21.7335 31.2734 21.9913C31.2344 22.2491 31.1797 22.5108 31.1094 22.7764L32.1758 23.5967C32.3242 23.7139 32.4219 23.8546 32.4688 24.0186C32.5234 24.1827 32.5156 24.3506 32.4453 24.5225C32.3828 24.7022 32.2773 24.8428 32.1289 24.9444C31.9883 25.0381 31.8203 25.0811 31.625 25.0733L30.3008 25.0264C30.1836 25.2608 30.0586 25.4952 29.9258 25.7296C29.793 25.9561 29.6523 26.1827 29.5039 26.4092L30.207 27.5342C30.3164 27.6983 30.3633 27.8663 30.3477 28.0381C30.3398 28.21 30.2734 28.3663 30.1484 28.5069C30.0234 28.6553 29.8789 28.7491 29.7148 28.7881C29.5508 28.835 29.375 28.8233 29.1875 28.753L27.957 28.2491C27.7695 28.4288 27.5703 28.6046 27.3594 28.7764C27.1562 28.9483 26.9453 29.1124 26.7266 29.2686L27.0078 30.5694C27.0469 30.7647 27.0352 30.9405 26.9727 31.0967C26.9102 31.253 26.793 31.378 26.6211 31.4717C26.457 31.5655 26.2852 31.6046 26.1055 31.5889C25.9336 31.5733 25.7812 31.4991 25.6484 31.3663L24.6523 30.4639C24.418 30.5733 24.1758 30.6749 23.9258 30.7686C23.6758 30.8624 23.418 30.9444 23.1523 31.0147L22.9648 32.3389C22.9414 32.5342 22.8711 32.6944 22.7539 32.8194C22.6367 32.9444 22.4844 33.0225 22.2969 33.0538C22.1094 33.0772 21.9375 33.0499 21.7812 32.9717C21.6328 32.9014 21.5117 32.7803 21.418 32.6085L20.7969 31.4249C20.6641 31.4327 20.5312 31.4405 20.3984 31.4483C20.2656 31.4561 20.1289 31.46 19.9883 31.46ZM19.9883 29.0928C21.2539 29.0928 22.4336 28.8585 23.5273 28.3897C24.6289 27.921 25.5977 27.2686 26.4336 26.4327C27.2695 25.5967 27.9219 24.6319 28.3906 23.5381C28.8594 22.4366 29.0938 21.2569 29.0938 19.9991C29.0938 18.7413 28.8594 17.5655 28.3906 16.4717C27.9219 15.3702 27.2695 14.4014 26.4336 13.5655C25.5977 12.7296 24.6289 12.0772 23.5273 11.6085C22.4336 11.1397 21.2539 10.9053 19.9883 10.9053C18.7383 10.9053 17.5625 11.1397 16.4609 11.6085C15.3594 12.0772 14.3906 12.7296 13.5547 13.5655C12.7266 14.4014 12.0742 15.3702 11.5977 16.4717C11.1289 17.5655 10.8945 18.7413 10.8945 19.9991C10.8945 21.2569 11.1289 22.4366 11.5977 23.5381C12.0742 24.6319 12.7266 25.5967 13.5547 26.4327C14.3906 27.2686 15.3594 27.921 16.4609 28.3897C17.5625 28.8585 18.7383 29.0928 19.9883 29.0928ZM17.7031 18.1006L13.8359 11.4796L15.6172 10.5538L19.3906 17.0342L17.7031 18.1006ZM22.8242 20.9835V18.9796H30.3477V20.9835H22.8242ZM19.3906 22.9874L15.4648 29.4327L13.7188 28.46L17.7266 21.8975L19.3906 22.9874ZM20 23.3272C19.3828 23.3272 18.8242 23.1788 18.3242 22.8819C17.8242 22.5772 17.4258 22.1749 17.1289 21.6749C16.832 21.1671 16.6836 20.6085 16.6836 19.9991C16.6836 19.3819 16.832 18.8233 17.1289 18.3233C17.4258 17.8233 17.8242 17.4249 18.3242 17.128C18.8242 16.8233 19.3828 16.671 20 16.671C20.6172 16.671 21.1758 16.8233 21.6758 17.128C22.1758 17.4249 22.5742 17.8233 22.8711 18.3233C23.1758 18.8233 23.3281 19.3819 23.3281 19.9991C23.3281 20.6085 23.1758 21.1671 22.8711 21.6749C22.5742 22.1749 22.1758 22.5772 21.6758 22.8819C21.1758 23.1788 20.6172 23.3272 20 23.3272ZM20 21.3233C20.3672 21.3233 20.6797 21.1944 20.9375 20.9366C21.2031 20.6788 21.3359 20.3663 21.3359 19.9991C21.3359 19.6319 21.2031 19.3194 20.9375 19.0616C20.6797 18.796 20.3672 18.6631 20 18.6631C19.6406 18.6631 19.3281 18.796 19.0625 19.0616C18.8047 19.3194 18.6758 19.6319 18.6758 19.9991C18.6758 20.3663 18.8047 20.6788 19.0625 20.9366C19.3281 21.1944 19.6406 21.3233 20 21.3233Z" fill="white"/>
</svg>
